%TF.GenerationSoftware,KiCad,Pcbnew,10.0.3*%
%TF.CreationDate,2026-06-10T22:21:09-07:00*%
%TF.ProjectId,master_gse_pcb_project,6d617374-6572-45f6-9773-655f7063625f,rev?*%
%TF.SameCoordinates,Original*%
%TF.FileFunction,Legend,Bot*%
%TF.FilePolarity,Positive*%
%FSLAX46Y46*%
G04 Gerber Fmt 4.6, Leading zero omitted, Abs format (unit mm)*
G04 Created by KiCad (PCBNEW 10.0.3) date 2026-06-10 22:21:09*
%MOMM*%
%LPD*%
G01*
G04 APERTURE LIST*
%ADD10C,0.200000*%
%ADD11C,0.152400*%
%ADD12C,0.120000*%
G04 APERTURE END LIST*
D10*
X34440326Y-43824918D02*
X34863660Y-43220156D01*
X35166041Y-43824918D02*
X35166041Y-42554918D01*
X35166041Y-42554918D02*
X34682231Y-42554918D01*
X34682231Y-42554918D02*
X34561279Y-42615394D01*
X34561279Y-42615394D02*
X34500802Y-42675870D01*
X34500802Y-42675870D02*
X34440326Y-42796822D01*
X34440326Y-42796822D02*
X34440326Y-42978251D01*
X34440326Y-42978251D02*
X34500802Y-43099203D01*
X34500802Y-43099203D02*
X34561279Y-43159680D01*
X34561279Y-43159680D02*
X34682231Y-43220156D01*
X34682231Y-43220156D02*
X35166041Y-43220156D01*
X33956517Y-43462061D02*
X33351755Y-43462061D01*
X34077469Y-43824918D02*
X33654136Y-42554918D01*
X33654136Y-42554918D02*
X33230802Y-43824918D01*
X32988898Y-42554918D02*
X32263184Y-42554918D01*
X32626041Y-43824918D02*
X32626041Y-42554918D01*
X31839851Y-43159680D02*
X31416517Y-43159680D01*
X31235089Y-43824918D02*
X31839851Y-43824918D01*
X31839851Y-43824918D02*
X31839851Y-42554918D01*
X31839851Y-42554918D02*
X31235089Y-42554918D01*
X30690803Y-43703965D02*
X30630326Y-43764442D01*
X30630326Y-43764442D02*
X30690803Y-43824918D01*
X30690803Y-43824918D02*
X30751279Y-43764442D01*
X30751279Y-43764442D02*
X30690803Y-43703965D01*
X30690803Y-43703965D02*
X30690803Y-43824918D01*
X30690803Y-43038727D02*
X30630326Y-43099203D01*
X30630326Y-43099203D02*
X30690803Y-43159680D01*
X30690803Y-43159680D02*
X30751279Y-43099203D01*
X30751279Y-43099203D02*
X30690803Y-43038727D01*
X30690803Y-43038727D02*
X30690803Y-43159680D01*
X35226517Y-45809071D02*
X35045088Y-45869547D01*
X35045088Y-45869547D02*
X34742707Y-45869547D01*
X34742707Y-45869547D02*
X34621755Y-45809071D01*
X34621755Y-45809071D02*
X34561279Y-45748594D01*
X34561279Y-45748594D02*
X34500802Y-45627642D01*
X34500802Y-45627642D02*
X34500802Y-45506690D01*
X34500802Y-45506690D02*
X34561279Y-45385737D01*
X34561279Y-45385737D02*
X34621755Y-45325261D01*
X34621755Y-45325261D02*
X34742707Y-45264785D01*
X34742707Y-45264785D02*
X34984612Y-45204309D01*
X34984612Y-45204309D02*
X35105564Y-45143832D01*
X35105564Y-45143832D02*
X35166041Y-45083356D01*
X35166041Y-45083356D02*
X35226517Y-44962404D01*
X35226517Y-44962404D02*
X35226517Y-44841451D01*
X35226517Y-44841451D02*
X35166041Y-44720499D01*
X35166041Y-44720499D02*
X35105564Y-44660023D01*
X35105564Y-44660023D02*
X34984612Y-44599547D01*
X34984612Y-44599547D02*
X34682231Y-44599547D01*
X34682231Y-44599547D02*
X34500802Y-44660023D01*
X33230802Y-45748594D02*
X33291278Y-45809071D01*
X33291278Y-45809071D02*
X33472707Y-45869547D01*
X33472707Y-45869547D02*
X33593659Y-45869547D01*
X33593659Y-45869547D02*
X33775088Y-45809071D01*
X33775088Y-45809071D02*
X33896040Y-45688118D01*
X33896040Y-45688118D02*
X33956517Y-45567166D01*
X33956517Y-45567166D02*
X34016993Y-45325261D01*
X34016993Y-45325261D02*
X34016993Y-45143832D01*
X34016993Y-45143832D02*
X33956517Y-44901928D01*
X33956517Y-44901928D02*
X33896040Y-44780975D01*
X33896040Y-44780975D02*
X33775088Y-44660023D01*
X33775088Y-44660023D02*
X33593659Y-44599547D01*
X33593659Y-44599547D02*
X33472707Y-44599547D01*
X33472707Y-44599547D02*
X33291278Y-44660023D01*
X33291278Y-44660023D02*
X33230802Y-44720499D01*
X32686517Y-45748594D02*
X32626040Y-45809071D01*
X32626040Y-45809071D02*
X32686517Y-45869547D01*
X32686517Y-45869547D02*
X32746993Y-45809071D01*
X32746993Y-45809071D02*
X32686517Y-45748594D01*
X32686517Y-45748594D02*
X32686517Y-45869547D01*
X32686517Y-45083356D02*
X32626040Y-45143832D01*
X32626040Y-45143832D02*
X32686517Y-45204309D01*
X32686517Y-45204309D02*
X32746993Y-45143832D01*
X32746993Y-45143832D02*
X32686517Y-45083356D01*
X32686517Y-45083356D02*
X32686517Y-45204309D01*
X30448897Y-45869547D02*
X31174612Y-45869547D01*
X30811755Y-45869547D02*
X30811755Y-44599547D01*
X30811755Y-44599547D02*
X30932707Y-44780975D01*
X30932707Y-44780975D02*
X31053659Y-44901928D01*
X31053659Y-44901928D02*
X31174612Y-44962404D01*
X29662707Y-44599547D02*
X29541754Y-44599547D01*
X29541754Y-44599547D02*
X29420802Y-44660023D01*
X29420802Y-44660023D02*
X29360326Y-44720499D01*
X29360326Y-44720499D02*
X29299850Y-44841451D01*
X29299850Y-44841451D02*
X29239373Y-45083356D01*
X29239373Y-45083356D02*
X29239373Y-45385737D01*
X29239373Y-45385737D02*
X29299850Y-45627642D01*
X29299850Y-45627642D02*
X29360326Y-45748594D01*
X29360326Y-45748594D02*
X29420802Y-45809071D01*
X29420802Y-45809071D02*
X29541754Y-45869547D01*
X29541754Y-45869547D02*
X29662707Y-45869547D01*
X29662707Y-45869547D02*
X29783659Y-45809071D01*
X29783659Y-45809071D02*
X29844135Y-45748594D01*
X29844135Y-45748594D02*
X29904612Y-45627642D01*
X29904612Y-45627642D02*
X29965088Y-45385737D01*
X29965088Y-45385737D02*
X29965088Y-45083356D01*
X29965088Y-45083356D02*
X29904612Y-44841451D01*
X29904612Y-44841451D02*
X29844135Y-44720499D01*
X29844135Y-44720499D02*
X29783659Y-44660023D01*
X29783659Y-44660023D02*
X29662707Y-44599547D01*
X28695088Y-45869547D02*
X28695088Y-44599547D01*
X28695088Y-45204309D02*
X27969373Y-45204309D01*
X27969373Y-45869547D02*
X27969373Y-44599547D01*
X27485564Y-45022880D02*
X26820326Y-45022880D01*
X26820326Y-45022880D02*
X27485564Y-45869547D01*
X27485564Y-45869547D02*
X26820326Y-45869547D01*
X34924136Y-46644176D02*
X34682231Y-46644176D01*
X34682231Y-46644176D02*
X34561279Y-46704652D01*
X34561279Y-46704652D02*
X34440326Y-46825604D01*
X34440326Y-46825604D02*
X34379850Y-47067509D01*
X34379850Y-47067509D02*
X34379850Y-47490842D01*
X34379850Y-47490842D02*
X34440326Y-47732747D01*
X34440326Y-47732747D02*
X34561279Y-47853700D01*
X34561279Y-47853700D02*
X34682231Y-47914176D01*
X34682231Y-47914176D02*
X34924136Y-47914176D01*
X34924136Y-47914176D02*
X35045088Y-47853700D01*
X35045088Y-47853700D02*
X35166041Y-47732747D01*
X35166041Y-47732747D02*
X35226517Y-47490842D01*
X35226517Y-47490842D02*
X35226517Y-47067509D01*
X35226517Y-47067509D02*
X35166041Y-46825604D01*
X35166041Y-46825604D02*
X35045088Y-46704652D01*
X35045088Y-46704652D02*
X34924136Y-46644176D01*
X33109850Y-47793223D02*
X33170326Y-47853700D01*
X33170326Y-47853700D02*
X33351755Y-47914176D01*
X33351755Y-47914176D02*
X33472707Y-47914176D01*
X33472707Y-47914176D02*
X33654136Y-47853700D01*
X33654136Y-47853700D02*
X33775088Y-47732747D01*
X33775088Y-47732747D02*
X33835565Y-47611795D01*
X33835565Y-47611795D02*
X33896041Y-47369890D01*
X33896041Y-47369890D02*
X33896041Y-47188461D01*
X33896041Y-47188461D02*
X33835565Y-46946557D01*
X33835565Y-46946557D02*
X33775088Y-46825604D01*
X33775088Y-46825604D02*
X33654136Y-46704652D01*
X33654136Y-46704652D02*
X33472707Y-46644176D01*
X33472707Y-46644176D02*
X33351755Y-46644176D01*
X33351755Y-46644176D02*
X33170326Y-46704652D01*
X33170326Y-46704652D02*
X33109850Y-46765128D01*
X32565565Y-47793223D02*
X32505088Y-47853700D01*
X32505088Y-47853700D02*
X32565565Y-47914176D01*
X32565565Y-47914176D02*
X32626041Y-47853700D01*
X32626041Y-47853700D02*
X32565565Y-47793223D01*
X32565565Y-47793223D02*
X32565565Y-47914176D01*
X32565565Y-47127985D02*
X32505088Y-47188461D01*
X32505088Y-47188461D02*
X32565565Y-47248938D01*
X32565565Y-47248938D02*
X32626041Y-47188461D01*
X32626041Y-47188461D02*
X32565565Y-47127985D01*
X32565565Y-47127985D02*
X32565565Y-47248938D01*
X30811755Y-47188461D02*
X30932707Y-47127985D01*
X30932707Y-47127985D02*
X30993184Y-47067509D01*
X30993184Y-47067509D02*
X31053660Y-46946557D01*
X31053660Y-46946557D02*
X31053660Y-46886080D01*
X31053660Y-46886080D02*
X30993184Y-46765128D01*
X30993184Y-46765128D02*
X30932707Y-46704652D01*
X30932707Y-46704652D02*
X30811755Y-46644176D01*
X30811755Y-46644176D02*
X30569850Y-46644176D01*
X30569850Y-46644176D02*
X30448898Y-46704652D01*
X30448898Y-46704652D02*
X30388422Y-46765128D01*
X30388422Y-46765128D02*
X30327945Y-46886080D01*
X30327945Y-46886080D02*
X30327945Y-46946557D01*
X30327945Y-46946557D02*
X30388422Y-47067509D01*
X30388422Y-47067509D02*
X30448898Y-47127985D01*
X30448898Y-47127985D02*
X30569850Y-47188461D01*
X30569850Y-47188461D02*
X30811755Y-47188461D01*
X30811755Y-47188461D02*
X30932707Y-47248938D01*
X30932707Y-47248938D02*
X30993184Y-47309414D01*
X30993184Y-47309414D02*
X31053660Y-47430366D01*
X31053660Y-47430366D02*
X31053660Y-47672271D01*
X31053660Y-47672271D02*
X30993184Y-47793223D01*
X30993184Y-47793223D02*
X30932707Y-47853700D01*
X30932707Y-47853700D02*
X30811755Y-47914176D01*
X30811755Y-47914176D02*
X30569850Y-47914176D01*
X30569850Y-47914176D02*
X30448898Y-47853700D01*
X30448898Y-47853700D02*
X30388422Y-47793223D01*
X30388422Y-47793223D02*
X30327945Y-47672271D01*
X30327945Y-47672271D02*
X30327945Y-47430366D01*
X30327945Y-47430366D02*
X30388422Y-47309414D01*
X30388422Y-47309414D02*
X30448898Y-47248938D01*
X30448898Y-47248938D02*
X30569850Y-47188461D01*
X29541755Y-46644176D02*
X29420802Y-46644176D01*
X29420802Y-46644176D02*
X29299850Y-46704652D01*
X29299850Y-46704652D02*
X29239374Y-46765128D01*
X29239374Y-46765128D02*
X29178898Y-46886080D01*
X29178898Y-46886080D02*
X29118421Y-47127985D01*
X29118421Y-47127985D02*
X29118421Y-47430366D01*
X29118421Y-47430366D02*
X29178898Y-47672271D01*
X29178898Y-47672271D02*
X29239374Y-47793223D01*
X29239374Y-47793223D02*
X29299850Y-47853700D01*
X29299850Y-47853700D02*
X29420802Y-47914176D01*
X29420802Y-47914176D02*
X29541755Y-47914176D01*
X29541755Y-47914176D02*
X29662707Y-47853700D01*
X29662707Y-47853700D02*
X29723183Y-47793223D01*
X29723183Y-47793223D02*
X29783660Y-47672271D01*
X29783660Y-47672271D02*
X29844136Y-47430366D01*
X29844136Y-47430366D02*
X29844136Y-47127985D01*
X29844136Y-47127985D02*
X29783660Y-46886080D01*
X29783660Y-46886080D02*
X29723183Y-46765128D01*
X29723183Y-46765128D02*
X29662707Y-46704652D01*
X29662707Y-46704652D02*
X29541755Y-46644176D01*
X28574136Y-47914176D02*
X28574136Y-46644176D01*
X28574136Y-47248938D02*
X27848421Y-47248938D01*
X27848421Y-47914176D02*
X27848421Y-46644176D01*
X27364612Y-47067509D02*
X26699374Y-47067509D01*
X26699374Y-47067509D02*
X27364612Y-47914176D01*
X27364612Y-47914176D02*
X26699374Y-47914176D01*
X53240326Y-43794918D02*
X53663660Y-43190156D01*
X53966041Y-43794918D02*
X53966041Y-42524918D01*
X53966041Y-42524918D02*
X53482231Y-42524918D01*
X53482231Y-42524918D02*
X53361279Y-42585394D01*
X53361279Y-42585394D02*
X53300802Y-42645870D01*
X53300802Y-42645870D02*
X53240326Y-42766822D01*
X53240326Y-42766822D02*
X53240326Y-42948251D01*
X53240326Y-42948251D02*
X53300802Y-43069203D01*
X53300802Y-43069203D02*
X53361279Y-43129680D01*
X53361279Y-43129680D02*
X53482231Y-43190156D01*
X53482231Y-43190156D02*
X53966041Y-43190156D01*
X52756517Y-43432061D02*
X52151755Y-43432061D01*
X52877469Y-43794918D02*
X52454136Y-42524918D01*
X52454136Y-42524918D02*
X52030802Y-43794918D01*
X51788898Y-42524918D02*
X51063184Y-42524918D01*
X51426041Y-43794918D02*
X51426041Y-42524918D01*
X50639851Y-43129680D02*
X50216517Y-43129680D01*
X50035089Y-43794918D02*
X50639851Y-43794918D01*
X50639851Y-43794918D02*
X50639851Y-42524918D01*
X50639851Y-42524918D02*
X50035089Y-42524918D01*
X49490803Y-43673965D02*
X49430326Y-43734442D01*
X49430326Y-43734442D02*
X49490803Y-43794918D01*
X49490803Y-43794918D02*
X49551279Y-43734442D01*
X49551279Y-43734442D02*
X49490803Y-43673965D01*
X49490803Y-43673965D02*
X49490803Y-43794918D01*
X49490803Y-43008727D02*
X49430326Y-43069203D01*
X49430326Y-43069203D02*
X49490803Y-43129680D01*
X49490803Y-43129680D02*
X49551279Y-43069203D01*
X49551279Y-43069203D02*
X49490803Y-43008727D01*
X49490803Y-43008727D02*
X49490803Y-43129680D01*
X54026517Y-45779071D02*
X53845088Y-45839547D01*
X53845088Y-45839547D02*
X53542707Y-45839547D01*
X53542707Y-45839547D02*
X53421755Y-45779071D01*
X53421755Y-45779071D02*
X53361279Y-45718594D01*
X53361279Y-45718594D02*
X53300802Y-45597642D01*
X53300802Y-45597642D02*
X53300802Y-45476690D01*
X53300802Y-45476690D02*
X53361279Y-45355737D01*
X53361279Y-45355737D02*
X53421755Y-45295261D01*
X53421755Y-45295261D02*
X53542707Y-45234785D01*
X53542707Y-45234785D02*
X53784612Y-45174309D01*
X53784612Y-45174309D02*
X53905564Y-45113832D01*
X53905564Y-45113832D02*
X53966041Y-45053356D01*
X53966041Y-45053356D02*
X54026517Y-44932404D01*
X54026517Y-44932404D02*
X54026517Y-44811451D01*
X54026517Y-44811451D02*
X53966041Y-44690499D01*
X53966041Y-44690499D02*
X53905564Y-44630023D01*
X53905564Y-44630023D02*
X53784612Y-44569547D01*
X53784612Y-44569547D02*
X53482231Y-44569547D01*
X53482231Y-44569547D02*
X53300802Y-44630023D01*
X52030802Y-45718594D02*
X52091278Y-45779071D01*
X52091278Y-45779071D02*
X52272707Y-45839547D01*
X52272707Y-45839547D02*
X52393659Y-45839547D01*
X52393659Y-45839547D02*
X52575088Y-45779071D01*
X52575088Y-45779071D02*
X52696040Y-45658118D01*
X52696040Y-45658118D02*
X52756517Y-45537166D01*
X52756517Y-45537166D02*
X52816993Y-45295261D01*
X52816993Y-45295261D02*
X52816993Y-45113832D01*
X52816993Y-45113832D02*
X52756517Y-44871928D01*
X52756517Y-44871928D02*
X52696040Y-44750975D01*
X52696040Y-44750975D02*
X52575088Y-44630023D01*
X52575088Y-44630023D02*
X52393659Y-44569547D01*
X52393659Y-44569547D02*
X52272707Y-44569547D01*
X52272707Y-44569547D02*
X52091278Y-44630023D01*
X52091278Y-44630023D02*
X52030802Y-44690499D01*
X51486517Y-45718594D02*
X51426040Y-45779071D01*
X51426040Y-45779071D02*
X51486517Y-45839547D01*
X51486517Y-45839547D02*
X51546993Y-45779071D01*
X51546993Y-45779071D02*
X51486517Y-45718594D01*
X51486517Y-45718594D02*
X51486517Y-45839547D01*
X51486517Y-45053356D02*
X51426040Y-45113832D01*
X51426040Y-45113832D02*
X51486517Y-45174309D01*
X51486517Y-45174309D02*
X51546993Y-45113832D01*
X51546993Y-45113832D02*
X51486517Y-45053356D01*
X51486517Y-45053356D02*
X51486517Y-45174309D01*
X49248897Y-45839547D02*
X49974612Y-45839547D01*
X49611755Y-45839547D02*
X49611755Y-44569547D01*
X49611755Y-44569547D02*
X49732707Y-44750975D01*
X49732707Y-44750975D02*
X49853659Y-44871928D01*
X49853659Y-44871928D02*
X49974612Y-44932404D01*
X48462707Y-44569547D02*
X48341754Y-44569547D01*
X48341754Y-44569547D02*
X48220802Y-44630023D01*
X48220802Y-44630023D02*
X48160326Y-44690499D01*
X48160326Y-44690499D02*
X48099850Y-44811451D01*
X48099850Y-44811451D02*
X48039373Y-45053356D01*
X48039373Y-45053356D02*
X48039373Y-45355737D01*
X48039373Y-45355737D02*
X48099850Y-45597642D01*
X48099850Y-45597642D02*
X48160326Y-45718594D01*
X48160326Y-45718594D02*
X48220802Y-45779071D01*
X48220802Y-45779071D02*
X48341754Y-45839547D01*
X48341754Y-45839547D02*
X48462707Y-45839547D01*
X48462707Y-45839547D02*
X48583659Y-45779071D01*
X48583659Y-45779071D02*
X48644135Y-45718594D01*
X48644135Y-45718594D02*
X48704612Y-45597642D01*
X48704612Y-45597642D02*
X48765088Y-45355737D01*
X48765088Y-45355737D02*
X48765088Y-45053356D01*
X48765088Y-45053356D02*
X48704612Y-44811451D01*
X48704612Y-44811451D02*
X48644135Y-44690499D01*
X48644135Y-44690499D02*
X48583659Y-44630023D01*
X48583659Y-44630023D02*
X48462707Y-44569547D01*
X47495088Y-45839547D02*
X47495088Y-44569547D01*
X47495088Y-45174309D02*
X46769373Y-45174309D01*
X46769373Y-45839547D02*
X46769373Y-44569547D01*
X46285564Y-44992880D02*
X45620326Y-44992880D01*
X45620326Y-44992880D02*
X46285564Y-45839547D01*
X46285564Y-45839547D02*
X45620326Y-45839547D01*
X53724136Y-46614176D02*
X53482231Y-46614176D01*
X53482231Y-46614176D02*
X53361279Y-46674652D01*
X53361279Y-46674652D02*
X53240326Y-46795604D01*
X53240326Y-46795604D02*
X53179850Y-47037509D01*
X53179850Y-47037509D02*
X53179850Y-47460842D01*
X53179850Y-47460842D02*
X53240326Y-47702747D01*
X53240326Y-47702747D02*
X53361279Y-47823700D01*
X53361279Y-47823700D02*
X53482231Y-47884176D01*
X53482231Y-47884176D02*
X53724136Y-47884176D01*
X53724136Y-47884176D02*
X53845088Y-47823700D01*
X53845088Y-47823700D02*
X53966041Y-47702747D01*
X53966041Y-47702747D02*
X54026517Y-47460842D01*
X54026517Y-47460842D02*
X54026517Y-47037509D01*
X54026517Y-47037509D02*
X53966041Y-46795604D01*
X53966041Y-46795604D02*
X53845088Y-46674652D01*
X53845088Y-46674652D02*
X53724136Y-46614176D01*
X51909850Y-47763223D02*
X51970326Y-47823700D01*
X51970326Y-47823700D02*
X52151755Y-47884176D01*
X52151755Y-47884176D02*
X52272707Y-47884176D01*
X52272707Y-47884176D02*
X52454136Y-47823700D01*
X52454136Y-47823700D02*
X52575088Y-47702747D01*
X52575088Y-47702747D02*
X52635565Y-47581795D01*
X52635565Y-47581795D02*
X52696041Y-47339890D01*
X52696041Y-47339890D02*
X52696041Y-47158461D01*
X52696041Y-47158461D02*
X52635565Y-46916557D01*
X52635565Y-46916557D02*
X52575088Y-46795604D01*
X52575088Y-46795604D02*
X52454136Y-46674652D01*
X52454136Y-46674652D02*
X52272707Y-46614176D01*
X52272707Y-46614176D02*
X52151755Y-46614176D01*
X52151755Y-46614176D02*
X51970326Y-46674652D01*
X51970326Y-46674652D02*
X51909850Y-46735128D01*
X51365565Y-47763223D02*
X51305088Y-47823700D01*
X51305088Y-47823700D02*
X51365565Y-47884176D01*
X51365565Y-47884176D02*
X51426041Y-47823700D01*
X51426041Y-47823700D02*
X51365565Y-47763223D01*
X51365565Y-47763223D02*
X51365565Y-47884176D01*
X51365565Y-47097985D02*
X51305088Y-47158461D01*
X51305088Y-47158461D02*
X51365565Y-47218938D01*
X51365565Y-47218938D02*
X51426041Y-47158461D01*
X51426041Y-47158461D02*
X51365565Y-47097985D01*
X51365565Y-47097985D02*
X51365565Y-47218938D01*
X49611755Y-47158461D02*
X49732707Y-47097985D01*
X49732707Y-47097985D02*
X49793184Y-47037509D01*
X49793184Y-47037509D02*
X49853660Y-46916557D01*
X49853660Y-46916557D02*
X49853660Y-46856080D01*
X49853660Y-46856080D02*
X49793184Y-46735128D01*
X49793184Y-46735128D02*
X49732707Y-46674652D01*
X49732707Y-46674652D02*
X49611755Y-46614176D01*
X49611755Y-46614176D02*
X49369850Y-46614176D01*
X49369850Y-46614176D02*
X49248898Y-46674652D01*
X49248898Y-46674652D02*
X49188422Y-46735128D01*
X49188422Y-46735128D02*
X49127945Y-46856080D01*
X49127945Y-46856080D02*
X49127945Y-46916557D01*
X49127945Y-46916557D02*
X49188422Y-47037509D01*
X49188422Y-47037509D02*
X49248898Y-47097985D01*
X49248898Y-47097985D02*
X49369850Y-47158461D01*
X49369850Y-47158461D02*
X49611755Y-47158461D01*
X49611755Y-47158461D02*
X49732707Y-47218938D01*
X49732707Y-47218938D02*
X49793184Y-47279414D01*
X49793184Y-47279414D02*
X49853660Y-47400366D01*
X49853660Y-47400366D02*
X49853660Y-47642271D01*
X49853660Y-47642271D02*
X49793184Y-47763223D01*
X49793184Y-47763223D02*
X49732707Y-47823700D01*
X49732707Y-47823700D02*
X49611755Y-47884176D01*
X49611755Y-47884176D02*
X49369850Y-47884176D01*
X49369850Y-47884176D02*
X49248898Y-47823700D01*
X49248898Y-47823700D02*
X49188422Y-47763223D01*
X49188422Y-47763223D02*
X49127945Y-47642271D01*
X49127945Y-47642271D02*
X49127945Y-47400366D01*
X49127945Y-47400366D02*
X49188422Y-47279414D01*
X49188422Y-47279414D02*
X49248898Y-47218938D01*
X49248898Y-47218938D02*
X49369850Y-47158461D01*
X48341755Y-46614176D02*
X48220802Y-46614176D01*
X48220802Y-46614176D02*
X48099850Y-46674652D01*
X48099850Y-46674652D02*
X48039374Y-46735128D01*
X48039374Y-46735128D02*
X47978898Y-46856080D01*
X47978898Y-46856080D02*
X47918421Y-47097985D01*
X47918421Y-47097985D02*
X47918421Y-47400366D01*
X47918421Y-47400366D02*
X47978898Y-47642271D01*
X47978898Y-47642271D02*
X48039374Y-47763223D01*
X48039374Y-47763223D02*
X48099850Y-47823700D01*
X48099850Y-47823700D02*
X48220802Y-47884176D01*
X48220802Y-47884176D02*
X48341755Y-47884176D01*
X48341755Y-47884176D02*
X48462707Y-47823700D01*
X48462707Y-47823700D02*
X48523183Y-47763223D01*
X48523183Y-47763223D02*
X48583660Y-47642271D01*
X48583660Y-47642271D02*
X48644136Y-47400366D01*
X48644136Y-47400366D02*
X48644136Y-47097985D01*
X48644136Y-47097985D02*
X48583660Y-46856080D01*
X48583660Y-46856080D02*
X48523183Y-46735128D01*
X48523183Y-46735128D02*
X48462707Y-46674652D01*
X48462707Y-46674652D02*
X48341755Y-46614176D01*
X47374136Y-47884176D02*
X47374136Y-46614176D01*
X47374136Y-47218938D02*
X46648421Y-47218938D01*
X46648421Y-47884176D02*
X46648421Y-46614176D01*
X46164612Y-47037509D02*
X45499374Y-47037509D01*
X45499374Y-47037509D02*
X46164612Y-47884176D01*
X46164612Y-47884176D02*
X45499374Y-47884176D01*
X72140326Y-43644918D02*
X72563660Y-43040156D01*
X72866041Y-43644918D02*
X72866041Y-42374918D01*
X72866041Y-42374918D02*
X72382231Y-42374918D01*
X72382231Y-42374918D02*
X72261279Y-42435394D01*
X72261279Y-42435394D02*
X72200802Y-42495870D01*
X72200802Y-42495870D02*
X72140326Y-42616822D01*
X72140326Y-42616822D02*
X72140326Y-42798251D01*
X72140326Y-42798251D02*
X72200802Y-42919203D01*
X72200802Y-42919203D02*
X72261279Y-42979680D01*
X72261279Y-42979680D02*
X72382231Y-43040156D01*
X72382231Y-43040156D02*
X72866041Y-43040156D01*
X71656517Y-43282061D02*
X71051755Y-43282061D01*
X71777469Y-43644918D02*
X71354136Y-42374918D01*
X71354136Y-42374918D02*
X70930802Y-43644918D01*
X70688898Y-42374918D02*
X69963184Y-42374918D01*
X70326041Y-43644918D02*
X70326041Y-42374918D01*
X69539851Y-42979680D02*
X69116517Y-42979680D01*
X68935089Y-43644918D02*
X69539851Y-43644918D01*
X69539851Y-43644918D02*
X69539851Y-42374918D01*
X69539851Y-42374918D02*
X68935089Y-42374918D01*
X68390803Y-43523965D02*
X68330326Y-43584442D01*
X68330326Y-43584442D02*
X68390803Y-43644918D01*
X68390803Y-43644918D02*
X68451279Y-43584442D01*
X68451279Y-43584442D02*
X68390803Y-43523965D01*
X68390803Y-43523965D02*
X68390803Y-43644918D01*
X68390803Y-42858727D02*
X68330326Y-42919203D01*
X68330326Y-42919203D02*
X68390803Y-42979680D01*
X68390803Y-42979680D02*
X68451279Y-42919203D01*
X68451279Y-42919203D02*
X68390803Y-42858727D01*
X68390803Y-42858727D02*
X68390803Y-42979680D01*
X72926517Y-45629071D02*
X72745088Y-45689547D01*
X72745088Y-45689547D02*
X72442707Y-45689547D01*
X72442707Y-45689547D02*
X72321755Y-45629071D01*
X72321755Y-45629071D02*
X72261279Y-45568594D01*
X72261279Y-45568594D02*
X72200802Y-45447642D01*
X72200802Y-45447642D02*
X72200802Y-45326690D01*
X72200802Y-45326690D02*
X72261279Y-45205737D01*
X72261279Y-45205737D02*
X72321755Y-45145261D01*
X72321755Y-45145261D02*
X72442707Y-45084785D01*
X72442707Y-45084785D02*
X72684612Y-45024309D01*
X72684612Y-45024309D02*
X72805564Y-44963832D01*
X72805564Y-44963832D02*
X72866041Y-44903356D01*
X72866041Y-44903356D02*
X72926517Y-44782404D01*
X72926517Y-44782404D02*
X72926517Y-44661451D01*
X72926517Y-44661451D02*
X72866041Y-44540499D01*
X72866041Y-44540499D02*
X72805564Y-44480023D01*
X72805564Y-44480023D02*
X72684612Y-44419547D01*
X72684612Y-44419547D02*
X72382231Y-44419547D01*
X72382231Y-44419547D02*
X72200802Y-44480023D01*
X70930802Y-45568594D02*
X70991278Y-45629071D01*
X70991278Y-45629071D02*
X71172707Y-45689547D01*
X71172707Y-45689547D02*
X71293659Y-45689547D01*
X71293659Y-45689547D02*
X71475088Y-45629071D01*
X71475088Y-45629071D02*
X71596040Y-45508118D01*
X71596040Y-45508118D02*
X71656517Y-45387166D01*
X71656517Y-45387166D02*
X71716993Y-45145261D01*
X71716993Y-45145261D02*
X71716993Y-44963832D01*
X71716993Y-44963832D02*
X71656517Y-44721928D01*
X71656517Y-44721928D02*
X71596040Y-44600975D01*
X71596040Y-44600975D02*
X71475088Y-44480023D01*
X71475088Y-44480023D02*
X71293659Y-44419547D01*
X71293659Y-44419547D02*
X71172707Y-44419547D01*
X71172707Y-44419547D02*
X70991278Y-44480023D01*
X70991278Y-44480023D02*
X70930802Y-44540499D01*
X70386517Y-45568594D02*
X70326040Y-45629071D01*
X70326040Y-45629071D02*
X70386517Y-45689547D01*
X70386517Y-45689547D02*
X70446993Y-45629071D01*
X70446993Y-45629071D02*
X70386517Y-45568594D01*
X70386517Y-45568594D02*
X70386517Y-45689547D01*
X70386517Y-44903356D02*
X70326040Y-44963832D01*
X70326040Y-44963832D02*
X70386517Y-45024309D01*
X70386517Y-45024309D02*
X70446993Y-44963832D01*
X70446993Y-44963832D02*
X70386517Y-44903356D01*
X70386517Y-44903356D02*
X70386517Y-45024309D01*
X68148897Y-45689547D02*
X68874612Y-45689547D01*
X68511755Y-45689547D02*
X68511755Y-44419547D01*
X68511755Y-44419547D02*
X68632707Y-44600975D01*
X68632707Y-44600975D02*
X68753659Y-44721928D01*
X68753659Y-44721928D02*
X68874612Y-44782404D01*
X67362707Y-44419547D02*
X67241754Y-44419547D01*
X67241754Y-44419547D02*
X67120802Y-44480023D01*
X67120802Y-44480023D02*
X67060326Y-44540499D01*
X67060326Y-44540499D02*
X66999850Y-44661451D01*
X66999850Y-44661451D02*
X66939373Y-44903356D01*
X66939373Y-44903356D02*
X66939373Y-45205737D01*
X66939373Y-45205737D02*
X66999850Y-45447642D01*
X66999850Y-45447642D02*
X67060326Y-45568594D01*
X67060326Y-45568594D02*
X67120802Y-45629071D01*
X67120802Y-45629071D02*
X67241754Y-45689547D01*
X67241754Y-45689547D02*
X67362707Y-45689547D01*
X67362707Y-45689547D02*
X67483659Y-45629071D01*
X67483659Y-45629071D02*
X67544135Y-45568594D01*
X67544135Y-45568594D02*
X67604612Y-45447642D01*
X67604612Y-45447642D02*
X67665088Y-45205737D01*
X67665088Y-45205737D02*
X67665088Y-44903356D01*
X67665088Y-44903356D02*
X67604612Y-44661451D01*
X67604612Y-44661451D02*
X67544135Y-44540499D01*
X67544135Y-44540499D02*
X67483659Y-44480023D01*
X67483659Y-44480023D02*
X67362707Y-44419547D01*
X66395088Y-45689547D02*
X66395088Y-44419547D01*
X66395088Y-45024309D02*
X65669373Y-45024309D01*
X65669373Y-45689547D02*
X65669373Y-44419547D01*
X65185564Y-44842880D02*
X64520326Y-44842880D01*
X64520326Y-44842880D02*
X65185564Y-45689547D01*
X65185564Y-45689547D02*
X64520326Y-45689547D01*
X72624136Y-46464176D02*
X72382231Y-46464176D01*
X72382231Y-46464176D02*
X72261279Y-46524652D01*
X72261279Y-46524652D02*
X72140326Y-46645604D01*
X72140326Y-46645604D02*
X72079850Y-46887509D01*
X72079850Y-46887509D02*
X72079850Y-47310842D01*
X72079850Y-47310842D02*
X72140326Y-47552747D01*
X72140326Y-47552747D02*
X72261279Y-47673700D01*
X72261279Y-47673700D02*
X72382231Y-47734176D01*
X72382231Y-47734176D02*
X72624136Y-47734176D01*
X72624136Y-47734176D02*
X72745088Y-47673700D01*
X72745088Y-47673700D02*
X72866041Y-47552747D01*
X72866041Y-47552747D02*
X72926517Y-47310842D01*
X72926517Y-47310842D02*
X72926517Y-46887509D01*
X72926517Y-46887509D02*
X72866041Y-46645604D01*
X72866041Y-46645604D02*
X72745088Y-46524652D01*
X72745088Y-46524652D02*
X72624136Y-46464176D01*
X70809850Y-47613223D02*
X70870326Y-47673700D01*
X70870326Y-47673700D02*
X71051755Y-47734176D01*
X71051755Y-47734176D02*
X71172707Y-47734176D01*
X71172707Y-47734176D02*
X71354136Y-47673700D01*
X71354136Y-47673700D02*
X71475088Y-47552747D01*
X71475088Y-47552747D02*
X71535565Y-47431795D01*
X71535565Y-47431795D02*
X71596041Y-47189890D01*
X71596041Y-47189890D02*
X71596041Y-47008461D01*
X71596041Y-47008461D02*
X71535565Y-46766557D01*
X71535565Y-46766557D02*
X71475088Y-46645604D01*
X71475088Y-46645604D02*
X71354136Y-46524652D01*
X71354136Y-46524652D02*
X71172707Y-46464176D01*
X71172707Y-46464176D02*
X71051755Y-46464176D01*
X71051755Y-46464176D02*
X70870326Y-46524652D01*
X70870326Y-46524652D02*
X70809850Y-46585128D01*
X70265565Y-47613223D02*
X70205088Y-47673700D01*
X70205088Y-47673700D02*
X70265565Y-47734176D01*
X70265565Y-47734176D02*
X70326041Y-47673700D01*
X70326041Y-47673700D02*
X70265565Y-47613223D01*
X70265565Y-47613223D02*
X70265565Y-47734176D01*
X70265565Y-46947985D02*
X70205088Y-47008461D01*
X70205088Y-47008461D02*
X70265565Y-47068938D01*
X70265565Y-47068938D02*
X70326041Y-47008461D01*
X70326041Y-47008461D02*
X70265565Y-46947985D01*
X70265565Y-46947985D02*
X70265565Y-47068938D01*
X68511755Y-47008461D02*
X68632707Y-46947985D01*
X68632707Y-46947985D02*
X68693184Y-46887509D01*
X68693184Y-46887509D02*
X68753660Y-46766557D01*
X68753660Y-46766557D02*
X68753660Y-46706080D01*
X68753660Y-46706080D02*
X68693184Y-46585128D01*
X68693184Y-46585128D02*
X68632707Y-46524652D01*
X68632707Y-46524652D02*
X68511755Y-46464176D01*
X68511755Y-46464176D02*
X68269850Y-46464176D01*
X68269850Y-46464176D02*
X68148898Y-46524652D01*
X68148898Y-46524652D02*
X68088422Y-46585128D01*
X68088422Y-46585128D02*
X68027945Y-46706080D01*
X68027945Y-46706080D02*
X68027945Y-46766557D01*
X68027945Y-46766557D02*
X68088422Y-46887509D01*
X68088422Y-46887509D02*
X68148898Y-46947985D01*
X68148898Y-46947985D02*
X68269850Y-47008461D01*
X68269850Y-47008461D02*
X68511755Y-47008461D01*
X68511755Y-47008461D02*
X68632707Y-47068938D01*
X68632707Y-47068938D02*
X68693184Y-47129414D01*
X68693184Y-47129414D02*
X68753660Y-47250366D01*
X68753660Y-47250366D02*
X68753660Y-47492271D01*
X68753660Y-47492271D02*
X68693184Y-47613223D01*
X68693184Y-47613223D02*
X68632707Y-47673700D01*
X68632707Y-47673700D02*
X68511755Y-47734176D01*
X68511755Y-47734176D02*
X68269850Y-47734176D01*
X68269850Y-47734176D02*
X68148898Y-47673700D01*
X68148898Y-47673700D02*
X68088422Y-47613223D01*
X68088422Y-47613223D02*
X68027945Y-47492271D01*
X68027945Y-47492271D02*
X68027945Y-47250366D01*
X68027945Y-47250366D02*
X68088422Y-47129414D01*
X68088422Y-47129414D02*
X68148898Y-47068938D01*
X68148898Y-47068938D02*
X68269850Y-47008461D01*
X67241755Y-46464176D02*
X67120802Y-46464176D01*
X67120802Y-46464176D02*
X66999850Y-46524652D01*
X66999850Y-46524652D02*
X66939374Y-46585128D01*
X66939374Y-46585128D02*
X66878898Y-46706080D01*
X66878898Y-46706080D02*
X66818421Y-46947985D01*
X66818421Y-46947985D02*
X66818421Y-47250366D01*
X66818421Y-47250366D02*
X66878898Y-47492271D01*
X66878898Y-47492271D02*
X66939374Y-47613223D01*
X66939374Y-47613223D02*
X66999850Y-47673700D01*
X66999850Y-47673700D02*
X67120802Y-47734176D01*
X67120802Y-47734176D02*
X67241755Y-47734176D01*
X67241755Y-47734176D02*
X67362707Y-47673700D01*
X67362707Y-47673700D02*
X67423183Y-47613223D01*
X67423183Y-47613223D02*
X67483660Y-47492271D01*
X67483660Y-47492271D02*
X67544136Y-47250366D01*
X67544136Y-47250366D02*
X67544136Y-46947985D01*
X67544136Y-46947985D02*
X67483660Y-46706080D01*
X67483660Y-46706080D02*
X67423183Y-46585128D01*
X67423183Y-46585128D02*
X67362707Y-46524652D01*
X67362707Y-46524652D02*
X67241755Y-46464176D01*
X66274136Y-47734176D02*
X66274136Y-46464176D01*
X66274136Y-47068938D02*
X65548421Y-47068938D01*
X65548421Y-47734176D02*
X65548421Y-46464176D01*
X65064612Y-46887509D02*
X64399374Y-46887509D01*
X64399374Y-46887509D02*
X65064612Y-47734176D01*
X65064612Y-47734176D02*
X64399374Y-47734176D01*
X91340326Y-43994918D02*
X91763660Y-43390156D01*
X92066041Y-43994918D02*
X92066041Y-42724918D01*
X92066041Y-42724918D02*
X91582231Y-42724918D01*
X91582231Y-42724918D02*
X91461279Y-42785394D01*
X91461279Y-42785394D02*
X91400802Y-42845870D01*
X91400802Y-42845870D02*
X91340326Y-42966822D01*
X91340326Y-42966822D02*
X91340326Y-43148251D01*
X91340326Y-43148251D02*
X91400802Y-43269203D01*
X91400802Y-43269203D02*
X91461279Y-43329680D01*
X91461279Y-43329680D02*
X91582231Y-43390156D01*
X91582231Y-43390156D02*
X92066041Y-43390156D01*
X90856517Y-43632061D02*
X90251755Y-43632061D01*
X90977469Y-43994918D02*
X90554136Y-42724918D01*
X90554136Y-42724918D02*
X90130802Y-43994918D01*
X89888898Y-42724918D02*
X89163184Y-42724918D01*
X89526041Y-43994918D02*
X89526041Y-42724918D01*
X88739851Y-43329680D02*
X88316517Y-43329680D01*
X88135089Y-43994918D02*
X88739851Y-43994918D01*
X88739851Y-43994918D02*
X88739851Y-42724918D01*
X88739851Y-42724918D02*
X88135089Y-42724918D01*
X87590803Y-43873965D02*
X87530326Y-43934442D01*
X87530326Y-43934442D02*
X87590803Y-43994918D01*
X87590803Y-43994918D02*
X87651279Y-43934442D01*
X87651279Y-43934442D02*
X87590803Y-43873965D01*
X87590803Y-43873965D02*
X87590803Y-43994918D01*
X87590803Y-43208727D02*
X87530326Y-43269203D01*
X87530326Y-43269203D02*
X87590803Y-43329680D01*
X87590803Y-43329680D02*
X87651279Y-43269203D01*
X87651279Y-43269203D02*
X87590803Y-43208727D01*
X87590803Y-43208727D02*
X87590803Y-43329680D01*
X92126517Y-45979071D02*
X91945088Y-46039547D01*
X91945088Y-46039547D02*
X91642707Y-46039547D01*
X91642707Y-46039547D02*
X91521755Y-45979071D01*
X91521755Y-45979071D02*
X91461279Y-45918594D01*
X91461279Y-45918594D02*
X91400802Y-45797642D01*
X91400802Y-45797642D02*
X91400802Y-45676690D01*
X91400802Y-45676690D02*
X91461279Y-45555737D01*
X91461279Y-45555737D02*
X91521755Y-45495261D01*
X91521755Y-45495261D02*
X91642707Y-45434785D01*
X91642707Y-45434785D02*
X91884612Y-45374309D01*
X91884612Y-45374309D02*
X92005564Y-45313832D01*
X92005564Y-45313832D02*
X92066041Y-45253356D01*
X92066041Y-45253356D02*
X92126517Y-45132404D01*
X92126517Y-45132404D02*
X92126517Y-45011451D01*
X92126517Y-45011451D02*
X92066041Y-44890499D01*
X92066041Y-44890499D02*
X92005564Y-44830023D01*
X92005564Y-44830023D02*
X91884612Y-44769547D01*
X91884612Y-44769547D02*
X91582231Y-44769547D01*
X91582231Y-44769547D02*
X91400802Y-44830023D01*
X90130802Y-45918594D02*
X90191278Y-45979071D01*
X90191278Y-45979071D02*
X90372707Y-46039547D01*
X90372707Y-46039547D02*
X90493659Y-46039547D01*
X90493659Y-46039547D02*
X90675088Y-45979071D01*
X90675088Y-45979071D02*
X90796040Y-45858118D01*
X90796040Y-45858118D02*
X90856517Y-45737166D01*
X90856517Y-45737166D02*
X90916993Y-45495261D01*
X90916993Y-45495261D02*
X90916993Y-45313832D01*
X90916993Y-45313832D02*
X90856517Y-45071928D01*
X90856517Y-45071928D02*
X90796040Y-44950975D01*
X90796040Y-44950975D02*
X90675088Y-44830023D01*
X90675088Y-44830023D02*
X90493659Y-44769547D01*
X90493659Y-44769547D02*
X90372707Y-44769547D01*
X90372707Y-44769547D02*
X90191278Y-44830023D01*
X90191278Y-44830023D02*
X90130802Y-44890499D01*
X89586517Y-45918594D02*
X89526040Y-45979071D01*
X89526040Y-45979071D02*
X89586517Y-46039547D01*
X89586517Y-46039547D02*
X89646993Y-45979071D01*
X89646993Y-45979071D02*
X89586517Y-45918594D01*
X89586517Y-45918594D02*
X89586517Y-46039547D01*
X89586517Y-45253356D02*
X89526040Y-45313832D01*
X89526040Y-45313832D02*
X89586517Y-45374309D01*
X89586517Y-45374309D02*
X89646993Y-45313832D01*
X89646993Y-45313832D02*
X89586517Y-45253356D01*
X89586517Y-45253356D02*
X89586517Y-45374309D01*
X87348897Y-46039547D02*
X88074612Y-46039547D01*
X87711755Y-46039547D02*
X87711755Y-44769547D01*
X87711755Y-44769547D02*
X87832707Y-44950975D01*
X87832707Y-44950975D02*
X87953659Y-45071928D01*
X87953659Y-45071928D02*
X88074612Y-45132404D01*
X86562707Y-44769547D02*
X86441754Y-44769547D01*
X86441754Y-44769547D02*
X86320802Y-44830023D01*
X86320802Y-44830023D02*
X86260326Y-44890499D01*
X86260326Y-44890499D02*
X86199850Y-45011451D01*
X86199850Y-45011451D02*
X86139373Y-45253356D01*
X86139373Y-45253356D02*
X86139373Y-45555737D01*
X86139373Y-45555737D02*
X86199850Y-45797642D01*
X86199850Y-45797642D02*
X86260326Y-45918594D01*
X86260326Y-45918594D02*
X86320802Y-45979071D01*
X86320802Y-45979071D02*
X86441754Y-46039547D01*
X86441754Y-46039547D02*
X86562707Y-46039547D01*
X86562707Y-46039547D02*
X86683659Y-45979071D01*
X86683659Y-45979071D02*
X86744135Y-45918594D01*
X86744135Y-45918594D02*
X86804612Y-45797642D01*
X86804612Y-45797642D02*
X86865088Y-45555737D01*
X86865088Y-45555737D02*
X86865088Y-45253356D01*
X86865088Y-45253356D02*
X86804612Y-45011451D01*
X86804612Y-45011451D02*
X86744135Y-44890499D01*
X86744135Y-44890499D02*
X86683659Y-44830023D01*
X86683659Y-44830023D02*
X86562707Y-44769547D01*
X85595088Y-46039547D02*
X85595088Y-44769547D01*
X85595088Y-45374309D02*
X84869373Y-45374309D01*
X84869373Y-46039547D02*
X84869373Y-44769547D01*
X84385564Y-45192880D02*
X83720326Y-45192880D01*
X83720326Y-45192880D02*
X84385564Y-46039547D01*
X84385564Y-46039547D02*
X83720326Y-46039547D01*
X91824136Y-46814176D02*
X91582231Y-46814176D01*
X91582231Y-46814176D02*
X91461279Y-46874652D01*
X91461279Y-46874652D02*
X91340326Y-46995604D01*
X91340326Y-46995604D02*
X91279850Y-47237509D01*
X91279850Y-47237509D02*
X91279850Y-47660842D01*
X91279850Y-47660842D02*
X91340326Y-47902747D01*
X91340326Y-47902747D02*
X91461279Y-48023700D01*
X91461279Y-48023700D02*
X91582231Y-48084176D01*
X91582231Y-48084176D02*
X91824136Y-48084176D01*
X91824136Y-48084176D02*
X91945088Y-48023700D01*
X91945088Y-48023700D02*
X92066041Y-47902747D01*
X92066041Y-47902747D02*
X92126517Y-47660842D01*
X92126517Y-47660842D02*
X92126517Y-47237509D01*
X92126517Y-47237509D02*
X92066041Y-46995604D01*
X92066041Y-46995604D02*
X91945088Y-46874652D01*
X91945088Y-46874652D02*
X91824136Y-46814176D01*
X90009850Y-47963223D02*
X90070326Y-48023700D01*
X90070326Y-48023700D02*
X90251755Y-48084176D01*
X90251755Y-48084176D02*
X90372707Y-48084176D01*
X90372707Y-48084176D02*
X90554136Y-48023700D01*
X90554136Y-48023700D02*
X90675088Y-47902747D01*
X90675088Y-47902747D02*
X90735565Y-47781795D01*
X90735565Y-47781795D02*
X90796041Y-47539890D01*
X90796041Y-47539890D02*
X90796041Y-47358461D01*
X90796041Y-47358461D02*
X90735565Y-47116557D01*
X90735565Y-47116557D02*
X90675088Y-46995604D01*
X90675088Y-46995604D02*
X90554136Y-46874652D01*
X90554136Y-46874652D02*
X90372707Y-46814176D01*
X90372707Y-46814176D02*
X90251755Y-46814176D01*
X90251755Y-46814176D02*
X90070326Y-46874652D01*
X90070326Y-46874652D02*
X90009850Y-46935128D01*
X89465565Y-47963223D02*
X89405088Y-48023700D01*
X89405088Y-48023700D02*
X89465565Y-48084176D01*
X89465565Y-48084176D02*
X89526041Y-48023700D01*
X89526041Y-48023700D02*
X89465565Y-47963223D01*
X89465565Y-47963223D02*
X89465565Y-48084176D01*
X89465565Y-47297985D02*
X89405088Y-47358461D01*
X89405088Y-47358461D02*
X89465565Y-47418938D01*
X89465565Y-47418938D02*
X89526041Y-47358461D01*
X89526041Y-47358461D02*
X89465565Y-47297985D01*
X89465565Y-47297985D02*
X89465565Y-47418938D01*
X87711755Y-47358461D02*
X87832707Y-47297985D01*
X87832707Y-47297985D02*
X87893184Y-47237509D01*
X87893184Y-47237509D02*
X87953660Y-47116557D01*
X87953660Y-47116557D02*
X87953660Y-47056080D01*
X87953660Y-47056080D02*
X87893184Y-46935128D01*
X87893184Y-46935128D02*
X87832707Y-46874652D01*
X87832707Y-46874652D02*
X87711755Y-46814176D01*
X87711755Y-46814176D02*
X87469850Y-46814176D01*
X87469850Y-46814176D02*
X87348898Y-46874652D01*
X87348898Y-46874652D02*
X87288422Y-46935128D01*
X87288422Y-46935128D02*
X87227945Y-47056080D01*
X87227945Y-47056080D02*
X87227945Y-47116557D01*
X87227945Y-47116557D02*
X87288422Y-47237509D01*
X87288422Y-47237509D02*
X87348898Y-47297985D01*
X87348898Y-47297985D02*
X87469850Y-47358461D01*
X87469850Y-47358461D02*
X87711755Y-47358461D01*
X87711755Y-47358461D02*
X87832707Y-47418938D01*
X87832707Y-47418938D02*
X87893184Y-47479414D01*
X87893184Y-47479414D02*
X87953660Y-47600366D01*
X87953660Y-47600366D02*
X87953660Y-47842271D01*
X87953660Y-47842271D02*
X87893184Y-47963223D01*
X87893184Y-47963223D02*
X87832707Y-48023700D01*
X87832707Y-48023700D02*
X87711755Y-48084176D01*
X87711755Y-48084176D02*
X87469850Y-48084176D01*
X87469850Y-48084176D02*
X87348898Y-48023700D01*
X87348898Y-48023700D02*
X87288422Y-47963223D01*
X87288422Y-47963223D02*
X87227945Y-47842271D01*
X87227945Y-47842271D02*
X87227945Y-47600366D01*
X87227945Y-47600366D02*
X87288422Y-47479414D01*
X87288422Y-47479414D02*
X87348898Y-47418938D01*
X87348898Y-47418938D02*
X87469850Y-47358461D01*
X86441755Y-46814176D02*
X86320802Y-46814176D01*
X86320802Y-46814176D02*
X86199850Y-46874652D01*
X86199850Y-46874652D02*
X86139374Y-46935128D01*
X86139374Y-46935128D02*
X86078898Y-47056080D01*
X86078898Y-47056080D02*
X86018421Y-47297985D01*
X86018421Y-47297985D02*
X86018421Y-47600366D01*
X86018421Y-47600366D02*
X86078898Y-47842271D01*
X86078898Y-47842271D02*
X86139374Y-47963223D01*
X86139374Y-47963223D02*
X86199850Y-48023700D01*
X86199850Y-48023700D02*
X86320802Y-48084176D01*
X86320802Y-48084176D02*
X86441755Y-48084176D01*
X86441755Y-48084176D02*
X86562707Y-48023700D01*
X86562707Y-48023700D02*
X86623183Y-47963223D01*
X86623183Y-47963223D02*
X86683660Y-47842271D01*
X86683660Y-47842271D02*
X86744136Y-47600366D01*
X86744136Y-47600366D02*
X86744136Y-47297985D01*
X86744136Y-47297985D02*
X86683660Y-47056080D01*
X86683660Y-47056080D02*
X86623183Y-46935128D01*
X86623183Y-46935128D02*
X86562707Y-46874652D01*
X86562707Y-46874652D02*
X86441755Y-46814176D01*
X85474136Y-48084176D02*
X85474136Y-46814176D01*
X85474136Y-47418938D02*
X84748421Y-47418938D01*
X84748421Y-48084176D02*
X84748421Y-46814176D01*
X84264612Y-47237509D02*
X83599374Y-47237509D01*
X83599374Y-47237509D02*
X84264612Y-48084176D01*
X84264612Y-48084176D02*
X83599374Y-48084176D01*
D11*
X55096095Y-48716666D02*
X55821810Y-48716666D01*
X55821810Y-48716666D02*
X55966953Y-48669047D01*
X55966953Y-48669047D02*
X56063715Y-48573809D01*
X56063715Y-48573809D02*
X56112095Y-48430952D01*
X56112095Y-48430952D02*
X56112095Y-48335714D01*
X56112095Y-49192857D02*
X55096095Y-49192857D01*
X55096095Y-49192857D02*
X55096095Y-49573809D01*
X55096095Y-49573809D02*
X55144476Y-49669047D01*
X55144476Y-49669047D02*
X55192857Y-49716666D01*
X55192857Y-49716666D02*
X55289619Y-49764285D01*
X55289619Y-49764285D02*
X55434762Y-49764285D01*
X55434762Y-49764285D02*
X55531524Y-49716666D01*
X55531524Y-49716666D02*
X55579905Y-49669047D01*
X55579905Y-49669047D02*
X55628286Y-49573809D01*
X55628286Y-49573809D02*
X55628286Y-49192857D01*
X55192857Y-50145238D02*
X55144476Y-50192857D01*
X55144476Y-50192857D02*
X55096095Y-50288095D01*
X55096095Y-50288095D02*
X55096095Y-50526190D01*
X55096095Y-50526190D02*
X55144476Y-50621428D01*
X55144476Y-50621428D02*
X55192857Y-50669047D01*
X55192857Y-50669047D02*
X55289619Y-50716666D01*
X55289619Y-50716666D02*
X55386381Y-50716666D01*
X55386381Y-50716666D02*
X55531524Y-50669047D01*
X55531524Y-50669047D02*
X56112095Y-50097619D01*
X56112095Y-50097619D02*
X56112095Y-50716666D01*
X93196095Y-49016666D02*
X93921810Y-49016666D01*
X93921810Y-49016666D02*
X94066953Y-48969047D01*
X94066953Y-48969047D02*
X94163715Y-48873809D01*
X94163715Y-48873809D02*
X94212095Y-48730952D01*
X94212095Y-48730952D02*
X94212095Y-48635714D01*
X94212095Y-49492857D02*
X93196095Y-49492857D01*
X93196095Y-49492857D02*
X93196095Y-49873809D01*
X93196095Y-49873809D02*
X93244476Y-49969047D01*
X93244476Y-49969047D02*
X93292857Y-50016666D01*
X93292857Y-50016666D02*
X93389619Y-50064285D01*
X93389619Y-50064285D02*
X93534762Y-50064285D01*
X93534762Y-50064285D02*
X93631524Y-50016666D01*
X93631524Y-50016666D02*
X93679905Y-49969047D01*
X93679905Y-49969047D02*
X93728286Y-49873809D01*
X93728286Y-49873809D02*
X93728286Y-49492857D01*
X93534762Y-50921428D02*
X94212095Y-50921428D01*
X93147715Y-50683333D02*
X93873429Y-50445238D01*
X93873429Y-50445238D02*
X93873429Y-51064285D01*
X73826095Y-48436666D02*
X74551810Y-48436666D01*
X74551810Y-48436666D02*
X74696953Y-48389047D01*
X74696953Y-48389047D02*
X74793715Y-48293809D01*
X74793715Y-48293809D02*
X74842095Y-48150952D01*
X74842095Y-48150952D02*
X74842095Y-48055714D01*
X74842095Y-48912857D02*
X73826095Y-48912857D01*
X73826095Y-48912857D02*
X73826095Y-49293809D01*
X73826095Y-49293809D02*
X73874476Y-49389047D01*
X73874476Y-49389047D02*
X73922857Y-49436666D01*
X73922857Y-49436666D02*
X74019619Y-49484285D01*
X74019619Y-49484285D02*
X74164762Y-49484285D01*
X74164762Y-49484285D02*
X74261524Y-49436666D01*
X74261524Y-49436666D02*
X74309905Y-49389047D01*
X74309905Y-49389047D02*
X74358286Y-49293809D01*
X74358286Y-49293809D02*
X74358286Y-48912857D01*
X73826095Y-49817619D02*
X73826095Y-50436666D01*
X73826095Y-50436666D02*
X74213143Y-50103333D01*
X74213143Y-50103333D02*
X74213143Y-50246190D01*
X74213143Y-50246190D02*
X74261524Y-50341428D01*
X74261524Y-50341428D02*
X74309905Y-50389047D01*
X74309905Y-50389047D02*
X74406667Y-50436666D01*
X74406667Y-50436666D02*
X74648572Y-50436666D01*
X74648572Y-50436666D02*
X74745334Y-50389047D01*
X74745334Y-50389047D02*
X74793715Y-50341428D01*
X74793715Y-50341428D02*
X74842095Y-50246190D01*
X74842095Y-50246190D02*
X74842095Y-49960476D01*
X74842095Y-49960476D02*
X74793715Y-49865238D01*
X74793715Y-49865238D02*
X74745334Y-49817619D01*
X35696095Y-48566666D02*
X36421810Y-48566666D01*
X36421810Y-48566666D02*
X36566953Y-48519047D01*
X36566953Y-48519047D02*
X36663715Y-48423809D01*
X36663715Y-48423809D02*
X36712095Y-48280952D01*
X36712095Y-48280952D02*
X36712095Y-48185714D01*
X36712095Y-49042857D02*
X35696095Y-49042857D01*
X35696095Y-49042857D02*
X35696095Y-49423809D01*
X35696095Y-49423809D02*
X35744476Y-49519047D01*
X35744476Y-49519047D02*
X35792857Y-49566666D01*
X35792857Y-49566666D02*
X35889619Y-49614285D01*
X35889619Y-49614285D02*
X36034762Y-49614285D01*
X36034762Y-49614285D02*
X36131524Y-49566666D01*
X36131524Y-49566666D02*
X36179905Y-49519047D01*
X36179905Y-49519047D02*
X36228286Y-49423809D01*
X36228286Y-49423809D02*
X36228286Y-49042857D01*
X36712095Y-50566666D02*
X36712095Y-49995238D01*
X36712095Y-50280952D02*
X35696095Y-50280952D01*
X35696095Y-50280952D02*
X35841238Y-50185714D01*
X35841238Y-50185714D02*
X35938000Y-50090476D01*
X35938000Y-50090476D02*
X35986381Y-49995238D01*
%TO.C,JP2*%
D12*
X56650000Y-47100000D02*
X56650000Y-45700000D01*
X55950000Y-45000000D02*
X55350000Y-45000000D01*
X55350000Y-47800000D02*
X55950000Y-47800000D01*
X54650000Y-45700000D02*
X54650000Y-47100000D01*
X55950000Y-45000000D02*
G75*
G02*
X56650000Y-45700000I0J-700000D01*
G01*
X56650000Y-47100000D02*
G75*
G02*
X55950000Y-47800000I-699999J-1D01*
G01*
X54650000Y-45700000D02*
G75*
G02*
X55350000Y-45000000I700000J0D01*
G01*
X55350000Y-47800000D02*
G75*
G02*
X54650000Y-47100000I-1J699999D01*
G01*
%TO.C,JP4*%
X94750000Y-47300000D02*
X94750000Y-45900000D01*
X94050000Y-45200000D02*
X93450000Y-45200000D01*
X93450000Y-48000000D02*
X94050000Y-48000000D01*
X92750000Y-45900000D02*
X92750000Y-47300000D01*
X94050000Y-45200000D02*
G75*
G02*
X94750000Y-45900000I0J-700000D01*
G01*
X94750000Y-47300000D02*
G75*
G02*
X94050000Y-48000000I-699999J-1D01*
G01*
X92750000Y-45900000D02*
G75*
G02*
X93450000Y-45200000I700000J0D01*
G01*
X93450000Y-48000000D02*
G75*
G02*
X92750000Y-47300000I-1J699999D01*
G01*
%TO.C,JP3*%
X75550000Y-46950000D02*
X75550000Y-45550000D01*
X74850000Y-44850000D02*
X74250000Y-44850000D01*
X74250000Y-47650000D02*
X74850000Y-47650000D01*
X73550000Y-45550000D02*
X73550000Y-46950000D01*
X74850000Y-44850000D02*
G75*
G02*
X75550000Y-45550000I0J-700000D01*
G01*
X75550000Y-46950000D02*
G75*
G02*
X74850000Y-47650000I-699999J-1D01*
G01*
X73550000Y-45550000D02*
G75*
G02*
X74250000Y-44850000I700000J0D01*
G01*
X74250000Y-47650000D02*
G75*
G02*
X73550000Y-46950000I-1J699999D01*
G01*
%TO.C,JP1*%
X37850000Y-47130000D02*
X37850000Y-45730000D01*
X37150000Y-45030000D02*
X36550000Y-45030000D01*
X36550000Y-47830000D02*
X37150000Y-47830000D01*
X35850000Y-45730000D02*
X35850000Y-47130000D01*
X37150000Y-45030000D02*
G75*
G02*
X37850000Y-45730000I0J-700000D01*
G01*
X37850000Y-47130000D02*
G75*
G02*
X37150000Y-47830000I-699999J-1D01*
G01*
X35850000Y-45730000D02*
G75*
G02*
X36550000Y-45030000I700000J0D01*
G01*
X36550000Y-47830000D02*
G75*
G02*
X35850000Y-47130000I-1J699999D01*
G01*
%TD*%
M02*
