%TF.GenerationSoftware,KiCad,Pcbnew,10.0.3*%
%TF.CreationDate,2026-06-10T22:21:09-07:00*%
%TF.ProjectId,master_gse_pcb_project,6d617374-6572-45f6-9773-655f7063625f,rev?*%
%TF.SameCoordinates,Original*%
%TF.FileFunction,Soldermask,Bot*%
%TF.FilePolarity,Negative*%
%FSLAX46Y46*%
G04 Gerber Fmt 4.6, Leading zero omitted, Abs format (unit mm)*
G04 Created by KiCad (PCBNEW 10.0.3) date 2026-06-10 22:21:09*
%MOMM*%
%LPD*%
G01*
G04 APERTURE LIST*
G04 Aperture macros list*
%AMRoundRect*
0 Rectangle with rounded corners*
0 $1 Rounding radius*
0 $2 $3 $4 $5 $6 $7 $8 $9 X,Y pos of 4 corners*
0 Add a 4 corners polygon primitive as box body*
4,1,4,$2,$3,$4,$5,$6,$7,$8,$9,$2,$3,0*
0 Add four circle primitives for the rounded corners*
1,1,$1+$1,$2,$3*
1,1,$1+$1,$4,$5*
1,1,$1+$1,$6,$7*
1,1,$1+$1,$8,$9*
0 Add four rect primitives between the rounded corners*
20,1,$1+$1,$2,$3,$4,$5,0*
20,1,$1+$1,$4,$5,$6,$7,0*
20,1,$1+$1,$6,$7,$8,$9,0*
20,1,$1+$1,$8,$9,$2,$3,0*%
%AMFreePoly0*
4,1,23,0.500000,-0.750000,0.000000,-0.750000,0.000000,-0.745722,-0.065263,-0.745722,-0.191342,-0.711940,-0.304381,-0.646677,-0.396677,-0.554381,-0.461940,-0.441342,-0.495722,-0.315263,-0.495722,-0.250000,-0.500000,-0.250000,-0.500000,0.250000,-0.495722,0.250000,-0.495722,0.315263,-0.461940,0.441342,-0.396677,0.554381,-0.304381,0.646677,-0.191342,0.711940,-0.065263,0.745722,0.000000,0.745722,
0.000000,0.750000,0.500000,0.750000,0.500000,-0.750000,0.500000,-0.750000,$1*%
%AMFreePoly1*
4,1,23,0.000000,0.745722,0.065263,0.745722,0.191342,0.711940,0.304381,0.646677,0.396677,0.554381,0.461940,0.441342,0.495722,0.315263,0.495722,0.250000,0.500000,0.250000,0.500000,-0.250000,0.495722,-0.250000,0.495722,-0.315263,0.461940,-0.441342,0.396677,-0.554381,0.304381,-0.646677,0.191342,-0.711940,0.065263,-0.745722,0.000000,-0.745722,0.000000,-0.750000,-0.500000,-0.750000,
-0.500000,0.750000,0.000000,0.750000,0.000000,0.745722,0.000000,0.745722,$1*%
G04 Aperture macros list end*
%ADD10C,0.600000*%
%ADD11O,2.000000X0.900000*%
%ADD12O,1.700000X0.900000*%
%ADD13O,3.500000X2.200000*%
%ADD14R,2.500000X1.500000*%
%ADD15O,2.500000X1.500000*%
%ADD16RoundRect,0.250000X-1.050000X-1.050000X1.050000X-1.050000X1.050000X1.050000X-1.050000X1.050000X0*%
%ADD17C,2.600000*%
%ADD18RoundRect,0.250000X0.600000X0.725000X-0.600000X0.725000X-0.600000X-0.725000X0.600000X-0.725000X0*%
%ADD19O,1.700000X1.950000*%
%ADD20RoundRect,0.250000X-0.600000X-0.725000X0.600000X-0.725000X0.600000X0.725000X-0.600000X0.725000X0*%
%ADD21C,5.600000*%
%ADD22RoundRect,0.250000X0.625000X-0.350000X0.625000X0.350000X-0.625000X0.350000X-0.625000X-0.350000X0*%
%ADD23O,1.750000X1.200000*%
%ADD24FreePoly0,90.000000*%
%ADD25FreePoly1,90.000000*%
%ADD26R,1.700000X1.700000*%
%ADD27C,1.700000*%
%ADD28C,3.000000*%
%ADD29C,2.500000*%
%ADD30RoundRect,0.250000X0.600000X0.600000X-0.600000X0.600000X-0.600000X-0.600000X0.600000X-0.600000X0*%
%ADD31C,2.780000*%
%ADD32O,4.764000X2.484000*%
%ADD33O,2.229000X4.254000*%
%ADD34O,4.254000X2.229000*%
%ADD35C,2.050000*%
%ADD36C,2.250000*%
%ADD37RoundRect,1.500000X1.500000X1.500000X-1.500000X1.500000X-1.500000X-1.500000X1.500000X-1.500000X0*%
%ADD38C,6.000000*%
G04 APERTURE END LIST*
%TO.C,JP2*%
G36*
X54900000Y-46250000D02*
G01*
X56400000Y-46250000D01*
X56400000Y-46550000D01*
X54900000Y-46550000D01*
X54900000Y-46250000D01*
G37*
%TO.C,JP4*%
G36*
X93000000Y-46450000D02*
G01*
X94500000Y-46450000D01*
X94500000Y-46750000D01*
X93000000Y-46750000D01*
X93000000Y-46450000D01*
G37*
%TO.C,JP3*%
G36*
X73800000Y-46100000D02*
G01*
X75300000Y-46100000D01*
X75300000Y-46400000D01*
X73800000Y-46400000D01*
X73800000Y-46100000D01*
G37*
%TO.C,JP1*%
G36*
X36100000Y-46280000D02*
G01*
X37600000Y-46280000D01*
X37600000Y-46580000D01*
X36100000Y-46580000D01*
X36100000Y-46280000D01*
G37*
%TD*%
D10*
%TO.C,J3*%
X24360000Y-69340000D03*
X24360000Y-75120000D03*
D11*
X24840000Y-67910000D03*
D12*
X20670000Y-67910000D03*
D11*
X24840000Y-76550000D03*
D12*
X20670000Y-76550000D03*
%TD*%
D13*
%TO.C,SW1*%
X78000000Y-103850000D03*
X78000000Y-112050000D03*
D14*
X78000000Y-105950000D03*
D15*
X78000000Y-107950000D03*
X78000000Y-109950000D03*
%TD*%
D16*
%TO.C,J12*%
X169680000Y-153000000D03*
D17*
X174760000Y-153000000D03*
%TD*%
D18*
%TO.C,J16*%
X115339998Y-18642500D03*
D19*
X112839998Y-18642500D03*
X110339998Y-18642500D03*
X107839998Y-18642500D03*
%TD*%
D20*
%TO.C,J6*%
X71400000Y-159490000D03*
D19*
X73900000Y-159490000D03*
X76400000Y-159490000D03*
X78900000Y-159490000D03*
%TD*%
D21*
%TO.C,H1*%
X23000000Y-19212500D03*
%TD*%
%TO.C,H4*%
X213000000Y-159212500D03*
%TD*%
D20*
%TO.C,J8*%
X103150000Y-159510000D03*
D19*
X105650000Y-159510000D03*
X108150000Y-159510000D03*
X110650000Y-159510000D03*
%TD*%
D18*
%TO.C,J17*%
X41400000Y-18712500D03*
D19*
X38900000Y-18712500D03*
X36400000Y-18712500D03*
X33900000Y-18712500D03*
X31400000Y-18712500D03*
%TD*%
D22*
%TO.C,J22*%
X212510000Y-99410000D03*
D23*
X212510000Y-97410000D03*
%TD*%
D21*
%TO.C,H2*%
X138000000Y-19212500D03*
%TD*%
D24*
%TO.C,JP2*%
X55650000Y-47050000D03*
D25*
X55650000Y-45750000D03*
%TD*%
D26*
%TO.C,J4*%
X22910000Y-33910000D03*
D27*
X25450000Y-33910000D03*
X22910000Y-36450000D03*
X25450000Y-36450000D03*
X22910000Y-38990000D03*
X25450000Y-38990000D03*
%TD*%
D18*
%TO.C,J20*%
X97900000Y-18712500D03*
D19*
X95400000Y-18712500D03*
X92900000Y-18712500D03*
X90400000Y-18712500D03*
X87900000Y-18712500D03*
%TD*%
D16*
%TO.C,J13*%
X198970000Y-153000000D03*
D17*
X204050000Y-153000000D03*
%TD*%
D28*
%TO.C,K1*%
X199050000Y-118050000D03*
D29*
X193000000Y-120000000D03*
D28*
X193000000Y-132200000D03*
X205050000Y-132250000D03*
D29*
X205000000Y-120000000D03*
%TD*%
D30*
%TO.C,J23*%
X31540000Y-134000000D03*
D27*
X29000000Y-134000000D03*
X31540000Y-131460000D03*
X29000000Y-131460000D03*
X31540000Y-128920000D03*
X29000000Y-128920000D03*
X31540000Y-126380000D03*
X29000000Y-126380000D03*
X31540000Y-123840000D03*
X29000000Y-123840000D03*
X31540000Y-121300000D03*
X29000000Y-121300000D03*
X31540000Y-118760000D03*
X29000000Y-118760000D03*
X31540000Y-116220000D03*
X29000000Y-116220000D03*
X31540000Y-113680000D03*
X29000000Y-113680000D03*
X31540000Y-111140000D03*
X29000000Y-111140000D03*
%TD*%
D24*
%TO.C,JP4*%
X93750000Y-47250000D03*
D25*
X93750000Y-45950000D03*
%TD*%
D24*
%TO.C,JP3*%
X74550000Y-46900000D03*
D25*
X74550000Y-45600000D03*
%TD*%
D30*
%TO.C,J25*%
X31847500Y-56045000D03*
D27*
X29307500Y-56045000D03*
X31847500Y-53505000D03*
X29307500Y-53505000D03*
X31847500Y-50965000D03*
X29307500Y-50965000D03*
%TD*%
D31*
%TO.C,F1*%
X145895000Y-139072500D03*
X145895000Y-135672500D03*
X135975000Y-139072500D03*
X135975000Y-135672500D03*
%TD*%
D20*
%TO.C,J7*%
X87400000Y-159510000D03*
D19*
X89900000Y-159510000D03*
X92400000Y-159510000D03*
X94900000Y-159510000D03*
%TD*%
D32*
%TO.C,J2*%
X156970000Y-28680000D03*
D33*
X152170000Y-25680000D03*
D34*
X156970000Y-22430000D03*
%TD*%
D35*
%TO.C,J9*%
X49890000Y-158070000D03*
D36*
X47350000Y-155530000D03*
X47350000Y-160610000D03*
X52430000Y-155530000D03*
X52430000Y-160610000D03*
%TD*%
D18*
%TO.C,J18*%
X59400000Y-18712500D03*
D19*
X56900000Y-18712500D03*
X54400000Y-18712500D03*
X51900000Y-18712500D03*
X49400000Y-18712500D03*
%TD*%
D37*
%TO.C,J1*%
X192650000Y-19422500D03*
D38*
X185450000Y-19422500D03*
%TD*%
D18*
%TO.C,J19*%
X77900000Y-18712500D03*
D19*
X75400000Y-18712500D03*
X72900000Y-18712500D03*
X70400000Y-18712500D03*
X67900000Y-18712500D03*
%TD*%
D16*
%TO.C,J14*%
X184320000Y-153000000D03*
D17*
X189400000Y-153000000D03*
%TD*%
D37*
%TO.C,J10*%
X142300000Y-152600000D03*
D38*
X135100000Y-152600000D03*
%TD*%
D24*
%TO.C,JP1*%
X36850000Y-47080000D03*
D25*
X36850000Y-45780000D03*
%TD*%
D16*
%TO.C,J11*%
X155055000Y-153037500D03*
D17*
X160135000Y-153037500D03*
%TD*%
D22*
%TO.C,J21*%
X212490000Y-107680000D03*
D23*
X212490000Y-105680000D03*
%TD*%
D21*
%TO.C,H3*%
X213000000Y-19212500D03*
%TD*%
D26*
%TO.C,J26*%
X33290000Y-147500000D03*
D27*
X33290000Y-150040000D03*
X30750000Y-147500000D03*
X30750000Y-150040000D03*
X28210000Y-147500000D03*
X28210000Y-150040000D03*
X25670000Y-147500000D03*
X25670000Y-150040000D03*
%TD*%
D18*
%TO.C,J15*%
X130589998Y-18667500D03*
D19*
X128089998Y-18667500D03*
X125589998Y-18667500D03*
X123089998Y-18667500D03*
%TD*%
D21*
%TO.C,H5*%
X123000000Y-159212500D03*
%TD*%
%TO.C,H6*%
X23000000Y-159212500D03*
%TD*%
M02*
