%TF.GenerationSoftware,KiCad,Pcbnew,10.0.3*%
%TF.CreationDate,2026-06-10T22:21:09-07:00*%
%TF.ProjectId,master_gse_pcb_project,6d617374-6572-45f6-9773-655f7063625f,rev?*%
%TF.SameCoordinates,Original*%
%TF.FileFunction,Copper,L4,Inr*%
%TF.FilePolarity,Positive*%
%FSLAX46Y46*%
G04 Gerber Fmt 4.6, Leading zero omitted, Abs format (unit mm)*
G04 Created by KiCad (PCBNEW 10.0.3) date 2026-06-10 22:21:09*
%MOMM*%
%LPD*%
G01*
G04 APERTURE LIST*
G04 Aperture macros list*
%AMRoundRect*
0 Rectangle with rounded corners*
0 $1 Rounding radius*
0 $2 $3 $4 $5 $6 $7 $8 $9 X,Y pos of 4 corners*
0 Add a 4 corners polygon primitive as box body*
4,1,4,$2,$3,$4,$5,$6,$7,$8,$9,$2,$3,0*
0 Add four circle primitives for the rounded corners*
1,1,$1+$1,$2,$3*
1,1,$1+$1,$4,$5*
1,1,$1+$1,$6,$7*
1,1,$1+$1,$8,$9*
0 Add four rect primitives between the rounded corners*
20,1,$1+$1,$2,$3,$4,$5,0*
20,1,$1+$1,$4,$5,$6,$7,0*
20,1,$1+$1,$6,$7,$8,$9,0*
20,1,$1+$1,$8,$9,$2,$3,0*%
G04 Aperture macros list end*
%TA.AperFunction,ComponentPad*%
%ADD10C,0.400000*%
%TD*%
%TA.AperFunction,ComponentPad*%
%ADD11O,2.000000X0.900000*%
%TD*%
%TA.AperFunction,ComponentPad*%
%ADD12O,1.700000X0.900000*%
%TD*%
%TA.AperFunction,ComponentPad*%
%ADD13O,3.500000X2.200000*%
%TD*%
%TA.AperFunction,ComponentPad*%
%ADD14R,2.500000X1.500000*%
%TD*%
%TA.AperFunction,ComponentPad*%
%ADD15O,2.500000X1.500000*%
%TD*%
%TA.AperFunction,ComponentPad*%
%ADD16RoundRect,0.250000X-1.050000X-1.050000X1.050000X-1.050000X1.050000X1.050000X-1.050000X1.050000X0*%
%TD*%
%TA.AperFunction,ComponentPad*%
%ADD17C,2.600000*%
%TD*%
%TA.AperFunction,ComponentPad*%
%ADD18RoundRect,0.250000X0.600000X0.725000X-0.600000X0.725000X-0.600000X-0.725000X0.600000X-0.725000X0*%
%TD*%
%TA.AperFunction,ComponentPad*%
%ADD19O,1.700000X1.950000*%
%TD*%
%TA.AperFunction,ComponentPad*%
%ADD20RoundRect,0.250000X-0.600000X-0.725000X0.600000X-0.725000X0.600000X0.725000X-0.600000X0.725000X0*%
%TD*%
%TA.AperFunction,ComponentPad*%
%ADD21C,5.600000*%
%TD*%
%TA.AperFunction,ComponentPad*%
%ADD22RoundRect,0.250000X0.625000X-0.350000X0.625000X0.350000X-0.625000X0.350000X-0.625000X-0.350000X0*%
%TD*%
%TA.AperFunction,ComponentPad*%
%ADD23O,1.750000X1.200000*%
%TD*%
%TA.AperFunction,ComponentPad*%
%ADD24R,1.700000X1.700000*%
%TD*%
%TA.AperFunction,ComponentPad*%
%ADD25C,1.700000*%
%TD*%
%TA.AperFunction,ComponentPad*%
%ADD26C,3.000000*%
%TD*%
%TA.AperFunction,ComponentPad*%
%ADD27C,2.500000*%
%TD*%
%TA.AperFunction,ComponentPad*%
%ADD28RoundRect,0.250000X0.600000X0.600000X-0.600000X0.600000X-0.600000X-0.600000X0.600000X-0.600000X0*%
%TD*%
%TA.AperFunction,ComponentPad*%
%ADD29C,2.780000*%
%TD*%
%TA.AperFunction,ComponentPad*%
%ADD30O,4.560000X2.280000*%
%TD*%
%TA.AperFunction,ComponentPad*%
%ADD31O,2.025000X4.050000*%
%TD*%
%TA.AperFunction,ComponentPad*%
%ADD32O,4.050000X2.025000*%
%TD*%
%TA.AperFunction,ComponentPad*%
%ADD33C,2.050000*%
%TD*%
%TA.AperFunction,ComponentPad*%
%ADD34C,2.250000*%
%TD*%
%TA.AperFunction,ComponentPad*%
%ADD35RoundRect,1.500000X1.500000X1.500000X-1.500000X1.500000X-1.500000X-1.500000X1.500000X-1.500000X0*%
%TD*%
%TA.AperFunction,ComponentPad*%
%ADD36C,6.000000*%
%TD*%
%TA.AperFunction,ViaPad*%
%ADD37C,0.700000*%
%TD*%
%TA.AperFunction,ViaPad*%
%ADD38C,0.600000*%
%TD*%
%TA.AperFunction,Conductor*%
%ADD39C,0.177800*%
%TD*%
%TA.AperFunction,Conductor*%
%ADD40C,0.254000*%
%TD*%
G04 APERTURE END LIST*
D10*
%TO.N,/igniter_system/VIN_EFUSE*%
%TO.C,U18*%
X146150000Y-120862500D03*
X147250000Y-120862500D03*
X145050000Y-121812500D03*
X146150000Y-121812500D03*
X147250000Y-121812500D03*
X145050000Y-120862500D03*
%TO.N,GND*%
X145050000Y-122887500D03*
X146150000Y-122887500D03*
X147250000Y-122887500D03*
%TD*%
%TO.N,GND*%
%TO.C,U3*%
X181300000Y-59117500D03*
X182400000Y-59117500D03*
X183500000Y-59117500D03*
%TO.N,/power_distribution/input_muxing/efuse/VIN_UNSAFE*%
X181300000Y-60192500D03*
X182400000Y-60192500D03*
X183500000Y-60192500D03*
X181300000Y-61142500D03*
X182400000Y-61142500D03*
X183500000Y-61142500D03*
%TD*%
D11*
%TO.N,Net-(J3-SHIELD)*%
%TO.C,J3*%
X24840000Y-67910000D03*
D12*
X20670000Y-67910000D03*
D11*
X24840000Y-76550000D03*
D12*
X20670000Y-76550000D03*
%TD*%
D13*
%TO.N,*%
%TO.C,SW1*%
X78000000Y-103850000D03*
X78000000Y-112050000D03*
D14*
%TO.N,GND*%
X78000000Y-105950000D03*
D15*
%TO.N,Net-(SW1-B)*%
X78000000Y-107950000D03*
%TO.N,+3V3*%
X78000000Y-109950000D03*
%TD*%
D16*
%TO.N,Net-(J12-Pin_1)*%
%TO.C,J12*%
X169680000Y-153000000D03*
D17*
%TO.N,/igniter_system/IGN_ARM*%
X174760000Y-153000000D03*
%TD*%
D18*
%TO.N,/DAQ/TC3/T2-*%
%TO.C,J16*%
X115339998Y-18642500D03*
D19*
%TO.N,/DAQ/TC3/T2+*%
X112839998Y-18642500D03*
%TO.N,/DAQ/TC3/T1-*%
X110339998Y-18642500D03*
%TO.N,/DAQ/TC3/T1+*%
X107839998Y-18642500D03*
%TD*%
D20*
%TO.N,/RS_485/TX_MAIN_485_P*%
%TO.C,J6*%
X71400000Y-159490000D03*
D19*
%TO.N,/RS_485/TX_MAIN_485_N*%
X73900000Y-159490000D03*
%TO.N,/RS_485/RX_MAIN_485_N*%
X76400000Y-159490000D03*
%TO.N,/RS_485/RX_MAIN_485_P*%
X78900000Y-159490000D03*
%TD*%
D21*
%TO.N,GND*%
%TO.C,H1*%
X23000000Y-19212500D03*
%TD*%
%TO.N,GND*%
%TO.C,H4*%
X213000000Y-159212500D03*
%TD*%
D20*
%TO.N,GND*%
%TO.C,J8*%
X103150000Y-159510000D03*
D19*
%TO.N,/can_bus/CAN_N*%
X105650000Y-159510000D03*
%TO.N,/can_bus/CAN_P*%
X108150000Y-159510000D03*
%TO.N,+5V*%
X110650000Y-159510000D03*
%TD*%
D18*
%TO.N,/DAQ/PT1/PT1_E+*%
%TO.C,J17*%
X41400000Y-18712500D03*
D19*
%TO.N,GND*%
X38900000Y-18712500D03*
%TO.N,/DAQ/PT1/PT1_A-*%
X36400000Y-18712500D03*
%TO.N,/DAQ/PT1/PT1_A+*%
X33900000Y-18712500D03*
%TO.N,GND*%
X31400000Y-18712500D03*
%TD*%
D22*
%TO.N,+12V*%
%TO.C,J22*%
X212510000Y-99410000D03*
D23*
%TO.N,Net-(J22-Pin_2)*%
X212510000Y-97410000D03*
%TD*%
D21*
%TO.N,GND*%
%TO.C,H2*%
X138000000Y-19212500D03*
%TD*%
D24*
%TO.N,+3V3*%
%TO.C,J4*%
X22910000Y-33910000D03*
D25*
%TO.N,/stm32_controller/SWCLK*%
X25450000Y-33910000D03*
%TO.N,GND*%
X22910000Y-36450000D03*
%TO.N,/stm32_controller/SWDIO*%
X25450000Y-36450000D03*
%TO.N,/stm32_controller/NRST*%
X22910000Y-38990000D03*
%TO.N,unconnected-(J4-Pin_6-Pad6)*%
X25450000Y-38990000D03*
%TD*%
D18*
%TO.N,/DAQ/LC2/LC2_E+*%
%TO.C,J20*%
X97900000Y-18712500D03*
D19*
%TO.N,GND*%
X95400000Y-18712500D03*
%TO.N,/DAQ/LC2/LC2_A-*%
X92900000Y-18712500D03*
%TO.N,/DAQ/LC2/LC2_A+*%
X90400000Y-18712500D03*
%TO.N,GND*%
X87900000Y-18712500D03*
%TD*%
D16*
%TO.N,+5V*%
%TO.C,J13*%
X198970000Y-153000000D03*
D17*
%TO.N,Net-(J13-Pin_2)*%
X204050000Y-153000000D03*
%TD*%
D26*
%TO.N,GND*%
%TO.C,K1*%
X199050000Y-118050000D03*
D27*
%TO.N,/igniter_system/IGN_RLY-*%
X193000000Y-120000000D03*
D26*
%TO.N,GND*%
X193000000Y-132200000D03*
%TO.N,Net-(D33-K)*%
X205050000Y-132250000D03*
D27*
%TO.N,+5V*%
X205000000Y-120000000D03*
%TD*%
D28*
%TO.N,/misc/PIN1*%
%TO.C,J23*%
X31540000Y-134000000D03*
D25*
%TO.N,+3V3*%
X29000000Y-134000000D03*
%TO.N,GND*%
X31540000Y-131460000D03*
%TO.N,/misc/PIN4*%
X29000000Y-131460000D03*
%TO.N,/misc/P5*%
X31540000Y-128920000D03*
%TO.N,GND*%
X29000000Y-128920000D03*
X31540000Y-126380000D03*
%TO.N,/misc/P8*%
X29000000Y-126380000D03*
%TO.N,/misc/P9*%
X31540000Y-123840000D03*
%TO.N,GND*%
X29000000Y-123840000D03*
X31540000Y-121300000D03*
%TO.N,/misc/P12*%
X29000000Y-121300000D03*
%TO.N,/misc/P13*%
X31540000Y-118760000D03*
%TO.N,GND*%
X29000000Y-118760000D03*
X31540000Y-116220000D03*
%TO.N,/misc/P16*%
X29000000Y-116220000D03*
%TO.N,/misc/P17*%
X31540000Y-113680000D03*
%TO.N,GND*%
X29000000Y-113680000D03*
X31540000Y-111140000D03*
%TO.N,/misc/P20*%
X29000000Y-111140000D03*
%TD*%
D28*
%TO.N,+3V3*%
%TO.C,J25*%
X31847500Y-56045000D03*
D25*
%TO.N,GND*%
X29307500Y-56045000D03*
%TO.N,/misc/BCK*%
X31847500Y-53505000D03*
%TO.N,/misc/DIN*%
X29307500Y-53505000D03*
%TO.N,/misc/LRCK*%
X31847500Y-50965000D03*
%TO.N,/misc/SCLK*%
X29307500Y-50965000D03*
%TD*%
D29*
%TO.N,Net-(J10-Pin_1)*%
%TO.C,F1*%
X145895000Y-139072500D03*
X145895000Y-135672500D03*
%TO.N,/igniter_system/VIN_EFUSE*%
X135975000Y-139072500D03*
X135975000Y-135672500D03*
%TD*%
D20*
%TO.N,/RS_485/TX_AUX_485_P*%
%TO.C,J7*%
X87400000Y-159510000D03*
D19*
%TO.N,/RS_485/TX_AUX_485_N*%
X89900000Y-159510000D03*
%TO.N,/RS_485/RX_AUX_485_N*%
X92400000Y-159510000D03*
%TO.N,/RS_485/RX_AUX_485_P*%
X94900000Y-159510000D03*
%TD*%
D30*
%TO.N,/power_distribution/input_muxing/VIN_DC_JACK*%
%TO.C,J2*%
X156970000Y-28680000D03*
D31*
%TO.N,/power_distribution/JACK_DETECT*%
X152170000Y-25680000D03*
D32*
%TO.N,GND*%
X156970000Y-22430000D03*
%TD*%
D33*
%TO.N,Net-(J9-In)*%
%TO.C,J9*%
X49890000Y-158070000D03*
D34*
%TO.N,GND*%
X47350000Y-155530000D03*
X47350000Y-160610000D03*
X52430000Y-155530000D03*
X52430000Y-160610000D03*
%TD*%
D18*
%TO.N,/DAQ/PT2/PT2_E+*%
%TO.C,J18*%
X59400000Y-18712500D03*
D19*
%TO.N,GND*%
X56900000Y-18712500D03*
%TO.N,/DAQ/PT2/PT2_A-*%
X54400000Y-18712500D03*
%TO.N,/DAQ/PT2/PT2_A+*%
X51900000Y-18712500D03*
%TO.N,GND*%
X49400000Y-18712500D03*
%TD*%
D35*
%TO.N,/power_distribution/input_muxing/VIN_BAT*%
%TO.C,J1*%
X192650000Y-19422500D03*
D36*
%TO.N,GND*%
X185450000Y-19422500D03*
%TD*%
D18*
%TO.N,/DAQ/LC1/LC1_E+*%
%TO.C,J19*%
X77900000Y-18712500D03*
D19*
%TO.N,GND*%
X75400000Y-18712500D03*
%TO.N,/DAQ/LC1/LC1_A-*%
X72900000Y-18712500D03*
%TO.N,/DAQ/LC1/LC1_A+*%
X70400000Y-18712500D03*
%TO.N,GND*%
X67900000Y-18712500D03*
%TD*%
D16*
%TO.N,Net-(D33-K)*%
%TO.C,J14*%
X184320000Y-153000000D03*
D17*
%TO.N,GND*%
X189400000Y-153000000D03*
%TD*%
D35*
%TO.N,Net-(J10-Pin_1)*%
%TO.C,J10*%
X142300000Y-152600000D03*
D36*
%TO.N,GND*%
X135100000Y-152600000D03*
%TD*%
D16*
%TO.N,/igniter_system/IGN_ARM*%
%TO.C,J11*%
X155055000Y-153037500D03*
D17*
%TO.N,GND*%
X160135000Y-153037500D03*
%TD*%
D22*
%TO.N,+12V*%
%TO.C,J21*%
X212490000Y-107680000D03*
D23*
%TO.N,Net-(J21-Pin_2)*%
X212490000Y-105680000D03*
%TD*%
D21*
%TO.N,GND*%
%TO.C,H3*%
X213000000Y-19212500D03*
%TD*%
D24*
%TO.N,+3V3*%
%TO.C,J26*%
X33290000Y-147500000D03*
D25*
%TO.N,GND*%
X33290000Y-150040000D03*
%TO.N,/rf/RADIO_NSS*%
X30750000Y-147500000D03*
%TO.N,/rf/RADIO_MOSI*%
X30750000Y-150040000D03*
%TO.N,/rf/RADIO_RESET*%
X28210000Y-147500000D03*
%TO.N,/rf/RADIO_MISO*%
X28210000Y-150040000D03*
%TO.N,/rf/RADIO_INT*%
X25670000Y-147500000D03*
%TO.N,/rf/RADIO_SCK*%
X25670000Y-150040000D03*
%TD*%
D18*
%TO.N,/DAQ/TC1/T4-*%
%TO.C,J15*%
X130589998Y-18667500D03*
D19*
%TO.N,/DAQ/TC1/T4+*%
X128089998Y-18667500D03*
%TO.N,/DAQ/TC1/T3-*%
X125589998Y-18667500D03*
%TO.N,/DAQ/TC1/T3+*%
X123089998Y-18667500D03*
%TD*%
D21*
%TO.N,GND*%
%TO.C,H5*%
X123000000Y-159212500D03*
%TD*%
%TO.N,GND*%
%TO.C,H6*%
X23000000Y-159212500D03*
%TD*%
D37*
%TO.N,GND*%
X19000000Y-47000000D03*
X19000000Y-42000000D03*
X19000000Y-52000000D03*
X19000000Y-57000000D03*
X19000000Y-62000000D03*
X19000000Y-67000000D03*
X39920000Y-76020000D03*
X48000000Y-84300000D03*
X45550000Y-81840000D03*
X46790000Y-83040000D03*
X42680000Y-78910000D03*
X44290000Y-80500000D03*
X56620000Y-84870000D03*
X57970000Y-84870000D03*
X59070000Y-86050000D03*
X64700000Y-84310000D03*
X62960000Y-84250000D03*
X61580000Y-83750000D03*
X60390000Y-82530000D03*
X58970000Y-81420000D03*
X57050000Y-81440000D03*
X55370000Y-81420000D03*
X49780000Y-80410000D03*
X48570000Y-79150000D03*
X47330000Y-77950000D03*
X46070000Y-76610000D03*
X44460000Y-75020000D03*
X43190000Y-73800000D03*
X41580000Y-72160000D03*
X40630000Y-71170000D03*
X39320000Y-70040000D03*
X37250000Y-70100000D03*
X36000000Y-70110000D03*
X34680000Y-70120000D03*
X195770000Y-142610000D03*
X191260000Y-145960000D03*
X193750000Y-146100000D03*
X195130000Y-146480000D03*
X128380000Y-123110000D03*
X128330000Y-127890000D03*
X126120000Y-127910000D03*
X125100000Y-127040000D03*
X124830000Y-125350000D03*
X125020000Y-123880000D03*
X126130000Y-123120000D03*
%TO.N,/igniter_system/IGNITER_FIRE*%
X126710000Y-132640000D03*
%TO.N,GND*%
X203990000Y-137870000D03*
X143190000Y-123240000D03*
X143180000Y-122400000D03*
D38*
X156050000Y-129540000D03*
X156030000Y-131420000D03*
X156050000Y-130540000D03*
X150490000Y-131370000D03*
X150510000Y-130490000D03*
X150510000Y-129490000D03*
X152250000Y-129490000D03*
X152250000Y-130420000D03*
X152230000Y-131340000D03*
X154130000Y-130520000D03*
X154110000Y-131400000D03*
X154130000Y-129520000D03*
X146700000Y-129520000D03*
X146700000Y-130450000D03*
X146680000Y-131370000D03*
X148690000Y-130470000D03*
X148670000Y-131350000D03*
X148690000Y-129470000D03*
X144820000Y-131420000D03*
X144840000Y-130540000D03*
X144840000Y-129540000D03*
X142630000Y-131410000D03*
X142650000Y-130490000D03*
X142650000Y-129560000D03*
X152390000Y-122020000D03*
X72610000Y-93990000D03*
X23180000Y-75300000D03*
X22250000Y-73270000D03*
X22260000Y-70990000D03*
X23260000Y-69130000D03*
X85770000Y-84580000D03*
X86120000Y-83570000D03*
X83260000Y-83780000D03*
X83340000Y-82500000D03*
X81930000Y-85880000D03*
X83400000Y-85830000D03*
X83440000Y-86720000D03*
X84970000Y-86740000D03*
X84970000Y-87840000D03*
X84970000Y-89100000D03*
X85940000Y-87850000D03*
X85940000Y-89050000D03*
D37*
%TO.N,+3V3*%
X65400000Y-87720000D03*
D38*
%TO.N,Net-(JP1-B)*%
X38090000Y-45490000D03*
%TO.N,Net-(JP2-B)*%
X56910000Y-45630000D03*
%TO.N,GND*%
X55640000Y-48300000D03*
%TO.N,Net-(JP3-B)*%
X75840000Y-45440000D03*
%TO.N,Net-(JP4-B)*%
X95020000Y-45720000D03*
D37*
%TO.N,/USB_C/VBUS*%
X26580000Y-69370000D03*
%TO.N,GND*%
X26285485Y-76104907D03*
X26285000Y-68380000D03*
D38*
X26813934Y-72974539D03*
D37*
%TO.N,/USB_C/VBUS*%
X28935000Y-76760000D03*
D38*
%TO.N,Net-(D15-K)*%
X27785000Y-68980000D03*
%TO.N,GND*%
X29285000Y-70118900D03*
D37*
%TO.N,/power_distribution/input_muxing/efuse/VIN_UNSAFE*%
X155350000Y-55150000D03*
X193200000Y-51700000D03*
X159350000Y-55150000D03*
D38*
X186160000Y-61750000D03*
X191770000Y-63520000D03*
D37*
X190150000Y-50500000D03*
X191750000Y-50500000D03*
X158000000Y-54100000D03*
X191750000Y-51700000D03*
X179550000Y-60250000D03*
D38*
X193070000Y-61420000D03*
X186110000Y-63210000D03*
X191800000Y-62530000D03*
D37*
%TO.N,GND*%
X20050000Y-85650000D03*
X185450000Y-51750000D03*
D38*
X93750000Y-48340000D03*
X108380000Y-26720000D03*
D37*
X89900000Y-138750000D03*
X41750000Y-46100000D03*
X34500000Y-85550000D03*
X92400000Y-138750000D03*
D38*
X98750000Y-46350000D03*
X38750000Y-91786100D03*
D37*
X166600000Y-80750000D03*
X204045952Y-143345769D03*
X69100000Y-138900000D03*
X93850000Y-80900000D03*
X177150000Y-125750000D03*
X168800000Y-80700000D03*
X85000000Y-128500000D03*
X132000000Y-114200000D03*
D38*
X80890000Y-93240000D03*
X214950000Y-110650000D03*
X92620000Y-87460000D03*
X35650000Y-32300000D03*
D37*
X79630000Y-46020000D03*
D38*
X115660000Y-26810000D03*
D37*
X126500000Y-46750000D03*
X204045952Y-144695769D03*
X205445952Y-144695769D03*
X178350000Y-51750000D03*
D38*
X77640000Y-149610000D03*
D37*
X134100000Y-104100000D03*
X185600000Y-131100000D03*
X36300000Y-98350000D03*
X45700000Y-131700000D03*
D38*
X52850000Y-73200000D03*
D37*
X173700000Y-78550000D03*
X134100000Y-108100000D03*
X117100000Y-42500000D03*
D38*
X75920000Y-93270000D03*
D37*
X104100000Y-49400000D03*
D38*
X192350000Y-90550000D03*
X87461100Y-66220000D03*
X159950000Y-69650000D03*
D37*
X80950000Y-125750000D03*
D38*
X106950000Y-149370000D03*
X65630000Y-76250000D03*
X72670000Y-149560000D03*
X169850000Y-50950000D03*
X122250000Y-137750000D03*
X121000000Y-39100000D03*
D37*
X188600000Y-128650000D03*
X175250000Y-128600000D03*
D38*
X87070000Y-93010000D03*
X159950000Y-71750000D03*
D37*
X73000000Y-138850000D03*
X30085000Y-68730000D03*
D38*
X174400000Y-87100000D03*
X127700000Y-146400000D03*
D37*
X83950000Y-128200000D03*
D38*
X80900000Y-42250000D03*
D37*
X125550000Y-42300000D03*
X69150000Y-132950000D03*
X166550000Y-79100000D03*
D38*
X100100000Y-42800000D03*
D37*
X56400000Y-41490000D03*
X188600000Y-131150000D03*
D38*
X105000000Y-39650000D03*
X122250000Y-142900000D03*
D37*
X162400000Y-79100000D03*
D38*
X129320000Y-26440000D03*
X98350000Y-101500000D03*
X127700000Y-36600000D03*
D37*
X197850000Y-85800000D03*
X69150000Y-129600000D03*
D38*
X183250000Y-85600000D03*
D37*
X110650000Y-46800000D03*
X134050000Y-46700000D03*
X180150000Y-51750000D03*
D38*
X112050000Y-144350000D03*
X73100000Y-35400000D03*
X122250000Y-132550000D03*
D37*
X170850000Y-79050000D03*
X173700000Y-76450000D03*
X175350000Y-80500000D03*
X168750000Y-79050000D03*
D38*
X98600000Y-27850000D03*
X71700000Y-24700000D03*
D37*
X175350000Y-78500000D03*
D38*
X106550000Y-37050000D03*
D37*
X36350000Y-91300000D03*
X86100000Y-138800000D03*
D38*
X79250000Y-38900000D03*
X40050000Y-24800000D03*
D37*
X177200000Y-131100000D03*
X197850000Y-87500000D03*
D38*
X119350000Y-35550000D03*
D37*
X80600000Y-138750000D03*
X181250000Y-131100000D03*
X187200000Y-51750000D03*
X73110000Y-39740000D03*
X35260000Y-39930000D03*
X177200000Y-128600000D03*
X30400000Y-85650000D03*
D38*
X183450000Y-114500000D03*
X66992893Y-104342893D03*
X75630000Y-66150000D03*
D37*
X64430000Y-41200000D03*
D38*
X179400000Y-139650000D03*
X94580000Y-70290000D03*
D37*
X144550000Y-82300000D03*
D38*
X159950000Y-67450000D03*
D37*
X197850000Y-89900000D03*
X84750000Y-130650000D03*
X134100000Y-106900000D03*
X183700000Y-51750000D03*
D38*
X52850000Y-68250000D03*
D37*
X183500000Y-128600000D03*
D38*
X94270000Y-86550000D03*
D37*
X75800000Y-125400000D03*
X92360000Y-39930000D03*
D38*
X43481728Y-92248900D03*
D37*
X144550000Y-79700000D03*
X36450000Y-88150000D03*
X135800000Y-98700000D03*
X125040000Y-109397500D03*
D38*
X93640000Y-149740000D03*
X100600000Y-75750000D03*
D37*
X80600000Y-133000000D03*
X75500000Y-133050000D03*
D38*
X52800000Y-65600000D03*
D37*
X173150000Y-82450000D03*
X75500000Y-138900000D03*
D38*
X112550000Y-39700000D03*
D37*
X133200000Y-42250000D03*
X173000000Y-131100000D03*
X97500000Y-133050000D03*
X92500000Y-132900000D03*
X164450000Y-79100000D03*
D38*
X203850000Y-99250000D03*
X78000000Y-117100000D03*
D37*
X177100000Y-65300000D03*
D38*
%TO.N,/power_distribution/input_muxing/efuse/VIN_UNSAFE*%
X193060000Y-62560000D03*
D37*
%TO.N,GND*%
X37820000Y-41520000D03*
X164500000Y-80750000D03*
D38*
%TO.N,/power_distribution/input_muxing/efuse/VIN_UNSAFE*%
X188860000Y-61730000D03*
D37*
X156700000Y-54100000D03*
D38*
X187440000Y-63230000D03*
D37*
X193200000Y-50500000D03*
D38*
X193090000Y-63500000D03*
D37*
X158000000Y-55150000D03*
D38*
X190450000Y-62580000D03*
X190440000Y-63470000D03*
X187530000Y-61760000D03*
X188790000Y-63200000D03*
D37*
X159350000Y-54100000D03*
X156700000Y-55150000D03*
X190200000Y-51700000D03*
X155350000Y-54100000D03*
D38*
%TO.N,GND*%
X38353271Y-92963900D03*
D37*
X42450000Y-134400000D03*
D38*
%TO.N,+3V3*%
X133000000Y-61250000D03*
X63450000Y-69100000D03*
X88040000Y-92980000D03*
X130850000Y-58200000D03*
X68800000Y-101750000D03*
D37*
X101900000Y-140150000D03*
X41100000Y-128600000D03*
D38*
X129000000Y-61250000D03*
X129000000Y-59600000D03*
D37*
X70850000Y-125000000D03*
X32800000Y-79900000D03*
D38*
X78450000Y-98600000D03*
D37*
X44250000Y-128600000D03*
D38*
X65630000Y-77200000D03*
X87461100Y-64620000D03*
D37*
X93650000Y-92051400D03*
D38*
X66850000Y-63400000D03*
D37*
X86640000Y-125100000D03*
D38*
X36983584Y-94261100D03*
X69650000Y-66400000D03*
X133000000Y-59500000D03*
X65660000Y-82290000D03*
X86590000Y-66200000D03*
D37*
X77550000Y-125450000D03*
X133200000Y-100000000D03*
X32500000Y-85550000D03*
X79400000Y-125650000D03*
X82940000Y-61740000D03*
D38*
X71200000Y-62500000D03*
D37*
X133200000Y-100900000D03*
D38*
X130850000Y-61250000D03*
X166050000Y-110350000D03*
X66090000Y-100370000D03*
X126840000Y-140470000D03*
D37*
%TO.N,/igniter_system/SENSE*%
X177900000Y-140800000D03*
%TO.N,/igniter_system/IGN_ARM*%
X124700000Y-151600000D03*
D38*
%TO.N,/igniter_system/IGNITER+*%
X198500000Y-143500000D03*
D37*
%TO.N,/igniter_system/IGN_ARM*%
X161650000Y-114310000D03*
D38*
%TO.N,+3V3*%
X76890000Y-93210000D03*
D37*
X134700000Y-100000000D03*
X88100000Y-95110000D03*
D38*
X136250000Y-103700000D03*
X61000000Y-105250000D03*
X84850000Y-98850000D03*
D37*
%TO.N,/igniter_system/SENSE*%
X123800000Y-83800000D03*
D38*
%TO.N,Net-(D7-K)*%
X188550000Y-39750000D03*
X194250000Y-39100000D03*
D37*
%TO.N,+5V*%
X160550000Y-92000000D03*
D38*
%TO.N,+3V3*%
X129000000Y-58250000D03*
X130900000Y-59550000D03*
D37*
X96500000Y-125700000D03*
D38*
X95140000Y-65600000D03*
X94830000Y-129430000D03*
D37*
X134700000Y-100900000D03*
D38*
X74660000Y-66160000D03*
X80800000Y-99100000D03*
X80350000Y-66090000D03*
X171850000Y-107400000D03*
X92680000Y-86480000D03*
D37*
%TO.N,/igniter_system/IGN_ARM*%
X161640000Y-123460000D03*
%TO.N,/igniter_system/IGNITER+*%
X155250000Y-121300000D03*
D38*
X156300000Y-124150000D03*
D37*
X128500000Y-131350000D03*
%TO.N,+3V3A*%
X41810000Y-45170000D03*
D38*
X128950000Y-55750000D03*
X130100000Y-54650000D03*
D37*
X106850000Y-38150000D03*
D38*
X38350000Y-47840000D03*
D37*
%TO.N,+12V*%
X210550000Y-91200000D03*
X214300000Y-91200000D03*
D38*
%TO.N,/power_distribution/12V_MAIN/12V_MAIN_PG*%
X63600000Y-70771100D03*
%TO.N,/RS_485/DE1*%
X79250000Y-92000000D03*
D37*
%TO.N,+12V*%
X214300000Y-88950000D03*
%TO.N,+3V3A*%
X79650000Y-45080000D03*
%TO.N,+12V*%
X212350000Y-91200000D03*
%TO.N,+3V3A*%
X60350000Y-45180000D03*
D38*
X133050000Y-53800000D03*
X95250000Y-48350000D03*
X98750000Y-45400000D03*
D37*
X128100000Y-48500000D03*
X122966102Y-38200000D03*
%TO.N,GND*%
X19650000Y-102350000D03*
D38*
%TO.N,+12V*%
X214650000Y-85250000D03*
D37*
X212350000Y-88950000D03*
D38*
%TO.N,/power_distribution/12V_MAIN/12V_MAIN_PG*%
X207600000Y-66848600D03*
%TO.N,/RS_485/DE1*%
X74000000Y-121100000D03*
%TO.N,+12V*%
X211250000Y-64700000D03*
D37*
X210500000Y-88950000D03*
D38*
%TO.N,+3V3A*%
X76170000Y-47870000D03*
X130900000Y-56400000D03*
X57080000Y-47850000D03*
D37*
X104100000Y-48350000D03*
X112100000Y-48500000D03*
X114350000Y-38300000D03*
D38*
X132400000Y-55000000D03*
D37*
X130000000Y-38200000D03*
D38*
X131650000Y-53800000D03*
%TO.N,+3V3*%
X81850000Y-93230000D03*
D37*
X42650000Y-128600000D03*
D38*
X92620000Y-80020000D03*
D37*
%TO.N,+3V3A*%
X120450000Y-48550000D03*
%TO.N,+5V*%
X107400000Y-129750000D03*
D38*
%TO.N,/igniter_system/VIN_EFUSE*%
X141790000Y-122010000D03*
X141780000Y-120850000D03*
X141820000Y-123090000D03*
%TO.N,Net-(C89-Pad1)*%
X104660000Y-144440000D03*
%TO.N,/igniter_system/VIN_EFUSE*%
X164100000Y-140900000D03*
%TO.N,/igniter_system/IMON_IC*%
X127350000Y-83150000D03*
%TO.N,Net-(D10-A)*%
X187975000Y-95075000D03*
%TO.N,/misc/PIN12*%
X45300000Y-116800000D03*
D37*
%TO.N,/power_distribution/input_muxing/efuse/EFUSE_PGOOD*%
X153600000Y-66050000D03*
D38*
%TO.N,/power_distribution/3V3_DIGITAL/3V3_EN*%
X186750000Y-91350000D03*
%TO.N,/power_distribution/3V3_DIGITAL/3V3_MAIN_PG*%
X150050000Y-92800000D03*
%TO.N,Net-(D49-A)*%
X137650000Y-102300000D03*
%TO.N,Net-(U3-OVLO)*%
X177100000Y-53100000D03*
%TO.N,/igniter_system/SHUNT_DISABLE*%
X180150000Y-112700000D03*
%TO.N,/igniter_system/VIN_EFUSE*%
X139250000Y-130950000D03*
%TO.N,/igniter_system/IMON_IC*%
X140150000Y-95950000D03*
%TO.N,Net-(D49-A)*%
X101650000Y-100650000D03*
D37*
%TO.N,/igniter_system/PGOOD_IGNITER*%
X95500000Y-90350000D03*
D38*
%TO.N,/igniter_system/IMON_IC*%
X150300000Y-126100000D03*
%TO.N,/igniter_system/PGOOD_IGNITER*%
X149200000Y-123200000D03*
%TO.N,/power_distribution/3V3_DIGITAL/3V3_EN*%
X160450000Y-81850000D03*
%TO.N,/power_distribution/3V3_DIGITAL/3V3_MAIN_PG*%
X86350000Y-85550000D03*
%TO.N,/igniter_system/SHUNT_DISABLE*%
X90905325Y-87080375D03*
X126150000Y-137950000D03*
X128850000Y-140400000D03*
%TO.N,Net-(C89-Pad1)*%
X106770000Y-144470000D03*
X108880000Y-144440000D03*
%TO.N,Net-(U3-OVLO)*%
X188600000Y-53100000D03*
%TO.N,Net-(D10-A)*%
X163200000Y-70750000D03*
%TO.N,/misc/PIN12*%
X73800000Y-83100000D03*
%TO.N,Net-(D15-K)*%
X32405000Y-75180000D03*
%TO.N,/misc/PIN13*%
X45300000Y-115000000D03*
%TO.N,/DAQ/~{T3_CS}*%
X122310000Y-48250000D03*
%TO.N,Net-(R13-Pad1)*%
X152300000Y-66900000D03*
%TO.N,/DAQ/~{TC1_FAULT}*%
X86800000Y-79237800D03*
%TO.N,/DAQ/~{TC3_FAULT}*%
X124910000Y-48200000D03*
D37*
%TO.N,/power_distribution/input_muxing/efuse/EFUSE_PGOOD*%
X148000000Y-66050000D03*
D38*
%TO.N,/stm32_controller/NRST*%
X81000000Y-76550000D03*
%TO.N,/DAQ/~{TC1_DRDY}*%
X86200000Y-78648900D03*
%TO.N,/power_distribution/3V3_STATUS*%
X86575000Y-97425000D03*
%TO.N,/DAQ/~{TC1_DRDY}*%
X105610000Y-42580000D03*
%TO.N,/DAQ/~{T1_CS}*%
X85630000Y-78060000D03*
X106250000Y-48210000D03*
%TO.N,/igniter_system/IGNITER_FIRE*%
X88300000Y-86550000D03*
X142750000Y-126700000D03*
%TO.N,/DAQ/~{TC3_DRDY}*%
X121660000Y-42340000D03*
%TO.N,/DAQ/~{T3_CS}*%
X86100000Y-82148900D03*
%TO.N,/DAQ/~{TC3_FAULT}*%
X87260727Y-83249865D03*
%TO.N,/stm32_controller/NRST*%
X79350000Y-86650000D03*
%TO.N,/misc/PIN13*%
X72800000Y-83550000D03*
%TO.N,/stm32_controller/NRST*%
X83000000Y-118300000D03*
%TO.N,/power_distribution/BAT_DISABLE*%
X206250000Y-51200000D03*
%TO.N,/misc/PIN20*%
X45350000Y-109600000D03*
%TO.N,Net-(R10-Pad1)*%
X103850000Y-58700000D03*
%TO.N,/misc/PIN17*%
X71100000Y-84400000D03*
%TO.N,/DAQ/~{TC3_DRDY}*%
X86671873Y-82708334D03*
%TO.N,/power_distribution/JACK_DETECT*%
X84900000Y-96650000D03*
%TO.N,Net-(R13-Pad1)*%
X146850000Y-66950000D03*
%TO.N,/DAQ/~{TC1_FAULT}*%
X108850000Y-48180000D03*
%TO.N,/misc/PIN17*%
X45300000Y-111400000D03*
%TO.N,/misc/PIN20*%
X70400000Y-84950000D03*
%TO.N,Net-(R10-Pad1)*%
X91600000Y-59750000D03*
%TO.N,/power_distribution/BAT_DISABLE*%
X84850000Y-80250000D03*
%TO.N,/power_distribution/3V3_STATUS*%
X132400000Y-98800000D03*
%TO.N,/misc/PIN4*%
X38150000Y-127450000D03*
D37*
%TO.N,/fans/FAN1_TOGGLE*%
X84888900Y-82850000D03*
D38*
%TO.N,/misc/DIN*%
X65000000Y-72350000D03*
%TO.N,/misc/BCK*%
X66200000Y-71411100D03*
%TO.N,/RS_485/RxD2*%
X84200000Y-73012200D03*
%TO.N,/misc/PIN8*%
X75660000Y-82130000D03*
%TO.N,/misc/PIN5*%
X76550000Y-81690000D03*
%TO.N,/misc/PIN16*%
X45300000Y-113200000D03*
D37*
%TO.N,/fans/FAN1_TOGGLE*%
X97740374Y-89390374D03*
%TO.N,/fans/FAN2_TOGGLE*%
X66550000Y-80490000D03*
D38*
%TO.N,/RS_485/TxD2*%
X85950000Y-74250000D03*
%TO.N,/stm32_controller/SWDIO*%
X59950000Y-87050000D03*
%TO.N,/misc/PIN4*%
X50700000Y-64000000D03*
D37*
%TO.N,/fans/FAN2_TOGGLE*%
X100000000Y-88250000D03*
%TO.N,/fans/FAN1_TOGGLE*%
X193150000Y-102850000D03*
%TO.N,/fans/FAN2_TOGGLE*%
X193100000Y-101600000D03*
D38*
%TO.N,/misc/PIN5*%
X45300000Y-122200000D03*
%TO.N,/misc/PIN8*%
X45300000Y-120400000D03*
%TO.N,/misc/LRCK*%
X66950000Y-69300000D03*
%TO.N,/RS_485/DE2*%
X91150000Y-125500000D03*
D37*
%TO.N,/fans/FAN2_TOGGLE*%
X81600000Y-84800000D03*
D38*
%TO.N,/stm32_controller/SWCLK*%
X56450000Y-90250000D03*
%TO.N,/misc/PIN1*%
X47600000Y-68050000D03*
X37650000Y-128300000D03*
%TO.N,/RS_485/DE2*%
X82750000Y-70750000D03*
%TO.N,/RS_485/TxD2*%
X84250000Y-103050000D03*
D37*
%TO.N,/fans/FAN1_TOGGLE*%
X86250000Y-70500000D03*
D38*
%TO.N,/misc/SCLK*%
X65750000Y-73000000D03*
%TO.N,/RS_485/RxD2*%
X93750000Y-129600000D03*
%TO.N,/misc/PIN9*%
X45300000Y-118600000D03*
X74750000Y-82550000D03*
%TO.N,/misc/PIN16*%
X72000000Y-83950000D03*
%TO.N,/power_distribution/DC_JACK_DISABLE*%
X87000000Y-77250000D03*
X142800000Y-74600000D03*
%TO.N,/pcb_sensors/TEMP1_ALERT*%
X64640000Y-105750000D03*
X65821416Y-104431416D03*
X76740000Y-88650000D03*
%TO.N,GND*%
X184550000Y-113600000D03*
X43150000Y-42700000D03*
D37*
X127240000Y-107997500D03*
D38*
X206700000Y-105850000D03*
X216450000Y-93600000D03*
X35000000Y-24850000D03*
X43850000Y-32100000D03*
X82100000Y-117050000D03*
D37*
X170750000Y-128600000D03*
D38*
X171900000Y-110200000D03*
X91000000Y-74190000D03*
D37*
X179000000Y-128600000D03*
X75620000Y-41290000D03*
D38*
X128400000Y-39050000D03*
D37*
X109500000Y-42500000D03*
D38*
X81045000Y-62593316D03*
X122200000Y-140300000D03*
D37*
X179000000Y-131100000D03*
D38*
X98550000Y-40000000D03*
X126550000Y-36550000D03*
X118950000Y-36500000D03*
D37*
X118450000Y-46800000D03*
D38*
X78950000Y-27950000D03*
X91920000Y-74380000D03*
X33084427Y-126217256D03*
X41650000Y-28050000D03*
X100550000Y-72900000D03*
X73050000Y-32000000D03*
D37*
X43900000Y-133200000D03*
X173700000Y-74400000D03*
X197850000Y-83750000D03*
D38*
X100900000Y-31950000D03*
X204850000Y-77950000D03*
D37*
X67300000Y-127700000D03*
X183550000Y-86550000D03*
D38*
X36250000Y-67000000D03*
X97930630Y-73012200D03*
X134750000Y-36100000D03*
D37*
X53860000Y-39850000D03*
X70500000Y-129550000D03*
D38*
X92150000Y-32050000D03*
X65430000Y-88700000D03*
D37*
X120500000Y-49500000D03*
X35500000Y-82750000D03*
X185600000Y-128600000D03*
X185600000Y-125600000D03*
X94910000Y-41600000D03*
D38*
X192400000Y-86400000D03*
D37*
X97550000Y-138800000D03*
D38*
X167850000Y-108150000D03*
D37*
X175300000Y-131100000D03*
D38*
X36655000Y-76680000D03*
X74540000Y-48030000D03*
D37*
X95000000Y-133000000D03*
D38*
X203750000Y-107550000D03*
X81000000Y-32100000D03*
X41450000Y-39650000D03*
D37*
X181900000Y-51750000D03*
D38*
X92200000Y-35450000D03*
X52850000Y-70700000D03*
D37*
X183550000Y-131100000D03*
D38*
X98370000Y-65840000D03*
X91700000Y-24400000D03*
X97100000Y-79550000D03*
X206700000Y-97450000D03*
D37*
X128100000Y-49450000D03*
D38*
X88650000Y-149760000D03*
X65660000Y-81300000D03*
D37*
X36810000Y-48300000D03*
X60340000Y-46150000D03*
X175350000Y-76400000D03*
X188600000Y-125550000D03*
D38*
X36605000Y-74880000D03*
X76750000Y-24650000D03*
X192450000Y-84650000D03*
X96800000Y-75000000D03*
D37*
X69500000Y-128000000D03*
D38*
X81330000Y-66100000D03*
X111300000Y-37050000D03*
D37*
X197800000Y-81600000D03*
X148500000Y-86850000D03*
X78050000Y-133000000D03*
D38*
X33510866Y-113628034D03*
X139100000Y-100100000D03*
D37*
X162450000Y-80750000D03*
X86850000Y-129500000D03*
D38*
X199895952Y-143695769D03*
X112500000Y-37100000D03*
X95050000Y-68070000D03*
D37*
X175350000Y-74350000D03*
X170750000Y-131100000D03*
D38*
X122300000Y-135100000D03*
X96800000Y-24450000D03*
X23700000Y-80420000D03*
X92696762Y-80971100D03*
X123790000Y-26560000D03*
D37*
X139450000Y-86600000D03*
D38*
X70600000Y-66400000D03*
D37*
X170900000Y-80700000D03*
X204045952Y-142095769D03*
D38*
X37159134Y-125508034D03*
D37*
X112150000Y-49450000D03*
D38*
%TO.N,+5V*%
X176200000Y-95450000D03*
D37*
X164400000Y-92000000D03*
X164400000Y-93600000D03*
X150350000Y-76900000D03*
X100340000Y-36620000D03*
D38*
%TO.N,Net-(D11-A)*%
X156250000Y-95550000D03*
%TO.N,+5V*%
X175000000Y-95250000D03*
X186900000Y-94900000D03*
D37*
X151850000Y-76900000D03*
X150350000Y-78050000D03*
X162450000Y-92000000D03*
X61460000Y-36730000D03*
X43000000Y-36980000D03*
X148800000Y-78050000D03*
X64430000Y-37720000D03*
X45780000Y-38140000D03*
X101560000Y-37130000D03*
X193700000Y-111250000D03*
X148800000Y-76900000D03*
X83620000Y-37240000D03*
X160550000Y-90350000D03*
X151800000Y-78050000D03*
X80380000Y-36720000D03*
D38*
X189800000Y-94300000D03*
D37*
X199450000Y-140000000D03*
X160550000Y-88750000D03*
X160550000Y-93600000D03*
X166250000Y-92000000D03*
X162450000Y-93600000D03*
X166250000Y-93600000D03*
D38*
%TO.N,Net-(D11-A)*%
X162850000Y-68650000D03*
%TO.N,/DAQ/SPI_SCK*%
X130600000Y-45200000D03*
%TO.N,/DAQ/SPI_MISO*%
X115150000Y-44500000D03*
%TO.N,/DAQ/~{T2_CS}*%
X87510000Y-79658900D03*
%TO.N,/DAQ/~{TC2_DRDY}*%
X88105624Y-80192976D03*
%TO.N,/DAQ/SPI_MOSI*%
X84350000Y-67250000D03*
%TO.N,/DAQ/~{TC2_DRDY}*%
X113210000Y-42730000D03*
%TO.N,/DAQ/SPI_SCK*%
X122950000Y-45200000D03*
%TO.N,/DAQ/SPI_MOSI*%
X124250000Y-43900000D03*
D37*
%TO.N,/USB_C/VBUS*%
X123200000Y-114500000D03*
D38*
X32550000Y-67950000D03*
%TO.N,/DAQ/~{T2_CS}*%
X113860000Y-48380000D03*
%TO.N,/DAQ/SPI_MOSI*%
X131900000Y-43900000D03*
D37*
%TO.N,/USB_C/VBUS*%
X123200000Y-113600000D03*
D38*
%TO.N,/DAQ/SPI_MISO*%
X85324877Y-67322250D03*
%TO.N,/DAQ/SPI_SCK*%
X88050000Y-71050000D03*
%TO.N,/DAQ/SPI_MOSI*%
X115800000Y-43900000D03*
%TO.N,/DAQ/SPI_SCK*%
X114500000Y-45200000D03*
%TO.N,/DAQ/SPI_MISO*%
X123600000Y-44500000D03*
%TO.N,/DAQ/SPI_MOSI*%
X108200000Y-43900000D03*
D37*
%TO.N,/USB_C/VBUS*%
X123200000Y-112600000D03*
D38*
%TO.N,/DAQ/~{TC2_FAULT}*%
X116450000Y-48340000D03*
X85508900Y-81560000D03*
%TO.N,/DAQ/SPI_MISO*%
X131311100Y-44509842D03*
%TO.N,/DAQ/SPI_SCK*%
X106900000Y-45200000D03*
%TO.N,/DAQ/SPI_MISO*%
X107550000Y-44500000D03*
%TO.N,/USB_C/VBUS*%
X30670000Y-77560000D03*
%TO.N,/DAQ/~{TC4_DRDY}*%
X129300000Y-42480000D03*
X88433884Y-84373777D03*
%TO.N,/DAQ/~{T4_CS}*%
X129960000Y-48180000D03*
X87833892Y-83844613D03*
%TO.N,/DAQ/~{TC4_FAULT}*%
X88030930Y-85796604D03*
X132560000Y-48040000D03*
%TO.N,/pcb_sensors/TEMP_SCL*%
X85150000Y-100150000D03*
%TO.N,/rf/RADIO_MISO*%
X83400000Y-75540000D03*
%TO.N,/rf/RADIO_SCK*%
X51600000Y-145350000D03*
X53850000Y-146090000D03*
%TO.N,/can_bus/RX*%
X85250000Y-105050000D03*
%TO.N,/pcb_sensors/TEMP_SDA*%
X71100000Y-99550000D03*
X80750000Y-96650000D03*
%TO.N,/pcb_sensors/TEMP_SCL*%
X80800000Y-97500000D03*
%TO.N,/pcb_sensors/TEMP_SDA*%
X77550000Y-97750000D03*
%TO.N,/rf/RADIO_NSS*%
X59880000Y-146020000D03*
%TO.N,/rf/RADIO_MOSI*%
X51550000Y-142750000D03*
X85200000Y-74961100D03*
%TO.N,/rf/RADIO_RESET*%
X61850000Y-131890000D03*
%TO.N,/rf/RADIO_MISO*%
X51550000Y-144050000D03*
X55860000Y-146050000D03*
%TO.N,/rf/RADIO_INT*%
X51450000Y-138850000D03*
%TO.N,/pcb_sensors/TEMP_SDA*%
X92000000Y-108100000D03*
%TO.N,/rf/RADIO_INT*%
X75088900Y-94970000D03*
%TO.N,/pcb_sensors/TEMP_SCL*%
X70250000Y-105550000D03*
%TO.N,/rf/RADIO_RESET*%
X74500000Y-95760000D03*
%TO.N,/rf/RADIO_NSS*%
X51500000Y-141600003D03*
%TO.N,/pcb_sensors/TEMP_SDA*%
X139950000Y-105450000D03*
%TO.N,/rf/RADIO_MOSI*%
X57860000Y-145990000D03*
%TO.N,/rf/RADIO_RESET*%
X51500000Y-140350003D03*
%TO.N,/pcb_sensors/TEMP_SCL*%
X103050000Y-116700000D03*
%TO.N,/rf/RADIO_NSS*%
X74161100Y-92091729D03*
%TO.N,/rf/RADIO_INT*%
X59870000Y-131880000D03*
%TO.N,/rf/RADIO_SCK*%
X72830000Y-92190000D03*
%TO.N,/can_bus/RX*%
X80250000Y-87400000D03*
%TO.N,/pcb_sensors/TEMP2_ALERT*%
X126000000Y-84150000D03*
X91100000Y-75150000D03*
X115800000Y-74550000D03*
D37*
%TO.N,/power_distribution/3V3_DIGITAL/3V3_MAIN*%
X141550000Y-96100000D03*
D38*
%TO.N,/pcb_sensors/TEMP2_ALERT*%
X166000000Y-109200000D03*
D37*
%TO.N,/power_distribution/3V3_DIGITAL/3V3_MAIN*%
X152270000Y-98910000D03*
D38*
%TO.N,Net-(D8-K)*%
X153700000Y-43600000D03*
X160000000Y-42700000D03*
%TO.N,/power_distribution/input_muxing/efuse/IMON_IC*%
X182550000Y-56300000D03*
X163700000Y-58550000D03*
%TO.N,Net-(D9-A)*%
X214900000Y-65000000D03*
X162650000Y-72800000D03*
D37*
%TO.N,+3V3*%
X112860000Y-127640000D03*
%TO.N,/igniter_system/VIN_EFUSE*%
X151070000Y-119510000D03*
%TD*%
%TO.N,/pcb_sensors/TEMP_SDA*%
D39*
X75750000Y-99550000D02*
X77550000Y-97750000D01*
X71100000Y-99550000D02*
X75750000Y-99550000D01*
%TO.N,/igniter_system/IGNITER_FIRE*%
X130230000Y-127620000D02*
X141850000Y-127620000D01*
X126710000Y-131140000D02*
X130230000Y-127620000D01*
X141850000Y-127600000D02*
X142750000Y-126700000D01*
X126710000Y-132640000D02*
X126710000Y-131140000D01*
X141850000Y-127620000D02*
X141850000Y-127600000D01*
%TO.N,/igniter_system/IGNITER+*%
X156300000Y-128610000D02*
X156300000Y-124150000D01*
X171190000Y-143500000D02*
X156300000Y-128610000D01*
X198500000Y-143500000D02*
X171190000Y-143500000D01*
%TO.N,/igniter_system/VIN_EFUSE*%
X140620000Y-132360000D02*
X139250000Y-130990000D01*
X155560000Y-132360000D02*
X140620000Y-132360000D01*
X164100000Y-140900000D02*
X155560000Y-132360000D01*
X139250000Y-130990000D02*
X139250000Y-130950000D01*
%TO.N,/misc/PIN16*%
X46320000Y-113200000D02*
X45300000Y-113200000D01*
X46340000Y-113220000D02*
X46320000Y-113200000D01*
X47340000Y-112220000D02*
X46340000Y-113220000D01*
X47340000Y-104220000D02*
X47340000Y-112220000D01*
X70310000Y-87100000D02*
X64460000Y-87100000D01*
X72000000Y-85410000D02*
X70310000Y-87100000D01*
X64460000Y-87100000D02*
X47340000Y-104220000D01*
X72000000Y-83950000D02*
X72000000Y-85410000D01*
%TO.N,/USB_C/VBUS*%
X26580000Y-69330000D02*
X26580000Y-69370000D01*
X27960000Y-67950000D02*
X26580000Y-69330000D01*
X32550000Y-67950000D02*
X27960000Y-67950000D01*
%TO.N,+3V3*%
X126840000Y-140470000D02*
X125400000Y-139030000D01*
X125400000Y-139030000D02*
X121810000Y-139030000D01*
X121810000Y-139030000D02*
X112860000Y-130080000D01*
X112860000Y-130080000D02*
X112860000Y-127640000D01*
%TO.N,Net-(D8-K)*%
X154400000Y-42900000D02*
X159800000Y-42900000D01*
X153700000Y-43600000D02*
X154400000Y-42900000D01*
X159800000Y-42900000D02*
X160000000Y-42700000D01*
%TO.N,/igniter_system/SHUNT_DISABLE*%
D40*
X126150000Y-137950000D02*
X90900000Y-102700000D01*
X90900000Y-102700000D02*
X90900000Y-87085700D01*
X90900000Y-87085700D02*
X90905325Y-87080375D01*
%TO.N,/power_distribution/3V3_DIGITAL/3V3_MAIN_PG*%
D39*
X86850000Y-85050000D02*
X89200000Y-85050000D01*
%TO.N,Net-(C89-Pad1)*%
X106800000Y-144440000D02*
X106770000Y-144470000D01*
X106740000Y-144440000D02*
X104660000Y-144440000D01*
%TO.N,/power_distribution/3V3_DIGITAL/3V3_MAIN_PG*%
X89200000Y-85050000D02*
X91850000Y-82400000D01*
X138250000Y-82400000D02*
X148650000Y-92800000D01*
X86350000Y-85550000D02*
X86850000Y-85050000D01*
X148650000Y-92800000D02*
X150050000Y-92800000D01*
%TO.N,Net-(C89-Pad1)*%
X108880000Y-144440000D02*
X106800000Y-144440000D01*
X106770000Y-144470000D02*
X106740000Y-144440000D01*
%TO.N,/power_distribution/3V3_DIGITAL/3V3_MAIN_PG*%
X91850000Y-82400000D02*
X138250000Y-82400000D01*
%TO.N,Net-(U3-OVLO)*%
X188150000Y-52650000D02*
X177550000Y-52650000D01*
X177550000Y-52650000D02*
X177100000Y-53100000D01*
X188600000Y-53100000D02*
X188150000Y-52650000D01*
%TO.N,/igniter_system/IMON_IC*%
X140150000Y-95950000D02*
X127350000Y-83150000D01*
%TO.N,Net-(D10-A)*%
X187975000Y-95075000D02*
X187975000Y-95025000D01*
X163700000Y-70750000D02*
X163200000Y-70750000D01*
%TO.N,/misc/PIN12*%
X69060000Y-90230000D02*
X73750000Y-85540000D01*
X49740000Y-113980000D02*
X49740000Y-104800000D01*
X46920000Y-116800000D02*
X49740000Y-113980000D01*
X73750000Y-85540000D02*
X73750000Y-83150000D01*
X45300000Y-116800000D02*
X46920000Y-116800000D01*
X49740000Y-104800000D02*
X64310000Y-90230000D01*
%TO.N,Net-(D10-A)*%
X187975000Y-95025000D02*
X163700000Y-70750000D01*
%TO.N,/misc/PIN12*%
X64310000Y-90230000D02*
X69060000Y-90230000D01*
X73750000Y-83150000D02*
X73800000Y-83100000D01*
%TO.N,/misc/PIN13*%
X72800000Y-83550000D02*
X72850000Y-83600000D01*
X72850000Y-85440000D02*
X68900000Y-89390000D01*
X68900000Y-89390000D02*
X63550000Y-89390000D01*
X63550000Y-89390000D02*
X48550000Y-104390000D01*
X48550000Y-113150000D02*
X46700000Y-115000000D01*
X46700000Y-115000000D02*
X45300000Y-115000000D01*
X48550000Y-104390000D02*
X48550000Y-113150000D01*
X45300000Y-115000000D02*
X45300000Y-114900000D01*
X72850000Y-83600000D02*
X72850000Y-85440000D01*
%TO.N,/power_distribution/BAT_DISABLE*%
X209650000Y-54600000D02*
X206250000Y-51200000D01*
X208500000Y-67900000D02*
X209650000Y-66750000D01*
X156850000Y-68600000D02*
X161050000Y-68600000D01*
X85450000Y-80250000D02*
X86950000Y-81750000D01*
X144950000Y-74500000D02*
X150950000Y-74500000D01*
X209650000Y-66750000D02*
X209650000Y-54600000D01*
X150950000Y-74500000D02*
X156850000Y-68600000D01*
X137700000Y-81750000D02*
X144950000Y-74500000D01*
X161050000Y-68600000D02*
X161750000Y-67900000D01*
X84850000Y-80250000D02*
X85450000Y-80250000D01*
%TO.N,/igniter_system/IGNITER_FIRE*%
X132900000Y-126700000D02*
X104750000Y-98550000D01*
X99350000Y-85650000D02*
X89200000Y-85650000D01*
X104750000Y-91050000D02*
X99350000Y-85650000D01*
X104750000Y-98550000D02*
X104750000Y-91050000D01*
X142750000Y-126700000D02*
X132900000Y-126700000D01*
%TO.N,/power_distribution/BAT_DISABLE*%
X161750000Y-67900000D02*
X208500000Y-67900000D01*
X86950000Y-81750000D02*
X137700000Y-81750000D01*
%TO.N,/igniter_system/IGNITER_FIRE*%
X89200000Y-85650000D02*
X88300000Y-86550000D01*
%TO.N,/misc/PIN17*%
X63640000Y-86490000D02*
X46360000Y-103770000D01*
X71100000Y-84400000D02*
X71100000Y-85510000D01*
%TO.N,/misc/PIN20*%
X70400000Y-84950000D02*
X63970000Y-84950000D01*
X63970000Y-84950000D02*
X45350000Y-103570000D01*
%TO.N,/misc/PIN17*%
X70120000Y-86490000D02*
X63640000Y-86490000D01*
X46360000Y-111230000D02*
X46190000Y-111400000D01*
X71100000Y-85510000D02*
X70120000Y-86490000D01*
X46360000Y-103770000D02*
X46360000Y-111230000D01*
%TO.N,/misc/PIN20*%
X45350000Y-103570000D02*
X45350000Y-109600000D01*
%TO.N,/misc/PIN17*%
X46190000Y-111400000D02*
X45300000Y-111400000D01*
%TO.N,/misc/PIN4*%
X40750000Y-73950000D02*
X50700000Y-64000000D01*
%TO.N,/misc/PIN1*%
X38400000Y-128300000D02*
X41550000Y-125150000D01*
X37650000Y-128300000D02*
X38400000Y-128300000D01*
%TO.N,/misc/PIN4*%
X38150000Y-127450000D02*
X38250000Y-127450000D01*
X38250000Y-127450000D02*
X40750000Y-124950000D01*
%TO.N,/misc/PIN1*%
X41550000Y-74100000D02*
X47600000Y-68050000D01*
X41550000Y-125150000D02*
X41550000Y-74100000D01*
%TO.N,/misc/PIN4*%
X40750000Y-124950000D02*
X40750000Y-73950000D01*
%TO.N,/misc/LRCK*%
X56250000Y-58600000D02*
X39482500Y-58600000D01*
X66950000Y-69300000D02*
X56250000Y-58600000D01*
%TO.N,/misc/SCLK*%
X65750000Y-73000000D02*
X61950000Y-73000000D01*
%TO.N,/misc/BCK*%
X66200000Y-71411100D02*
X63211100Y-71411100D01*
%TO.N,/misc/DIN*%
X62850000Y-72350000D02*
X50950000Y-60450000D01*
X27250000Y-58190000D02*
X27250000Y-55562500D01*
X29510000Y-60450000D02*
X27250000Y-58190000D01*
%TO.N,/misc/BCK*%
X63211100Y-71411100D02*
X51300000Y-59500000D01*
%TO.N,/misc/DIN*%
X50950000Y-60450000D02*
X29510000Y-60450000D01*
%TO.N,/misc/SCLK*%
X26000000Y-54272500D02*
X29307500Y-50965000D01*
%TO.N,/misc/BCK*%
X37842500Y-59500000D02*
X31847500Y-53505000D01*
%TO.N,/misc/DIN*%
X27250000Y-55562500D02*
X29307500Y-53505000D01*
%TO.N,/misc/SCLK*%
X61950000Y-73000000D02*
X50400000Y-61450000D01*
X27970000Y-61450000D02*
X26000000Y-59480000D01*
X26000000Y-59480000D02*
X26000000Y-54272500D01*
%TO.N,/misc/BCK*%
X51300000Y-59500000D02*
X37842500Y-59500000D01*
%TO.N,/misc/DIN*%
X65000000Y-72350000D02*
X62850000Y-72350000D01*
%TO.N,/misc/LRCK*%
X39482500Y-58600000D02*
X31847500Y-50965000D01*
%TO.N,/misc/SCLK*%
X50400000Y-61450000D02*
X27970000Y-61450000D01*
%TO.N,/misc/PIN5*%
X53060000Y-106350000D02*
X53060000Y-114910000D01*
X76670000Y-85400000D02*
X68760000Y-93310000D01*
X68760000Y-93310000D02*
X66100000Y-93310000D01*
%TO.N,/RS_485/TxD2*%
X84250000Y-103050000D02*
X84250000Y-77350000D01*
X84250000Y-77350000D02*
X85950000Y-75650000D01*
X85950000Y-75650000D02*
X85950000Y-74250000D01*
%TO.N,/misc/PIN5*%
X53060000Y-114910000D02*
X45770000Y-122200000D01*
X45770000Y-122200000D02*
X45300000Y-122200000D01*
X76670000Y-81810000D02*
X76670000Y-85400000D01*
X66100000Y-93310000D02*
X53060000Y-106350000D01*
X76550000Y-81690000D02*
X76670000Y-81810000D01*
%TO.N,/power_distribution/DC_JACK_DISABLE*%
X87000000Y-77250000D02*
X140150000Y-77250000D01*
X140150000Y-77250000D02*
X142800000Y-74600000D01*
%TO.N,/misc/PIN9*%
X74750000Y-85430000D02*
X69030000Y-91150000D01*
X69030000Y-91150000D02*
X64720000Y-91150000D01*
%TO.N,/misc/PIN8*%
X75740000Y-82210000D02*
X75740000Y-85330000D01*
%TO.N,/misc/PIN9*%
X74800000Y-82600000D02*
X74750000Y-82550000D01*
%TO.N,/misc/PIN8*%
X69010000Y-92060000D02*
X65530000Y-92060000D01*
%TO.N,/misc/PIN9*%
X50680000Y-105190000D02*
X50680000Y-114410000D01*
%TO.N,/misc/PIN8*%
X45990000Y-120400000D02*
X45300000Y-120400000D01*
X75660000Y-82130000D02*
X75740000Y-82210000D01*
%TO.N,/misc/PIN9*%
X64720000Y-91150000D02*
X50680000Y-105190000D01*
X46490000Y-118600000D02*
X45300000Y-118600000D01*
%TO.N,/misc/PIN8*%
X65530000Y-92060000D02*
X51910000Y-105680000D01*
X51910000Y-105680000D02*
X51910000Y-114480000D01*
X75740000Y-85330000D02*
X69010000Y-92060000D01*
%TO.N,/misc/PIN9*%
X50680000Y-114410000D02*
X46490000Y-118600000D01*
%TO.N,/misc/PIN8*%
X51910000Y-114480000D02*
X45990000Y-120400000D01*
%TO.N,/misc/PIN9*%
X74750000Y-82550000D02*
X74750000Y-85430000D01*
%TO.N,/can_bus/RX*%
X83150000Y-102900000D02*
X83150000Y-90300000D01*
X85250000Y-105000000D02*
X83150000Y-102900000D01*
X85250000Y-105050000D02*
X85250000Y-105000000D01*
X83150000Y-90300000D02*
X80250000Y-87400000D01*
%TO.N,/power_distribution/3V3_DIGITAL/3V3_MAIN*%
D40*
X144360000Y-98910000D02*
X141550000Y-96100000D01*
%TO.N,/pcb_sensors/TEMP2_ALERT*%
D39*
X151050000Y-109200000D02*
X126000000Y-84150000D01*
X94050000Y-75150000D02*
X91100000Y-75150000D01*
X166000000Y-109200000D02*
X151050000Y-109200000D01*
X94788900Y-74411100D02*
X94050000Y-75150000D01*
%TO.N,/power_distribution/3V3_DIGITAL/3V3_MAIN*%
D40*
X152270000Y-98910000D02*
X144360000Y-98910000D01*
%TO.N,/pcb_sensors/TEMP2_ALERT*%
D39*
X115661100Y-74411100D02*
X94788900Y-74411100D01*
X115800000Y-74550000D02*
X115661100Y-74411100D01*
%TO.N,/power_distribution/12V_MAIN/12V_MAIN_PG*%
X148748900Y-73601100D02*
X155501400Y-66848600D01*
X155501400Y-66848600D02*
X207600000Y-66848600D01*
X63600000Y-70771100D02*
X79571100Y-70771100D01*
X82401100Y-73601100D02*
X148748900Y-73601100D01*
%TO.N,+12V*%
X215000000Y-84900000D02*
X214650000Y-85250000D01*
X211250000Y-64700000D02*
X211250000Y-66650000D01*
%TO.N,/power_distribution/12V_MAIN/12V_MAIN_PG*%
X79571100Y-70771100D02*
X82401100Y-73601100D01*
%TO.N,+12V*%
X211250000Y-66650000D02*
X215000000Y-70400000D01*
X215000000Y-70400000D02*
X215000000Y-84900000D01*
%TO.N,/igniter_system/SENSE*%
D40*
X123800000Y-83800000D02*
X141050000Y-101050000D01*
X141050000Y-101050000D02*
X141050000Y-103950000D01*
X141050000Y-103950000D02*
X177900000Y-140800000D01*
%TO.N,/igniter_system/IGNITER+*%
D39*
X155250000Y-122100000D02*
X155250000Y-121300000D01*
X131900000Y-131350000D02*
X134950000Y-128300000D01*
%TO.N,/igniter_system/IGN_ARM*%
D40*
X124700000Y-151600000D02*
X124700000Y-154000000D01*
%TO.N,/igniter_system/IGNITER+*%
D39*
X128500000Y-131350000D02*
X131900000Y-131350000D01*
%TO.N,/igniter_system/IGN_ARM*%
D40*
X151800000Y-158500000D02*
X155055000Y-155245000D01*
X161650000Y-114310000D02*
X161650000Y-123450000D01*
%TO.N,/igniter_system/IGNITER+*%
D39*
X149050000Y-128300000D02*
X155250000Y-122100000D01*
%TO.N,/igniter_system/IGN_ARM*%
D40*
X155055000Y-155245000D02*
X155055000Y-153037500D01*
%TO.N,/igniter_system/IGNITER+*%
D39*
X134950000Y-128300000D02*
X149050000Y-128300000D01*
%TO.N,/igniter_system/IGN_ARM*%
D40*
X124700000Y-154000000D02*
X129200000Y-158500000D01*
X129200000Y-158500000D02*
X151800000Y-158500000D01*
X161650000Y-123450000D02*
X161640000Y-123460000D01*
%TO.N,Net-(D7-K)*%
D39*
X188550000Y-39400000D02*
X188700000Y-39250000D01*
X188700000Y-39250000D02*
X194100000Y-39250000D01*
X194100000Y-39250000D02*
X194250000Y-39100000D01*
X188550000Y-39750000D02*
X188550000Y-39400000D01*
%TO.N,+5V*%
X176950000Y-96200000D02*
X176200000Y-95450000D01*
X186900000Y-94900000D02*
X185600000Y-96200000D01*
X176600000Y-96850000D02*
X175000000Y-95250000D01*
X189800000Y-95150000D02*
X188100000Y-96850000D01*
X189800000Y-94300000D02*
X189800000Y-95150000D01*
X185600000Y-96200000D02*
X176950000Y-96200000D01*
X188100000Y-96850000D02*
X176600000Y-96850000D01*
%TO.N,/DAQ/SPI_MISO*%
X85350000Y-62180000D02*
X103030000Y-44500000D01*
X115150000Y-44500000D02*
X107550000Y-44500000D01*
X123600000Y-44500000D02*
X131301258Y-44500000D01*
X123600000Y-44500000D02*
X115150000Y-44500000D01*
X131301258Y-44500000D02*
X131311100Y-44509842D01*
X85350000Y-67297127D02*
X85350000Y-62180000D01*
%TO.N,/DAQ/SPI_SCK*%
X88050000Y-60990000D02*
X88050000Y-71050000D01*
X122950000Y-45200000D02*
X114500000Y-45200000D01*
X122950000Y-45200000D02*
X130600000Y-45200000D01*
X106900000Y-45200000D02*
X103840000Y-45200000D01*
X103840000Y-45200000D02*
X88050000Y-60990000D01*
%TO.N,/DAQ/SPI_MISO*%
X103030000Y-44500000D02*
X107550000Y-44500000D01*
%TO.N,/DAQ/SPI_SCK*%
X114500000Y-45200000D02*
X106900000Y-45200000D01*
%TO.N,/DAQ/SPI_MOSI*%
X124250000Y-43900000D02*
X115800000Y-43900000D01*
X103550000Y-43900000D02*
X108200000Y-43900000D01*
X131900000Y-43900000D02*
X124250000Y-43900000D01*
%TO.N,/DAQ/SPI_MISO*%
X85324877Y-67322250D02*
X85350000Y-67297127D01*
%TO.N,/DAQ/SPI_MOSI*%
X84350000Y-67250000D02*
X84350000Y-61780000D01*
X84350000Y-61780000D02*
X102210000Y-43920000D01*
X102210000Y-43920000D02*
X103530000Y-43920000D01*
X103530000Y-43920000D02*
X103550000Y-43900000D01*
X115800000Y-43900000D02*
X108200000Y-43900000D01*
%TO.N,/pcb_sensors/TEMP_SCL*%
X70250000Y-105550000D02*
X72750000Y-105550000D01*
X103050000Y-116700000D02*
X86500000Y-100150000D01*
X85150000Y-100150000D02*
X85100000Y-100150000D01*
X86500000Y-100150000D02*
X85150000Y-100150000D01*
X72750000Y-105550000D02*
X80800000Y-97500000D01*
%TO.N,/rf/RADIO_MOSI*%
X51550000Y-142750000D02*
X44200000Y-142750000D01*
X34800000Y-152150000D02*
X32400000Y-152150000D01*
X32400000Y-152150000D02*
X30750000Y-150500000D01*
%TO.N,/pcb_sensors/TEMP_SDA*%
X80750000Y-96650000D02*
X81250000Y-96650000D01*
X82350000Y-97750000D02*
X82350000Y-103850000D01*
%TO.N,/rf/RADIO_MOSI*%
X85188900Y-74961100D02*
X77850000Y-82300000D01*
%TO.N,/rf/RADIO_RESET*%
X51500000Y-140350003D02*
X35359997Y-140350003D01*
%TO.N,/pcb_sensors/TEMP_SDA*%
X82350000Y-103850000D02*
X86600000Y-108100000D01*
%TO.N,/rf/RADIO_NSS*%
X36649997Y-141600003D02*
X30750000Y-147500000D01*
%TO.N,/rf/RADIO_MOSI*%
X30750000Y-150500000D02*
X30750000Y-150040000D01*
X57860000Y-106050000D02*
X57860000Y-145990000D01*
%TO.N,/rf/RADIO_MISO*%
X51550000Y-144050000D02*
X44400000Y-144050000D01*
X83400000Y-75550000D02*
X77280000Y-81670000D01*
%TO.N,/rf/RADIO_RESET*%
X35359997Y-140350003D02*
X28210000Y-147500000D01*
%TO.N,/rf/RADIO_NSS*%
X51500000Y-141600003D02*
X36649997Y-141600003D01*
%TO.N,/pcb_sensors/TEMP_SDA*%
X86600000Y-108100000D02*
X92000000Y-108100000D01*
%TO.N,/rf/RADIO_MOSI*%
X77850000Y-82300000D02*
X77850000Y-86060000D01*
%TO.N,/rf/RADIO_MISO*%
X77280000Y-81670000D02*
X77280000Y-85720000D01*
%TO.N,/rf/RADIO_MOSI*%
X77850000Y-86060000D02*
X57860000Y-106050000D01*
%TO.N,/rf/RADIO_MISO*%
X77280000Y-85720000D02*
X55860000Y-107140000D01*
%TO.N,/rf/RADIO_MOSI*%
X85200000Y-74961100D02*
X85188900Y-74961100D01*
X44200000Y-142750000D02*
X34800000Y-152150000D01*
%TO.N,/pcb_sensors/TEMP_SDA*%
X81250000Y-96650000D02*
X82350000Y-97750000D01*
%TO.N,/rf/RADIO_MISO*%
X31220000Y-153050000D02*
X28210000Y-150040000D01*
%TO.N,/rf/RADIO_SCK*%
X51600000Y-145350000D02*
X45000000Y-145350000D01*
X36200000Y-154150000D02*
X29780000Y-154150000D01*
%TO.N,/rf/RADIO_MISO*%
X35400000Y-153050000D02*
X31220000Y-153050000D01*
%TO.N,/rf/RADIO_SCK*%
X29780000Y-154150000D02*
X25670000Y-150040000D01*
%TO.N,/rf/RADIO_MISO*%
X83400000Y-75540000D02*
X83400000Y-75550000D01*
X55860000Y-107140000D02*
X55860000Y-146050000D01*
%TO.N,/rf/RADIO_INT*%
X51450000Y-138850000D02*
X34320000Y-138850000D01*
%TO.N,/rf/RADIO_SCK*%
X45000000Y-145350000D02*
X36200000Y-154150000D01*
%TO.N,/rf/RADIO_MISO*%
X44400000Y-144050000D02*
X35400000Y-153050000D01*
%TO.N,/rf/RADIO_INT*%
X34320000Y-138850000D02*
X25670000Y-147500000D01*
%TD*%
M02*
