M48
; DRILL file KiCad 10.0.3 date 2026-06-10T22:20:43
; FORMAT={-:-/ absolute / metric / decimal}
; #@! TF.CreationDate,2026-06-10T22:20:43-07:00
; #@! TF.GenerationSoftware,Kicad,Pcbnew,10.0.3
; #@! TF.FileFunction,Plated,1,6,PTH
FMAT,2
METRIC
; #@! TA.AperFunction,Plated,PTH,ComponentDrill
T1C0.200
; #@! TA.AperFunction,Plated,PTH,ViaDrill
T2C0.300
; #@! TA.AperFunction,Plated,PTH,ComponentDrill
T3C0.600
; #@! TA.AperFunction,Plated,PTH,ComponentDrill
T4C0.750
; #@! TA.AperFunction,Plated,PTH,ComponentDrill
T5C0.760
; #@! TA.AperFunction,Plated,PTH,ComponentDrill
T6C0.800
; #@! TA.AperFunction,Plated,PTH,ComponentDrill
T7C0.950
; #@! TA.AperFunction,Plated,PTH,ComponentDrill
T8C1.000
; #@! TA.AperFunction,Plated,PTH,ComponentDrill
T9C1.020
; #@! TA.AperFunction,Plated,PTH,ComponentDrill
T10C1.300
; #@! TA.AperFunction,Plated,PTH,ComponentDrill
T11C1.500
; #@! TA.AperFunction,Plated,PTH,ComponentDrill
T12C1.700
; #@! TA.AperFunction,Plated,PTH,ComponentDrill
T13C1.780
; #@! TA.AperFunction,Plated,PTH,ComponentDrill
T14C3.200
; #@! TA.AperFunction,Plated,PTH,ComponentDrill
T15C4.500
%
G90
G05
T1
X145.05Y-120.862
X145.05Y-121.812
X145.05Y-122.887
X146.15Y-120.862
X146.15Y-121.812
X146.15Y-122.887
X147.25Y-120.862
X147.25Y-121.812
X147.25Y-122.887
X181.3Y-59.117
X181.3Y-60.192
X181.3Y-61.142
X182.4Y-59.117
X182.4Y-60.192
X182.4Y-61.142
X183.5Y-59.117
X183.5Y-60.192
X183.5Y-61.142
T2
X19.0Y-42.0
X19.0Y-47.0
X19.0Y-52.0
X19.0Y-57.0
X19.0Y-62.0
X19.0Y-67.0
X19.65Y-102.35
X20.05Y-85.65
X22.25Y-73.27
X22.26Y-70.99
X23.18Y-75.3
X23.26Y-69.13
X23.7Y-80.42
X26.285Y-68.38
X26.285Y-76.105
X26.58Y-69.37
X26.814Y-72.975
X27.785Y-68.98
X28.935Y-76.76
X29.285Y-70.119
X30.085Y-68.73
X30.4Y-85.65
X30.67Y-77.56
X32.405Y-75.18
X32.5Y-85.55
X32.55Y-67.95
X32.8Y-79.9
X33.084Y-126.217
X33.511Y-113.628
X34.5Y-85.55
X34.68Y-70.12
X35.0Y-24.85
X35.26Y-39.93
X35.5Y-82.75
X35.65Y-32.3
X36.0Y-70.11
X36.25Y-67.0
X36.3Y-98.35
X36.35Y-91.3
X36.45Y-88.15
X36.605Y-74.88
X36.655Y-76.68
X36.81Y-48.3
X36.984Y-94.261
X37.159Y-125.508
X37.25Y-70.1
X37.65Y-128.3
X37.82Y-41.52
X38.09Y-45.49
X38.15Y-127.45
X38.35Y-47.84
X38.353Y-92.964
X38.75Y-91.786
X39.32Y-70.04
X39.92Y-76.02
X40.05Y-24.8
X40.63Y-71.17
X41.1Y-128.6
X41.45Y-39.65
X41.58Y-72.16
X41.65Y-28.05
X41.75Y-46.1
X41.81Y-45.17
X42.45Y-134.4
X42.65Y-128.6
X42.68Y-78.91
X43.0Y-36.98
X43.15Y-42.7
X43.19Y-73.8
X43.482Y-92.249
X43.85Y-32.1
X43.9Y-133.2
X44.25Y-128.6
X44.29Y-80.5
X44.46Y-75.02
X45.3Y-111.4
X45.3Y-113.2
X45.3Y-115.0
X45.3Y-116.8
X45.3Y-118.6
X45.3Y-120.4
X45.3Y-122.2
X45.35Y-109.6
X45.55Y-81.84
X45.7Y-131.7
X45.78Y-38.14
X46.07Y-76.61
X46.79Y-83.04
X47.33Y-77.95
X47.6Y-68.05
X48.0Y-84.3
X48.57Y-79.15
X49.78Y-80.41
X50.7Y-64.0
X51.45Y-138.85
X51.5Y-140.35
X51.5Y-141.6
X51.55Y-142.75
X51.55Y-144.05
X51.6Y-145.35
X52.8Y-65.6
X52.85Y-68.25
X52.85Y-70.7
X52.85Y-73.2
X53.85Y-146.09
X53.86Y-39.85
X55.37Y-81.42
X55.64Y-48.3
X55.86Y-146.05
X56.4Y-41.49
X56.45Y-90.25
X56.62Y-84.87
X56.91Y-45.63
X57.05Y-81.44
X57.08Y-47.85
X57.86Y-145.99
X57.97Y-84.87
X58.97Y-81.42
X59.07Y-86.05
X59.87Y-131.88
X59.88Y-146.02
X59.95Y-87.05
X60.34Y-46.15
X60.35Y-45.18
X60.39Y-82.53
X61.0Y-105.25
X61.46Y-36.73
X61.58Y-83.75
X61.85Y-131.89
X62.96Y-84.25
X63.45Y-69.1
X63.6Y-70.771
X64.43Y-37.72
X64.43Y-41.2
X64.64Y-105.75
X64.7Y-84.31
X65.0Y-72.35
X65.4Y-87.72
X65.43Y-88.7
X65.63Y-76.25
X65.63Y-77.2
X65.66Y-81.3
X65.66Y-82.29
X65.75Y-73.0
X65.821Y-104.431
X66.09Y-100.37
X66.2Y-71.411
X66.55Y-80.49
X66.85Y-63.4
X66.95Y-69.3
X66.993Y-104.343
X67.3Y-127.7
X68.8Y-101.75
X69.1Y-138.9
X69.15Y-129.6
X69.15Y-132.95
X69.5Y-128.0
X69.65Y-66.4
X70.25Y-105.55
X70.4Y-84.95
X70.5Y-129.55
X70.6Y-66.4
X70.85Y-125.0
X71.1Y-84.4
X71.1Y-99.55
X71.2Y-62.5
X71.7Y-24.7
X72.0Y-83.95
X72.61Y-93.99
X72.67Y-149.56
X72.8Y-83.55
X72.83Y-92.19
X73.0Y-138.85
X73.05Y-32.0
X73.1Y-35.4
X73.11Y-39.74
X73.8Y-83.1
X74.0Y-121.1
X74.161Y-92.092
X74.5Y-95.76
X74.54Y-48.03
X74.66Y-66.16
X74.75Y-82.55
X75.089Y-94.97
X75.5Y-133.05
X75.5Y-138.9
X75.62Y-41.29
X75.63Y-66.15
X75.66Y-82.13
X75.8Y-125.4
X75.84Y-45.44
X75.92Y-93.27
X76.17Y-47.87
X76.55Y-81.69
X76.74Y-88.65
X76.75Y-24.65
X76.89Y-93.21
X77.55Y-97.75
X77.55Y-125.45
X77.64Y-149.61
X78.0Y-117.1
X78.05Y-133.0
X78.45Y-98.6
X78.95Y-27.95
X79.25Y-38.9
X79.25Y-92.0
X79.35Y-86.65
X79.4Y-125.65
X79.63Y-46.02
X79.65Y-45.08
X80.25Y-87.4
X80.35Y-66.09
X80.38Y-36.72
X80.6Y-133.0
X80.6Y-138.75
X80.75Y-96.65
X80.8Y-97.5
X80.8Y-99.1
X80.89Y-93.24
X80.9Y-42.25
X80.95Y-125.75
X81.0Y-32.1
X81.0Y-76.55
X81.045Y-62.593
X81.33Y-66.1
X81.6Y-84.8
X81.85Y-93.23
X81.93Y-85.88
X82.1Y-117.05
X82.75Y-70.75
X82.94Y-61.74
X83.0Y-118.3
X83.26Y-83.78
X83.34Y-82.5
X83.4Y-75.54
X83.4Y-85.83
X83.44Y-86.72
X83.62Y-37.24
X83.95Y-128.2
X84.2Y-73.012
X84.25Y-103.05
X84.35Y-67.25
X84.75Y-130.65
X84.85Y-80.25
X84.85Y-98.85
X84.889Y-82.85
X84.9Y-96.65
X84.97Y-86.74
X84.97Y-87.84
X84.97Y-89.1
X85.0Y-128.5
X85.15Y-100.15
X85.2Y-74.961
X85.25Y-105.05
X85.325Y-67.322
X85.509Y-81.56
X85.63Y-78.06
X85.77Y-84.58
X85.94Y-87.85
X85.94Y-89.05
X85.95Y-74.25
X86.1Y-82.149
X86.1Y-138.8
X86.12Y-83.57
X86.2Y-78.649
X86.25Y-70.5
X86.35Y-85.55
X86.575Y-97.425
X86.59Y-66.2
X86.64Y-125.1
X86.672Y-82.708
X86.8Y-79.238
X86.85Y-129.5
X87.0Y-77.25
X87.07Y-93.01
X87.261Y-83.25
X87.461Y-64.62
X87.461Y-66.22
X87.51Y-79.659
X87.834Y-83.845
X88.031Y-85.797
X88.04Y-92.98
X88.05Y-71.05
X88.1Y-95.11
X88.106Y-80.193
X88.3Y-86.55
X88.434Y-84.374
X88.65Y-149.76
X89.9Y-138.75
X90.905Y-87.08
X91.0Y-74.19
X91.1Y-75.15
X91.15Y-125.5
X91.6Y-59.75
X91.7Y-24.4
X91.92Y-74.38
X92.0Y-108.1
X92.15Y-32.05
X92.2Y-35.45
X92.36Y-39.93
X92.4Y-138.75
X92.5Y-132.9
X92.62Y-80.02
X92.62Y-87.46
X92.68Y-86.48
X92.697Y-80.971
X93.64Y-149.74
X93.65Y-92.051
X93.75Y-48.34
X93.75Y-129.6
X93.85Y-80.9
X94.27Y-86.55
X94.58Y-70.29
X94.83Y-129.43
X94.91Y-41.6
X95.0Y-133.0
X95.02Y-45.72
X95.05Y-68.07
X95.14Y-65.6
X95.25Y-48.35
X95.5Y-90.35
X96.5Y-125.7
X96.8Y-24.45
X96.8Y-75.0
X97.1Y-79.55
X97.5Y-133.05
X97.55Y-138.8
X97.74Y-89.39
X97.931Y-73.012
X98.35Y-101.5
X98.37Y-65.84
X98.55Y-40.0
X98.6Y-27.85
X98.75Y-45.4
X98.75Y-46.35
X100.0Y-88.25
X100.1Y-42.8
X100.34Y-36.62
X100.55Y-72.9
X100.6Y-75.75
X100.9Y-31.95
X101.56Y-37.13
X101.65Y-100.65
X101.9Y-140.15
X103.05Y-116.7
X103.85Y-58.7
X104.1Y-48.35
X104.1Y-49.4
X104.66Y-144.44
X105.0Y-39.65
X105.61Y-42.58
X106.25Y-48.21
X106.55Y-37.05
X106.77Y-144.47
X106.85Y-38.15
X106.9Y-45.2
X106.95Y-149.37
X107.4Y-129.75
X107.55Y-44.5
X108.2Y-43.9
X108.38Y-26.72
X108.85Y-48.18
X108.88Y-144.44
X109.5Y-42.5
X110.65Y-46.8
X111.3Y-37.05
X112.05Y-144.35
X112.1Y-48.5
X112.15Y-49.45
X112.5Y-37.1
X112.55Y-39.7
X112.86Y-127.64
X113.21Y-42.73
X113.86Y-48.38
X114.35Y-38.3
X114.5Y-45.2
X115.15Y-44.5
X115.66Y-26.81
X115.8Y-43.9
X115.8Y-74.55
X116.45Y-48.34
X117.1Y-42.5
X118.45Y-46.8
X118.95Y-36.5
X119.35Y-35.55
X120.45Y-48.55
X120.5Y-49.5
X121.0Y-39.1
X121.66Y-42.34
X122.2Y-140.3
X122.25Y-132.55
X122.25Y-137.75
X122.25Y-142.9
X122.3Y-135.1
X122.31Y-48.25
X122.95Y-45.2
X122.966Y-38.2
X123.2Y-112.6
X123.2Y-113.6
X123.2Y-114.5
X123.6Y-44.5
X123.79Y-26.56
X123.8Y-83.8
X124.25Y-43.9
X124.7Y-151.6
X124.83Y-125.35
X124.91Y-48.2
X125.02Y-123.88
X125.04Y-109.397
X125.1Y-127.04
X125.55Y-42.3
X126.0Y-84.15
X126.12Y-127.91
X126.13Y-123.12
X126.15Y-137.95
X126.5Y-46.75
X126.55Y-36.55
X126.71Y-132.64
X126.84Y-140.47
X127.24Y-107.997
X127.35Y-83.15
X127.7Y-36.6
X127.7Y-146.4
X128.1Y-48.5
X128.1Y-49.45
X128.33Y-127.89
X128.38Y-123.11
X128.4Y-39.05
X128.5Y-131.35
X128.85Y-140.4
X128.95Y-55.75
X129.0Y-58.25
X129.0Y-59.6
X129.0Y-61.25
X129.3Y-42.48
X129.32Y-26.44
X129.96Y-48.18
X130.0Y-38.2
X130.1Y-54.65
X130.6Y-45.2
X130.85Y-58.2
X130.85Y-61.25
X130.9Y-56.4
X130.9Y-59.55
X131.311Y-44.51
X131.65Y-53.8
X131.9Y-43.9
X132.0Y-114.2
X132.4Y-55.0
X132.4Y-98.8
X132.56Y-48.04
X133.0Y-59.5
X133.0Y-61.25
X133.05Y-53.8
X133.2Y-42.25
X133.2Y-100.0
X133.2Y-100.9
X134.05Y-46.7
X134.1Y-104.1
X134.1Y-106.9
X134.1Y-108.1
X134.7Y-100.0
X134.7Y-100.9
X134.75Y-36.1
X135.8Y-98.7
X136.25Y-103.7
X137.65Y-102.3
X139.1Y-100.1
X139.25Y-130.95
X139.45Y-86.6
X139.95Y-105.45
X140.15Y-95.95
X141.55Y-96.1
X141.78Y-120.85
X141.79Y-122.01
X141.82Y-123.09
X142.63Y-131.41
X142.65Y-129.56
X142.65Y-130.49
X142.75Y-126.7
X142.8Y-74.6
X143.18Y-122.4
X143.19Y-123.24
X144.55Y-79.7
X144.55Y-82.3
X144.82Y-131.42
X144.84Y-129.54
X144.84Y-130.54
X146.68Y-131.37
X146.7Y-129.52
X146.7Y-130.45
X146.85Y-66.95
X148.0Y-66.05
X148.5Y-86.85
X148.67Y-131.35
X148.69Y-129.47
X148.69Y-130.47
X148.8Y-76.9
X148.8Y-78.05
X149.2Y-123.2
X150.05Y-92.8
X150.3Y-126.1
X150.35Y-76.9
X150.35Y-78.05
X150.49Y-131.37
X150.51Y-129.49
X150.51Y-130.49
X151.07Y-119.51
X151.8Y-78.05
X151.85Y-76.9
X152.23Y-131.34
X152.25Y-129.49
X152.25Y-130.42
X152.27Y-98.91
X152.3Y-66.9
X152.39Y-122.02
X153.6Y-66.05
X153.7Y-43.6
X154.11Y-131.4
X154.13Y-129.52
X154.13Y-130.52
X155.25Y-121.3
X155.35Y-54.1
X155.35Y-55.15
X156.03Y-131.42
X156.05Y-129.54
X156.05Y-130.54
X156.25Y-95.55
X156.3Y-124.15
X156.7Y-54.1
X156.7Y-55.15
X158.0Y-54.1
X158.0Y-55.15
X159.35Y-54.1
X159.35Y-55.15
X159.95Y-67.45
X159.95Y-69.65
X159.95Y-71.75
X160.0Y-42.7
X160.45Y-81.85
X160.55Y-88.75
X160.55Y-90.35
X160.55Y-92.0
X160.55Y-93.6
X161.64Y-123.46
X161.65Y-114.31
X162.4Y-79.1
X162.45Y-80.75
X162.45Y-92.0
X162.45Y-93.6
X162.65Y-72.8
X162.85Y-68.65
X163.2Y-70.75
X163.7Y-58.55
X164.1Y-140.9
X164.4Y-92.0
X164.4Y-93.6
X164.45Y-79.1
X164.5Y-80.75
X166.0Y-109.2
X166.05Y-110.35
X166.25Y-92.0
X166.25Y-93.6
X166.55Y-79.1
X166.6Y-80.75
X167.85Y-108.15
X168.75Y-79.05
X168.8Y-80.7
X169.85Y-50.95
X170.75Y-128.6
X170.75Y-131.1
X170.85Y-79.05
X170.9Y-80.7
X171.85Y-107.4
X171.9Y-110.2
X173.0Y-131.1
X173.15Y-82.45
X173.7Y-74.4
X173.7Y-76.45
X173.7Y-78.55
X174.4Y-87.1
X175.0Y-95.25
X175.25Y-128.6
X175.3Y-131.1
X175.35Y-74.35
X175.35Y-76.4
X175.35Y-78.5
X175.35Y-80.5
X176.2Y-95.45
X177.1Y-53.1
X177.1Y-65.3
X177.15Y-125.75
X177.2Y-128.6
X177.2Y-131.1
X177.9Y-140.8
X178.35Y-51.75
X179.0Y-128.6
X179.0Y-131.1
X179.4Y-139.65
X179.55Y-60.25
X180.15Y-51.75
X180.15Y-112.7
X181.25Y-131.1
X181.9Y-51.75
X182.55Y-56.3
X183.25Y-85.6
X183.45Y-114.5
X183.5Y-128.6
X183.55Y-86.55
X183.55Y-131.1
X183.7Y-51.75
X184.55Y-113.6
X185.45Y-51.75
X185.6Y-125.6
X185.6Y-128.6
X185.6Y-131.1
X186.11Y-63.21
X186.16Y-61.75
X186.75Y-91.35
X186.9Y-94.9
X187.2Y-51.75
X187.44Y-63.23
X187.53Y-61.76
X187.975Y-95.075
X188.55Y-39.75
X188.6Y-53.1
X188.6Y-125.55
X188.6Y-128.65
X188.6Y-131.15
X188.79Y-63.2
X188.86Y-61.73
X189.8Y-94.3
X190.15Y-50.5
X190.2Y-51.7
X190.44Y-63.47
X190.45Y-62.58
X191.26Y-145.96
X191.75Y-50.5
X191.75Y-51.7
X191.77Y-63.52
X191.8Y-62.53
X192.35Y-90.55
X192.4Y-86.4
X192.45Y-84.65
X193.06Y-62.56
X193.07Y-61.42
X193.09Y-63.5
X193.1Y-101.6
X193.15Y-102.85
X193.2Y-50.5
X193.2Y-51.7
X193.7Y-111.25
X193.75Y-146.1
X194.25Y-39.1
X195.13Y-146.48
X195.77Y-142.61
X197.8Y-81.6
X197.85Y-83.75
X197.85Y-85.8
X197.85Y-87.5
X197.85Y-89.9
X198.5Y-143.5
X199.45Y-140.0
X199.896Y-143.696
X203.75Y-107.55
X203.85Y-99.25
X203.99Y-137.87
X204.046Y-142.096
X204.046Y-143.346
X204.046Y-144.696
X204.85Y-77.95
X205.446Y-144.696
X206.25Y-51.2
X206.7Y-97.45
X206.7Y-105.85
X207.6Y-66.849
X210.5Y-88.95
X210.55Y-91.2
X211.25Y-64.7
X212.35Y-88.95
X212.35Y-91.2
X214.3Y-88.95
X214.3Y-91.2
X214.65Y-85.25
X214.9Y-65.0
X214.95Y-110.65
X216.45Y-93.6
T4
X212.49Y-105.68
X212.49Y-107.68
X212.51Y-97.41
X212.51Y-99.41
T6
X78.0Y-105.95
X78.0Y-107.95
X78.0Y-109.95
T7
X31.4Y-18.712
X33.9Y-18.712
X36.4Y-18.712
X38.9Y-18.712
X41.4Y-18.712
X49.4Y-18.712
X51.9Y-18.712
X54.4Y-18.712
X56.9Y-18.712
X59.4Y-18.712
X67.9Y-18.712
X70.4Y-18.712
X71.4Y-159.49
X72.9Y-18.712
X73.9Y-159.49
X75.4Y-18.712
X76.4Y-159.49
X77.9Y-18.712
X78.9Y-159.49
X87.4Y-159.51
X87.9Y-18.712
X89.9Y-159.51
X90.4Y-18.712
X92.4Y-159.51
X92.9Y-18.712
X94.9Y-159.51
X95.4Y-18.712
X97.9Y-18.712
X103.15Y-159.51
X105.65Y-159.51
X107.84Y-18.642
X108.15Y-159.51
X110.34Y-18.642
X110.65Y-159.51
X112.84Y-18.642
X115.34Y-18.642
X123.09Y-18.668
X125.59Y-18.668
X128.09Y-18.668
X130.59Y-18.668
T8
X22.91Y-33.91
X22.91Y-36.45
X22.91Y-38.99
X25.45Y-33.91
X25.45Y-36.45
X25.45Y-38.99
X25.67Y-147.5
X25.67Y-150.04
X28.21Y-147.5
X28.21Y-150.04
X29.0Y-111.14
X29.0Y-113.68
X29.0Y-116.22
X29.0Y-118.76
X29.0Y-121.3
X29.0Y-123.84
X29.0Y-126.38
X29.0Y-128.92
X29.0Y-131.46
X29.0Y-134.0
X29.307Y-50.965
X29.307Y-53.505
X29.307Y-56.045
X30.75Y-147.5
X30.75Y-150.04
X31.54Y-111.14
X31.54Y-113.68
X31.54Y-116.22
X31.54Y-118.76
X31.54Y-121.3
X31.54Y-123.84
X31.54Y-126.38
X31.54Y-128.92
X31.54Y-131.46
X31.54Y-134.0
X31.848Y-50.965
X31.848Y-53.505
X31.848Y-56.045
X33.29Y-147.5
X33.29Y-150.04
X193.0Y-120.0
X205.0Y-120.0
T10
X155.055Y-153.037
X160.135Y-153.037
X169.68Y-153.0
X174.76Y-153.0
X184.32Y-153.0
X189.4Y-153.0
X193.0Y-132.2
X198.97Y-153.0
X199.05Y-118.05
X204.05Y-153.0
X205.05Y-132.25
T11
X49.89Y-158.07
X78.0Y-103.85
X78.0Y-112.05
T12
X47.35Y-155.53
X47.35Y-160.61
X52.43Y-155.53
X52.43Y-160.61
T13
X135.975Y-135.672
X135.975Y-139.072
X145.895Y-135.672
X145.895Y-139.072
T14
X23.0Y-19.212
X23.0Y-159.213
X123.0Y-159.213
X138.0Y-19.212
X213.0Y-19.212
X213.0Y-159.213
T15
X135.1Y-152.6
X142.3Y-152.6
X185.45Y-19.422
X192.65Y-19.422
T3
G00X20.27Y-67.91
M15
G01X21.07Y-67.91
M16
G05
G00X20.27Y-76.55
M15
G01X21.07Y-76.55
M16
G05
G00X24.29Y-67.91
M15
G01X25.39Y-67.91
M16
G05
G00X24.29Y-76.55
M15
G01X25.39Y-76.55
M16
G05
T5
G00X152.17Y-26.825
M15
G01X152.17Y-24.535
M16
G05
G00X158.115Y-22.43
M15
G01X155.825Y-22.43
M16
G05
T9
G00X158.24Y-28.68
M15
G01X155.7Y-28.68
M16
G05
M30
