%TF.GenerationSoftware,KiCad,Pcbnew,10.0.5*%
%TF.CreationDate,2026-09-12T21:52:26-07:00*%
%TF.ProjectId,valve_control_pcb,76616c76-655f-4636-9f6e-74726f6c5f70,rev?*%
%TF.SameCoordinates,Original*%
%TF.FileFunction,Paste,Bot*%
%TF.FilePolarity,Positive*%
%FSLAX46Y46*%
G04 Gerber Fmt 4.6, Leading zero omitted, Abs format (unit mm)*
G04 Created by KiCad (PCBNEW 10.0.5) date 2026-09-12 21:52:26*
%MOMM*%
%LPD*%
G01*
G04 APERTURE LIST*
G04 Aperture macros list*
%AMRoundRect*
0 Rectangle with rounded corners*
0 $1 Rounding radius*
0 $2 $3 $4 $5 $6 $7 $8 $9 X,Y pos of 4 corners*
0 Add a 4 corners polygon primitive as box body*
4,1,4,$2,$3,$4,$5,$6,$7,$8,$9,$2,$3,0*
0 Add four circle primitives for the rounded corners*
1,1,$1+$1,$2,$3*
1,1,$1+$1,$4,$5*
1,1,$1+$1,$6,$7*
1,1,$1+$1,$8,$9*
0 Add four rect primitives between the rounded corners*
20,1,$1+$1,$2,$3,$4,$5,0*
20,1,$1+$1,$4,$5,$6,$7,0*
20,1,$1+$1,$6,$7,$8,$9,0*
20,1,$1+$1,$8,$9,$2,$3,0*%
G04 Aperture macros list end*
%ADD10C,0.000000*%
%ADD11RoundRect,0.250000X0.475000X-0.250000X0.475000X0.250000X-0.475000X0.250000X-0.475000X-0.250000X0*%
%ADD12RoundRect,0.140000X-0.170000X0.140000X-0.170000X-0.140000X0.170000X-0.140000X0.170000X0.140000X0*%
%ADD13RoundRect,0.200000X-0.200000X-0.275000X0.200000X-0.275000X0.200000X0.275000X-0.200000X0.275000X0*%
%ADD14RoundRect,0.150000X0.150000X-0.825000X0.150000X0.825000X-0.150000X0.825000X-0.150000X-0.825000X0*%
%ADD15RoundRect,0.160000X-0.205000X-0.160000X0.205000X-0.160000X0.205000X0.160000X-0.205000X0.160000X0*%
%ADD16RoundRect,0.062500X-0.237500X-0.062500X0.237500X-0.062500X0.237500X0.062500X-0.237500X0.062500X0*%
%ADD17RoundRect,0.160000X-0.160000X0.205000X-0.160000X-0.205000X0.160000X-0.205000X0.160000X0.205000X0*%
%ADD18RoundRect,0.062500X-0.062500X0.237500X-0.062500X-0.237500X0.062500X-0.237500X0.062500X0.237500X0*%
%ADD19RoundRect,0.160000X0.205000X0.160000X-0.205000X0.160000X-0.205000X-0.160000X0.205000X-0.160000X0*%
%ADD20RoundRect,0.062500X0.237500X0.062500X-0.237500X0.062500X-0.237500X-0.062500X0.237500X-0.062500X0*%
%ADD21RoundRect,0.250000X0.250000X0.475000X-0.250000X0.475000X-0.250000X-0.475000X0.250000X-0.475000X0*%
%ADD22RoundRect,0.225000X-0.250000X0.225000X-0.250000X-0.225000X0.250000X-0.225000X0.250000X0.225000X0*%
%ADD23RoundRect,0.225000X-0.225000X-0.250000X0.225000X-0.250000X0.225000X0.250000X-0.225000X0.250000X0*%
%ADD24RoundRect,0.225000X0.225000X0.250000X-0.225000X0.250000X-0.225000X-0.250000X0.225000X-0.250000X0*%
%ADD25RoundRect,0.140000X0.140000X0.170000X-0.140000X0.170000X-0.140000X-0.170000X0.140000X-0.170000X0*%
%ADD26RoundRect,0.140000X-0.140000X-0.170000X0.140000X-0.170000X0.140000X0.170000X-0.140000X0.170000X0*%
%ADD27RoundRect,0.140000X0.170000X-0.140000X0.170000X0.140000X-0.170000X0.140000X-0.170000X-0.140000X0*%
%ADD28RoundRect,0.200000X0.275000X-0.200000X0.275000X0.200000X-0.275000X0.200000X-0.275000X-0.200000X0*%
%ADD29RoundRect,0.200000X-0.275000X0.200000X-0.275000X-0.200000X0.275000X-0.200000X0.275000X0.200000X0*%
%ADD30RoundRect,0.200000X0.200000X0.275000X-0.200000X0.275000X-0.200000X-0.275000X0.200000X-0.275000X0*%
%ADD31RoundRect,0.150000X0.150000X-0.587500X0.150000X0.587500X-0.150000X0.587500X-0.150000X-0.587500X0*%
%ADD32RoundRect,0.135000X-0.185000X0.135000X-0.185000X-0.135000X0.185000X-0.135000X0.185000X0.135000X0*%
%ADD33RoundRect,0.218750X0.256250X-0.218750X0.256250X0.218750X-0.256250X0.218750X-0.256250X-0.218750X0*%
%ADD34R,0.240000X0.599999*%
%ADD35R,0.599999X0.240000*%
%ADD36R,1.699999X2.700000*%
%ADD37RoundRect,0.050000X0.050000X-0.325000X0.050000X0.325000X-0.050000X0.325000X-0.050000X-0.325000X0*%
%ADD38RoundRect,0.087500X0.087500X-0.537500X0.087500X0.537500X-0.087500X0.537500X-0.087500X-0.537500X0*%
%ADD39RoundRect,0.250000X-0.325000X-0.650000X0.325000X-0.650000X0.325000X0.650000X-0.325000X0.650000X0*%
G04 APERTURE END LIST*
D10*
%TO.C,U27*%
G36*
X303424500Y-153699998D02*
G01*
X301875502Y-153699998D01*
X301875502Y-152511997D01*
X303424500Y-152511997D01*
X303424500Y-153699998D01*
G37*
G36*
X303424500Y-155088002D02*
G01*
X301875502Y-155088002D01*
X301875502Y-153900001D01*
X303424500Y-153900001D01*
X303424500Y-155088002D01*
G37*
%TD*%
D11*
%TO.C,C130*%
X132100000Y-102749999D03*
X132100000Y-100850001D03*
%TD*%
D12*
%TO.C,C129*%
X132600000Y-105090000D03*
X132600000Y-106050000D03*
%TD*%
D13*
%TO.C,R255*%
X142025000Y-103200000D03*
X140375000Y-103200000D03*
%TD*%
%TO.C,R254*%
X142000000Y-108100000D03*
X140350000Y-108100000D03*
%TD*%
D14*
%TO.C,U14*%
X138005000Y-103175000D03*
X136735000Y-103175000D03*
X135465000Y-103175000D03*
X134195000Y-103175000D03*
X134195000Y-108125000D03*
X135465000Y-108125000D03*
X136735000Y-108125000D03*
X138005000Y-108125000D03*
%TD*%
%TO.C,U16*%
X304950000Y-107950000D03*
X303680000Y-107950000D03*
X302410000Y-107950000D03*
X301140000Y-107950000D03*
X301140000Y-103000000D03*
X302410000Y-103000000D03*
X303680000Y-103000000D03*
X304950000Y-103000000D03*
%TD*%
%TO.C,U15*%
X221600000Y-108050000D03*
X220330000Y-108050000D03*
X219060000Y-108050000D03*
X217790000Y-108050000D03*
X217790000Y-103100000D03*
X219060000Y-103100000D03*
X220330000Y-103100000D03*
X221600000Y-103100000D03*
%TD*%
D13*
%TO.C,R259*%
X307375000Y-103000000D03*
X309025000Y-103000000D03*
%TD*%
%TO.C,R258*%
X307375000Y-107950000D03*
X309025000Y-107950000D03*
%TD*%
%TO.C,R257*%
X223675000Y-103100000D03*
X225325000Y-103100000D03*
%TD*%
%TO.C,R256*%
X223625000Y-108050000D03*
X225275000Y-108050000D03*
%TD*%
D12*
%TO.C,C134*%
X299600000Y-105070000D03*
X299600000Y-106030000D03*
%TD*%
D11*
%TO.C,C133*%
X299100000Y-102549999D03*
X299100000Y-100650001D03*
%TD*%
D12*
%TO.C,C132*%
X216250000Y-105170000D03*
X216250000Y-106130000D03*
%TD*%
D11*
%TO.C,C131*%
X215750000Y-102549999D03*
X215750000Y-100650001D03*
%TD*%
D15*
%TO.C,U13*%
X132050000Y-82900000D03*
X132050000Y-83700000D03*
D16*
X131100000Y-84050000D03*
X131100000Y-83550000D03*
X131100000Y-83050000D03*
X131100000Y-82550000D03*
X133000000Y-82550000D03*
X133000000Y-83050000D03*
X133000000Y-83550000D03*
X133000000Y-84050000D03*
%TD*%
D15*
%TO.C,U33*%
X215325000Y-82825000D03*
X215325000Y-83625000D03*
D16*
X214375000Y-83975000D03*
X214375000Y-83475000D03*
X214375000Y-82975000D03*
X214375000Y-82475000D03*
X216275000Y-82475000D03*
X216275000Y-82975000D03*
X216275000Y-83475000D03*
X216275000Y-83975000D03*
%TD*%
D15*
%TO.C,U34*%
X299450000Y-83050000D03*
X299450000Y-83850000D03*
D16*
X298500000Y-84200000D03*
X298500000Y-83700000D03*
X298500000Y-83200000D03*
X298500000Y-82700000D03*
X300400000Y-82700000D03*
X300400000Y-83200000D03*
X300400000Y-83700000D03*
X300400000Y-84200000D03*
%TD*%
D17*
%TO.C,U35*%
X282350000Y-140650000D03*
X281550000Y-140650000D03*
D18*
X281200000Y-139700000D03*
X281700000Y-139700000D03*
X282200000Y-139700000D03*
X282700000Y-139700000D03*
X282700000Y-141600000D03*
X282200000Y-141600000D03*
X281700000Y-141600000D03*
X281200000Y-141600000D03*
%TD*%
D19*
%TO.C,U36*%
X151145385Y-155275000D03*
X151145385Y-154475000D03*
D20*
X152095385Y-154125000D03*
X152095385Y-154625000D03*
X152095385Y-155125000D03*
X152095385Y-155625000D03*
X150195385Y-155625000D03*
X150195385Y-155125000D03*
X150195385Y-154625000D03*
X150195385Y-154125000D03*
%TD*%
D21*
%TO.C,C107*%
X135650000Y-196000000D03*
X133750000Y-196000000D03*
%TD*%
%TO.C,C78*%
X206000000Y-143150000D03*
X204100000Y-143150000D03*
%TD*%
D11*
%TO.C,C33*%
X145300000Y-162250000D03*
X145300000Y-160350000D03*
%TD*%
D22*
%TO.C,C98*%
X296075002Y-145324997D03*
X296075002Y-146874997D03*
%TD*%
D23*
%TO.C,C94*%
X294450002Y-155474997D03*
X296000002Y-155474997D03*
%TD*%
D24*
%TO.C,C93*%
X296000002Y-153774996D03*
X294450002Y-153774996D03*
%TD*%
D23*
%TO.C,C89*%
X306100002Y-152849997D03*
X307650002Y-152849997D03*
%TD*%
D22*
%TO.C,C88*%
X297725002Y-157974997D03*
X297725002Y-159524997D03*
%TD*%
D25*
%TO.C,C100*%
X148975385Y-153925000D03*
X148015385Y-153925000D03*
%TD*%
D12*
%TO.C,C99*%
X281000000Y-142820000D03*
X281000000Y-143780000D03*
%TD*%
%TO.C,C95*%
X297425002Y-155694997D03*
X297425002Y-156654997D03*
%TD*%
D25*
%TO.C,C92*%
X306530000Y-156450000D03*
X305570000Y-156450000D03*
%TD*%
D26*
%TO.C,C91*%
X303450000Y-147849997D03*
X304410000Y-147849997D03*
%TD*%
D25*
%TO.C,C90*%
X303605002Y-157699997D03*
X302645002Y-157699997D03*
%TD*%
D12*
%TO.C,C84*%
X164800000Y-153920000D03*
X164800000Y-154880000D03*
%TD*%
D26*
%TO.C,C76*%
X174200000Y-188900000D03*
X175160000Y-188900000D03*
%TD*%
%TO.C,C74*%
X301620000Y-84400000D03*
X302580000Y-84400000D03*
%TD*%
%TO.C,C73*%
X217495000Y-84175000D03*
X218455000Y-84175000D03*
%TD*%
%TO.C,C66*%
X134220000Y-84250000D03*
X135180000Y-84250000D03*
%TD*%
D25*
%TO.C,C41*%
X143960000Y-157400000D03*
X143000000Y-157400000D03*
%TD*%
D27*
%TO.C,C30*%
X143300000Y-161030000D03*
X143300000Y-160070000D03*
%TD*%
D28*
%TO.C,R243*%
X125000000Y-200575000D03*
X125000000Y-198925000D03*
%TD*%
%TO.C,R242*%
X233780000Y-144712500D03*
X233780000Y-143062500D03*
%TD*%
D29*
%TO.C,R235*%
X239480000Y-142900000D03*
X239480000Y-144550000D03*
%TD*%
%TO.C,R181*%
X151700000Y-179475000D03*
X151700000Y-181125000D03*
%TD*%
%TO.C,R180*%
X155500000Y-179475000D03*
X155500000Y-181125000D03*
%TD*%
%TO.C,R179*%
X163800000Y-179450000D03*
X163800000Y-181100000D03*
%TD*%
%TO.C,R178*%
X167200000Y-179475000D03*
X167200000Y-181125000D03*
%TD*%
D28*
%TO.C,R177*%
X153600000Y-181125000D03*
X153600000Y-179475000D03*
%TD*%
%TO.C,R176*%
X157400000Y-181125000D03*
X157400000Y-179475000D03*
%TD*%
%TO.C,R175*%
X165500000Y-181125000D03*
X165500000Y-179475000D03*
%TD*%
%TO.C,R174*%
X168900000Y-181125000D03*
X168900000Y-179475000D03*
%TD*%
D29*
%TO.C,R173*%
X136300000Y-179550000D03*
X136300000Y-181200000D03*
%TD*%
D13*
%TO.C,R172*%
X176375000Y-190500000D03*
X178025000Y-190500000D03*
%TD*%
D28*
%TO.C,R171*%
X134600000Y-181150000D03*
X134600000Y-179500000D03*
%TD*%
%TO.C,R170*%
X132900000Y-181180000D03*
X132900000Y-179530000D03*
%TD*%
D29*
%TO.C,R169*%
X127200000Y-202175000D03*
X127200000Y-203825000D03*
%TD*%
D28*
%TO.C,R168*%
X131200000Y-181200000D03*
X131200000Y-179550000D03*
%TD*%
%TO.C,R167*%
X138000000Y-181200000D03*
X138000000Y-179550000D03*
%TD*%
%TO.C,R166*%
X139800000Y-181225000D03*
X139800000Y-179575000D03*
%TD*%
%TO.C,R165*%
X141600000Y-181225000D03*
X141600000Y-179575000D03*
%TD*%
D29*
%TO.C,R164*%
X122800000Y-193450000D03*
X122800000Y-195100000D03*
%TD*%
%TO.C,R163*%
X122800000Y-196650000D03*
X122800000Y-198300000D03*
%TD*%
D30*
%TO.C,R162*%
X113725000Y-195300000D03*
X112075000Y-195300000D03*
%TD*%
%TO.C,R161*%
X120725000Y-195300000D03*
X119075000Y-195300000D03*
%TD*%
D13*
%TO.C,R158*%
X153670385Y-155125000D03*
X155320385Y-155125000D03*
%TD*%
%TO.C,R157*%
X166850000Y-148400000D03*
X168500000Y-148400000D03*
%TD*%
%TO.C,R156*%
X297650002Y-145349997D03*
X299300002Y-145349997D03*
%TD*%
D29*
%TO.C,R155*%
X300875002Y-145249997D03*
X300875002Y-146899997D03*
%TD*%
D30*
%TO.C,R154*%
X296050002Y-148674997D03*
X294400002Y-148674997D03*
%TD*%
D13*
%TO.C,R153*%
X294400002Y-150374997D03*
X296050002Y-150374997D03*
%TD*%
D28*
%TO.C,R152*%
X297725002Y-148674997D03*
X297725002Y-147024997D03*
%TD*%
D13*
%TO.C,R151*%
X294425002Y-157174997D03*
X296075002Y-157174997D03*
%TD*%
D30*
%TO.C,R150*%
X296050002Y-152074997D03*
X294400002Y-152074997D03*
%TD*%
%TO.C,R149*%
X305055000Y-149249997D03*
X303405000Y-149249997D03*
%TD*%
D29*
%TO.C,R148*%
X299225002Y-150874997D03*
X299225002Y-152524997D03*
%TD*%
D13*
%TO.C,R147*%
X306100002Y-157699997D03*
X307750002Y-157699997D03*
%TD*%
D28*
%TO.C,R146*%
X301325002Y-159524997D03*
X301325002Y-157874997D03*
%TD*%
D13*
%TO.C,R145*%
X306100002Y-159599997D03*
X307750002Y-159599997D03*
%TD*%
D28*
%TO.C,R144*%
X299525002Y-159574997D03*
X299525002Y-157924997D03*
%TD*%
D29*
%TO.C,R143*%
X166300000Y-153975000D03*
X166300000Y-155625000D03*
%TD*%
D30*
%TO.C,R128*%
X296925000Y-83200000D03*
X295275000Y-83200000D03*
%TD*%
%TO.C,R127*%
X212800000Y-82975000D03*
X211150000Y-82975000D03*
%TD*%
%TO.C,R126*%
X129525000Y-83050000D03*
X127875000Y-83050000D03*
%TD*%
D28*
%TO.C,R120*%
X245380000Y-144550000D03*
X245380000Y-142900000D03*
%TD*%
D13*
%TO.C,R106*%
X105175000Y-165500000D03*
X106825000Y-165500000D03*
%TD*%
D28*
%TO.C,R105*%
X179600000Y-142250000D03*
X179600000Y-140600000D03*
%TD*%
D30*
%TO.C,R104*%
X183683927Y-154349999D03*
X182033927Y-154349999D03*
%TD*%
%TO.C,R103*%
X106825000Y-167300000D03*
X105175000Y-167300000D03*
%TD*%
%TO.C,R102*%
X106825000Y-169150000D03*
X105175000Y-169150000D03*
%TD*%
D13*
%TO.C,R101*%
X105175000Y-163650000D03*
X106825000Y-163650000D03*
%TD*%
D28*
%TO.C,R100*%
X176800000Y-142250000D03*
X176800000Y-140600000D03*
%TD*%
D30*
%TO.C,R99*%
X180083927Y-154349999D03*
X178433927Y-154349999D03*
%TD*%
D28*
%TO.C,R98*%
X174029999Y-142250000D03*
X174029999Y-140600000D03*
%TD*%
D30*
%TO.C,R97*%
X176483927Y-154349999D03*
X174833927Y-154349999D03*
%TD*%
D28*
%TO.C,R96*%
X171000000Y-142250000D03*
X171000000Y-140600000D03*
%TD*%
D30*
%TO.C,R95*%
X172783927Y-154349999D03*
X171133927Y-154349999D03*
%TD*%
%TO.C,R94*%
X176325000Y-163000000D03*
X174675000Y-163000000D03*
%TD*%
%TO.C,R93*%
X176324999Y-161300000D03*
X174674999Y-161300000D03*
%TD*%
D28*
%TO.C,R89*%
X169600000Y-189725000D03*
X169600000Y-188075000D03*
%TD*%
D13*
%TO.C,R88*%
X171175000Y-188200000D03*
X172825000Y-188200000D03*
%TD*%
D29*
%TO.C,R72*%
X333022500Y-57360000D03*
X333022500Y-59010000D03*
%TD*%
%TO.C,R71*%
X335722500Y-57360000D03*
X335722500Y-59010000D03*
%TD*%
%TO.C,R58*%
X299022500Y-57397500D03*
X299022500Y-59047500D03*
%TD*%
%TO.C,R57*%
X301722500Y-57397500D03*
X301722500Y-59047500D03*
%TD*%
%TO.C,R44*%
X249522500Y-57147500D03*
X249522500Y-58797500D03*
%TD*%
%TO.C,R43*%
X252222500Y-57147500D03*
X252222500Y-58797500D03*
%TD*%
%TO.C,R30*%
X215022500Y-57565133D03*
X215022500Y-59215133D03*
%TD*%
%TO.C,R29*%
X217722500Y-57565133D03*
X217722500Y-59215133D03*
%TD*%
%TO.C,R16*%
X166522500Y-57360000D03*
X166522500Y-59010000D03*
%TD*%
%TO.C,R15*%
X169222500Y-57360000D03*
X169222500Y-59010000D03*
%TD*%
%TO.C,R2*%
X131822500Y-57572499D03*
X131822500Y-59222499D03*
%TD*%
%TO.C,R1*%
X134522500Y-57572499D03*
X134522500Y-59222499D03*
%TD*%
D31*
%TO.C,Q9*%
X180158927Y-151849999D03*
X178258927Y-151849999D03*
X179208927Y-149974998D03*
%TD*%
D32*
%TO.C,R133*%
X192300000Y-191300000D03*
X192300000Y-192320000D03*
%TD*%
D31*
%TO.C,Q7*%
X172958927Y-151849999D03*
X171058927Y-151849999D03*
X172008927Y-149974998D03*
%TD*%
D33*
%TO.C,FB3*%
X117400000Y-206875002D03*
X117400000Y-205300000D03*
%TD*%
D34*
%TO.C,U27*%
X301900000Y-155949999D03*
D35*
X301000002Y-155549997D03*
X301000002Y-155049998D03*
X301000002Y-154549996D03*
X301000002Y-154049998D03*
X301000002Y-153549995D03*
X301000002Y-153049997D03*
X301000002Y-152549998D03*
X301000002Y-152049999D03*
D34*
X301900000Y-151649997D03*
X303400002Y-151649997D03*
D35*
X304300000Y-152049999D03*
X304300000Y-152549998D03*
X304300000Y-153050000D03*
X304300000Y-153549998D03*
X304300000Y-154050001D03*
X304300000Y-154549999D03*
X304300000Y-155049998D03*
X304300000Y-155550000D03*
D34*
X303400002Y-155949999D03*
D36*
X302650001Y-153799998D03*
%TD*%
D37*
%TO.C,U32*%
X136900001Y-190300000D03*
X136400001Y-190300000D03*
X135900000Y-190300000D03*
X135400001Y-190300000D03*
X134900002Y-190300000D03*
X134400001Y-190300000D03*
X133900001Y-190300000D03*
X133900001Y-188950000D03*
X134400001Y-188950000D03*
X134900002Y-188950000D03*
X135400001Y-188950000D03*
X135900000Y-188950000D03*
X136400001Y-188950000D03*
X136900001Y-188950000D03*
%TD*%
D31*
%TO.C,Q10*%
X183808927Y-151887499D03*
X181908927Y-151887499D03*
X182858927Y-150012498D03*
%TD*%
D38*
%TO.C,U9*%
X174200001Y-193400000D03*
X173700000Y-193400000D03*
X173200000Y-193400000D03*
X172699999Y-193400000D03*
X172699999Y-190600000D03*
X173200000Y-190600000D03*
X173700000Y-190600000D03*
X174200001Y-190600000D03*
%TD*%
D39*
%TO.C,C120*%
X210924999Y-142845000D03*
X213875001Y-142845000D03*
%TD*%
D37*
%TO.C,U7*%
X167700000Y-191850000D03*
X167200000Y-191850000D03*
X166699999Y-191850000D03*
X166200000Y-191850000D03*
X165700001Y-191850000D03*
X165200000Y-191850000D03*
X164700000Y-191850000D03*
X164700000Y-190500000D03*
X165200000Y-190500000D03*
X165700001Y-190500000D03*
X166200000Y-190500000D03*
X166699999Y-190500000D03*
X167200000Y-190500000D03*
X167700000Y-190500000D03*
%TD*%
D31*
%TO.C,Q8*%
X176558927Y-151812499D03*
X174658927Y-151812499D03*
X175608927Y-149937498D03*
%TD*%
D37*
%TO.C,U8*%
X156300000Y-191900000D03*
X155800000Y-191900000D03*
X155299999Y-191900000D03*
X154800000Y-191900000D03*
X154300001Y-191900000D03*
X153800000Y-191900000D03*
X153300000Y-191900000D03*
X153300000Y-190550000D03*
X153800000Y-190550000D03*
X154300001Y-190550000D03*
X154800000Y-190550000D03*
X155299999Y-190550000D03*
X155800000Y-190550000D03*
X156300000Y-190550000D03*
%TD*%
M02*
