M48
; DRILL file KiCad 10.0.5 date 2026-09-12T21:52:14
; FORMAT={-:-/ absolute / metric / decimal}
; #@! TF.CreationDate,2026-09-12T21:52:14-07:00
; #@! TF.GenerationSoftware,Kicad,Pcbnew,10.0.5
; #@! TF.FileFunction,Plated,1,6,PTH
FMAT,2
METRIC
; #@! TA.AperFunction,Plated,PTH,ComponentDrill
T1C0.200
; #@! TA.AperFunction,Plated,PTH,ViaDrill
T2C0.300
; #@! TA.AperFunction,Plated,PTH,ViaDrill
T3C0.305
; #@! TA.AperFunction,Plated,PTH,ComponentDrill
T4C0.650
; #@! TA.AperFunction,Plated,PTH,ComponentDrill
T5C0.800
; #@! TA.AperFunction,Plated,PTH,ComponentDrill
T6C1.000
; #@! TA.AperFunction,Plated,PTH,ComponentDrill
T7C1.020
; #@! TA.AperFunction,Plated,PTH,ComponentDrill
T8C1.400
; #@! TA.AperFunction,Plated,PTH,ComponentDrill
T9C1.500
; #@! TA.AperFunction,Plated,PTH,ComponentDrill
T10C1.780
; #@! TA.AperFunction,Plated,PTH,ComponentDrill
T11C1.800
; #@! TA.AperFunction,Plated,PTH,ComponentDrill
T12C3.200
%
G90
G05
T1
X264.212Y-139.85
X264.212Y-140.8
X264.212Y-141.875
X265.312Y-139.85
X265.312Y-140.8
X265.312Y-141.875
X266.412Y-139.85
X266.412Y-140.8
X266.412Y-141.875
T2
X105.195Y-79.327
X105.195Y-80.327
X105.195Y-81.327
X105.195Y-82.327
X105.195Y-83.327
X105.195Y-84.327
X106.195Y-79.327
X107.195Y-79.327
X108.195Y-79.327
X117.05Y-200.95
X117.15Y-199.2
X118.6Y-109.832
X118.6Y-111.332
X118.6Y-112.832
X118.6Y-114.332
X120.35Y-114.332
X122.1Y-109.832
X122.1Y-111.332
X122.1Y-112.832
X122.1Y-114.332
X133.2Y-85.15
X135.75Y-88.65
X137.75Y-78.1
X139.623Y-80.107
X139.623Y-81.107
X139.623Y-82.107
X139.623Y-83.107
X139.623Y-84.107
X140.623Y-79.107
X141.623Y-79.107
X142.623Y-79.107
X149.7Y-139.65
X149.9Y-135.4
X152.25Y-150.4
X153.048Y-109.591
X153.048Y-111.091
X153.048Y-112.591
X153.048Y-114.091
X154.798Y-114.091
X155.725Y-140.226
X155.75Y-137.8
X156.548Y-109.591
X156.548Y-111.091
X156.548Y-112.591
X156.548Y-114.091
X160.321Y-151.821
X160.33Y-135.69
X163.592Y-155.885
X169.537Y-150.631
X188.64Y-80.052
X188.64Y-81.052
X188.64Y-82.052
X188.64Y-83.052
X188.64Y-84.052
X189.64Y-79.052
X190.64Y-79.052
X191.64Y-79.052
X202.4Y-109.45
X202.4Y-110.95
X202.4Y-112.45
X205.0Y-182.8
X205.05Y-145.1
X205.3Y-109.45
X205.3Y-110.95
X205.3Y-112.45
X206.7Y-125.0
X213.882Y-85.1
X214.45Y-182.8
X216.7Y-74.25
X223.067Y-79.832
X223.067Y-80.832
X223.067Y-81.832
X223.067Y-82.832
X223.067Y-83.832
X223.5Y-155.5
X224.067Y-78.832
X225.067Y-78.832
X226.067Y-78.832
X236.52Y-109.29
X236.52Y-110.79
X236.52Y-112.29
X236.52Y-113.79
X238.27Y-113.79
X240.02Y-109.29
X240.02Y-110.79
X240.02Y-112.29
X240.02Y-113.79
X251.6Y-159.75
X255.95Y-137.95
X259.15Y-142.6
X260.65Y-142.6
X262.35Y-141.6
X272.64Y-80.052
X272.64Y-81.052
X272.64Y-82.052
X272.64Y-83.052
X272.64Y-84.052
X273.64Y-79.052
X274.64Y-79.052
X275.64Y-79.052
X279.45Y-145.9
X285.75Y-141.65
X286.087Y-109.57
X286.087Y-111.07
X286.087Y-112.57
X286.087Y-114.07
X287.837Y-114.07
X289.587Y-109.57
X289.587Y-111.07
X289.587Y-112.57
X289.587Y-114.07
X301.15Y-74.15
X307.055Y-80.052
X307.055Y-81.052
X307.055Y-82.052
X307.055Y-83.052
X307.055Y-84.052
X308.055Y-79.052
X309.055Y-79.052
X310.055Y-79.052
X320.507Y-109.53
X320.507Y-111.03
X320.507Y-112.53
X320.507Y-114.03
X322.257Y-114.03
X324.007Y-109.53
X324.007Y-111.03
X324.007Y-112.53
X324.007Y-114.03
T3
X94.25Y-51.5
X94.25Y-59.0
X94.25Y-67.0
X94.25Y-76.0
X94.25Y-84.0
X94.25Y-92.0
X94.25Y-100.0
X94.25Y-108.0
X94.25Y-116.0
X94.25Y-124.0
X94.25Y-130.25
X94.25Y-138.25
X94.25Y-146.25
X94.25Y-154.25
X94.25Y-162.25
X94.25Y-170.25
X94.25Y-178.25
X94.25Y-186.25
X94.25Y-194.25
X94.25Y-202.25
X95.25Y-55.5
X95.25Y-63.0
X95.25Y-80.0
X95.25Y-88.0
X95.25Y-96.0
X95.25Y-104.0
X95.25Y-112.0
X95.25Y-120.0
X95.25Y-134.25
X95.25Y-142.25
X95.25Y-150.25
X95.25Y-158.25
X95.25Y-166.25
X95.25Y-174.25
X95.25Y-182.25
X95.25Y-190.25
X95.25Y-198.25
X95.5Y-70.75
X97.25Y-74.0
X98.4Y-123.8
X98.6Y-130.2
X98.6Y-152.3
X99.0Y-70.75
X99.4Y-203.6
X99.6Y-50.4
X100.6Y-127.0
X101.0Y-150.106
X101.0Y-207.5
X102.0Y-46.25
X102.0Y-72.5
X102.6Y-176.95
X103.2Y-155.5
X103.6Y-180.25
X104.25Y-179.65
X104.7Y-178.5
X105.0Y-208.5
X105.7Y-183.3
X106.0Y-45.25
X106.0Y-71.5
X107.0Y-89.8
X108.0Y-165.4
X108.0Y-188.0
X108.0Y-196.5
X108.0Y-204.0
X108.1Y-163.7
X109.0Y-192.5
X109.0Y-200.5
X109.0Y-207.5
X109.11Y-95.61
X109.5Y-185.0
X109.81Y-92.94
X110.0Y-46.25
X110.0Y-72.5
X110.07Y-90.72
X110.6Y-182.9
X112.0Y-186.0
X113.25Y-201.8
X113.8Y-196.5
X114.0Y-45.25
X114.0Y-71.5
X114.4Y-204.6
X114.5Y-201.15
X115.4Y-146.6
X115.5Y-185.0
X115.7Y-99.032
X115.7Y-100.432
X115.7Y-143.5
X115.75Y-78.15
X115.75Y-79.4
X115.8Y-149.4
X115.9Y-94.832
X115.9Y-96.032
X115.9Y-97.432
X116.15Y-206.93
X116.781Y-196.4
X117.05Y-78.15
X117.05Y-79.4
X117.3Y-94.832
X117.3Y-97.432
X117.3Y-100.432
X117.619Y-196.4
X118.0Y-46.25
X118.0Y-72.5
X118.3Y-75.9
X118.3Y-77.05
X118.3Y-78.15
X118.3Y-79.4
X118.4Y-152.3
X118.55Y-206.93
X118.7Y-204.6
X119.0Y-105.932
X119.0Y-106.832
X119.0Y-107.732
X119.0Y-108.632
X119.0Y-186.0
X119.3Y-89.1
X119.3Y-90.1
X119.3Y-91.1
X119.6Y-75.9
X119.6Y-77.05
X119.6Y-78.15
X119.6Y-79.4
X119.9Y-105.932
X119.9Y-106.832
X119.9Y-107.732
X119.9Y-108.632
X120.4Y-89.1
X120.4Y-90.1
X120.4Y-91.1
X120.6Y-200.1
X120.75Y-196.6
X120.8Y-105.932
X120.8Y-106.832
X120.8Y-107.732
X120.8Y-108.632
X120.95Y-201.3
X121.0Y-204.5
X121.15Y-201.95
X121.2Y-147.3
X121.2Y-148.6
X121.25Y-79.35
X121.25Y-146.05
X121.3Y-75.9
X121.3Y-77.05
X121.3Y-78.15
X121.45Y-89.1
X121.45Y-90.1
X121.45Y-91.1
X121.7Y-105.932
X121.7Y-106.832
X121.7Y-107.732
X121.7Y-108.632
X122.0Y-45.25
X122.0Y-71.5
X122.3Y-161.7
X122.35Y-158.85
X122.35Y-168.2
X122.45Y-155.2
X122.45Y-165.0
X122.6Y-79.35
X122.65Y-75.9
X122.65Y-77.05
X122.65Y-78.15
X122.8Y-199.3
X123.0Y-185.0
X123.15Y-148.65
X123.2Y-146.05
X123.2Y-147.3
X123.3Y-97.832
X123.8Y-199.5
X123.8Y-200.4
X123.9Y-98.632
X123.95Y-79.35
X124.0Y-78.15
X124.2Y-194.0
X124.75Y-155.2
X124.75Y-157.45
X124.75Y-168.25
X124.8Y-161.7
X124.8Y-165.0
X125.1Y-98.632
X125.3Y-79.35
X125.35Y-78.15
X126.0Y-46.25
X126.0Y-72.5
X126.0Y-194.0
X126.2Y-202.25
X126.3Y-98.632
X126.5Y-200.0
X127.0Y-186.0
X127.2Y-197.7
X127.85Y-84.055
X128.3Y-203.8
X128.95Y-87.0
X129.1Y-146.7
X129.8Y-149.613
X129.8Y-153.2
X130.0Y-45.25
X130.0Y-71.5
X130.35Y-194.6
X130.375Y-78.7
X130.4Y-74.775
X131.0Y-185.0
X131.2Y-182.45
X131.25Y-98.15
X131.3Y-90.45
X131.3Y-192.05
X131.4Y-114.9
X131.45Y-155.05
X131.8Y-55.515
X132.4Y-164.55
X132.55Y-192.15
X132.6Y-104.0
X132.6Y-196.0
X132.9Y-95.55
X132.95Y-182.5
X132.95Y-187.8
X133.023Y-60.297
X133.5Y-194.65
X133.65Y-156.05
X134.0Y-46.25
X134.0Y-72.5
X134.057Y-187.643
X134.3Y-91.35
X134.3Y-164.5
X134.4Y-182.55
X134.5Y-55.495
X134.547Y-60.347
X134.7Y-161.5
X134.8Y-191.95
X135.0Y-186.0
X135.35Y-168.35
X135.615Y-187.563
X135.7Y-194.6
X135.8Y-182.6
X136.3Y-187.75
X136.6Y-191.95
X136.735Y-110.265
X137.15Y-187.75
X137.2Y-147.9
X137.6Y-191.95
X137.9Y-81.5
X138.0Y-45.25
X138.0Y-71.5
X138.0Y-182.6
X138.1Y-187.75
X138.2Y-145.75
X138.25Y-144.65
X138.317Y-143.583
X138.5Y-153.262
X138.55Y-142.5
X138.7Y-191.85
X139.0Y-123.3
X139.0Y-185.0
X139.25Y-160.65
X139.25Y-182.65
X139.4Y-150.45
X139.5Y-151.55
X140.35Y-163.95
X140.5Y-164.9
X140.5Y-182.65
X140.55Y-194.6
X140.75Y-95.5
X141.0Y-143.95
X141.45Y-89.75
X141.5Y-192.65
X141.58Y-141.85
X141.8Y-95.45
X141.8Y-166.6
X142.0Y-46.25
X142.0Y-72.5
X142.28Y-148.45
X142.343Y-160.943
X142.4Y-157.4
X142.6Y-153.856
X142.664Y-156.348
X142.7Y-95.45
X142.737Y-152.837
X142.85Y-88.2
X142.85Y-140.85
X142.85Y-150.35
X143.0Y-186.0
X143.15Y-154.45
X143.15Y-155.7
X143.7Y-155.1
X143.778Y-168.561
X143.85Y-140.7
X143.95Y-163.6
X144.1Y-172.8
X144.392Y-140.098
X144.7Y-136.5
X144.7Y-139.35
X144.763Y-166.45
X144.85Y-150.75
X144.9Y-151.9
X144.978Y-138.589
X145.0Y-174.9
X145.356Y-167.15
X145.5Y-172.9
X145.95Y-166.4
X146.0Y-45.25
X146.0Y-71.5
X146.7Y-160.3
X146.95Y-162.9
X147.0Y-138.7
X147.0Y-185.0
X147.005Y-155.255
X147.5Y-145.2
X147.518Y-139.322
X147.8Y-152.4
X148.003Y-139.971
X148.094Y-168.539
X148.15Y-140.9
X148.9Y-158.75
X149.125Y-141.819
X149.139Y-166.056
X149.212Y-140.4
X149.45Y-163.5
X149.95Y-167.7
X150.0Y-46.25
X150.0Y-72.5
X150.177Y-77.93
X150.177Y-79.18
X150.2Y-158.6
X150.25Y-151.05
X150.8Y-156.2
X150.9Y-152.25
X150.902Y-132.502
X150.95Y-139.75
X151.0Y-186.0
X151.2Y-170.6
X151.477Y-77.93
X151.477Y-79.18
X151.55Y-166.7
X151.555Y-162.45
X151.7Y-182.3
X151.727Y-94.612
X151.727Y-97.212
X152.16Y-161.55
X152.4Y-131.9
X152.555Y-140.4
X152.727Y-75.68
X152.727Y-76.83
X152.727Y-77.93
X152.727Y-79.18
X152.75Y-145.35
X152.8Y-149.3
X152.85Y-162.4
X153.0Y-187.95
X153.1Y-139.8
X153.4Y-166.156
X153.448Y-105.691
X153.448Y-106.591
X153.448Y-107.491
X153.448Y-108.391
X153.465Y-149.965
X153.55Y-161.55
X153.6Y-182.3
X153.699Y-145.895
X153.727Y-88.88
X153.727Y-89.88
X153.727Y-90.88
X153.73Y-153.16
X153.836Y-141.4
X154.0Y-45.25
X154.0Y-71.5
X154.0Y-139.3
X154.028Y-75.68
X154.028Y-76.83
X154.028Y-77.93
X154.028Y-79.18
X154.1Y-187.95
X154.2Y-162.4
X154.3Y-147.4
X154.348Y-105.691
X154.348Y-106.591
X154.348Y-107.491
X154.348Y-108.391
X154.4Y-151.0
X154.6Y-146.3
X154.682Y-163.582
X154.8Y-88.9
X154.8Y-89.9
X154.8Y-90.9
X154.8Y-167.606
X154.95Y-161.65
X155.0Y-185.0
X155.028Y-140.628
X155.248Y-105.691
X155.248Y-106.591
X155.248Y-107.491
X155.248Y-108.391
X155.28Y-151.43
X155.5Y-146.9
X155.5Y-182.3
X155.5Y-187.9
X155.677Y-79.13
X155.7Y-148.6
X155.727Y-75.68
X155.727Y-76.83
X155.727Y-77.93
X155.85Y-88.88
X155.85Y-89.88
X155.85Y-90.88
X156.148Y-105.691
X156.148Y-106.591
X156.148Y-107.491
X156.148Y-108.391
X156.3Y-147.45
X156.35Y-161.65
X156.95Y-162.3
X157.0Y-136.8
X157.0Y-187.9
X157.028Y-79.13
X157.077Y-75.68
X157.077Y-76.83
X157.077Y-77.93
X157.15Y-135.35
X157.15Y-148.1
X157.4Y-182.3
X157.55Y-161.7
X157.585Y-154.749
X157.727Y-97.612
X158.0Y-46.25
X158.0Y-72.5
X158.005Y-147.2
X158.172Y-162.218
X158.327Y-98.412
X158.377Y-79.13
X158.427Y-77.93
X158.605Y-146.4
X158.85Y-161.7
X158.95Y-136.1
X159.0Y-186.0
X159.094Y-153.15
X159.5Y-162.25
X159.528Y-98.412
X159.67Y-135.12
X159.727Y-79.13
X159.75Y-152.8
X159.778Y-77.93
X160.044Y-141.2
X160.176Y-156.899
X160.25Y-158.4
X160.6Y-157.66
X160.7Y-167.4
X160.727Y-98.412
X160.85Y-156.45
X160.873Y-162.787
X161.7Y-170.2
X162.0Y-45.25
X162.0Y-71.5
X162.35Y-168.8
X162.45Y-166.1
X163.0Y-185.0
X163.75Y-158.85
X163.8Y-182.3
X164.175Y-154.275
X164.2Y-188.1
X164.3Y-156.3
X164.35Y-171.6
X164.55Y-87.95
X164.8Y-152.629
X164.802Y-78.48
X164.827Y-75.75
X164.844Y-151.5
X165.0Y-187.65
X165.4Y-172.7
X165.5Y-182.35
X165.5Y-193.85
X165.594Y-146.8
X165.8Y-148.4
X166.0Y-46.25
X166.0Y-72.5
X166.3Y-152.1
X166.4Y-90.2
X166.5Y-55.302
X166.55Y-188.1
X167.0Y-94.4
X167.0Y-186.0
X167.15Y-152.7
X167.2Y-182.35
X167.5Y-149.7
X167.7Y-188.05
X167.722Y-60.085
X168.25Y-152.55
X168.3Y-149.95
X168.55Y-188.6
X168.75Y-90.05
X168.75Y-155.2
X168.9Y-182.35
X169.2Y-55.282
X169.248Y-60.135
X169.4Y-158.9
X169.45Y-170.4
X169.575Y-148.4
X169.6Y-189.725
X169.85Y-160.2
X170.0Y-45.25
X170.0Y-71.5
X170.02Y-145.1
X170.2Y-154.35
X170.6Y-158.9
X170.75Y-165.0
X170.8Y-162.95
X170.9Y-167.5
X171.0Y-143.45
X171.0Y-153.25
X171.0Y-185.0
X171.175Y-188.2
X171.35Y-183.5
X172.0Y-146.6
X173.3Y-156.0
X173.4Y-161.3
X173.75Y-187.55
X173.85Y-154.35
X174.0Y-46.25
X174.0Y-72.5
X174.0Y-143.5
X174.0Y-183.55
X174.55Y-188.1
X174.7Y-164.0
X174.85Y-153.25
X175.0Y-186.0
X175.3Y-146.4
X175.55Y-108.1
X176.75Y-143.4
X176.8Y-49.8
X177.1Y-109.45
X177.5Y-161.3
X177.55Y-154.35
X177.65Y-169.8
X177.65Y-171.25
X177.75Y-70.5
X178.0Y-189.3
X178.1Y-146.3
X178.3Y-153.25
X178.4Y-164.0
X179.0Y-58.25
X179.0Y-66.25
X179.0Y-185.0
X179.3Y-165.3
X179.5Y-73.75
X179.6Y-143.45
X180.0Y-54.25
X180.0Y-62.25
X180.1Y-163.1
X181.0Y-146.2
X181.0Y-171.35
X181.0Y-190.0
X181.0Y-198.0
X181.0Y-206.0
X181.2Y-154.35
X181.25Y-70.5
X181.9Y-153.25
X182.0Y-186.0
X182.0Y-194.0
X182.0Y-202.0
X182.55Y-169.85
X182.55Y-171.3
X182.6Y-49.8
X183.0Y-207.6
X184.5Y-72.5
X185.0Y-46.25
X187.0Y-152.7
X187.0Y-208.6
X188.3Y-186.5
X188.5Y-71.5
X189.0Y-45.25
X189.6Y-184.6
X189.95Y-96.05
X190.45Y-89.7
X191.0Y-207.6
X191.15Y-96.0
X191.7Y-139.37
X191.7Y-140.23
X191.76Y-144.745
X191.76Y-145.605
X192.0Y-88.2
X192.2Y-178.9
X192.3Y-193.1
X192.5Y-72.5
X192.5Y-96.05
X193.0Y-46.25
X193.5Y-179.6
X194.2Y-192.8
X194.7Y-180.5
X195.0Y-208.6
X195.045Y-163.545
X195.65Y-137.1
X195.65Y-142.5
X195.65Y-148.05
X196.0Y-192.4
X196.5Y-71.5
X196.9Y-137.1
X196.9Y-163.3
X196.95Y-142.45
X196.95Y-148.0
X197.0Y-45.25
X197.3Y-184.7
X197.4Y-190.6
X197.5Y-171.9
X197.65Y-167.75
X197.85Y-154.0
X198.5Y-191.9
X198.5Y-192.9
X198.8Y-207.6
X199.0Y-169.8
X199.195Y-77.875
X199.195Y-79.125
X199.2Y-134.45
X199.3Y-135.6
X199.5Y-171.7
X199.75Y-154.0
X200.495Y-77.875
X200.495Y-79.125
X200.5Y-72.5
X200.745Y-94.557
X200.745Y-97.157
X200.9Y-173.3
X201.0Y-46.25
X201.67Y-130.95
X201.745Y-75.625
X201.745Y-76.775
X201.745Y-77.875
X201.745Y-79.125
X201.75Y-153.95
X202.3Y-185.3
X202.51Y-105.64
X202.51Y-106.54
X202.51Y-107.44
X202.51Y-108.34
X202.53Y-130.95
X202.745Y-88.825
X202.745Y-89.825
X202.745Y-90.825
X202.8Y-208.6
X203.045Y-75.625
X203.045Y-76.775
X203.045Y-77.875
X203.045Y-79.125
X203.41Y-105.64
X203.41Y-106.54
X203.41Y-107.44
X203.41Y-108.34
X203.7Y-136.6
X203.75Y-154.0
X203.8Y-88.825
X203.8Y-89.825
X203.8Y-90.825
X204.31Y-105.64
X204.31Y-106.54
X204.31Y-107.44
X204.31Y-108.34
X204.5Y-71.5
X204.695Y-79.075
X204.7Y-194.1
X204.745Y-75.625
X204.745Y-76.775
X204.745Y-77.875
X204.75Y-135.6
X204.85Y-134.4
X204.9Y-88.825
X204.9Y-89.825
X204.9Y-90.825
X205.0Y-45.25
X205.0Y-190.6
X205.21Y-105.64
X205.21Y-106.54
X205.21Y-107.44
X205.21Y-108.34
X205.45Y-169.3
X205.65Y-154.0
X206.0Y-141.85
X206.045Y-79.075
X206.095Y-75.625
X206.095Y-76.775
X206.095Y-77.875
X206.1Y-195.2
X206.745Y-97.557
X206.8Y-207.6
X207.02Y-130.9
X207.345Y-98.357
X207.395Y-79.075
X207.4Y-148.6
X207.445Y-77.875
X207.5Y-194.1
X207.55Y-154.05
X207.7Y-187.3
X207.88Y-130.9
X208.35Y-162.8
X208.5Y-72.5
X208.545Y-98.357
X208.745Y-79.075
X208.795Y-77.875
X209.0Y-46.25
X209.45Y-142.395
X209.7Y-167.6
X209.7Y-179.1
X209.7Y-182.1
X209.745Y-98.357
X209.8Y-162.6
X210.2Y-135.6
X210.25Y-134.45
X210.6Y-184.7
X210.8Y-208.6
X210.95Y-162.7
X211.35Y-84.2
X211.35Y-153.95
X212.35Y-86.75
X212.4Y-136.85
X212.5Y-71.5
X212.5Y-142.2
X212.55Y-147.6
X212.6Y-163.1
X212.7Y-167.5
X213.0Y-45.25
X213.4Y-193.5
X213.7Y-136.85
X213.75Y-147.6
X213.75Y-169.3
X213.82Y-78.425
X213.845Y-75.8
X213.9Y-164.25
X214.4Y-207.6
X214.8Y-95.5
X215.0Y-55.507
X215.45Y-142.1
X216.045Y-60.468
X216.2Y-85.8
X216.25Y-104.0
X216.5Y-72.5
X216.7Y-90.0
X216.7Y-193.5
X217.0Y-46.25
X217.05Y-139.07
X217.05Y-139.93
X217.15Y-144.37
X217.15Y-145.23
X217.6Y-205.0
X217.7Y-55.487
X217.748Y-60.34
X217.75Y-82.3
X217.75Y-91.1
X217.8Y-109.75
X218.35Y-93.35
X218.4Y-208.6
X219.75Y-168.6
X220.25Y-109.7
X220.3Y-173.6
X220.3Y-174.6
X220.5Y-71.5
X220.75Y-175.9
X221.0Y-45.25
X221.0Y-202.6
X221.7Y-173.6
X221.7Y-174.6
X223.2Y-173.6
X223.2Y-174.6
X223.25Y-105.55
X224.35Y-95.8
X224.4Y-205.0
X224.5Y-72.5
X224.85Y-89.7
X225.0Y-46.25
X225.65Y-95.75
X226.0Y-207.6
X226.1Y-88.25
X226.6Y-171.3
X226.65Y-170.35
X226.65Y-175.9
X226.95Y-95.7
X227.45Y-174.25
X228.5Y-71.5
X229.0Y-45.25
X230.0Y-208.6
X230.1Y-164.0
X230.1Y-165.0
X231.6Y-164.0
X231.6Y-165.0
X231.7Y-162.25
X231.7Y-168.35
X232.5Y-72.5
X232.7Y-179.25
X232.9Y-161.15
X232.9Y-167.3
X233.0Y-46.25
X233.3Y-182.05
X233.623Y-77.655
X233.623Y-78.905
X234.0Y-207.6
X234.05Y-140.5
X234.8Y-180.9
X234.922Y-77.655
X234.922Y-78.905
X235.172Y-94.337
X235.172Y-96.937
X235.25Y-141.45
X235.35Y-167.3
X235.4Y-161.15
X236.172Y-75.405
X236.172Y-76.555
X236.172Y-77.655
X236.172Y-78.905
X236.5Y-71.5
X236.6Y-168.4
X236.85Y-162.3
X236.92Y-105.39
X236.92Y-106.29
X236.92Y-107.19
X236.92Y-108.09
X237.0Y-45.25
X237.172Y-88.605
X237.172Y-89.605
X237.172Y-90.605
X237.2Y-182.25
X237.472Y-75.405
X237.472Y-76.555
X237.472Y-77.655
X237.472Y-78.905
X237.82Y-105.39
X237.82Y-106.29
X237.82Y-107.19
X237.82Y-108.09
X238.0Y-208.6
X238.25Y-88.6
X238.25Y-89.6
X238.25Y-90.6
X238.5Y-181.15
X238.72Y-105.39
X238.72Y-106.29
X238.72Y-107.19
X238.72Y-108.09
X239.123Y-78.855
X239.172Y-75.405
X239.172Y-76.555
X239.172Y-77.655
X239.35Y-88.6
X239.35Y-89.6
X239.35Y-90.6
X239.48Y-138.6
X239.5Y-145.75
X239.6Y-135.0
X239.62Y-105.39
X239.62Y-106.29
X239.62Y-107.19
X239.62Y-108.09
X240.472Y-78.855
X240.5Y-72.5
X240.522Y-75.405
X240.522Y-76.555
X240.522Y-77.655
X241.0Y-46.25
X241.172Y-97.337
X241.772Y-98.137
X241.8Y-207.6
X241.822Y-78.855
X241.873Y-77.655
X242.65Y-162.75
X242.9Y-173.5
X242.95Y-172.4
X242.972Y-98.137
X243.15Y-131.3
X243.172Y-78.855
X243.222Y-77.655
X243.3Y-116.65
X244.172Y-98.137
X244.2Y-134.05
X244.4Y-164.45
X244.45Y-180.15
X244.45Y-181.15
X244.5Y-71.5
X245.0Y-45.25
X245.76Y-170.81
X245.76Y-171.81
X245.8Y-208.6
X247.01Y-170.81
X247.01Y-171.81
X247.8Y-180.05
X247.8Y-181.15
X247.95Y-87.7
X248.248Y-78.205
X248.272Y-75.4
X248.5Y-72.5
X249.0Y-46.25
X249.5Y-55.09
X249.55Y-89.9
X249.8Y-207.6
X250.7Y-94.75
X250.722Y-59.872
X251.0Y-165.5
X251.25Y-164.55
X252.1Y-90.85
X252.2Y-55.07
X252.248Y-59.922
X252.5Y-71.5
X253.0Y-45.25
X253.175Y-139.8
X253.8Y-208.6
X254.625Y-160.2
X256.0Y-163.6
X256.5Y-72.5
X256.6Y-162.8
X256.75Y-166.3
X256.9Y-141.5
X257.0Y-46.25
X257.75Y-167.35
X257.8Y-163.8
X258.0Y-207.6
X258.15Y-140.15
X258.15Y-141.3
X258.35Y-143.35
X258.8Y-176.1
X259.2Y-162.8
X259.4Y-49.8
X259.6Y-140.1
X259.6Y-141.3
X260.05Y-145.0
X260.4Y-163.8
X260.5Y-70.75
X261.05Y-140.1
X261.1Y-141.35
X261.6Y-162.8
X261.75Y-57.0
X261.75Y-65.0
X262.0Y-208.6
X262.25Y-74.0
X262.3Y-140.4
X262.5Y-149.95
X262.75Y-53.0
X262.75Y-61.0
X263.1Y-159.075
X263.1Y-161.075
X264.0Y-70.75
X264.2Y-149.95
X264.2Y-179.675
X264.35Y-159.075
X264.35Y-163.075
X265.0Y-131.5
X265.0Y-133.0
X265.0Y-134.5
X265.0Y-136.0
X265.0Y-137.5
X265.0Y-146.3
X265.2Y-49.8
X265.6Y-159.075
X265.6Y-161.075
X265.95Y-149.95
X266.0Y-207.6
X266.5Y-131.5
X266.5Y-133.0
X266.5Y-134.5
X266.5Y-136.0
X266.5Y-137.5
X267.1Y-161.075
X267.5Y-72.5
X267.75Y-149.95
X268.0Y-46.25
X268.0Y-131.5
X268.0Y-133.0
X268.0Y-134.5
X268.0Y-136.0
X268.0Y-137.5
X268.0Y-143.6
X268.9Y-165.65
X269.5Y-131.5
X269.5Y-133.0
X269.5Y-134.5
X269.5Y-136.0
X269.5Y-137.5
X269.5Y-149.95
X269.8Y-157.95
X270.0Y-143.9
X270.0Y-161.0
X270.0Y-208.6
X270.1Y-164.05
X271.2Y-159.55
X271.2Y-162.6
X271.5Y-71.5
X272.0Y-45.25
X272.8Y-167.25
X273.8Y-207.6
X273.85Y-95.95
X274.45Y-89.5
X274.6Y-165.65
X274.6Y-168.8
X275.0Y-95.9
X275.5Y-72.5
X275.8Y-88.25
X276.0Y-46.25
X276.35Y-167.4
X276.4Y-95.85
X277.5Y-173.5
X277.5Y-175.5
X277.8Y-208.6
X278.25Y-167.3
X278.5Y-174.5
X278.5Y-176.5
X279.5Y-71.5
X279.5Y-175.5
X280.0Y-45.25
X280.15Y-165.65
X280.15Y-168.8
X280.5Y-176.5
X281.5Y-175.5
X281.8Y-207.6
X281.85Y-167.35
X282.5Y-172.5
X282.5Y-174.5
X282.5Y-176.5
X283.195Y-77.875
X283.195Y-79.125
X283.5Y-72.5
X284.0Y-46.25
X284.495Y-77.875
X284.495Y-79.125
X284.745Y-94.557
X284.745Y-97.157
X285.745Y-75.625
X285.745Y-76.775
X285.745Y-77.875
X285.745Y-79.125
X285.8Y-208.6
X286.487Y-105.67
X286.487Y-106.57
X286.487Y-107.47
X286.487Y-108.37
X286.745Y-88.825
X286.745Y-89.825
X286.745Y-90.825
X287.045Y-75.625
X287.045Y-76.775
X287.045Y-77.875
X287.045Y-79.125
X287.387Y-105.67
X287.387Y-106.57
X287.387Y-107.47
X287.387Y-108.37
X287.5Y-71.5
X287.85Y-88.825
X287.85Y-89.825
X287.85Y-90.825
X288.0Y-45.25
X288.287Y-105.67
X288.287Y-106.57
X288.287Y-107.47
X288.287Y-108.37
X288.695Y-79.075
X288.745Y-75.625
X288.745Y-76.775
X288.745Y-77.875
X288.95Y-88.825
X288.95Y-89.825
X288.95Y-90.825
X289.187Y-105.67
X289.187Y-106.57
X289.187Y-107.47
X289.187Y-108.37
X289.45Y-161.7
X289.8Y-207.6
X290.045Y-79.075
X290.095Y-75.625
X290.095Y-76.775
X290.095Y-77.875
X290.745Y-97.557
X291.345Y-98.357
X291.395Y-79.075
X291.445Y-77.875
X291.5Y-72.5
X291.55Y-161.7
X292.0Y-46.25
X292.545Y-98.357
X292.745Y-79.075
X292.795Y-77.875
X293.65Y-161.7
X293.745Y-98.357
X293.8Y-208.6
X295.25Y-84.3
X295.5Y-71.5
X295.75Y-161.75
X295.95Y-111.3
X296.0Y-45.25
X296.0Y-86.8
X296.95Y-164.2
X297.7Y-101.9
X297.75Y-151.25
X297.8Y-207.6
X297.82Y-78.425
X297.845Y-75.7
X298.094Y-152.62
X298.25Y-90.45
X298.322Y-151.844
X298.35Y-192.35
X298.5Y-86.65
X299.0Y-55.34
X299.075Y-164.275
X299.5Y-72.5
X299.8Y-90.05
X299.85Y-94.35
X300.0Y-46.25
X300.18Y-152.919
X300.222Y-60.122
X301.0Y-150.9
X301.1Y-109.8
X301.175Y-164.275
X301.425Y-82.975
X301.7Y-55.32
X301.748Y-60.172
X301.8Y-208.6
X302.05Y-145.1
X302.2Y-91.05
X302.425Y-159.725
X302.7Y-150.856
X302.805Y-86.05
X303.475Y-82.825
X303.5Y-71.5
X303.65Y-109.9
X304.0Y-45.25
X304.4Y-150.8
X304.45Y-157.85
X305.2Y-152.05
X305.45Y-147.85
X305.6Y-207.6
X307.5Y-72.5
X307.5Y-151.45
X307.75Y-167.6
X308.0Y-46.25
X308.1Y-105.55
X308.35Y-95.45
X308.85Y-89.05
X309.0Y-159.6
X309.1Y-158.22
X309.5Y-95.4
X309.6Y-162.1
X309.6Y-208.6
X309.75Y-148.3
X309.75Y-149.45
X309.75Y-150.55
X310.0Y-88.05
X310.5Y-136.5
X310.5Y-139.5
X310.6Y-162.05
X310.75Y-95.4
X311.5Y-71.5
X311.6Y-162.05
X311.76Y-156.27
X312.0Y-45.25
X312.5Y-138.0
X312.5Y-141.0
X313.55Y-159.8
X313.6Y-207.6
X313.85Y-143.65
X314.0Y-146.0
X314.5Y-136.5
X314.5Y-139.5
X314.5Y-142.5
X314.5Y-159.8
X315.45Y-159.8
X315.5Y-72.5
X315.5Y-144.0
X316.0Y-46.25
X316.5Y-138.0
X316.5Y-141.0
X317.0Y-146.0
X317.6Y-208.6
X317.61Y-77.875
X317.61Y-79.125
X317.9Y-148.1
X317.9Y-149.35
X317.9Y-150.6
X318.0Y-136.5
X318.0Y-139.5
X318.7Y-159.75
X318.91Y-77.875
X318.91Y-79.125
X319.16Y-94.557
X319.16Y-97.157
X319.5Y-71.5
X319.7Y-159.75
X320.0Y-45.25
X320.0Y-138.0
X320.0Y-141.0
X320.0Y-144.0
X320.0Y-146.0
X320.16Y-75.625
X320.16Y-76.775
X320.16Y-77.875
X320.16Y-79.125
X320.65Y-159.75
X320.907Y-105.63
X320.907Y-106.53
X320.907Y-107.43
X320.907Y-108.33
X321.16Y-88.825
X321.16Y-89.825
X321.16Y-90.825
X321.46Y-75.625
X321.46Y-76.775
X321.46Y-77.875
X321.46Y-79.125
X321.5Y-136.5
X321.5Y-139.5
X321.5Y-142.5
X321.5Y-145.0
X321.8Y-207.6
X321.807Y-105.63
X321.807Y-106.53
X321.807Y-107.43
X321.807Y-108.33
X322.25Y-88.825
X322.25Y-89.825
X322.25Y-90.825
X322.707Y-105.63
X322.707Y-106.53
X322.707Y-107.43
X322.707Y-108.33
X323.11Y-79.075
X323.16Y-75.625
X323.16Y-76.775
X323.16Y-77.875
X323.35Y-88.825
X323.35Y-89.825
X323.35Y-90.825
X323.5Y-72.5
X323.607Y-105.63
X323.607Y-106.53
X323.607Y-107.43
X323.607Y-108.33
X323.75Y-165.25
X323.75Y-166.75
X323.75Y-168.25
X323.75Y-169.75
X324.0Y-46.25
X324.46Y-79.075
X324.51Y-75.625
X324.51Y-76.775
X324.51Y-77.875
X325.16Y-97.557
X325.25Y-165.25
X325.25Y-166.75
X325.25Y-168.25
X325.25Y-169.75
X325.76Y-98.357
X325.8Y-208.6
X325.81Y-79.075
X325.86Y-77.875
X326.75Y-165.25
X326.75Y-166.75
X326.75Y-168.25
X326.75Y-169.75
X326.96Y-98.357
X327.16Y-79.075
X327.21Y-77.875
X327.4Y-159.1
X327.5Y-71.5
X327.8Y-143.9
X328.0Y-45.25
X328.16Y-98.357
X328.25Y-165.25
X328.25Y-166.75
X328.25Y-168.25
X328.25Y-169.75
X328.45Y-162.05
X328.7Y-146.85
X329.05Y-132.5
X329.6Y-207.6
X329.75Y-165.25
X329.75Y-166.75
X329.75Y-168.25
X329.75Y-169.75
X330.475Y-122.525
X330.8Y-86.55
X331.5Y-72.5
X332.0Y-46.25
X332.15Y-146.6
X332.235Y-78.425
X332.26Y-75.5
X332.4Y-162.0
X332.65Y-166.15
X332.75Y-150.9
X333.0Y-55.302
X333.6Y-208.6
X333.95Y-90.05
X334.1Y-94.35
X334.1Y-167.2
X334.2Y-152.0
X334.222Y-60.085
X335.5Y-71.5
X335.55Y-166.15
X335.7Y-55.282
X335.7Y-150.95
X335.748Y-60.135
X336.0Y-45.25
X336.16Y-91.075
X337.6Y-207.6
X339.5Y-72.5
X340.0Y-46.25
X340.75Y-155.7
X340.9Y-140.45
X341.6Y-127.0
X341.6Y-208.6
X342.0Y-49.8
X342.4Y-203.6
X343.0Y-71.0
X343.2Y-124.0
X343.2Y-130.0
X344.75Y-74.25
X346.5Y-71.0
X346.75Y-51.377
X346.75Y-58.877
X346.75Y-66.877
X346.75Y-75.877
X346.75Y-83.877
X346.75Y-91.877
X346.75Y-99.877
X346.75Y-107.877
X346.75Y-115.877
X346.75Y-123.877
X346.75Y-130.127
X346.75Y-138.127
X346.75Y-146.127
X346.75Y-154.127
X346.75Y-162.127
X346.75Y-170.127
X346.75Y-178.127
X346.75Y-186.127
X346.75Y-194.127
X346.75Y-202.127
X347.75Y-55.377
X347.75Y-62.877
X347.75Y-79.877
X347.75Y-87.877
X347.75Y-95.877
X347.75Y-103.877
X347.75Y-111.877
X347.75Y-119.877
X347.75Y-134.127
X347.75Y-142.127
X347.75Y-150.127
X347.75Y-158.127
X347.75Y-166.127
X347.75Y-174.127
X347.75Y-182.127
X347.75Y-190.127
X347.75Y-198.127
T4
X100.73Y-162.53
X100.73Y-163.8
X100.73Y-165.07
X100.73Y-166.34
X100.73Y-167.61
X100.73Y-168.88
X100.73Y-170.15
X102.0Y-162.53
X102.0Y-163.8
X102.0Y-165.07
X102.0Y-166.34
X102.0Y-167.61
X102.0Y-168.88
X102.0Y-170.15
T5
X101.0Y-139.0
X101.0Y-141.0
X101.0Y-143.0
T6
X151.14Y-196.21
X151.14Y-198.75
X153.68Y-196.21
X153.68Y-198.75
X156.22Y-196.21
X156.22Y-198.75
X158.76Y-196.21
X158.76Y-198.75
X161.3Y-196.21
X161.3Y-198.75
X163.84Y-196.21
X163.84Y-198.75
X166.38Y-196.21
X166.38Y-198.75
X168.92Y-196.21
X168.92Y-198.75
X171.46Y-196.21
X171.46Y-198.75
X174.0Y-196.21
X174.0Y-198.75
X221.86Y-178.77
X221.86Y-181.31
X252.4Y-170.625
X252.4Y-173.165
X320.35Y-202.7
X322.85Y-202.7
X338.8Y-144.8
X338.8Y-147.3
X338.8Y-160.1
X338.8Y-162.6
T7
X192.6Y-201.25
X195.6Y-201.25
X198.6Y-201.25
X201.6Y-201.25
T8
X117.75Y-56.15
X117.75Y-61.65
X121.95Y-56.15
X121.95Y-61.65
X152.177Y-55.93
X152.177Y-61.43
X156.377Y-55.93
X156.377Y-61.43
X201.195Y-55.875
X201.195Y-61.375
X205.395Y-55.875
X205.395Y-61.375
X235.623Y-55.655
X235.623Y-61.155
X239.822Y-55.655
X239.822Y-61.155
X285.195Y-55.875
X285.195Y-61.375
X289.395Y-55.875
X289.395Y-61.375
X319.61Y-55.875
X319.61Y-61.375
X323.81Y-55.875
X323.81Y-61.375
T9
X101.0Y-136.9
X101.0Y-145.1
T10
X324.9Y-178.74
X324.9Y-188.66
X328.3Y-178.74
X328.3Y-188.66
T11
X269.1Y-201.0
X269.1Y-195.3
X274.8Y-195.3
X274.8Y-201.0
X280.5Y-195.3
X280.5Y-201.0
X286.2Y-195.3
X286.2Y-201.0
X291.9Y-195.3
X291.9Y-201.0
T12
X97.0Y-48.0
X97.0Y-127.0
X97.0Y-206.2
X179.667Y-48.0
X221.0Y-127.0
X221.0Y-206.2
X262.333Y-48.0
X345.0Y-48.0
X345.0Y-127.0
X345.0Y-206.0
M30
