%TF.GenerationSoftware,KiCad,Pcbnew,10.0.5*%
%TF.CreationDate,2026-09-12T21:52:26-07:00*%
%TF.ProjectId,valve_control_pcb,76616c76-655f-4636-9f6e-74726f6c5f70,rev?*%
%TF.SameCoordinates,Original*%
%TF.FileFunction,Copper,L4,Inr*%
%TF.FilePolarity,Positive*%
%FSLAX46Y46*%
G04 Gerber Fmt 4.6, Leading zero omitted, Abs format (unit mm)*
G04 Created by KiCad (PCBNEW 10.0.5) date 2026-09-12 21:52:26*
%MOMM*%
%LPD*%
G01*
G04 APERTURE LIST*
G04 Aperture macros list*
%AMRoundRect*
0 Rectangle with rounded corners*
0 $1 Rounding radius*
0 $2 $3 $4 $5 $6 $7 $8 $9 X,Y pos of 4 corners*
0 Add a 4 corners polygon primitive as box body*
4,1,4,$2,$3,$4,$5,$6,$7,$8,$9,$2,$3,0*
0 Add four circle primitives for the rounded corners*
1,1,$1+$1,$2,$3*
1,1,$1+$1,$4,$5*
1,1,$1+$1,$6,$7*
1,1,$1+$1,$8,$9*
0 Add four rect primitives between the rounded corners*
20,1,$1+$1,$2,$3,$4,$5,0*
20,1,$1+$1,$4,$5,$6,$7,0*
20,1,$1+$1,$6,$7,$8,$9,0*
20,1,$1+$1,$8,$9,$2,$3,0*%
G04 Aperture macros list end*
%TA.AperFunction,ComponentPad*%
%ADD10O,2.700000X3.300000*%
%TD*%
%TA.AperFunction,ComponentPad*%
%ADD11RoundRect,0.250001X1.099999X1.399999X-1.099999X1.399999X-1.099999X-1.399999X1.099999X-1.399999X0*%
%TD*%
%TA.AperFunction,ComponentPad*%
%ADD12RoundRect,0.250002X1.599998X1.599998X-1.599998X1.599998X-1.599998X-1.599998X1.599998X-1.599998X0*%
%TD*%
%TA.AperFunction,ComponentPad*%
%ADD13C,3.700000*%
%TD*%
%TA.AperFunction,ComponentPad*%
%ADD14O,1.500000X2.020000*%
%TD*%
%TA.AperFunction,ComponentPad*%
%ADD15RoundRect,0.250001X-0.499999X-0.759999X0.499999X-0.759999X0.499999X0.759999X-0.499999X0.759999X0*%
%TD*%
%TA.AperFunction,ComponentPad*%
%ADD16O,2.500000X1.500000*%
%TD*%
%TA.AperFunction,ComponentPad*%
%ADD17R,2.500000X1.500000*%
%TD*%
%TA.AperFunction,ComponentPad*%
%ADD18O,3.500000X2.200000*%
%TD*%
%TA.AperFunction,ComponentPad*%
%ADD19C,5.500000*%
%TD*%
%TA.AperFunction,ComponentPad*%
%ADD20RoundRect,0.250000X-0.600000X-0.750000X0.600000X-0.750000X0.600000X0.750000X-0.600000X0.750000X0*%
%TD*%
%TA.AperFunction,ComponentPad*%
%ADD21O,1.700000X2.000000*%
%TD*%
%TA.AperFunction,ComponentPad*%
%ADD22C,2.780000*%
%TD*%
%TA.AperFunction,ComponentPad*%
%ADD23C,0.400000*%
%TD*%
%TA.AperFunction,ComponentPad*%
%ADD24RoundRect,0.250000X0.750000X-0.600000X0.750000X0.600000X-0.750000X0.600000X-0.750000X-0.600000X0*%
%TD*%
%TA.AperFunction,ComponentPad*%
%ADD25O,2.000000X1.700000*%
%TD*%
%TA.AperFunction,ComponentPad*%
%ADD26R,1.000000X1.000000*%
%TD*%
%TA.AperFunction,ComponentPad*%
%ADD27C,1.000000*%
%TD*%
%TA.AperFunction,ComponentPad*%
%ADD28R,1.700000X1.700000*%
%TD*%
%TA.AperFunction,ComponentPad*%
%ADD29C,1.700000*%
%TD*%
%TA.AperFunction,ComponentPad*%
%ADD30RoundRect,0.250000X-0.600000X0.600000X-0.600000X-0.600000X0.600000X-0.600000X0.600000X0.600000X0*%
%TD*%
%TA.AperFunction,ViaPad*%
%ADD31C,0.609600*%
%TD*%
%TA.AperFunction,ViaPad*%
%ADD32C,0.600000*%
%TD*%
%TA.AperFunction,Conductor*%
%ADD33C,0.177800*%
%TD*%
%TA.AperFunction,Conductor*%
%ADD34C,0.200000*%
%TD*%
%TA.AperFunction,Conductor*%
%ADD35C,0.235482*%
%TD*%
%TA.AperFunction,Conductor*%
%ADD36C,0.254000*%
%TD*%
G04 APERTURE END LIST*
D10*
%TO.N,VALVE1_VSENSE_N*%
%TO.C,J1*%
X117750000Y-56150000D03*
%TO.N,VALVE1_VSENSE_P*%
X121950000Y-56150000D03*
%TO.N,/Valves/Valve 1/12V_OUT-*%
X117750000Y-61650000D03*
D11*
%TO.N,/Valves/Valve 1/12V_OUT+*%
X121950000Y-61650000D03*
%TD*%
D10*
%TO.N,VALVE2_VSENSE_N*%
%TO.C,J2*%
X152177500Y-55930000D03*
%TO.N,VALVE2_VSENSE_P*%
X156377500Y-55930000D03*
%TO.N,/Valves/Valve 2/12V_OUT-*%
X152177500Y-61430000D03*
D11*
%TO.N,/Valves/Valve 2/12V_OUT+*%
X156377500Y-61430000D03*
%TD*%
D10*
%TO.N,VALVE3_VSENSE_N*%
%TO.C,J3*%
X201195000Y-55875000D03*
%TO.N,VALVE3_VSENSE_P*%
X205395000Y-55875000D03*
%TO.N,/Valves/Valve 3/12V_OUT-*%
X201195000Y-61375000D03*
D11*
%TO.N,/Valves/Valve 3/12V_OUT+*%
X205395000Y-61375000D03*
%TD*%
D10*
%TO.N,VALVE4_VSENSE_N*%
%TO.C,J4*%
X235622500Y-55655000D03*
%TO.N,VALVE4_VSENSE_P*%
X239822500Y-55655000D03*
%TO.N,/Valves/Valve 4/12V_OUT-*%
X235622500Y-61155000D03*
D11*
%TO.N,/Valves/Valve 4/12V_OUT+*%
X239822500Y-61155000D03*
%TD*%
D10*
%TO.N,VALVE5_VSENSE_N*%
%TO.C,J5*%
X285195000Y-55875000D03*
%TO.N,VALVE5_VSENSE_P*%
X289395000Y-55875000D03*
%TO.N,/Valves/Valve 5/12V_OUT-*%
X285195000Y-61375000D03*
D11*
%TO.N,/Valves/Valve 5/12V_OUT+*%
X289395000Y-61375000D03*
%TD*%
D10*
%TO.N,VALVE6_VSENSE_N*%
%TO.C,J6*%
X319610000Y-55875000D03*
%TO.N,VALVE6_VSENSE_P*%
X323810000Y-55875000D03*
%TO.N,/Valves/Valve 6/12V_OUT-*%
X319610000Y-61375000D03*
D11*
%TO.N,/Valves/Valve 6/12V_OUT+*%
X323810000Y-61375000D03*
%TD*%
D12*
%TO.N,/Connectors/VBUS_CONN*%
%TO.C,J7*%
X291900000Y-201000000D03*
D13*
X286200000Y-201000000D03*
X280500000Y-201000000D03*
X274800000Y-201000000D03*
X269099999Y-201000000D03*
%TO.N,GND*%
X291900000Y-195300000D03*
X286200000Y-195300000D03*
X280500000Y-195300000D03*
X274800000Y-195300000D03*
X269100000Y-195300000D03*
%TD*%
D14*
%TO.N,unconnected-(J12-Pin_4-Pad4)*%
%TO.C,J12*%
X201600000Y-201250000D03*
%TO.N,ISOGND*%
X198600000Y-201250000D03*
%TO.N,/RS-485/RX_MAIN_N*%
X195600000Y-201250000D03*
D15*
%TO.N,/RS-485/RX_MAIN_P*%
X192600000Y-201250000D03*
%TD*%
D16*
%TO.N,+3V3*%
%TO.C,SW1*%
X101000000Y-143000000D03*
%TO.N,Net-(SW1-B)*%
X101000000Y-141000000D03*
D17*
%TO.N,GND*%
X101000000Y-139000000D03*
D18*
%TO.N,*%
X101000000Y-145100000D03*
X101000000Y-136900000D03*
%TD*%
D19*
%TO.N,GND*%
%TO.C,H3*%
X97000000Y-127000000D03*
%TD*%
%TO.N,GND*%
%TO.C,H4*%
X221000000Y-127000000D03*
%TD*%
%TO.N,GND*%
%TO.C,H7*%
X345000000Y-48000000D03*
%TD*%
D20*
%TO.N,Net-(J27-Pin_1)*%
%TO.C,J27*%
X320350000Y-202700000D03*
D21*
%TO.N,Net-(J27-Pin_2)*%
X322850000Y-202700000D03*
%TD*%
D22*
%TO.N,/Connectors/VBUS_CONN*%
%TO.C,F1*%
X324900000Y-188660001D03*
X328300000Y-188660001D03*
%TO.N,VBUS*%
X324900000Y-178740001D03*
X328300000Y-178740001D03*
%TD*%
D23*
%TO.N,+12V*%
%TO.C,U26*%
X264212500Y-139850000D03*
X265312500Y-139850000D03*
X266412500Y-139850000D03*
X264212500Y-140800000D03*
X265312500Y-140800000D03*
X266412500Y-140800000D03*
%TO.N,GND*%
X264212500Y-141875000D03*
X265312500Y-141875000D03*
X266412500Y-141875000D03*
%TD*%
D19*
%TO.N,GND*%
%TO.C,H6*%
X262333333Y-48000000D03*
%TD*%
%TO.N,GND*%
%TO.C,H5*%
X97000000Y-206200000D03*
%TD*%
%TO.N,GND*%
%TO.C,H8*%
X345000000Y-127000000D03*
%TD*%
%TO.N,GND*%
%TO.C,H2*%
X179666667Y-48000000D03*
%TD*%
%TO.N,GND*%
%TO.C,H1*%
X97000000Y-48000000D03*
%TD*%
%TO.N,GND*%
%TO.C,H9*%
X221000000Y-206200000D03*
%TD*%
D24*
%TO.N,+12V*%
%TO.C,J26*%
X338800000Y-162600000D03*
D25*
%TO.N,Net-(J26-Pin_2)*%
X338800000Y-160100000D03*
%TD*%
D19*
%TO.N,GND*%
%TO.C,H10*%
X345000000Y-206000000D03*
%TD*%
D26*
%TO.N,unconnected-(J9-NC-Pad1)*%
%TO.C,J9*%
X100730000Y-162530000D03*
D27*
%TO.N,unconnected-(J9-NC-Pad2)*%
X102000000Y-162530000D03*
%TO.N,+3V3*%
X100730000Y-163800000D03*
%TO.N,/STM32/SWDIO*%
X102000000Y-163800000D03*
%TO.N,GND*%
X100730000Y-165070000D03*
%TO.N,/STM32/SWCLK*%
X102000000Y-165070000D03*
%TO.N,GND*%
X100730000Y-166340000D03*
%TO.N,/STM32/JTDO*%
X102000000Y-166340000D03*
%TO.N,unconnected-(J9-JRCLK{slash}NC-Pad9)*%
X100730000Y-167610000D03*
%TO.N,/STM32/JTDI*%
X102000000Y-167610000D03*
%TO.N,GND*%
X100730000Y-168880000D03*
%TO.N,/STM32/NRST*%
X102000000Y-168880000D03*
%TO.N,Net-(J9-VCP_RX)*%
X100730000Y-170150000D03*
%TO.N,Net-(J9-VCP_TX)*%
X102000000Y-170150000D03*
%TD*%
D28*
%TO.N,/System Power/LSW 3V3/EN_UVLO*%
%TO.C,J11*%
X221860000Y-178770000D03*
D29*
%TO.N,GND*%
X221860000Y-181310000D03*
%TD*%
D28*
%TO.N,/System Power/LSW 5V/EN_UVLO*%
%TO.C,J17*%
X252400000Y-170625000D03*
D29*
%TO.N,GND*%
X252400000Y-173165000D03*
%TD*%
D30*
%TO.N,/Connectors/I2C_MASTER_SCL*%
%TO.C,J8*%
X174000000Y-196210000D03*
D29*
%TO.N,3V3_EXT*%
X174000000Y-198750000D03*
%TO.N,GND*%
X171460000Y-196210000D03*
%TO.N,/Connectors/I2C_MASTER_SDA*%
X171460000Y-198750000D03*
%TO.N,/Connectors/PIN5*%
X168920000Y-196210000D03*
%TO.N,GND*%
X168920000Y-198750000D03*
X166380000Y-196210000D03*
%TO.N,/Connectors/PIN8*%
X166380000Y-198750000D03*
%TO.N,/Connectors/PIN9*%
X163840000Y-196210000D03*
%TO.N,GND*%
X163840000Y-198750000D03*
X161300000Y-196210000D03*
%TO.N,/Connectors/PIN12*%
X161300000Y-198750000D03*
%TO.N,/Connectors/PIN13*%
X158760000Y-196210000D03*
%TO.N,GND*%
X158760000Y-198750000D03*
X156220000Y-196210000D03*
%TO.N,/Connectors/PIN16*%
X156220000Y-198750000D03*
%TO.N,/Connectors/PIN17*%
X153680000Y-196210000D03*
%TO.N,GND*%
X153680000Y-198750000D03*
X151140000Y-196210000D03*
%TO.N,/Connectors/PIN20*%
X151140000Y-198750000D03*
%TD*%
D24*
%TO.N,+12V*%
%TO.C,J25*%
X338800000Y-147300000D03*
D25*
%TO.N,Net-(J25-Pin_2)*%
X338800000Y-144800000D03*
%TD*%
D31*
%TO.N,+3V3*%
X154800000Y-167606300D03*
%TO.N,+5V*%
X297700000Y-101900000D03*
X132600000Y-104000000D03*
X216250000Y-104000000D03*
%TO.N,VALVE_GLOBAL_CTRL*%
X177100000Y-109450000D03*
X223250000Y-105550000D03*
X308100000Y-105550000D03*
X243300000Y-116650000D03*
%TO.N,/Valves/Gate Drivers/OUTB3*%
X274450000Y-89500000D03*
X298250000Y-90450000D03*
%TO.N,/Valves/Gate Drivers/OUTA3*%
X308850000Y-89050000D03*
X310000000Y-88050000D03*
%TO.N,VALVE6_LSS_EN*%
X303650000Y-109900000D03*
%TO.N,SD_DET*%
X166300000Y-152100000D03*
%TO.N,VALVE5_LSS_EN*%
X301100000Y-109800000D03*
X153400000Y-166156300D03*
%TO.N,+3V3*%
X160700000Y-167400000D03*
%TO.N,EFUSE_PG*%
X173300000Y-156000000D03*
%TO.N,/Valves/Gate Drivers/OUTB3*%
X275800000Y-88250000D03*
%TO.N,/Valves/Gate Drivers/OUTA2*%
X226100000Y-88250000D03*
%TO.N,/Valves/Gate Drivers/OUTB2*%
X192000000Y-88200000D03*
%TO.N,/Valves/Gate Drivers/OUTA2*%
X224850000Y-89700000D03*
%TO.N,/Valves/Gate Drivers/OUTB2*%
X190450000Y-89700000D03*
X214800000Y-95500000D03*
%TO.N,VALVE3_LSS_EN*%
X217800000Y-109750000D03*
%TO.N,VALVE4_LSS_EN*%
X220250000Y-109700000D03*
%TO.N,VALVE_GLOBAL_CTRL*%
X139000000Y-123300000D03*
%TO.N,/Valves/Gate Drivers/OUTA1*%
X142850000Y-88200000D03*
X141450000Y-89750000D03*
%TO.N,/Valves/Gate Drivers/OUTB1*%
X131250000Y-98150000D03*
X107000000Y-89800000D03*
%TO.N,VALVE1_LSS_EN*%
X131400000Y-114900000D03*
%TO.N,VALVE2_LSS_EN*%
X136735000Y-110265000D03*
%TO.N,ISOGND*%
X202300000Y-185300000D03*
X205000000Y-190600000D03*
X207700000Y-187300000D03*
X209700000Y-179100000D03*
X188300000Y-186500000D03*
X197300000Y-184700000D03*
X189600000Y-184600000D03*
X198500000Y-192900000D03*
X197400000Y-190600000D03*
X198500000Y-191900000D03*
X209700000Y-182100000D03*
X210600000Y-184700000D03*
X213400000Y-193500000D03*
X216700000Y-193500000D03*
X204700000Y-194100000D03*
X207500000Y-194100000D03*
X206100000Y-195200000D03*
%TO.N,VBUS*%
X309000000Y-159600000D03*
%TO.N,GND*%
X118700000Y-204600000D03*
X114400000Y-204600000D03*
X121000000Y-204500000D03*
%TO.N,/Valves/Valve 5/12V_OUT+*%
X290095000Y-77875000D03*
X288745000Y-76775000D03*
X288745000Y-75625000D03*
X291395000Y-79075000D03*
X288695000Y-79075000D03*
X290045000Y-79075000D03*
X292745000Y-79075000D03*
X291445000Y-77875000D03*
X292795000Y-77875000D03*
X290095000Y-76775000D03*
X288745000Y-77875000D03*
X290095000Y-75625000D03*
%TO.N,/Valves/Valve 5/12V_OUT-*%
X285745000Y-77875000D03*
X283195000Y-79125000D03*
X287045000Y-75625000D03*
X285745000Y-76775000D03*
X284495000Y-77875000D03*
X287045000Y-76775000D03*
X285745000Y-79125000D03*
X287045000Y-79125000D03*
X285745000Y-75625000D03*
X283195000Y-77875000D03*
X284495000Y-79125000D03*
X287045000Y-77875000D03*
%TO.N,GND*%
X271500000Y-71500000D03*
X118000000Y-46250000D03*
X130350000Y-194600000D03*
X343000000Y-71000000D03*
X134000000Y-72500000D03*
X347750000Y-103877017D03*
X235172500Y-94337232D03*
X343200000Y-130000000D03*
X139250000Y-160650000D03*
X288000000Y-45250000D03*
D32*
X122100000Y-112832232D03*
D31*
X213750000Y-147600000D03*
X182550000Y-171300000D03*
X234050000Y-140500000D03*
D32*
X205300000Y-109450000D03*
D31*
X212500000Y-142200000D03*
X94250000Y-59000000D03*
X296000000Y-45250000D03*
D32*
X139622500Y-84107232D03*
D31*
X160727500Y-98412232D03*
X114000000Y-71500000D03*
X151000000Y-186000000D03*
X197500000Y-171900000D03*
X260500000Y-70750000D03*
X119000000Y-186000000D03*
X181000000Y-190000000D03*
X265200000Y-49800000D03*
D32*
X122100000Y-109832232D03*
D31*
X284000000Y-46250000D03*
X195650000Y-137100000D03*
X240500000Y-72500000D03*
X140550000Y-194600000D03*
X124750000Y-155200000D03*
X265950000Y-149950000D03*
D32*
X117150000Y-199200000D03*
D31*
X95250000Y-63000000D03*
X125100000Y-98632232D03*
X334100000Y-167200000D03*
D32*
X153048056Y-111090699D03*
D31*
X143000000Y-186000000D03*
X309600000Y-162100000D03*
X264200000Y-149950000D03*
X99000000Y-70750000D03*
D32*
X142622500Y-79107232D03*
X117050000Y-200950000D03*
D31*
X242950000Y-172400000D03*
X147000000Y-185000000D03*
D32*
X262350000Y-141600000D03*
D31*
X295500000Y-71500000D03*
X257750000Y-167350000D03*
X226600000Y-171300000D03*
D32*
X236519989Y-113789544D03*
D31*
X272000000Y-45250000D03*
X309750000Y-150550000D03*
X328450000Y-162050000D03*
X121200000Y-147300000D03*
X95250000Y-112000000D03*
X210200000Y-135600000D03*
X109000000Y-192500000D03*
X324000000Y-46250000D03*
X166000000Y-72500000D03*
D32*
X272640000Y-80052232D03*
D31*
X292000000Y-46250000D03*
X241000000Y-46250000D03*
X291345000Y-98357232D03*
D32*
X118600000Y-109832232D03*
D31*
X321800000Y-207600000D03*
D32*
X105195000Y-82327232D03*
X275640000Y-79052232D03*
D31*
X271200000Y-162600000D03*
X346750000Y-115877017D03*
X346500000Y-71000000D03*
X158327500Y-98412232D03*
X127000000Y-186000000D03*
X335700000Y-150950000D03*
X166000000Y-46250000D03*
D32*
X118600000Y-111332232D03*
D31*
X94250000Y-51500000D03*
X134700000Y-161500000D03*
X122350000Y-158850000D03*
X126000000Y-46250000D03*
X105000000Y-208500000D03*
X170000000Y-71500000D03*
X342400000Y-203600000D03*
X204750000Y-135600000D03*
X141500000Y-192650000D03*
D32*
X287837153Y-114070495D03*
X223067500Y-83832232D03*
D31*
X177550000Y-154350000D03*
X181000000Y-171350000D03*
X320650000Y-159750000D03*
X274600000Y-165650000D03*
X235400000Y-161150000D03*
D32*
X106195000Y-79327232D03*
X320506769Y-114030421D03*
X188640000Y-82052232D03*
D31*
X122000000Y-45250000D03*
X289800000Y-207600000D03*
D32*
X191640000Y-79052232D03*
D31*
X95250000Y-190250000D03*
X336000000Y-45250000D03*
X257000000Y-46250000D03*
X258000000Y-207600000D03*
X272800000Y-167250000D03*
X221000000Y-202600000D03*
X188500000Y-71500000D03*
X94250000Y-92000000D03*
X262500000Y-149950000D03*
X237000000Y-45250000D03*
X301800000Y-208600000D03*
X115900000Y-96032232D03*
X347750000Y-111877017D03*
X133500000Y-194650000D03*
X182000000Y-186000000D03*
X346750000Y-146127017D03*
X196950000Y-148000000D03*
X138000000Y-71500000D03*
X244172500Y-98137232D03*
X215450000Y-142100000D03*
X182000000Y-202000000D03*
X99400000Y-203600000D03*
X95250000Y-166250000D03*
X124800000Y-165000000D03*
X204500000Y-71500000D03*
X123000000Y-185000000D03*
X184500000Y-72500000D03*
X242972500Y-98137232D03*
D32*
X190640000Y-79052232D03*
X272640000Y-82052232D03*
X139622500Y-81107232D03*
D31*
X236600000Y-168400000D03*
D32*
X223067500Y-81832232D03*
D31*
X245000000Y-45250000D03*
X287500000Y-71500000D03*
X94250000Y-100000000D03*
X94250000Y-154250000D03*
X182600000Y-49800000D03*
X170000000Y-45250000D03*
X131000000Y-185000000D03*
X94250000Y-178250000D03*
X181250000Y-70500000D03*
X132600000Y-196000000D03*
X235172500Y-96937232D03*
X208500000Y-72500000D03*
X333600000Y-208600000D03*
X180000000Y-54250000D03*
X346750000Y-107877017D03*
X262000000Y-208600000D03*
X200745000Y-94557232D03*
X178300000Y-153250000D03*
X220750000Y-175900000D03*
X224500000Y-72500000D03*
X130000000Y-45250000D03*
X106000000Y-45250000D03*
X146000000Y-45250000D03*
X332150000Y-146600000D03*
X181000000Y-198000000D03*
X99600000Y-50400000D03*
X134000000Y-46250000D03*
X192500000Y-72500000D03*
X189000000Y-45250000D03*
X347750000Y-150127017D03*
X123200000Y-147300000D03*
X346750000Y-194127017D03*
D32*
X274640000Y-79052232D03*
D31*
X132400000Y-164550000D03*
X341600000Y-208600000D03*
X209000000Y-46250000D03*
X313550000Y-159800000D03*
X274600000Y-168800000D03*
X253800000Y-208600000D03*
X94250000Y-186250000D03*
X236850000Y-162300000D03*
X342000000Y-49800000D03*
X159527500Y-98412232D03*
X212600000Y-163100000D03*
X328160000Y-98357232D03*
X122450000Y-155200000D03*
D32*
X156548056Y-109590699D03*
D31*
X256500000Y-72500000D03*
D32*
X289587153Y-112570495D03*
D31*
X171000000Y-185000000D03*
D32*
X225067500Y-78832232D03*
D31*
X290745000Y-97557232D03*
D32*
X105195000Y-83327232D03*
X320506769Y-112530421D03*
D31*
X95250000Y-80000000D03*
D32*
X118600000Y-112832232D03*
X272640000Y-84052232D03*
D31*
X94250000Y-162250000D03*
X94250000Y-194250000D03*
X126300000Y-98632232D03*
X241772500Y-98137232D03*
X341600000Y-127000000D03*
X346750000Y-154127017D03*
D32*
X307055000Y-82052232D03*
D31*
X273800000Y-207600000D03*
X346750000Y-75877017D03*
X293800000Y-208600000D03*
X347750000Y-55377017D03*
X108000000Y-204000000D03*
X323500000Y-72500000D03*
D32*
X324006769Y-109530421D03*
D31*
X181200000Y-154350000D03*
X235350000Y-167300000D03*
X319160000Y-97157232D03*
X141800000Y-166600000D03*
X346750000Y-66877017D03*
D32*
X286087153Y-109570495D03*
X309055000Y-79052232D03*
D31*
X230000000Y-208600000D03*
X124800000Y-161700000D03*
X319500000Y-71500000D03*
X195650000Y-148050000D03*
X109000000Y-200500000D03*
X170200000Y-154350000D03*
X154000000Y-45250000D03*
D32*
X139622500Y-80107232D03*
D31*
X95250000Y-174250000D03*
D32*
X122100000Y-114332232D03*
D31*
X309750000Y-148300000D03*
D32*
X240019989Y-112289544D03*
D31*
X305450000Y-147850000D03*
D32*
X238269989Y-113789544D03*
D31*
X232500000Y-72500000D03*
X197000000Y-45250000D03*
D32*
X236519989Y-109289544D03*
D31*
X346750000Y-162127017D03*
X308000000Y-46250000D03*
X187000000Y-208600000D03*
X138000000Y-45250000D03*
X151727500Y-94612232D03*
X291500000Y-72500000D03*
X239600000Y-135000000D03*
X325160000Y-97557232D03*
X268000000Y-46250000D03*
X121200000Y-148600000D03*
D32*
X240019989Y-109289544D03*
D31*
X204850000Y-134400000D03*
X106000000Y-71500000D03*
X114000000Y-45250000D03*
X300000000Y-46250000D03*
X182000000Y-194000000D03*
X191000000Y-207600000D03*
X332750000Y-150900000D03*
X313600000Y-207600000D03*
X142000000Y-72500000D03*
X148900000Y-158750000D03*
X210800000Y-208600000D03*
X243150000Y-131300000D03*
D32*
X289587153Y-111070495D03*
D31*
X238500000Y-181150000D03*
X196950000Y-142450000D03*
D32*
X259150000Y-142600000D03*
X156548056Y-112590699D03*
D31*
X124750000Y-157450000D03*
X346750000Y-138127017D03*
X208545000Y-98357232D03*
X203700000Y-136600000D03*
X346750000Y-83877017D03*
D32*
X320506769Y-109530421D03*
D31*
X244450000Y-180150000D03*
D32*
X289587153Y-114070495D03*
D31*
X179000000Y-58250000D03*
X267500000Y-72500000D03*
X208350000Y-162800000D03*
X276000000Y-46250000D03*
X150000000Y-72500000D03*
X154000000Y-71500000D03*
X310600000Y-162050000D03*
X344750000Y-74250000D03*
X305600000Y-207600000D03*
X346750000Y-99877017D03*
X311600000Y-162050000D03*
X126000000Y-72500000D03*
X279500000Y-71500000D03*
X142000000Y-46250000D03*
X316000000Y-46250000D03*
X346750000Y-51377017D03*
X164800000Y-152628500D03*
D32*
X154798056Y-114090699D03*
D31*
X264000000Y-70750000D03*
X244450000Y-181150000D03*
X122450000Y-165000000D03*
X332400000Y-162000000D03*
X309750000Y-149450000D03*
X196500000Y-71500000D03*
X281800000Y-207600000D03*
X122000000Y-71500000D03*
X216500000Y-72500000D03*
X347750000Y-62877017D03*
X256900000Y-141500000D03*
X122350000Y-168200000D03*
X198800000Y-207600000D03*
X101000000Y-207500000D03*
X314500000Y-159800000D03*
X269800000Y-157950000D03*
X276350000Y-167400000D03*
X109000000Y-207500000D03*
X114500000Y-201150000D03*
X167000000Y-186000000D03*
X346750000Y-58877017D03*
X266000000Y-207600000D03*
D32*
X153048056Y-109590699D03*
D31*
X121250000Y-146050000D03*
X303500000Y-71500000D03*
X123200000Y-146050000D03*
X97250000Y-74000000D03*
X232900000Y-161150000D03*
X231700000Y-168350000D03*
D32*
X273640000Y-79052232D03*
D31*
X247800000Y-181150000D03*
X319700000Y-159750000D03*
X325760000Y-98357232D03*
X150000000Y-46250000D03*
X309600000Y-208600000D03*
X262750000Y-61000000D03*
X200745000Y-97157232D03*
X150950000Y-139750000D03*
D32*
X307055000Y-83052232D03*
D31*
X117300000Y-97432232D03*
X332000000Y-46250000D03*
D32*
X160330000Y-135690000D03*
D31*
X176800000Y-49800000D03*
X179000000Y-66250000D03*
X146700000Y-160300000D03*
X206800000Y-207600000D03*
X280000000Y-45250000D03*
X109500000Y-185000000D03*
X124750000Y-168250000D03*
D32*
X272640000Y-81052232D03*
D31*
X94250000Y-84000000D03*
D32*
X107195000Y-79327232D03*
X139622500Y-83107232D03*
X308055000Y-79052232D03*
D31*
X315500000Y-72500000D03*
D32*
X156548056Y-111090699D03*
D31*
X135000000Y-186000000D03*
X217600000Y-205000000D03*
X284745000Y-97157232D03*
X95250000Y-88000000D03*
X199200000Y-134450000D03*
X278250000Y-167300000D03*
X195000000Y-208600000D03*
X159750000Y-152800000D03*
X207345000Y-98357232D03*
X95250000Y-198250000D03*
D32*
X153048056Y-114090699D03*
D31*
X124200000Y-194000000D03*
X112000000Y-186000000D03*
D32*
X122100000Y-111332232D03*
D31*
X328000000Y-45250000D03*
X213900000Y-164250000D03*
X317900000Y-148100000D03*
X123300000Y-97832232D03*
X347750000Y-119877017D03*
X247800000Y-180050000D03*
D32*
X307055000Y-81052232D03*
X286087153Y-114070495D03*
D31*
X197650000Y-167750000D03*
X95250000Y-55500000D03*
X347750000Y-142127017D03*
X94250000Y-124000000D03*
X311500000Y-71500000D03*
X122300000Y-161700000D03*
D32*
X118600000Y-114332232D03*
D31*
X181900000Y-153250000D03*
X335500000Y-71500000D03*
X253000000Y-45250000D03*
X347750000Y-158127017D03*
X270000000Y-208600000D03*
X304000000Y-45250000D03*
X319160000Y-94557232D03*
X346750000Y-178127017D03*
X217000000Y-46250000D03*
X233000000Y-46250000D03*
D32*
X153048056Y-112590699D03*
X156548056Y-114090699D03*
X202400000Y-110950000D03*
D31*
X173850000Y-154350000D03*
X299500000Y-72500000D03*
X269500000Y-149950000D03*
X251250000Y-164550000D03*
X315450000Y-159800000D03*
D32*
X240019989Y-113789544D03*
D31*
X133650000Y-156050000D03*
X280150000Y-165650000D03*
D32*
X223067500Y-80832232D03*
D31*
X117300000Y-100432232D03*
D32*
X189640000Y-79052232D03*
D31*
X340900000Y-140450000D03*
X228500000Y-71500000D03*
X151727500Y-97212232D03*
X241800000Y-207600000D03*
X212400000Y-136850000D03*
X95250000Y-158250000D03*
X201000000Y-46250000D03*
X180000000Y-62250000D03*
D32*
X236519989Y-112289544D03*
D31*
X181000000Y-206000000D03*
X226000000Y-207600000D03*
X95250000Y-104000000D03*
D32*
X236519989Y-110789544D03*
D31*
X262250000Y-74000000D03*
X94250000Y-170250000D03*
D32*
X188640000Y-81052232D03*
X205300000Y-110950000D03*
D31*
X225000000Y-46250000D03*
X267750000Y-149950000D03*
X270000000Y-161000000D03*
X108000000Y-188000000D03*
X185000000Y-46250000D03*
D32*
X105195000Y-79327232D03*
D31*
X95250000Y-182250000D03*
X177650000Y-171250000D03*
X317900000Y-150600000D03*
X347750000Y-134127017D03*
X241172500Y-97337232D03*
X195650000Y-142500000D03*
X261750000Y-57000000D03*
X205000000Y-45250000D03*
X113250000Y-201800000D03*
X95250000Y-134250000D03*
X347750000Y-79877017D03*
X231700000Y-162250000D03*
X343200000Y-124000000D03*
X174000000Y-46250000D03*
X115900000Y-97432232D03*
X102000000Y-72500000D03*
X292545000Y-98357232D03*
X135350000Y-168350000D03*
X218400000Y-208600000D03*
X174850000Y-153250000D03*
X95250000Y-142250000D03*
X256750000Y-166300000D03*
X202800000Y-208600000D03*
X150800000Y-156200000D03*
X347750000Y-182127017D03*
X149950000Y-167700000D03*
D32*
X202400000Y-112450000D03*
X223067500Y-79832232D03*
D31*
X175000000Y-186000000D03*
X115500000Y-185000000D03*
D32*
X286087153Y-111070495D03*
X105195000Y-84327232D03*
D31*
X163750000Y-158850000D03*
X123150000Y-148650000D03*
D32*
X324006769Y-114030421D03*
D31*
X236500000Y-71500000D03*
X115900000Y-94832232D03*
D32*
X310055000Y-79052232D03*
D31*
X94250000Y-116000000D03*
D32*
X202400000Y-109450000D03*
D31*
X317900000Y-149350000D03*
D32*
X120350000Y-114332232D03*
D31*
X214400000Y-207600000D03*
X326960000Y-98357232D03*
X346750000Y-186127017D03*
X325800000Y-208600000D03*
D32*
X324006769Y-111030421D03*
D31*
X146000000Y-71500000D03*
X297800000Y-207600000D03*
X281850000Y-167350000D03*
D32*
X105195000Y-80327232D03*
D31*
X142850000Y-140850000D03*
X94250000Y-202250000D03*
X285800000Y-208600000D03*
X347750000Y-87877017D03*
X252500000Y-71500000D03*
X233300000Y-182050000D03*
D32*
X141622500Y-79107232D03*
D31*
X209745000Y-98357232D03*
X238000000Y-208600000D03*
X249000000Y-46250000D03*
X329600000Y-207600000D03*
D32*
X289587153Y-109570495D03*
X322256769Y-114030421D03*
D31*
X268900000Y-165650000D03*
X346750000Y-123877017D03*
X210250000Y-134450000D03*
X95250000Y-150250000D03*
X102000000Y-46250000D03*
X340750000Y-155700000D03*
X331500000Y-72500000D03*
D32*
X105195000Y-81327232D03*
D31*
X94250000Y-146250000D03*
X131450000Y-155050000D03*
X259400000Y-49800000D03*
X98400000Y-123800000D03*
X229000000Y-45250000D03*
X340000000Y-46250000D03*
X262750000Y-53000000D03*
X162000000Y-45250000D03*
X100600000Y-127000000D03*
D32*
X155725214Y-140226257D03*
D31*
X347750000Y-174127017D03*
X165500000Y-193850000D03*
X334200000Y-152000000D03*
X177750000Y-70500000D03*
D32*
X223067500Y-82832232D03*
X188640000Y-80052232D03*
D31*
X177650000Y-169800000D03*
D32*
X307055000Y-84052232D03*
D31*
X108000000Y-196500000D03*
X162000000Y-71500000D03*
X154300000Y-147400000D03*
X130000000Y-71500000D03*
X307500000Y-72500000D03*
D32*
X205300000Y-112450000D03*
D31*
X210950000Y-162700000D03*
X234000000Y-207600000D03*
D32*
X188640000Y-84052232D03*
D31*
X94250000Y-67000000D03*
X245800000Y-208600000D03*
X110000000Y-72500000D03*
X346750000Y-170127017D03*
X196900000Y-137100000D03*
X280150000Y-168800000D03*
X163000000Y-185000000D03*
X179500000Y-73750000D03*
X284745000Y-94557232D03*
X95250000Y-96000000D03*
D32*
X240019989Y-110789544D03*
D31*
X179000000Y-185000000D03*
D32*
X260650000Y-142600000D03*
D31*
X347750000Y-95877017D03*
D32*
X140622500Y-79107232D03*
D31*
X157727500Y-97612232D03*
X155000000Y-185000000D03*
X328700000Y-146850000D03*
X335550000Y-166150000D03*
X120950000Y-201300000D03*
X224400000Y-205000000D03*
X327500000Y-71500000D03*
X277800000Y-208600000D03*
X139000000Y-185000000D03*
X347750000Y-166127017D03*
X219750000Y-168600000D03*
X171000000Y-153250000D03*
X332650000Y-166150000D03*
D32*
X139622500Y-82107232D03*
D31*
X270100000Y-164050000D03*
X234800000Y-180900000D03*
X220500000Y-71500000D03*
X271200000Y-159550000D03*
X347750000Y-190127017D03*
X244400000Y-164450000D03*
X283500000Y-72500000D03*
X159000000Y-186000000D03*
X98600000Y-130200000D03*
X123900000Y-98632232D03*
X95250000Y-120000000D03*
X346750000Y-130127017D03*
X261750000Y-65000000D03*
X347750000Y-198127017D03*
X249800000Y-207600000D03*
X317600000Y-208600000D03*
D32*
X307055000Y-80052232D03*
X108195000Y-79327232D03*
D31*
X158000000Y-46250000D03*
X95500000Y-70750000D03*
D32*
X224067500Y-78832232D03*
D31*
X275500000Y-72500000D03*
X320000000Y-45250000D03*
X206745000Y-97557232D03*
X200500000Y-72500000D03*
X337600000Y-207600000D03*
X318700000Y-159750000D03*
X248500000Y-72500000D03*
X115700000Y-100432232D03*
X158000000Y-72500000D03*
X94250000Y-76000000D03*
X212550000Y-147600000D03*
X221000000Y-45250000D03*
X346750000Y-202127017D03*
X115700000Y-99032232D03*
X244500000Y-71500000D03*
X110000000Y-46250000D03*
D32*
X286087153Y-112570495D03*
D31*
X182550000Y-169850000D03*
X237200000Y-182250000D03*
D32*
X272640000Y-83052232D03*
D31*
X94250000Y-138250000D03*
X193000000Y-46250000D03*
X339500000Y-72500000D03*
X213000000Y-45250000D03*
X94250000Y-108000000D03*
X213700000Y-136850000D03*
D32*
X320506769Y-111030421D03*
D31*
X183000000Y-207600000D03*
X174000000Y-72500000D03*
X242900000Y-173500000D03*
X346750000Y-91877017D03*
D32*
X226067500Y-78832232D03*
D31*
X118000000Y-72500000D03*
X232900000Y-167300000D03*
X94250000Y-130250000D03*
X242650000Y-162750000D03*
D32*
X188640000Y-83052232D03*
X324006769Y-112530421D03*
D31*
X117300000Y-94832232D03*
X199300000Y-135600000D03*
X212500000Y-71500000D03*
X293745000Y-98357232D03*
X312000000Y-45250000D03*
%TO.N,VALVE4.LSW_SEL1*%
X153699057Y-145894598D03*
X224350000Y-95800000D03*
%TO.N,/Valves/12V_VALVES*%
X204900000Y-88825000D03*
X288950000Y-90825000D03*
X321806769Y-107430421D03*
X155850000Y-90880000D03*
X156148056Y-107490699D03*
X269500000Y-131500000D03*
X202510012Y-107440123D03*
X120800000Y-106832232D03*
X121450000Y-89100000D03*
X286745000Y-90825000D03*
X239350000Y-89600000D03*
X289187153Y-107470495D03*
X238719989Y-107189544D03*
X238250000Y-90600000D03*
X238250000Y-88600000D03*
X238719989Y-106289544D03*
X120800000Y-107732232D03*
X286487153Y-106570495D03*
X322706769Y-107430421D03*
X286487153Y-107470495D03*
X153448056Y-107490699D03*
X120800000Y-105932232D03*
X323606769Y-105630421D03*
X121450000Y-90100000D03*
X153448056Y-106590699D03*
X204310012Y-107440123D03*
X286487153Y-108370495D03*
X287387153Y-107470495D03*
X203800000Y-90825000D03*
X119900000Y-106832232D03*
X268000000Y-133000000D03*
X204310012Y-106540123D03*
X202745000Y-88825000D03*
X154800000Y-89900000D03*
X269500000Y-136000000D03*
X203800000Y-89825000D03*
X119000000Y-106832232D03*
X323350000Y-89825000D03*
X238250000Y-89600000D03*
X237172500Y-89605000D03*
X239619989Y-106289544D03*
X204310012Y-105640123D03*
X289187153Y-105670495D03*
X155248056Y-105690699D03*
X119000000Y-105932232D03*
X153448056Y-108390699D03*
X268000000Y-131500000D03*
X202745000Y-90825000D03*
X320906769Y-106530421D03*
X239619989Y-105389544D03*
X289187153Y-108370495D03*
X323606769Y-108330421D03*
X287387153Y-106570495D03*
X205210012Y-106540123D03*
X323350000Y-90825000D03*
X239350000Y-90600000D03*
X154348056Y-108390699D03*
X288287153Y-106570495D03*
X119300000Y-90100000D03*
X322250000Y-89825000D03*
X155248056Y-108390699D03*
X321806769Y-105630421D03*
X322706769Y-105630421D03*
X239619989Y-108089544D03*
X320906769Y-107430421D03*
X320906769Y-108330421D03*
X155248056Y-107490699D03*
X323606769Y-107430421D03*
X268000000Y-134500000D03*
X322706769Y-108330421D03*
X266500000Y-136000000D03*
X322250000Y-88825000D03*
X238719989Y-105389544D03*
X203410012Y-108340123D03*
X203800000Y-88825000D03*
X205210012Y-107440123D03*
X288950000Y-89825000D03*
X237819989Y-105389544D03*
X120800000Y-108632232D03*
X286745000Y-88825000D03*
X156148056Y-105690699D03*
X239619989Y-107189544D03*
X286487153Y-105670495D03*
X265000000Y-136000000D03*
X119000000Y-108632232D03*
X121700000Y-105932232D03*
X156148056Y-108390699D03*
X321806769Y-108330421D03*
X203410012Y-106540123D03*
X320906769Y-105630421D03*
X121700000Y-108632232D03*
X287850000Y-90825000D03*
X156148056Y-106590699D03*
X322706769Y-106530421D03*
X202510012Y-106540123D03*
X237819989Y-108089544D03*
X154800000Y-90900000D03*
X121450000Y-91100000D03*
X155850000Y-88880000D03*
X205210012Y-108340123D03*
X154348056Y-107490699D03*
X236919989Y-105389544D03*
X153727500Y-90880000D03*
X155248056Y-106590699D03*
X121700000Y-107732232D03*
X236919989Y-108089544D03*
X236919989Y-107189544D03*
X154800000Y-88900000D03*
X204900000Y-90825000D03*
X237819989Y-106289544D03*
X239350000Y-88600000D03*
X204900000Y-89825000D03*
X203410012Y-107440123D03*
X268000000Y-137500000D03*
X153727500Y-88880000D03*
X205210012Y-105640123D03*
X119000000Y-107732232D03*
X155850000Y-89880000D03*
X120400000Y-89100000D03*
X288950000Y-88825000D03*
X321160000Y-89825000D03*
X119300000Y-91100000D03*
X265000000Y-137500000D03*
X119900000Y-108632232D03*
X153727500Y-89880000D03*
X237172500Y-90605000D03*
X266500000Y-137500000D03*
X323350000Y-88825000D03*
X287850000Y-88825000D03*
X119900000Y-107732232D03*
X323606769Y-106530421D03*
X265000000Y-134500000D03*
X321806769Y-106530421D03*
X238719989Y-108089544D03*
X289187153Y-106570495D03*
X269500000Y-134500000D03*
X204310012Y-108340123D03*
X120400000Y-90100000D03*
X265000000Y-131500000D03*
X269500000Y-133000000D03*
X268000000Y-136000000D03*
X154348056Y-106590699D03*
X202510012Y-105640123D03*
X265000000Y-133000000D03*
X203410012Y-105640123D03*
X121700000Y-106832232D03*
X237172500Y-88605000D03*
X236919989Y-106289544D03*
X266500000Y-131500000D03*
X153448056Y-105690699D03*
X266500000Y-133000000D03*
X286745000Y-89825000D03*
X322250000Y-90825000D03*
X202510012Y-108340123D03*
X119900000Y-105932232D03*
X287387153Y-108370495D03*
X321160000Y-90825000D03*
X288287153Y-105670495D03*
X321160000Y-88825000D03*
X154348056Y-105690699D03*
X119300000Y-89100000D03*
X269500000Y-137500000D03*
X288287153Y-107470495D03*
X287387153Y-105670495D03*
X266500000Y-134500000D03*
X288287153Y-108370495D03*
X120400000Y-91100000D03*
X287850000Y-89825000D03*
X237819989Y-107189544D03*
X202745000Y-89825000D03*
%TO.N,/Valves/Valve 4/12V_OUT-*%
X236172500Y-75405000D03*
X236172500Y-77655000D03*
X236172500Y-78905000D03*
X233622500Y-77655000D03*
X233622500Y-78905000D03*
X234922500Y-78905000D03*
X237472500Y-75405000D03*
X237472500Y-76555000D03*
X237472500Y-78905000D03*
X234922500Y-77655000D03*
X236172500Y-76555000D03*
X237472500Y-77655000D03*
%TO.N,I2C1_SDA*%
X150900000Y-152250000D03*
D32*
X135750000Y-88650000D03*
D31*
X152400000Y-131900000D03*
X103600000Y-180250000D03*
D32*
X137750000Y-78100000D03*
D31*
%TO.N,+3V3*%
X137900000Y-81500000D03*
X137200000Y-147900000D03*
X151550000Y-166700000D03*
D32*
X155750000Y-137800000D03*
D31*
X118400000Y-152300000D03*
X147004715Y-155254715D03*
X220300000Y-173600000D03*
X169575000Y-148400000D03*
X223200000Y-174600000D03*
X135700000Y-194600000D03*
X147800000Y-152400000D03*
X173750000Y-187550000D03*
X134300000Y-164500000D03*
X127200000Y-197700000D03*
X170600000Y-158900000D03*
X296000000Y-86800000D03*
D32*
X149700000Y-139650000D03*
D31*
X165593800Y-146800000D03*
X168300000Y-149950000D03*
X174550000Y-188100000D03*
X102600000Y-176950000D03*
X301425000Y-82975000D03*
X105700000Y-183300000D03*
X220300000Y-174600000D03*
X178000000Y-189300000D03*
X195044810Y-163544810D03*
X247950000Y-87700000D03*
X155027659Y-140627659D03*
X127850000Y-84054800D03*
X216200000Y-85800000D03*
X211350000Y-84200000D03*
X303475000Y-82825000D03*
X164300000Y-156300000D03*
X169400000Y-158900000D03*
X221700000Y-173600000D03*
X141580000Y-141850000D03*
X168550000Y-188600000D03*
X302804800Y-86050000D03*
X295250000Y-84300000D03*
D32*
X223500000Y-155500000D03*
X149900000Y-135400000D03*
X133200000Y-85150000D03*
D31*
X128950000Y-87000000D03*
X223200000Y-173600000D03*
X138500000Y-153262384D03*
D32*
X152250000Y-150400000D03*
D31*
X164843820Y-151500000D03*
X217750000Y-82300000D03*
X150200000Y-158600000D03*
X143778500Y-168561104D03*
X207400000Y-148600000D03*
X330800000Y-86550000D03*
D32*
X285750000Y-141650000D03*
D31*
X221700000Y-174600000D03*
X212350000Y-86750000D03*
D32*
X279450000Y-145900000D03*
D31*
X164550000Y-87950000D03*
%TO.N,VALVE1_HSS_EN*%
X141000000Y-143950000D03*
X134300000Y-91350000D03*
X134547500Y-60347499D03*
%TO.N,VALVE1.LSW_LATCH*%
X132900000Y-95550000D03*
X138550000Y-142500000D03*
%TO.N,VALVE1.~{LSW_ST}*%
X138316838Y-143583162D03*
X131300000Y-90450000D03*
%TO.N,VALVE1_LSS_EN*%
X138250000Y-144650000D03*
%TO.N,/Valves/Gate Drivers/OUTB1*%
X133022500Y-60297499D03*
%TO.N,VALVE1.LSW_SEL1*%
X138200000Y-145750000D03*
X110070000Y-90720000D03*
%TO.N,VALVE_GLOBAL_CTRL*%
X142280000Y-148450000D03*
%TO.N,VALVE1.LSW_SEL2*%
X109810000Y-92940000D03*
X139400000Y-150450000D03*
%TO.N,VALVE1.LSW_DIA_EN*%
X109110000Y-95610000D03*
X139500000Y-151550000D03*
%TO.N,FAN2_TOGGLE*%
X98600000Y-152300000D03*
X327400000Y-159100000D03*
X142850000Y-150350000D03*
%TO.N,FAN1_TOGGLE*%
X327800000Y-143900000D03*
X101000000Y-150106300D03*
X144850000Y-150750000D03*
%TO.N,V-12P0_MAIN_PG*%
X170020000Y-145100000D03*
X144900000Y-151900000D03*
X302700000Y-150856300D03*
%TO.N,3V3_STATUS*%
X227450000Y-174250000D03*
X110600000Y-182900000D03*
X142737388Y-152836522D03*
%TO.N,/STM32/QUADSPI_BK1_IO3*%
X142599800Y-153856084D03*
X115800000Y-149400000D03*
%TO.N,/STM32/QUADSPI_BK1_IO2*%
X129100000Y-146700000D03*
X143150000Y-154450000D03*
%TO.N,/STM32/QUADSPI_BK1_IO0*%
X143700000Y-155100000D03*
X115700000Y-143500000D03*
%TO.N,/STM32/QUADSPI_BK1_IO1*%
X129800000Y-149612600D03*
X143150000Y-155700000D03*
%TO.N,/STM32/QUADSPI_CLK*%
X115400000Y-146600000D03*
X142664238Y-156347682D03*
%TO.N,/STM32/NRST*%
X103200000Y-155500000D03*
X142400000Y-157400000D03*
%TO.N,Net-(U12-VREF+)*%
X142343475Y-160943475D03*
%TO.N,/STM32/~{QUADSPI_BK1_NCS}*%
X140350000Y-163950000D03*
X129800000Y-153200000D03*
%TO.N,TEMP_ALERT1*%
X104700000Y-178500000D03*
X140500000Y-164900000D03*
%TO.N,~{ADC_CS}*%
X199750000Y-154000000D03*
X143950000Y-163600000D03*
%TO.N,ADC_SCLK*%
X144762600Y-166450000D03*
X203750000Y-154000000D03*
%TO.N,ADC_MISO*%
X205650000Y-154000000D03*
X145356300Y-167150000D03*
%TO.N,ADC_MOSI*%
X145950000Y-166400000D03*
X201750000Y-153950000D03*
%TO.N,MAIN_TX*%
X193500000Y-179600000D03*
X144100000Y-172800000D03*
%TO.N,MAIN_RX*%
X196900000Y-163300000D03*
X162450000Y-166100000D03*
X146950000Y-162900000D03*
%TO.N,~{ADC_RESET}*%
X148093700Y-168539480D03*
X211350000Y-153950000D03*
%TO.N,MAIN_DE*%
X145500000Y-172900000D03*
X192200000Y-178900000D03*
%TO.N,~{MAIN_RE}*%
X145000000Y-174900000D03*
X194700000Y-180500000D03*
%TO.N,ADC_START*%
X197850000Y-154000000D03*
X149138872Y-166056116D03*
%TO.N,~{ADC_DRDY}*%
X149450000Y-163500000D03*
X207550000Y-154050000D03*
%TO.N,/Valves/Gate Drivers/OUTB3*%
X300222500Y-60122500D03*
%TO.N,VALVE5.LSW_SEL1*%
X151554800Y-162450000D03*
X273850000Y-95950000D03*
%TO.N,VALVE5.LSW_SEL2*%
X152159600Y-161550000D03*
X275000000Y-95900000D03*
%TO.N,VALVE5.LSW_DIA_EN*%
X276400000Y-95850000D03*
X152850000Y-162400000D03*
%TO.N,VALVE5.~{LSW_ST}*%
X153550000Y-161550000D03*
X299800000Y-90050000D03*
%TO.N,VALVE5_HSS_EN*%
X301747500Y-60172500D03*
X154200000Y-162400000D03*
X302200000Y-91050000D03*
%TO.N,VALVE5.LSW_LATCH*%
X299850000Y-94350000D03*
X154950000Y-161650000D03*
%TO.N,VALVE6_LSS_EN*%
X154681948Y-163581948D03*
%TO.N,/Valves/Gate Drivers/OUTA3*%
X334222500Y-60085000D03*
%TO.N,VALVE6.LSW_SEL1*%
X156350000Y-161650000D03*
X308350000Y-95450000D03*
%TO.N,VALVE6.LSW_SEL2*%
X309500000Y-95400000D03*
X156950000Y-162300000D03*
%TO.N,VALVE6.LSW_DIA_EN*%
X310750000Y-95400000D03*
X157550000Y-161700000D03*
%TO.N,VALVE6.~{LSW_ST}*%
X333950000Y-90050000D03*
X158171954Y-162218295D03*
%TO.N,VALVE6_HSS_EN*%
X158850000Y-161700000D03*
X335747500Y-60135000D03*
X336160000Y-91075000D03*
%TO.N,VALVE6.LSW_LATCH*%
X334100000Y-94350000D03*
X159500000Y-162250000D03*
%TO.N,Net-(U12-PB10)*%
X162350000Y-168800000D03*
X174700000Y-164000000D03*
X173400000Y-161300000D03*
%TO.N,TEMP_ALERT6*%
X153730002Y-153159617D03*
%TO.N,PIN20_STM32*%
X161700000Y-170200000D03*
%TO.N,PIN17_STM32*%
X164350000Y-171600000D03*
%TO.N,PIN16_STM32*%
X165400000Y-172700000D03*
%TO.N,PIN13_STM32*%
X169450000Y-170400000D03*
%TO.N,PIN12_STM32*%
X170900000Y-167500000D03*
%TO.N,PIN9_STM32*%
X170750000Y-165000000D03*
%TO.N,PIN8_STM32*%
X170800000Y-162950000D03*
%TO.N,PIN5_STM32*%
X169850000Y-160200000D03*
%TO.N,/STM32/D4*%
X160250000Y-158400000D03*
%TO.N,/STM32/D3*%
X160600000Y-157659600D03*
%TO.N,/STM32/D2*%
X160176370Y-156899087D03*
%TO.N,/STM32/D1*%
X160850000Y-156450000D03*
D32*
%TO.N,TEMP_ALERT3*%
X169537500Y-150631040D03*
X206700000Y-125000000D03*
X163591564Y-155884661D03*
D31*
%TO.N,TEMP_ALERT2*%
X157150000Y-135350000D03*
X175550000Y-108100000D03*
X159093700Y-153150000D03*
%TO.N,5V_MAIN_PG*%
X258800000Y-176100000D03*
X180100000Y-163100000D03*
%TO.N,EFUSE_PG*%
X270000000Y-143900000D03*
%TO.N,EFUSE_IMON*%
X164175000Y-154275000D03*
%TO.N,I2C3_SCL*%
X174000000Y-183550000D03*
X178400000Y-164000000D03*
X167150000Y-152700000D03*
X171175000Y-188200000D03*
%TO.N,I2C3_SDA*%
X169600000Y-189725000D03*
X168250000Y-152550000D03*
X171350000Y-183500000D03*
X179300000Y-165300000D03*
D32*
%TO.N,Net-(U12-PC6)*%
X160321323Y-151821323D03*
D31*
%TO.N,SD_DET*%
X151200000Y-170600000D03*
%TO.N,SDMMC1_D0*%
X160873435Y-162786945D03*
%TO.N,SDMMC1_D1*%
X157585280Y-154749031D03*
%TO.N,TEMP_ALERT4*%
X295950000Y-111300000D03*
X167500000Y-149700000D03*
%TO.N,USB_VBUS_DET*%
X126000000Y-194000000D03*
X155280191Y-151430191D03*
%TO.N,TEMP_ALERT5*%
X165800000Y-148400000D03*
%TO.N,D_N*%
X154400000Y-151000000D03*
X116780900Y-196400000D03*
%TO.N,D_P*%
X153464786Y-149964786D03*
X117619100Y-196400000D03*
%TO.N,/STM32/SWDIO*%
X152800000Y-149300000D03*
%TO.N,/STM32/SWCLK*%
X160043700Y-141200000D03*
%TO.N,/STM32/JTDI_STM32*%
X108000000Y-165400000D03*
X155700000Y-148600000D03*
%TO.N,SDMMC1_D2*%
X159670000Y-135120000D03*
%TO.N,SDMMC1_D3*%
X158950000Y-136100000D03*
%TO.N,SDMMC1_CK*%
X158604800Y-146400000D03*
%TO.N,VALVE4.LSW_LATCH*%
X250700000Y-94750000D03*
X158004800Y-147200000D03*
%TO.N,VALVE4_HSS_EN*%
X252100000Y-90850000D03*
X252247500Y-59922500D03*
X157150000Y-148100000D03*
%TO.N,SDMMC1_CMD*%
X157000000Y-136800000D03*
%TO.N,VALVE4.~{LSW_ST}*%
X156300000Y-147450000D03*
X249550000Y-89900000D03*
%TO.N,VALVE4.LSW_DIA_EN*%
X226950000Y-95700000D03*
X155500000Y-146900000D03*
%TO.N,VALVE4.LSW_SEL2*%
X154600000Y-146300000D03*
X225650000Y-95750000D03*
%TO.N,VALVE4_LSS_EN*%
X152750000Y-145350000D03*
%TO.N,/Valves/Gate Drivers/OUTA2*%
X250722500Y-59872500D03*
%TO.N,VALVE3.LSW_LATCH*%
X218350000Y-93350000D03*
X153835824Y-141400000D03*
%TO.N,VALVE3_HSS_EN*%
X217750000Y-91100000D03*
X154000000Y-139300000D03*
X217747500Y-60340133D03*
%TO.N,VALVE3.~{LSW_ST}*%
X216700000Y-90000000D03*
X153100000Y-139800000D03*
%TO.N,VALVE3.LSW_DIA_EN*%
X152554800Y-140400000D03*
X192500000Y-96050000D03*
D32*
%TO.N,I2C1_SCL*%
X216700000Y-74250000D03*
X213881805Y-85100000D03*
D31*
X298500000Y-86650000D03*
X150250000Y-151050000D03*
X104250000Y-179650000D03*
D32*
X301150000Y-74150000D03*
D31*
X150902401Y-132502401D03*
%TO.N,VALVE3.LSW_SEL2*%
X149125386Y-141819297D03*
X191150000Y-96000000D03*
%TO.N,VALVE3.LSW_SEL1*%
X189950000Y-96050000D03*
X149212341Y-140400000D03*
%TO.N,/Valves/Gate Drivers/OUTB2*%
X216045000Y-60467633D03*
%TO.N,VALVE3_LSS_EN*%
X148150000Y-140900000D03*
%TO.N,VALVE2.LSW_LATCH*%
X167000000Y-94400000D03*
X108100000Y-163700000D03*
X147500000Y-145200000D03*
X148002741Y-139970620D03*
%TO.N,VALVE2_HSS_EN*%
X147518295Y-139321954D03*
X169247500Y-60135000D03*
X168750000Y-90050000D03*
%TO.N,VALVE2.~{LSW_ST}*%
X147000000Y-138700000D03*
X166400000Y-90200000D03*
%TO.N,VALVE2.LSW_DIA_EN*%
X142700000Y-95450000D03*
X144978165Y-138589358D03*
%TO.N,VALVE2.LSW_SEL2*%
X144700118Y-139349714D03*
X141800000Y-95450000D03*
%TO.N,VALVE2.LSW_SEL1*%
X144391596Y-140098227D03*
X140750000Y-95500000D03*
%TO.N,/Valves/Gate Drivers/OUTA1*%
X167722500Y-60085000D03*
%TO.N,VALVE2_LSS_EN*%
X143850000Y-140700000D03*
%TO.N,Net-(D28-K)*%
X181000000Y-146200000D03*
%TO.N,Net-(D28-A)*%
X179600000Y-143450000D03*
%TO.N,Net-(D34-K)*%
X113800000Y-196500000D03*
%TO.N,/USB-C/V5P0_USB*%
X123800000Y-199500000D03*
X123800000Y-200400000D03*
X230100000Y-164000000D03*
X126500000Y-200000000D03*
X231600000Y-164000000D03*
X231600000Y-165000000D03*
X120600000Y-200100000D03*
X230100000Y-165000000D03*
X122800000Y-199300000D03*
%TO.N,Net-(D13-A)*%
X252200000Y-55069732D03*
%TO.N,Net-(J16-DAT2)*%
X138700000Y-191850000D03*
X140500000Y-182650000D03*
X138100000Y-187750000D03*
%TO.N,Net-(J16-DAT3{slash}CD)*%
X137600000Y-191950000D03*
X139250000Y-182650000D03*
X137150000Y-187750000D03*
%TO.N,Net-(J16-CMD)*%
X138000000Y-182600000D03*
X136300000Y-187750000D03*
X136600000Y-191950000D03*
%TO.N,Net-(J16-CLK)*%
X135800000Y-182600000D03*
X134800000Y-191950000D03*
X135615402Y-187563292D03*
%TO.N,Net-(J16-DAT0)*%
X134400000Y-182550000D03*
X134056948Y-187643052D03*
X132550000Y-192150000D03*
%TO.N,Net-(J16-DAT1)*%
X132950000Y-187800000D03*
X131300000Y-192050000D03*
X132950000Y-182500000D03*
%TO.N,Net-(J16-DET_A)*%
X128300000Y-203800000D03*
X131200000Y-182450000D03*
%TO.N,/Valves/Valve 6/12V_OUT+*%
X325810000Y-79075000D03*
X323160000Y-76775000D03*
X323160000Y-75625000D03*
X327210000Y-77875000D03*
X323110000Y-79075000D03*
X324510000Y-77875000D03*
X324510000Y-76775000D03*
X323160000Y-77875000D03*
X325860000Y-77875000D03*
X327160000Y-79075000D03*
X324460000Y-79075000D03*
X324510000Y-75625000D03*
%TO.N,Net-(U26-OVLO)*%
X268000000Y-143600000D03*
X258350000Y-143350000D03*
%TO.N,VALVE5_VSENSE_P*%
X217050000Y-139070200D03*
X297845000Y-75700000D03*
%TO.N,/Valves/12V_main/RT*%
X299075000Y-164275001D03*
%TO.N,Net-(D36-K)*%
X120750000Y-196600000D03*
%TO.N,Net-(D1-A)*%
X134500000Y-55494731D03*
%TO.N,/System Power/LDO 3V3/VOUT*%
X232700000Y-179250000D03*
%TO.N,Net-(D6-A)*%
X166500000Y-55302232D03*
%TO.N,Net-(J27-Pin_2)*%
X260050000Y-145000000D03*
%TO.N,Net-(D22-A)*%
X333000000Y-55302232D03*
%TO.N,VALVE3_VSENSE_P*%
X201670200Y-130950000D03*
X213845000Y-75800000D03*
%TO.N,ISOGND*%
X194200000Y-192800000D03*
%TO.N,/System Power/LSW 5V/EN_UVLO*%
X254625000Y-160200000D03*
X251000000Y-165500000D03*
%TO.N,Net-(D5-A)*%
X169200000Y-55282232D03*
%TO.N,/Valves/Valve 6/12V_OUT-*%
X321460000Y-76775000D03*
X320160000Y-77875000D03*
X320160000Y-76775000D03*
X321460000Y-79125000D03*
X321460000Y-75625000D03*
X320160000Y-79125000D03*
X320160000Y-75625000D03*
X318910000Y-79125000D03*
X317610000Y-79125000D03*
X317610000Y-77875000D03*
X318910000Y-77875000D03*
X321460000Y-77875000D03*
%TO.N,/System Power/LDO 3V3/VIN*%
X265600000Y-161075000D03*
D32*
X251600000Y-159750000D03*
D31*
X263100000Y-161075000D03*
X267100000Y-161075000D03*
X247010000Y-170810000D03*
X245760000Y-170810000D03*
X239500000Y-145750000D03*
X247010000Y-171810000D03*
X264350000Y-159075000D03*
X265600000Y-159075000D03*
X264200000Y-179675000D03*
X245760000Y-171810000D03*
X263100000Y-159075000D03*
X264350000Y-163075000D03*
%TO.N,/Valves/Valve 4/12V_OUT+*%
X239122500Y-78855000D03*
X243222500Y-77655000D03*
X241822500Y-78855000D03*
X239172500Y-75405000D03*
X239172500Y-77655000D03*
X239172500Y-76555000D03*
X240522500Y-76555000D03*
X241872500Y-77655000D03*
X240522500Y-75405000D03*
X243172500Y-78855000D03*
X240522500Y-77655000D03*
X240472500Y-78855000D03*
%TO.N,VALVE2_VSENSE_N*%
X164802500Y-78480000D03*
X191700000Y-139370200D03*
%TO.N,/Valves/Valve 3/12V_OUT+*%
X204745000Y-77875000D03*
X207395000Y-79075000D03*
X207445000Y-77875000D03*
X206045000Y-79075000D03*
X204745000Y-76775000D03*
X206095000Y-76775000D03*
X208795000Y-77875000D03*
X206095000Y-77875000D03*
X208745000Y-79075000D03*
X204695000Y-79075000D03*
X204745000Y-75625000D03*
X206095000Y-75625000D03*
%TO.N,/Valves/Valve 3/12V_OUT-*%
X201745000Y-75625000D03*
X203045000Y-76775000D03*
X199195000Y-79125000D03*
X203045000Y-77875000D03*
X203045000Y-75625000D03*
X201745000Y-79125000D03*
X200495000Y-79125000D03*
X201745000Y-76775000D03*
X203045000Y-79125000D03*
X199195000Y-77875000D03*
X201745000Y-77875000D03*
X200495000Y-77875000D03*
%TO.N,VALVE3_VSENSE_N*%
X213820000Y-78425000D03*
X202529800Y-130950000D03*
%TO.N,/Valves/12V_main/LO*%
X305200000Y-152050000D03*
D32*
%TO.N,/RS-485/B2*%
X214450000Y-182800000D03*
D31*
%TO.N,/RS-485/RX_MAIN_N*%
X196000000Y-192400000D03*
%TO.N,/Valves/12V_main/COMP*%
X295750000Y-161750000D03*
X298094001Y-152620395D03*
%TO.N,/Valves/master_efuse/IMON_IC*%
X187000000Y-152700000D03*
X168750000Y-155200000D03*
X265000000Y-146300000D03*
%TO.N,Net-(D9-A)*%
X217700000Y-55487365D03*
%TO.N,/Valves/12V_main/FB*%
X297750000Y-151250000D03*
X300179637Y-152919255D03*
X289450000Y-161700000D03*
%TO.N,Net-(D17-A)*%
X301700000Y-55319732D03*
%TO.N,Net-(D14-A)*%
X249500000Y-55089732D03*
%TO.N,Net-(J27-Pin_1)*%
X253175000Y-139800000D03*
%TO.N,+5V*%
X256600000Y-162800000D03*
X199500000Y-171700000D03*
X206000000Y-141850000D03*
X200900000Y-173300000D03*
X209700000Y-167600000D03*
X257800000Y-163800000D03*
X259200000Y-162800000D03*
X212700000Y-167500000D03*
X209800000Y-162600000D03*
X260400000Y-163800000D03*
X199000000Y-169800000D03*
X261600000Y-162800000D03*
X256000000Y-163600000D03*
D32*
X205050000Y-145100000D03*
D31*
%TO.N,VALVE1_VSENSE_P*%
X191760001Y-145604800D03*
X130400000Y-74775000D03*
%TO.N,VBUS*%
X326750000Y-166750000D03*
X323750000Y-168250000D03*
X328250000Y-169750000D03*
X277500000Y-175500000D03*
X280500000Y-176500000D03*
X329750000Y-165250000D03*
X307750000Y-167600000D03*
X282500000Y-174500000D03*
X281500000Y-175500000D03*
X329750000Y-168250000D03*
X282500000Y-172500000D03*
X323750000Y-166750000D03*
X325250000Y-168250000D03*
X329750000Y-169750000D03*
X328250000Y-168250000D03*
X279500000Y-175500000D03*
X282500000Y-176500000D03*
X326750000Y-165250000D03*
X326750000Y-168250000D03*
X325250000Y-169750000D03*
X328250000Y-165250000D03*
X278500000Y-174500000D03*
X325250000Y-166750000D03*
X278500000Y-176500000D03*
X323750000Y-165250000D03*
X328250000Y-166750000D03*
X325250000Y-165250000D03*
X326750000Y-169750000D03*
X329750000Y-166750000D03*
X323750000Y-169750000D03*
X277500000Y-173500000D03*
%TO.N,Net-(SW1-B)*%
X144700000Y-136500000D03*
%TO.N,/Connectors/VBUS_CONN*%
X298350000Y-192350000D03*
%TO.N,VALVE6_VSENSE_N*%
X217150000Y-145229800D03*
X332235000Y-78425000D03*
%TO.N,Net-(D41-A)*%
X239480000Y-138600000D03*
%TO.N,/ADC/REFOUT*%
X209450000Y-142395200D03*
%TO.N,+12V*%
X261100000Y-141350000D03*
X259600000Y-141300000D03*
X310500000Y-136500000D03*
X313850000Y-143650000D03*
X262300000Y-140400000D03*
X314500000Y-136500000D03*
X318000000Y-136500000D03*
X315500000Y-144000000D03*
X258150000Y-140150000D03*
X310500000Y-139500000D03*
X258150000Y-141300000D03*
X321500000Y-139500000D03*
X329050000Y-132500000D03*
X316500000Y-138000000D03*
X320000000Y-144000000D03*
X314500000Y-142500000D03*
X320000000Y-138000000D03*
X317000000Y-146000000D03*
D32*
X255950000Y-137950000D03*
D31*
X316500000Y-141000000D03*
X321500000Y-136500000D03*
X302050000Y-145100000D03*
X320000000Y-141000000D03*
X312500000Y-138000000D03*
X318000000Y-139500000D03*
X321500000Y-142500000D03*
X321500000Y-145000000D03*
X261050000Y-140100000D03*
X314000000Y-146000000D03*
X312500000Y-141000000D03*
X314500000Y-139500000D03*
X320000000Y-146000000D03*
X259600000Y-140100000D03*
%TO.N,VALVE6_VSENSE_P*%
X217150000Y-144370200D03*
X332260000Y-75500000D03*
%TO.N,Net-(D21-A)*%
X335700000Y-55282232D03*
%TO.N,Net-(BZ1-+)*%
X177500000Y-161300000D03*
%TO.N,VALVE5_VSENSE_N*%
X297820000Y-78425000D03*
X217050000Y-139929800D03*
%TO.N,/RS-485/RX_MAIN_P*%
X192300000Y-193100000D03*
%TO.N,/Valves/12V_main/SW*%
X304450000Y-157850000D03*
X304400000Y-150800000D03*
%TO.N,/Valves/12V_main/HO*%
X302425000Y-159725000D03*
%TO.N,VALVE2_VSENSE_P*%
X164827500Y-75750000D03*
X191700000Y-140229800D03*
%TO.N,Net-(D18-A)*%
X299000000Y-55339732D03*
%TO.N,/Valves/Valve 2/12V_OUT+*%
X155727500Y-75680000D03*
X159777500Y-77930000D03*
X155677500Y-79130000D03*
X157077500Y-76830000D03*
X159727500Y-79130000D03*
X158377500Y-79130000D03*
X158427500Y-77930000D03*
X157077500Y-77930000D03*
X155727500Y-76830000D03*
X157077500Y-75680000D03*
X157027500Y-79130000D03*
X155727500Y-77930000D03*
%TO.N,/Valves/Valve 1/12V_OUT-*%
X117050000Y-79400000D03*
X118300000Y-78150000D03*
X117050000Y-78150000D03*
X119600000Y-77050000D03*
X119600000Y-75900000D03*
X118300000Y-77050000D03*
X115750000Y-78150000D03*
X119600000Y-79400000D03*
X118300000Y-75900000D03*
X115750000Y-79400000D03*
X118300000Y-79400000D03*
X119600000Y-78150000D03*
%TO.N,/Valves/Valve 1/12V_OUT+*%
X125350000Y-78150000D03*
X121300000Y-78150000D03*
X122650000Y-78150000D03*
X125300000Y-79350000D03*
X122650000Y-75900000D03*
X121300000Y-75900000D03*
X124000000Y-78150000D03*
X122650000Y-77050000D03*
X123950000Y-79350000D03*
X121250000Y-79350000D03*
X122600000Y-79350000D03*
X121300000Y-77050000D03*
%TO.N,Net-(D44-A)*%
X126200000Y-202250000D03*
%TO.N,/Valves/12V_main/EN_UVLO*%
X301175000Y-164275001D03*
%TO.N,/Valves/12V_main/SYNCIN*%
X298322475Y-151843700D03*
X291550000Y-161700000D03*
%TO.N,/Valves/12V_main/SENSE_OUT*%
X330475000Y-122524999D03*
%TO.N,VALVE1_VSENSE_N*%
X130375000Y-78700000D03*
X191760001Y-144745200D03*
%TO.N,Net-(D27-K)*%
X178100000Y-146300000D03*
%TO.N,Net-(D27-A)*%
X176750000Y-143400000D03*
%TO.N,/System Power/LSW 3V3/EN_UVLO*%
X226650000Y-170350000D03*
X226650000Y-175900000D03*
%TO.N,VALVE4_VSENSE_N*%
X248247500Y-78205000D03*
X207879800Y-130900000D03*
%TO.N,Net-(D2-A)*%
X131800000Y-55514731D03*
%TO.N,/Valves/Valve 2/12V_OUT-*%
X152727500Y-79180000D03*
X151477500Y-79180000D03*
X150177500Y-79180000D03*
X152727500Y-75680000D03*
X154027500Y-79180000D03*
X150177500Y-77930000D03*
X154027500Y-77930000D03*
X151477500Y-77930000D03*
X152727500Y-77930000D03*
X154027500Y-76830000D03*
X154027500Y-75680000D03*
X152727500Y-76830000D03*
D32*
%TO.N,/RS-485/B1*%
X205000000Y-182800000D03*
D31*
%TO.N,VALVE4_VSENSE_P*%
X207020200Y-130900000D03*
X248272500Y-75400000D03*
%TO.N,/RS-485/A1*%
X205450000Y-169300000D03*
%TO.N,/RS-485/A2*%
X213750000Y-169300000D03*
%TO.N,Net-(C95-Pad2)*%
X293650000Y-161700000D03*
%TO.N,Net-(J15-SHIELD)*%
X116150000Y-206930000D03*
X118550000Y-206930000D03*
%TO.N,Net-(D43-A)*%
X244200000Y-134050000D03*
%TO.N,/Connectors/PIN5*%
X168900000Y-182350000D03*
X167700000Y-188050000D03*
%TO.N,/Connectors/PIN8*%
X167200000Y-182350000D03*
X166550000Y-188100000D03*
%TO.N,/Connectors/PIN9*%
X165000000Y-187650000D03*
X165500000Y-182350000D03*
%TO.N,/Connectors/PIN12*%
X164200000Y-188100000D03*
X163800000Y-182300000D03*
%TO.N,/Connectors/PIN13*%
X157400000Y-182300000D03*
X157000000Y-187900000D03*
%TO.N,/Connectors/PIN16*%
X155500000Y-182300000D03*
X155500000Y-187900000D03*
%TO.N,/Connectors/PIN17*%
X153600000Y-182300000D03*
X154100000Y-187950000D03*
%TO.N,/Connectors/PIN20*%
X151700000Y-182300000D03*
X153000000Y-187950000D03*
%TO.N,Net-(D10-A)*%
X215000000Y-55507365D03*
%TO.N,Net-(D42-A)*%
X235250000Y-141450000D03*
%TO.N,Net-(D26-K)*%
X175300000Y-146400000D03*
%TO.N,Net-(D26-A)*%
X174000000Y-143500000D03*
%TO.N,/Valves/12V_main/SS_TRK*%
X296950000Y-164200000D03*
%TO.N,Net-(D25-K)*%
X172000000Y-146600000D03*
%TO.N,Net-(D25-A)*%
X171000000Y-143450000D03*
%TO.N,/Valves/12V_main/VCC*%
X301000000Y-150900000D03*
X307500000Y-151450000D03*
%TO.N,/Valves/12V_main/BST*%
X311760000Y-156270000D03*
X309100000Y-158220000D03*
%TO.N,GND*%
X121150000Y-201950000D03*
%TD*%
%TO.N,/System Power/LSW 5V/EN_UVLO*%
D33*
X250500000Y-165000000D02*
X251000000Y-165500000D01*
X250500000Y-162500000D02*
X250500000Y-165000000D01*
X252800000Y-160200000D02*
X250500000Y-162500000D01*
X254625000Y-160200000D02*
X252800000Y-160200000D01*
%TO.N,VALVE_GLOBAL_CTRL*%
X305200000Y-108500000D02*
X308100000Y-105600000D01*
X297000000Y-108500000D02*
X305200000Y-108500000D01*
X288850000Y-116650000D02*
X297000000Y-108500000D01*
X243300000Y-116650000D02*
X288850000Y-116650000D01*
X308100000Y-105600000D02*
X308100000Y-105550000D01*
%TO.N,VALVE1.~{LSW_ST}*%
D34*
X132500000Y-114500000D02*
X132500000Y-137766324D01*
X131800000Y-113800000D02*
X131800000Y-90950000D01*
X131800000Y-90950000D02*
X131300000Y-90450000D01*
X132500000Y-114500000D02*
X131800000Y-113800000D01*
X138316838Y-143583162D02*
X132500000Y-137766324D01*
%TO.N,/Valves/Gate Drivers/OUTB1*%
D33*
X126950000Y-93850000D02*
X114100000Y-93850000D01*
X131250000Y-98150000D02*
X126950000Y-93850000D01*
X114100000Y-93850000D02*
X110050000Y-89800000D01*
%TO.N,VALVE1.LSW_LATCH*%
D34*
X133400000Y-137350000D02*
X133400000Y-96050000D01*
X133400000Y-96050000D02*
X132900000Y-95550000D01*
X138550000Y-142500000D02*
X133400000Y-137350000D01*
%TO.N,VALVE_GLOBAL_CTRL*%
D33*
X192150000Y-109450000D02*
X177100000Y-109450000D01*
X198300000Y-103300000D02*
X192150000Y-109450000D01*
X209550000Y-103300000D02*
X198300000Y-103300000D01*
X211800000Y-105550000D02*
X209550000Y-103300000D01*
X223250000Y-105550000D02*
X211800000Y-105550000D01*
%TO.N,/Valves/Gate Drivers/OUTB3*%
X298118700Y-90318700D02*
X275268700Y-90318700D01*
X298250000Y-90450000D02*
X298118700Y-90318700D01*
X275268700Y-90318700D02*
X274450000Y-89500000D01*
%TO.N,/Valves/Gate Drivers/OUTA3*%
D34*
X327750000Y-88050000D02*
X310000000Y-88050000D01*
X334222500Y-60085000D02*
X334222500Y-81577500D01*
X334222500Y-81577500D02*
X327750000Y-88050000D01*
%TO.N,VALVE2_LSS_EN*%
X139750008Y-113280008D02*
X136735000Y-110265000D01*
X139750008Y-136599996D02*
X139750008Y-113280008D01*
%TO.N,VALVE6_LSS_EN*%
X303650000Y-117400000D02*
X303650000Y-109900000D01*
X236450000Y-128550000D02*
X292500000Y-128550000D01*
X171700000Y-144100000D02*
X182150000Y-133650000D01*
X170306104Y-144100000D02*
X171700000Y-144100000D01*
X169515200Y-144890904D02*
X170306104Y-144100000D01*
X231350000Y-133650000D02*
X236450000Y-128550000D01*
X169515200Y-146865200D02*
X169515200Y-144890904D01*
X171000000Y-148350000D02*
X169515200Y-146865200D01*
X171000000Y-150708566D02*
X171000000Y-148350000D01*
X170158566Y-151550000D02*
X171000000Y-150708566D01*
X166136104Y-151550000D02*
X170158566Y-151550000D01*
X165795200Y-151890904D02*
X166136104Y-151550000D01*
X165795200Y-152895200D02*
X165795200Y-151890904D01*
X165900000Y-153000000D02*
X165795200Y-152895200D01*
X165850000Y-153050000D02*
X165900000Y-153000000D01*
X165850000Y-161600000D02*
X165850000Y-153050000D01*
X292500000Y-128550000D02*
X303650000Y-117400000D01*
X160600000Y-166850000D02*
X165850000Y-161600000D01*
X153300000Y-166850000D02*
X160600000Y-166850000D01*
X152550000Y-165150000D02*
X152550000Y-166100000D01*
X152550000Y-166100000D02*
X153300000Y-166850000D01*
X154118052Y-163581948D02*
X152550000Y-165150000D01*
X154681948Y-163581948D02*
X154118052Y-163581948D01*
X182150000Y-133650000D02*
X231350000Y-133650000D01*
%TO.N,V-12P0_MAIN_PG*%
D33*
X281043700Y-129200000D02*
X302700000Y-150856300D01*
X216400000Y-149400000D02*
X236600000Y-129200000D01*
X236600000Y-129200000D02*
X281043700Y-129200000D01*
X172800000Y-149400000D02*
X216400000Y-149400000D01*
X170020000Y-146620000D02*
X172800000Y-149400000D01*
X170020000Y-145100000D02*
X170020000Y-146620000D01*
%TO.N,VALVE5_LSS_EN*%
X301100000Y-119000000D02*
X301100000Y-109800000D01*
X292300000Y-127800000D02*
X301100000Y-119000000D01*
X230950000Y-133150000D02*
X236300000Y-127800000D01*
X180500000Y-133150000D02*
X230950000Y-133150000D01*
X169150000Y-144500000D02*
X180500000Y-133150000D01*
X169150000Y-147000000D02*
X169150000Y-144500000D01*
X170650000Y-150650000D02*
X170650000Y-148500000D01*
X165900000Y-151200000D02*
X170100000Y-151200000D01*
X170100000Y-151200000D02*
X170650000Y-150650000D01*
X165400000Y-151700000D02*
X165900000Y-151200000D01*
X170650000Y-148500000D02*
X169150000Y-147000000D01*
X161500000Y-165200000D02*
X165400000Y-161300000D01*
X165400000Y-161300000D02*
X165400000Y-151700000D01*
X236300000Y-127800000D02*
X292300000Y-127800000D01*
X154356300Y-165200000D02*
X161500000Y-165200000D01*
X153400000Y-166156300D02*
X154356300Y-165200000D01*
%TO.N,TEMP_ALERT4*%
X180350000Y-132650000D02*
X167500000Y-145500000D01*
X167500000Y-145500000D02*
X167500000Y-149700000D01*
X230550000Y-132650000D02*
X180350000Y-132650000D01*
X244900000Y-118300000D02*
X230550000Y-132650000D01*
X295950000Y-111300000D02*
X288950000Y-118300000D01*
X288950000Y-118300000D02*
X244900000Y-118300000D01*
%TO.N,SD_DET*%
X153100000Y-168700000D02*
X151200000Y-170600000D01*
X161100000Y-168700000D02*
X153100000Y-168700000D01*
X166300000Y-163500000D02*
X161100000Y-168700000D01*
X166300000Y-152100000D02*
X166300000Y-163500000D01*
%TO.N,MAIN_RX*%
X151000000Y-164050000D02*
X149850000Y-162900000D01*
X153950000Y-168100000D02*
X151000000Y-165150000D01*
X149850000Y-162900000D02*
X146950000Y-162900000D01*
X160698198Y-168100000D02*
X153950000Y-168100000D01*
X162450000Y-166348198D02*
X160698198Y-168100000D01*
X151000000Y-165150000D02*
X151000000Y-164050000D01*
X162450000Y-166100000D02*
X162450000Y-166348198D01*
%TO.N,Net-(U12-PB10)*%
X169700000Y-161300000D02*
X173400000Y-161300000D01*
X162400000Y-168600000D02*
X169700000Y-161300000D01*
X162400000Y-168750000D02*
X162400000Y-168600000D01*
X162350000Y-168800000D02*
X162400000Y-168750000D01*
%TO.N,TEMP_ALERT3*%
D34*
X187150003Y-125000008D02*
X206700000Y-125000000D01*
X166600000Y-145550000D02*
X187150003Y-125000008D01*
X166600000Y-150200000D02*
X166600000Y-145550000D01*
X167000000Y-150600000D02*
X166600000Y-150200000D01*
X167950000Y-150600000D02*
X167000000Y-150600000D01*
X167981040Y-150631040D02*
X167950000Y-150600000D01*
X169537500Y-150631040D02*
X167981040Y-150631040D01*
%TO.N,/Valves/master_efuse/IMON_IC*%
D33*
X184500000Y-155200000D02*
X187000000Y-152700000D01*
X168750000Y-155200000D02*
X184500000Y-155200000D01*
%TO.N,I2C3_SDA*%
X179300000Y-163950000D02*
X179300000Y-165300000D01*
X172300000Y-156950000D02*
X179300000Y-163950000D01*
X167700000Y-156950000D02*
X172300000Y-156950000D01*
X167093700Y-156343700D02*
X167700000Y-156950000D01*
X167093700Y-153706300D02*
X167093700Y-156343700D01*
X168250000Y-152550000D02*
X167093700Y-153706300D01*
%TO.N,I2C3_SCL*%
X166715900Y-153134100D02*
X167150000Y-152700000D01*
X166715900Y-156500190D02*
X166715900Y-153134100D01*
X170550000Y-157350000D02*
X167565710Y-157350000D01*
X167565710Y-157350000D02*
X166715900Y-156500190D01*
X177200000Y-164000000D02*
X170550000Y-157350000D01*
X178400000Y-164000000D02*
X177200000Y-164000000D01*
%TO.N,~{ADC_DRDY}*%
X206600000Y-151550000D02*
X207550000Y-152500000D01*
X150600000Y-170949996D02*
X153850001Y-174199997D01*
X153850001Y-174199997D02*
X175999998Y-174199997D01*
X207550000Y-152500000D02*
X207550000Y-154050000D01*
X150600000Y-164650000D02*
X150600000Y-170949996D01*
X175999998Y-174199997D02*
X198650000Y-151550000D01*
X149450000Y-163500000D02*
X150600000Y-164650000D01*
X198650000Y-151550000D02*
X206600000Y-151550000D01*
%TO.N,/Valves/Gate Drivers/OUTB3*%
X300300000Y-60200000D02*
X300222500Y-60122500D01*
X300300000Y-79400000D02*
X300300000Y-60200000D01*
X296900000Y-82800000D02*
X300300000Y-79400000D01*
X275800000Y-88250000D02*
X281250000Y-82800000D01*
X281250000Y-82800000D02*
X296900000Y-82800000D01*
%TO.N,/Valves/Gate Drivers/OUTA2*%
X250200000Y-60395000D02*
X250722500Y-59872500D01*
X250200000Y-80600000D02*
X250200000Y-60395000D01*
X247500000Y-83300000D02*
X250200000Y-80600000D01*
X231050000Y-83300000D02*
X247500000Y-83300000D01*
X226100000Y-88250000D02*
X231050000Y-83300000D01*
%TO.N,VALVE3_HSS_EN*%
D34*
X217745000Y-84150000D02*
X217745000Y-91095000D01*
X216700000Y-83105000D02*
X217745000Y-84150000D01*
X217350000Y-81200000D02*
X216700000Y-81850000D01*
X216700000Y-81850000D02*
X216700000Y-83105000D01*
X217745000Y-91095000D02*
X217750000Y-91100000D01*
X217747500Y-60340133D02*
X217747500Y-60352500D01*
X217747500Y-60352500D02*
X217350000Y-60750000D01*
X217350000Y-60750000D02*
X217350000Y-81200000D01*
%TO.N,/Valves/Gate Drivers/OUTB2*%
D33*
X215650000Y-60862633D02*
X216045000Y-60467633D01*
X209700000Y-84650000D02*
X215650000Y-78700000D01*
X215650000Y-78700000D02*
X215650000Y-60862633D01*
X192000000Y-88200000D02*
X195550000Y-84650000D01*
X195550000Y-84650000D02*
X209700000Y-84650000D01*
X193600000Y-92850000D02*
X190450000Y-89700000D01*
X214800000Y-95500000D02*
X212150000Y-92850000D01*
X212150000Y-92850000D02*
X193600000Y-92850000D01*
%TO.N,VALVE3.~{LSW_ST}*%
D34*
X153600000Y-132350000D02*
X153100000Y-132850000D01*
X153600000Y-126931400D02*
X153600000Y-132350000D01*
X181131380Y-99400020D02*
X153600000Y-126931400D01*
X216700000Y-95250000D02*
X212549980Y-99400020D01*
X153100000Y-132850000D02*
X153100000Y-139800000D01*
X216700000Y-90000000D02*
X216700000Y-95250000D01*
X212549980Y-99400020D02*
X181131380Y-99400020D01*
%TO.N,VALVE3_HSS_EN*%
X200699998Y-99799997D02*
X200700011Y-99799984D01*
X181297051Y-99799984D02*
X200699998Y-99799997D01*
X154000000Y-127097035D02*
X181297051Y-99799984D01*
X200700011Y-99799984D02*
X213000016Y-99799984D01*
X213000016Y-99799984D02*
X217750000Y-95050000D01*
X154000000Y-139300000D02*
X154000000Y-127097035D01*
X217750000Y-95050000D02*
X217750000Y-91100000D01*
%TO.N,VALVE3.LSW_LATCH*%
X153835824Y-140264176D02*
X153835824Y-141400000D01*
X155132440Y-126530277D02*
X155132440Y-138967560D01*
X181462740Y-100199990D02*
X155132440Y-126530277D01*
X155132440Y-138967560D02*
X153835824Y-140264176D01*
X200865683Y-100199993D02*
X181462740Y-100199990D01*
X200865686Y-100199990D02*
X200865683Y-100199993D01*
X213400010Y-100199990D02*
X200865686Y-100199990D01*
X218350000Y-95250000D02*
X213400010Y-100199990D01*
X218350000Y-93350000D02*
X218350000Y-95250000D01*
%TO.N,VALVE4_LSS_EN*%
X152749988Y-144049995D02*
X152750000Y-145350000D01*
X183299983Y-113500000D02*
X152749988Y-144049995D01*
X216450000Y-113500000D02*
X183299983Y-113500000D01*
X220250000Y-109700000D02*
X216450000Y-113500000D01*
%TO.N,VALVE3_LSS_EN*%
D33*
X148150000Y-142300000D02*
X148150000Y-140900000D01*
X148600000Y-142750000D02*
X148150000Y-142300000D01*
X154400000Y-141750000D02*
X153400000Y-142750000D01*
X154400000Y-140400000D02*
X154400000Y-141750000D01*
X153400000Y-142750000D02*
X148600000Y-142750000D01*
X157950000Y-136850000D02*
X154400000Y-140400000D01*
X157950000Y-136000000D02*
X157950000Y-136850000D01*
X214450000Y-113100000D02*
X180850000Y-113100000D01*
X180850000Y-113100000D02*
X157950000Y-136000000D01*
X217800000Y-109750000D02*
X214450000Y-113100000D01*
%TO.N,VALVE4.LSW_SEL1*%
D34*
X153699045Y-143666624D02*
X153699057Y-145894598D01*
X217850000Y-113900000D02*
X183465669Y-113900000D01*
X224350000Y-107400000D02*
X217850000Y-113900000D01*
X183465669Y-113900000D02*
X153699045Y-143666624D01*
X224350000Y-95800000D02*
X224350000Y-107400000D01*
%TO.N,VALVE4.LSW_SEL2*%
X183581363Y-114350000D02*
X154599994Y-143331369D01*
X225650000Y-106700000D02*
X218000000Y-114350000D01*
X154599994Y-143331369D02*
X154600000Y-146300000D01*
X225650000Y-95750000D02*
X225650000Y-106700000D01*
X218000000Y-114350000D02*
X183581363Y-114350000D01*
%TO.N,VALVE3.LSW_DIA_EN*%
X191200000Y-97500000D02*
X192450000Y-96250000D01*
X182465692Y-97500014D02*
X191200000Y-97500000D01*
X152554800Y-132795200D02*
X153199998Y-132150002D01*
X152554800Y-140400000D02*
X152554800Y-132795200D01*
X153199998Y-132150002D02*
X153199998Y-126765685D01*
X153199998Y-126765685D02*
X182465692Y-97500014D01*
%TO.N,VALVE4.LSW_DIA_EN*%
X226900000Y-95750000D02*
X226950000Y-95700000D01*
X226900000Y-106050000D02*
X226900000Y-95750000D01*
X218150000Y-114800000D02*
X226900000Y-106050000D01*
X183697085Y-114800000D02*
X218150000Y-114800000D01*
X155500019Y-142997066D02*
X183697085Y-114800000D01*
X155500000Y-146900000D02*
X155500019Y-142997066D01*
%TO.N,VALVE_GLOBAL_CTRL*%
D33*
X142280000Y-143880000D02*
X142280000Y-148450000D01*
X139000000Y-140600000D02*
X142280000Y-143880000D01*
X139000000Y-123300000D02*
X139000000Y-140600000D01*
%TO.N,/Valves/Gate Drivers/OUTA1*%
X166800000Y-61007500D02*
X167722500Y-60085000D01*
X166800000Y-80900000D02*
X166800000Y-61007500D01*
X163000000Y-84700000D02*
X166800000Y-80900000D01*
X146350000Y-84700000D02*
X163000000Y-84700000D01*
X142850000Y-88200000D02*
X146350000Y-84700000D01*
%TO.N,/Valves/Gate Drivers/OUTB1*%
X110050000Y-89800000D02*
X107000000Y-89800000D01*
X111300000Y-88550000D02*
X110050000Y-89800000D01*
D34*
X133022500Y-77477500D02*
X125900000Y-84600000D01*
X125900000Y-84600000D02*
X115250000Y-84600000D01*
X133022500Y-60297499D02*
X133022500Y-77477500D01*
D33*
X111300000Y-88550000D02*
X115250000Y-84600000D01*
%TO.N,VALVE1_LSS_EN*%
D34*
X122625004Y-120474996D02*
X122625004Y-129024996D01*
X128200000Y-114900000D02*
X122625004Y-120474996D01*
X131400000Y-114900000D02*
X128200000Y-114900000D01*
%TO.N,VALVE2_LSS_EN*%
X139750008Y-136599996D02*
X143850000Y-140700000D01*
%TO.N,VALVE1_LSS_EN*%
X138250000Y-144650000D02*
X122625004Y-129024996D01*
%TO.N,VALVE6_VSENSE_N*%
X329800000Y-62715000D02*
X329800000Y-75990000D01*
X329800000Y-75990000D02*
X332235000Y-78425000D01*
X322185000Y-58450000D02*
X325535000Y-58450000D01*
X319610000Y-55875000D02*
X322185000Y-58450000D01*
X325535000Y-58450000D02*
X329800000Y-62715000D01*
%TO.N,VALVE5_VSENSE_N*%
X297200000Y-64530000D02*
X297200000Y-77805000D01*
X297200000Y-77805000D02*
X297820000Y-78425000D01*
X291120000Y-58450000D02*
X297200000Y-64530000D01*
X287770000Y-58450000D02*
X291120000Y-58450000D01*
X285195000Y-55875000D02*
X287770000Y-58450000D01*
%TO.N,VALVE4_VSENSE_N*%
X247300000Y-63982500D02*
X247300000Y-77257500D01*
X241547500Y-58230000D02*
X247300000Y-63982500D01*
X238197500Y-58230000D02*
X241547500Y-58230000D01*
X235622500Y-55655000D02*
X238197500Y-58230000D01*
X247300000Y-77257500D02*
X248247500Y-78205000D01*
%TO.N,I2C1_SDA*%
D33*
X141471500Y-165302409D02*
X141471500Y-160628500D01*
X147100000Y-156050000D02*
X150900000Y-152250000D01*
X126523909Y-180250000D02*
X141471500Y-165302409D01*
X146050000Y-156050000D02*
X147100000Y-156050000D01*
X103600000Y-180250000D02*
X126523909Y-180250000D01*
X135750000Y-80100000D02*
X135750000Y-88650000D01*
X141471500Y-160628500D02*
X146050000Y-156050000D01*
X137750000Y-78100000D02*
X135750000Y-80100000D01*
%TO.N,+3V3*%
D34*
X285750000Y-141650000D02*
X287050000Y-141650000D01*
X246900000Y-143700000D02*
X235300000Y-143700000D01*
X254300000Y-140300000D02*
X254300000Y-139050000D01*
X287900000Y-142500000D02*
X287900000Y-144550000D01*
X260795200Y-144395200D02*
X258404800Y-144395200D01*
X287050000Y-141650000D02*
X287900000Y-142500000D01*
X261350000Y-144950000D02*
X260795200Y-144395200D01*
X270500000Y-145900000D02*
X269550000Y-144950000D01*
X269550000Y-144950000D02*
X261350000Y-144950000D01*
X235300000Y-143700000D02*
X223500000Y-155500000D01*
X251950000Y-138650000D02*
X246900000Y-143700000D01*
X286550000Y-145900000D02*
X279450000Y-145900000D01*
X279450000Y-145900000D02*
X270500000Y-145900000D01*
X254300000Y-139050000D02*
X253900000Y-138650000D01*
X258404800Y-144395200D02*
X258400000Y-144400000D01*
X287900000Y-144550000D02*
X286550000Y-145900000D01*
X258400000Y-144400000D02*
X254300000Y-140300000D01*
X253900000Y-138650000D02*
X251950000Y-138650000D01*
%TO.N,VALVE1_HSS_EN*%
X134547500Y-60347499D02*
X134547500Y-60352500D01*
X134600000Y-60405000D02*
X134600000Y-89800000D01*
X134310008Y-137259996D02*
X141000000Y-143950000D01*
X134310000Y-91360000D02*
X134300000Y-91350000D01*
X134600000Y-89800000D02*
X134300000Y-90100000D01*
X134310008Y-137259996D02*
X134310000Y-91360000D01*
X134300000Y-90100000D02*
X134300000Y-91350000D01*
X134547500Y-60352500D02*
X134600000Y-60405000D01*
%TO.N,VALVE1.LSW_SEL1*%
X110590000Y-91240000D02*
X110070000Y-90720000D01*
X110590008Y-118139996D02*
X110590000Y-91240000D01*
X110590008Y-118139996D02*
X138200000Y-145750000D01*
%TO.N,VALVE1.LSW_SEL2*%
X139400000Y-150450000D02*
X139400000Y-147850000D01*
X109810008Y-118259996D02*
X109810000Y-96140000D01*
X109810000Y-96120000D02*
X109810000Y-92940000D01*
X109810008Y-118259996D02*
X139400000Y-147850000D01*
%TO.N,VALVE1.LSW_DIA_EN*%
X109110008Y-118609996D02*
X138795200Y-148295200D01*
X139500000Y-151550000D02*
X139050000Y-151550000D01*
X138795200Y-151295200D02*
X138795200Y-148295200D01*
X139050000Y-151550000D02*
X138795200Y-151295200D01*
X109110008Y-118609996D02*
X109110000Y-95610000D01*
%TO.N,FAN2_TOGGLE*%
D33*
X329900000Y-199250000D02*
X318200000Y-187550000D01*
X136200000Y-205600000D02*
X150600000Y-191200000D01*
X318200000Y-164350000D02*
X323450000Y-159100000D01*
X189200000Y-188800000D02*
X300250000Y-188800000D01*
X104600000Y-205600000D02*
X136200000Y-205600000D01*
X327700000Y-206150000D02*
X329900000Y-203950000D01*
X323450000Y-159100000D02*
X327400000Y-159100000D01*
X329900000Y-203950000D02*
X329900000Y-199250000D01*
X300250000Y-188800000D02*
X317600000Y-206150000D01*
X317600000Y-206150000D02*
X327700000Y-206150000D01*
X97050000Y-198050000D02*
X104600000Y-205600000D01*
X98600000Y-152300000D02*
X97050000Y-153850000D01*
X97050000Y-153850000D02*
X97050000Y-198050000D01*
X318200000Y-187550000D02*
X318200000Y-164350000D01*
X150600000Y-191200000D02*
X186800000Y-191200000D01*
X186800000Y-191200000D02*
X189200000Y-188800000D01*
%TO.N,FAN1_TOGGLE*%
X104427800Y-206077800D02*
X96650000Y-198300000D01*
X328350000Y-206800000D02*
X317350000Y-206800000D01*
X331800000Y-160250000D02*
X331800000Y-203350000D01*
X99954081Y-150106300D02*
X101000000Y-150106300D01*
X331800000Y-203350000D02*
X328350000Y-206800000D01*
X327800000Y-143900000D02*
X327800000Y-156250000D01*
X136622200Y-206077800D02*
X104427800Y-206077800D01*
X327800000Y-156250000D02*
X331800000Y-160250000D01*
X189550000Y-189400000D02*
X187150000Y-191800000D01*
X317350000Y-206800000D02*
X299950000Y-189400000D01*
X187150000Y-191800000D02*
X150900000Y-191800000D01*
X299950000Y-189400000D02*
X189550000Y-189400000D01*
X96650000Y-153410381D02*
X99954081Y-150106300D01*
X96650000Y-198300000D02*
X96650000Y-153410381D01*
X150900000Y-191800000D02*
X136622200Y-206077800D01*
%TO.N,3V3_STATUS*%
X135600000Y-205150000D02*
X114000000Y-205150000D01*
X227450000Y-181750000D02*
X221200000Y-188000000D01*
X221200000Y-188000000D02*
X188900000Y-188000000D01*
X188900000Y-188000000D02*
X186300000Y-190600000D01*
X227450000Y-174250000D02*
X227450000Y-181750000D01*
X114000000Y-205150000D02*
X110600000Y-201750000D01*
X150150000Y-190600000D02*
X135600000Y-205150000D01*
X110600000Y-201750000D02*
X110600000Y-182900000D01*
X186300000Y-190600000D02*
X150150000Y-190600000D01*
%TO.N,/STM32/QUADSPI_BK1_IO3*%
X114700000Y-142900000D02*
X115500000Y-142100000D01*
X115500000Y-142100000D02*
X125500000Y-142100000D01*
X114700000Y-148300000D02*
X114700000Y-142900000D01*
X115800000Y-149400000D02*
X114700000Y-148300000D01*
X125500000Y-142100000D02*
X137256084Y-153856084D01*
X137256084Y-153856084D02*
X142599800Y-153856084D01*
%TO.N,/STM32/QUADSPI_BK1_IO2*%
X129100000Y-146700000D02*
X129200000Y-146700000D01*
X136950000Y-154450000D02*
X143150000Y-154450000D01*
X129200000Y-146700000D02*
X136950000Y-154450000D01*
%TO.N,/STM32/QUADSPI_BK1_IO0*%
X127050000Y-147300000D02*
X129000000Y-147300000D01*
X143672200Y-155072200D02*
X143700000Y-155100000D01*
X115700000Y-143500000D02*
X117600000Y-145400000D01*
X129000000Y-147300000D02*
X136772200Y-155072200D01*
X125150000Y-145400000D02*
X127050000Y-147300000D01*
X117600000Y-145400000D02*
X125150000Y-145400000D01*
X136772200Y-155072200D02*
X143672200Y-155072200D01*
%TO.N,/STM32/QUADSPI_BK1_IO1*%
X136700000Y-155700000D02*
X143150000Y-155700000D01*
X130612600Y-149612600D02*
X136700000Y-155700000D01*
X129800000Y-149612600D02*
X130612600Y-149612600D01*
%TO.N,/STM32/QUADSPI_CLK*%
X125750000Y-146600000D02*
X135497682Y-156347682D01*
X115400000Y-146600000D02*
X125750000Y-146600000D01*
X135497682Y-156347682D02*
X142664238Y-156347682D01*
%TO.N,/STM32/NRST*%
X104800000Y-166800000D02*
X104800000Y-157100000D01*
X102720000Y-168880000D02*
X104800000Y-166800000D01*
X104800000Y-157100000D02*
X103200000Y-155500000D01*
X102000000Y-168880000D02*
X102720000Y-168880000D01*
%TO.N,/STM32/~{QUADSPI_BK1_NCS}*%
X139500000Y-163950000D02*
X140350000Y-163950000D01*
X129800000Y-153200000D02*
X129800000Y-154250000D01*
X129800000Y-154250000D02*
X139500000Y-163950000D01*
%TO.N,TEMP_ALERT1*%
D34*
X126800000Y-178500000D02*
X140400000Y-164900000D01*
X140400000Y-164900000D02*
X140500000Y-164900000D01*
X104700000Y-178500000D02*
X126800000Y-178500000D01*
%TO.N,~{ADC_CS}*%
D33*
X184872198Y-176627797D02*
X206243700Y-155256300D01*
X205361819Y-152872200D02*
X206243700Y-153754081D01*
X144372200Y-168018710D02*
X144384800Y-168006110D01*
X144400000Y-164050000D02*
X143950000Y-163600000D01*
X151659223Y-176627791D02*
X144372200Y-169340780D01*
X144168900Y-166695919D02*
X144168900Y-166204081D01*
X151659223Y-176627791D02*
X184872198Y-176627797D01*
X144372200Y-169340780D02*
X144372200Y-168018710D01*
X144384800Y-166911819D02*
X144168900Y-166695919D01*
X206243700Y-153754081D02*
X206243700Y-155256300D01*
X200877800Y-152872200D02*
X205361819Y-152872200D01*
X144400000Y-165972981D02*
X144400000Y-164050000D01*
X199750000Y-154000000D02*
X200877800Y-152872200D01*
X144384800Y-168006110D02*
X144384800Y-166911819D01*
X144168900Y-166204081D02*
X144400000Y-165972981D01*
%TO.N,ADC_SCLK*%
X181499998Y-176249997D02*
X203750000Y-154000000D01*
X144750000Y-169184290D02*
X144750000Y-168175200D01*
X144762600Y-168162600D02*
X144762600Y-166450000D01*
X151815712Y-176249994D02*
X181499998Y-176249997D01*
X151815712Y-176249994D02*
X144750000Y-169184290D01*
X144750000Y-168175200D02*
X144762600Y-168162600D01*
%TO.N,ADC_MISO*%
X180922198Y-175827797D02*
X151927801Y-175827797D01*
X204900000Y-153250000D02*
X203500000Y-153250000D01*
X145356300Y-169256300D02*
X145356300Y-167150000D01*
X151927801Y-175827797D02*
X145356300Y-169256300D01*
X205650000Y-154000000D02*
X204900000Y-153250000D01*
X180922198Y-175827797D02*
X203500000Y-153250000D01*
%TO.N,ADC_MOSI*%
X152150001Y-175449997D02*
X145950000Y-169250000D01*
X180249998Y-175449997D02*
X201750000Y-153950000D01*
X145950000Y-169250000D02*
X145950000Y-166400000D01*
X180249998Y-175449997D02*
X152150001Y-175449997D01*
%TO.N,MAIN_TX*%
X193500000Y-179600000D02*
X150900000Y-179600000D01*
X150900000Y-179600000D02*
X144100000Y-172800000D01*
%TO.N,~{ADC_RESET}*%
X148093700Y-168539480D02*
X148100000Y-168545780D01*
X176156487Y-174577794D02*
X153693512Y-174577794D01*
X206956300Y-152656300D02*
X206956300Y-154295919D01*
X176156487Y-174577794D02*
X198784290Y-151950000D01*
X198784290Y-151950000D02*
X206250000Y-151950000D01*
X148100000Y-168545780D02*
X148100000Y-168984290D01*
X206250000Y-151950000D02*
X206956300Y-152656300D01*
X153693512Y-174577794D02*
X148100000Y-168984290D01*
X206956300Y-154295919D02*
X207304081Y-154643700D01*
X210656300Y-154643700D02*
X211350000Y-153950000D01*
X207304081Y-154643700D02*
X210656300Y-154643700D01*
%TO.N,MAIN_DE*%
X151500000Y-178900000D02*
X145500000Y-172900000D01*
X192200000Y-178900000D02*
X151500000Y-178900000D01*
%TO.N,~{MAIN_RE}*%
X150600000Y-180500000D02*
X145000000Y-174900000D01*
X194700000Y-180500000D02*
X150600000Y-180500000D01*
%TO.N,ADC_START*%
X176268576Y-174999991D02*
X153581423Y-174999991D01*
X149138872Y-166261128D02*
X147500000Y-167900000D01*
X197268580Y-154000000D02*
X197850000Y-154000000D01*
X176268576Y-174999991D02*
X197268580Y-154000000D01*
X147500000Y-167900000D02*
X147500000Y-168918580D01*
X149138872Y-166056116D02*
X149138872Y-166261128D01*
X153581423Y-174999991D02*
X147500000Y-168918580D01*
%TO.N,VALVE5.LSW_SEL1*%
D34*
X159649998Y-143815685D02*
X185665692Y-117800014D01*
X159649998Y-148815685D02*
X159649998Y-143815685D01*
X151554798Y-156910885D02*
X151554800Y-162450000D01*
X270499998Y-99299997D02*
X273850000Y-95950000D01*
X237415692Y-99300014D02*
X270499998Y-99299997D01*
X237415692Y-99300014D02*
X218915681Y-117799992D01*
X218915681Y-117799992D02*
X185665692Y-117800014D01*
X151554798Y-156910885D02*
X159649998Y-148815685D01*
%TO.N,VALVE5.LSW_SEL2*%
X152159594Y-156871769D02*
X152159600Y-161550000D01*
X160050004Y-148981373D02*
X160049994Y-143981369D01*
X152159594Y-156871769D02*
X160050004Y-148981373D01*
X237581380Y-99700020D02*
X219081365Y-118199988D01*
X219081365Y-118199988D02*
X185831380Y-118200020D01*
X271199998Y-99699997D02*
X275000000Y-95900000D01*
X160049994Y-143981369D02*
X185831380Y-118200020D01*
X237581380Y-99700020D02*
X271199998Y-99699997D01*
%TO.N,VALVE5.LSW_DIA_EN*%
X237747051Y-100099984D02*
X219247048Y-118599984D01*
X219247048Y-118599984D02*
X185997051Y-118599984D01*
X152850019Y-156747066D02*
X160450009Y-149147062D01*
X272149998Y-100099997D02*
X276400000Y-95850000D01*
X160450009Y-149147062D02*
X160450019Y-144147066D01*
X152850019Y-156747066D02*
X152850000Y-162400000D01*
X160450019Y-144147066D02*
X185997051Y-118599984D01*
X237747051Y-100099984D02*
X272149998Y-100099997D01*
%TO.N,VALVE5.~{LSW_ST}*%
X153550015Y-156612750D02*
X153550000Y-161550000D01*
X278000003Y-95200008D02*
X294650000Y-95200000D01*
X237950003Y-100500008D02*
X219449998Y-118999997D01*
X278000003Y-95200008D02*
X272699998Y-100499997D01*
X237950003Y-100500008D02*
X272699998Y-100499997D01*
X160850015Y-144312750D02*
X186162740Y-118999990D01*
X153550015Y-156612750D02*
X160850015Y-149312750D01*
X219449998Y-118999997D02*
X186162740Y-118999990D01*
X299800000Y-90050000D02*
X294650000Y-95200000D01*
X160850015Y-144312750D02*
X160850015Y-149312750D01*
%TO.N,VALVE5_HSS_EN*%
X219615683Y-119399993D02*
X186328428Y-119399996D01*
X161250011Y-144478434D02*
X161249980Y-149478421D01*
X302200000Y-60625000D02*
X302200000Y-91050000D01*
X154200011Y-156528434D02*
X154200000Y-162400000D01*
X299900000Y-91050000D02*
X302200000Y-91050000D01*
X278450003Y-95600008D02*
X295350000Y-95600000D01*
X238115692Y-100900014D02*
X273149998Y-100899997D01*
X161250011Y-144478434D02*
X186328428Y-119399996D01*
X154200011Y-156528434D02*
X161249980Y-149478421D01*
X278450003Y-95600008D02*
X273149998Y-100899997D01*
X295350000Y-95600000D02*
X299900000Y-91050000D01*
X238115692Y-100900014D02*
X219615683Y-119399993D01*
X301747500Y-60172500D02*
X302200000Y-60625000D01*
%TO.N,VALVE5.LSW_LATCH*%
X238231380Y-101350020D02*
X273549998Y-101349997D01*
X219781366Y-119799988D02*
X186494117Y-119800002D01*
X154950007Y-156344119D02*
X161649985Y-149644110D01*
X278900003Y-96000008D02*
X273549998Y-101349997D01*
X299850000Y-94350000D02*
X298200000Y-96000000D01*
X278900003Y-96000008D02*
X298200000Y-96000000D01*
X238231380Y-101350020D02*
X219781366Y-119799988D01*
X161650007Y-144644119D02*
X186494117Y-119800002D01*
X161649985Y-149644110D02*
X161650007Y-144644119D01*
X154950007Y-156344119D02*
X154950000Y-161650000D01*
%TO.N,VALVE6_HSS_EN*%
X336160000Y-91075000D02*
X336160000Y-60547500D01*
X336160000Y-60547500D02*
X335747500Y-60135000D01*
%TO.N,TEMP_ALERT2*%
D33*
X175550000Y-116950000D02*
X175550000Y-108100000D01*
X157150000Y-135350000D02*
X175550000Y-116950000D01*
%TO.N,I2C3_SCL*%
X171175000Y-186375000D02*
X174000000Y-183550000D01*
X171175000Y-188200000D02*
X171175000Y-186375000D01*
%TO.N,I2C3_SDA*%
X169600000Y-184400000D02*
X170500000Y-183500000D01*
X169600000Y-189725000D02*
X169600000Y-184400000D01*
X170500000Y-183500000D02*
X171350000Y-183500000D01*
%TO.N,USB_VBUS_DET*%
X143356308Y-162143703D02*
X153394809Y-152105191D01*
X126000000Y-185499999D02*
X143356297Y-168143698D01*
X126000000Y-194000000D02*
X126000000Y-185499999D01*
X154605191Y-152105191D02*
X155280191Y-151430191D01*
X143356297Y-168143698D02*
X143356308Y-162143703D01*
X153394809Y-152105191D02*
X154605191Y-152105191D01*
%TO.N,D_N*%
D35*
X117683474Y-198035204D02*
X116945669Y-197297436D01*
X154400000Y-151200000D02*
X154400000Y-151000000D01*
X121835221Y-188697433D02*
X142835194Y-167697421D01*
X153432641Y-151399991D02*
X154200000Y-151400000D01*
X142835194Y-167697421D02*
X142835221Y-161997433D01*
X118478325Y-198035203D02*
X117683474Y-198035204D01*
X121835221Y-188697433D02*
X121835194Y-194678321D01*
X116945669Y-197297436D02*
X116945686Y-196583886D01*
X116761800Y-196400000D02*
X116945686Y-196583886D01*
X121835194Y-194678321D02*
X118478325Y-198035203D01*
X154200000Y-151400000D02*
X154400000Y-151200000D01*
X153432641Y-151399991D02*
X142835221Y-161997433D01*
%TO.N,D_P*%
X117416114Y-196583886D02*
X117600000Y-196400000D01*
X118283464Y-197564773D02*
X117878335Y-197564774D01*
X121364790Y-194483471D02*
X118283464Y-197564773D01*
X153200009Y-150967359D02*
X142364813Y-161802581D01*
X121364813Y-188502581D02*
X121364790Y-194483471D01*
X117878335Y-197564774D02*
X117416126Y-197102564D01*
X142364790Y-167502571D02*
X142364813Y-161802581D01*
X117416126Y-197102564D02*
X117416114Y-196583886D01*
X153200009Y-150967359D02*
X153200000Y-150300000D01*
X153500000Y-150000000D02*
X153200000Y-150300000D01*
X121364813Y-188502581D02*
X142364790Y-167502571D01*
%TO.N,/STM32/JTDI_STM32*%
D33*
X127000000Y-141600000D02*
X137921500Y-152521500D01*
X115200000Y-141600000D02*
X127000000Y-141600000D01*
X142212790Y-152521500D02*
X146134290Y-148600000D01*
X114300000Y-159100000D02*
X114300000Y-142500000D01*
X137921500Y-152521500D02*
X142212790Y-152521500D01*
X114300000Y-142500000D02*
X115200000Y-141600000D01*
X146134290Y-148600000D02*
X155700000Y-148600000D01*
X108000000Y-165400000D02*
X114300000Y-159100000D01*
%TO.N,VALVE4_HSS_EN*%
D34*
X218265683Y-115949993D02*
X240665686Y-93550000D01*
X252100000Y-90350000D02*
X251597500Y-89847500D01*
X251597500Y-60572500D02*
X252247500Y-59922500D01*
X252100000Y-90850000D02*
X252100000Y-90350000D01*
X240665686Y-93550000D02*
X247350000Y-93550000D01*
X247350000Y-93550000D02*
X250050000Y-90850000D01*
X157150011Y-142478434D02*
X157150000Y-148100000D01*
X218265683Y-115949993D02*
X183678428Y-115949996D01*
X157150011Y-142478434D02*
X183678428Y-115949996D01*
X251597500Y-89847500D02*
X251597500Y-60572500D01*
X250050000Y-90850000D02*
X252100000Y-90850000D01*
%TO.N,VALVE4.~{LSW_ST}*%
X156300015Y-142762750D02*
X183512740Y-115549990D01*
X246950000Y-92500000D02*
X249550000Y-89900000D01*
X156300015Y-142762750D02*
X156300000Y-147450000D01*
X241150000Y-92500000D02*
X246950000Y-92500000D01*
X218099998Y-115549997D02*
X183512740Y-115549990D01*
X218099998Y-115549997D02*
X241150000Y-92500000D01*
%TO.N,I2C1_SCL*%
D33*
X299400000Y-81700000D02*
X299400000Y-86300000D01*
X301150000Y-74150000D02*
X301150000Y-79950000D01*
X216700000Y-80150000D02*
X215450000Y-81400000D01*
X216700000Y-74250000D02*
X216700000Y-80150000D01*
X215450000Y-81400000D02*
X215450000Y-84550000D01*
X215450000Y-84550000D02*
X214900000Y-85100000D01*
X150250000Y-151169810D02*
X150250000Y-151050000D01*
X301150000Y-79950000D02*
X299400000Y-81700000D01*
X141093700Y-160326110D02*
X150250000Y-151169810D01*
X141093700Y-165145919D02*
X141093700Y-160326110D01*
X104250000Y-179650000D02*
X126589619Y-179650000D01*
X126589619Y-179650000D02*
X141093700Y-165145919D01*
X299050000Y-86650000D02*
X298500000Y-86650000D01*
X299400000Y-86300000D02*
X299050000Y-86650000D01*
X214900000Y-85100000D02*
X213881805Y-85100000D01*
%TO.N,VALVE3.LSW_SEL2*%
D34*
X149125386Y-141819297D02*
X149125386Y-141224614D01*
X191150000Y-96050000D02*
X191150000Y-96000000D01*
X182300003Y-97100008D02*
X190100000Y-97100000D01*
X150250000Y-135757107D02*
X150400000Y-135607107D01*
X150250000Y-140100000D02*
X150250000Y-135757107D01*
X190100000Y-97100000D02*
X191150000Y-96050000D01*
X150250000Y-135042893D02*
X150250000Y-129150011D01*
X150400000Y-135192893D02*
X150250000Y-135042893D01*
X150400000Y-135607107D02*
X150400000Y-135192893D01*
X150250000Y-129150011D02*
X182300003Y-97100008D01*
X149125386Y-141224614D02*
X150250000Y-140100000D01*
%TO.N,VALVE3.LSW_SEL1*%
X188950517Y-96654800D02*
X188449483Y-96654800D01*
X182184315Y-96650003D02*
X149000000Y-129834318D01*
X189950000Y-96050000D02*
X189350000Y-96650000D01*
X188444683Y-96650000D02*
X182184315Y-96650003D01*
X188955317Y-96650000D02*
X188950517Y-96654800D01*
X149000000Y-129834318D02*
X149000000Y-140187659D01*
X188449483Y-96654800D02*
X188444683Y-96650000D01*
X149000000Y-140187659D02*
X149212341Y-140400000D01*
X189350000Y-96650000D02*
X188955317Y-96650000D01*
%TO.N,VALVE2.LSW_LATCH*%
D33*
X115000000Y-141100000D02*
X127600000Y-141100000D01*
X147500000Y-146700000D02*
X147500000Y-145200000D01*
X113800000Y-142300000D02*
X115000000Y-141100000D01*
X113800000Y-158000000D02*
X113800000Y-142300000D01*
D34*
X148123112Y-129579854D02*
X167000000Y-110702943D01*
X167000000Y-110702943D02*
X167000000Y-94400000D01*
X148123112Y-129579854D02*
X148123095Y-139572471D01*
X148002741Y-139970620D02*
X148002741Y-139692825D01*
D33*
X138643700Y-152143700D02*
X142056300Y-152143700D01*
X108100000Y-163700000D02*
X113800000Y-158000000D01*
X142056300Y-152143700D02*
X147500000Y-146700000D01*
X127600000Y-141100000D02*
X138643700Y-152143700D01*
D34*
X148002741Y-139692825D02*
X148123095Y-139572471D01*
%TO.N,VALVE2_HSS_EN*%
X168727500Y-90027500D02*
X168750000Y-90050000D01*
X168152500Y-89305000D02*
X168727500Y-89880000D01*
X147518295Y-139037022D02*
X147518295Y-139321954D01*
X147604800Y-138950517D02*
X147518295Y-139037022D01*
X147604819Y-129532464D02*
X147604800Y-138950517D01*
X169247500Y-60135000D02*
X168152500Y-61230000D01*
X168152500Y-61230000D02*
X168152500Y-89305000D01*
X168727500Y-89880000D02*
X168727500Y-90027500D01*
X165450000Y-93350000D02*
X165450000Y-111687257D01*
X147604819Y-129532464D02*
X165450000Y-111687257D01*
X168750000Y-90050000D02*
X165450000Y-93350000D01*
%TO.N,VALVE2.~{LSW_ST}*%
X147000023Y-129571579D02*
X147000000Y-138700000D01*
X164050000Y-112521571D02*
X164050000Y-92550000D01*
X164050000Y-92550000D02*
X166400000Y-90200000D01*
X147000023Y-129571579D02*
X164050000Y-112521571D01*
%TO.N,VALVE2.LSW_DIA_EN*%
X144978165Y-138578165D02*
X144978165Y-138589358D01*
X142700008Y-136299996D02*
X144978165Y-138578165D01*
X142700008Y-136299996D02*
X142700000Y-95450000D01*
%TO.N,VALVE2.LSW_SEL2*%
X141800006Y-136449593D02*
X144700118Y-139349714D01*
X141800006Y-136449593D02*
X141800000Y-95450000D01*
%TO.N,VALVE2.LSW_SEL1*%
X140750008Y-136449996D02*
X144391596Y-140091596D01*
X144391596Y-140098227D02*
X144391596Y-140091596D01*
X140750008Y-136449996D02*
X140750000Y-95500000D01*
%TO.N,Net-(J16-DAT2)*%
X138100000Y-185050000D02*
X140500000Y-182650000D01*
X138100000Y-187750000D02*
X138100000Y-185050000D01*
%TO.N,Net-(J16-DAT3{slash}CD)*%
X137150000Y-187750000D02*
X137150000Y-184750000D01*
X137150000Y-184750000D02*
X139250000Y-182650000D01*
%TO.N,Net-(J16-CMD)*%
X136300000Y-184250000D02*
X137950000Y-182600000D01*
X137950000Y-182600000D02*
X138000000Y-182600000D01*
X136300000Y-187750000D02*
X136300000Y-184250000D01*
%TO.N,Net-(J16-CLK)*%
X135615402Y-182784598D02*
X135800000Y-182600000D01*
X135615402Y-187563292D02*
X135615402Y-182784598D01*
%TO.N,Net-(J16-DAT0)*%
X134400000Y-186600000D02*
X134400000Y-182550000D01*
X134056948Y-186943052D02*
X134400000Y-186600000D01*
X134056948Y-187643052D02*
X134056948Y-186943052D01*
%TO.N,Net-(J16-DAT1)*%
X132950000Y-187800000D02*
X132950000Y-182500000D01*
%TO.N,Net-(J16-DET_A)*%
X128850000Y-201800000D02*
X128300000Y-202350000D01*
X128300000Y-202350000D02*
X128300000Y-203800000D01*
X131200000Y-182450000D02*
X132000000Y-183250000D01*
X128850000Y-192000000D02*
X128850000Y-201800000D01*
X132000000Y-183250000D02*
X132000000Y-188850000D01*
X132000000Y-188850000D02*
X128850000Y-192000000D01*
%TO.N,Net-(U26-OVLO)*%
D33*
X258350000Y-143350000D02*
X267750000Y-143350000D01*
X267750000Y-143350000D02*
X268000000Y-143600000D01*
%TO.N,VALVE5_VSENSE_P*%
D34*
X297845000Y-75700000D02*
X297845000Y-64325000D01*
X297845000Y-64325000D02*
X289395000Y-55875000D01*
%TO.N,Net-(J27-Pin_2)*%
D33*
X260050000Y-145000000D02*
X261950000Y-146900000D01*
X261950000Y-146900000D02*
X272800000Y-146900000D01*
X322850000Y-196950000D02*
X322850000Y-202700000D01*
X272800000Y-146900000D02*
X322850000Y-196950000D01*
%TO.N,VALVE3_VSENSE_P*%
D34*
X213845000Y-75800000D02*
X213845000Y-64325000D01*
X213845000Y-64325000D02*
X205395000Y-55875000D01*
%TO.N,/System Power/LDO 3V3/VIN*%
D33*
X250750000Y-159000000D02*
X263025000Y-159000000D01*
X239500000Y-147750000D02*
X250750000Y-159000000D01*
X263025000Y-159000000D02*
X263100000Y-159075000D01*
X264200000Y-179675000D02*
X264200000Y-163225000D01*
X264200000Y-163225000D02*
X264350000Y-163075000D01*
X239500000Y-145750000D02*
X239500000Y-147750000D01*
%TO.N,VALVE2_VSENSE_N*%
D34*
X164077500Y-77755000D02*
X164802500Y-78480000D01*
X158102500Y-58505000D02*
X164077500Y-64480000D01*
X152177500Y-55930000D02*
X154752500Y-58505000D01*
X164077500Y-64480000D02*
X164077500Y-77755000D01*
X154752500Y-58505000D02*
X158102500Y-58505000D01*
%TO.N,VALVE3_VSENSE_N*%
X203770000Y-58450000D02*
X207120000Y-58450000D01*
X213095000Y-64425000D02*
X213095000Y-77700000D01*
X213095000Y-77700000D02*
X213820000Y-78425000D01*
X201195000Y-55875000D02*
X203770000Y-58450000D01*
X207120000Y-58450000D02*
X213095000Y-64425000D01*
%TO.N,/Valves/12V_main/COMP*%
D33*
X298094001Y-152620395D02*
X295750000Y-154964396D01*
X295750000Y-154964396D02*
X295750000Y-161750000D01*
%TO.N,/Valves/12V_main/FB*%
X289450000Y-157950000D02*
X289450000Y-161700000D01*
X300195201Y-152195201D02*
X299250000Y-151250000D01*
X296150000Y-151250000D02*
X289450000Y-157950000D01*
X299250000Y-151250000D02*
X297750000Y-151250000D01*
X300195201Y-152903690D02*
X300195201Y-152195201D01*
X297750000Y-151250000D02*
X296150000Y-151250000D01*
X300179637Y-152919255D02*
X300195201Y-152903690D01*
%TO.N,Net-(J27-Pin_1)*%
X253175000Y-140909290D02*
X253175000Y-139800000D01*
X259565710Y-147300000D02*
X253175000Y-140909290D01*
X320350000Y-202700000D02*
X320350000Y-194984290D01*
X320350000Y-194984290D02*
X272665710Y-147300000D01*
X272665710Y-147300000D02*
X259565710Y-147300000D01*
%TO.N,VALVE1_VSENSE_P*%
D34*
X129200000Y-73575000D02*
X130400000Y-74775000D01*
X121950000Y-56150000D02*
X129200000Y-63400000D01*
X129200000Y-63400000D02*
X129200000Y-73575000D01*
%TO.N,VALVE6_VSENSE_P*%
X330400000Y-73640000D02*
X330400000Y-62465000D01*
X330400000Y-62465000D02*
X323810000Y-55875000D01*
X332260000Y-75500000D02*
X330400000Y-73640000D01*
%TO.N,VALVE2_VSENSE_P*%
X164500000Y-64052500D02*
X156377500Y-55930000D01*
X164500000Y-75422500D02*
X164500000Y-64052500D01*
X164827500Y-75750000D02*
X164500000Y-75422500D01*
%TO.N,/Valves/12V_main/SYNCIN*%
D33*
X298322475Y-151843700D02*
X297756300Y-151843700D01*
X291550000Y-158050000D02*
X291550000Y-161700000D01*
X297756300Y-151843700D02*
X291550000Y-158050000D01*
%TO.N,VALVE1_VSENSE_N*%
D34*
X128800000Y-77125000D02*
X130375000Y-78700000D01*
X128800000Y-63850000D02*
X128800000Y-77125000D01*
X117750000Y-56150000D02*
X120325000Y-58725000D01*
X120325000Y-58725000D02*
X123675000Y-58725000D01*
X123675000Y-58725000D02*
X128800000Y-63850000D01*
%TO.N,/System Power/LSW 3V3/EN_UVLO*%
D33*
X225350000Y-171650000D02*
X226650000Y-170350000D01*
X226650000Y-175900000D02*
X225350000Y-174600000D01*
X225350000Y-174600000D02*
X225350000Y-171650000D01*
%TO.N,VALVE4_VSENSE_P*%
D34*
X247822500Y-74950000D02*
X247822500Y-63655000D01*
X248272500Y-75400000D02*
X247822500Y-74950000D01*
X247822500Y-63655000D02*
X239822500Y-55655000D01*
%TO.N,/Connectors/PIN5*%
X168900000Y-186850000D02*
X167700000Y-188050000D01*
X168900000Y-182350000D02*
X168900000Y-186850000D01*
%TO.N,/Connectors/PIN8*%
X168000000Y-186650000D02*
X166550000Y-188100000D01*
X168000000Y-183150000D02*
X168000000Y-186650000D01*
X167200000Y-182350000D02*
X168000000Y-183150000D01*
%TO.N,/Connectors/PIN9*%
X165500000Y-187100000D02*
X165500000Y-182350000D01*
X165000000Y-187600000D02*
X165500000Y-187100000D01*
X165000000Y-187650000D02*
X165000000Y-187600000D01*
%TO.N,/Connectors/PIN12*%
X163800000Y-187700000D02*
X164200000Y-188100000D01*
X163800000Y-182300000D02*
X163800000Y-187700000D01*
%TO.N,/Connectors/PIN13*%
X157400000Y-187500000D02*
X157000000Y-187900000D01*
X157400000Y-182300000D02*
X157400000Y-187500000D01*
%TO.N,/Connectors/PIN16*%
X155500000Y-182300000D02*
X156000000Y-182800000D01*
X156000000Y-182800000D02*
X156000000Y-187400000D01*
X156000000Y-187400000D02*
X155500000Y-187900000D01*
%TO.N,/Connectors/PIN17*%
X153600000Y-187450000D02*
X154100000Y-187950000D01*
X153600000Y-182300000D02*
X153600000Y-187450000D01*
%TO.N,/Connectors/PIN20*%
X151700000Y-182300000D02*
X151700000Y-186650000D01*
X151700000Y-186650000D02*
X153000000Y-187950000D01*
%TO.N,/Valves/12V_main/VCC*%
D33*
X301550000Y-151450000D02*
X301000000Y-150900000D01*
X307500000Y-151450000D02*
X301550000Y-151450000D01*
%TO.N,/Valves/12V_main/BST*%
D36*
X310580000Y-158220000D02*
X311760000Y-157040000D01*
X309100000Y-158220000D02*
X310580000Y-158220000D01*
X311760000Y-157040000D02*
X311760000Y-156270000D01*
%TO.N,VALVE4.LSW_LATCH*%
D34*
X158000007Y-142194119D02*
X183844117Y-116350002D01*
X218431366Y-116349988D02*
X183844117Y-116350002D01*
X158004800Y-147200000D02*
X158000000Y-147195200D01*
X218431366Y-116349988D02*
X240031372Y-94750000D01*
X158000007Y-142194119D02*
X158000000Y-147195200D01*
X240031372Y-94750000D02*
X250700000Y-94750000D01*
%TO.N,EFUSE_PG*%
D33*
X270000000Y-143900000D02*
X270000000Y-141350000D01*
X270000000Y-141350000D02*
X267350000Y-138700000D01*
X260700000Y-138700000D02*
X252500000Y-130500000D01*
X216350000Y-150250000D02*
X196250000Y-150250000D01*
X196250000Y-150250000D02*
X190500000Y-156000000D01*
X190500000Y-156000000D02*
X173300000Y-156000000D01*
X267350000Y-138700000D02*
X260700000Y-138700000D01*
X236100000Y-130500000D02*
X216350000Y-150250000D01*
X252500000Y-130500000D02*
X236100000Y-130500000D01*
%TO.N,VALVE6.LSW_SEL1*%
X156349999Y-157599987D02*
X156350000Y-161650000D01*
X162438897Y-151511086D02*
X156349999Y-157599987D01*
X187199993Y-121450013D02*
X162438899Y-146211087D01*
X252542575Y-102588893D02*
X233681455Y-121450013D01*
X301211107Y-102588893D02*
X252542575Y-102588893D01*
X162438899Y-146211087D02*
X162438897Y-151511086D01*
%TO.N,VALVE6.LSW_SEL2*%
X156949996Y-157534276D02*
X156950000Y-162300000D01*
X162816701Y-151667578D02*
X156949996Y-157534276D01*
X187356485Y-121827817D02*
X162816696Y-146367576D01*
X233853655Y-121827817D02*
X187356485Y-121827817D01*
%TO.N,VALVE6.LSW_DIA_EN*%
X163194502Y-146555501D02*
X163194505Y-151824070D01*
X187500003Y-122250008D02*
X163194502Y-146555501D01*
X302800013Y-103349987D02*
X252865782Y-103349987D01*
%TO.N,VALVE6.~{LSW_ST}*%
X163572309Y-151980562D02*
X158171942Y-157380899D01*
X163572299Y-146711989D02*
X163572309Y-151980562D01*
%TO.N,VALVE6.LSW_SEL2*%
X301933310Y-102966690D02*
X252714782Y-102966690D01*
%TO.N,VALVE6.~{LSW_ST}*%
X187634295Y-122650013D02*
X163572299Y-146711989D01*
X234100051Y-122650013D02*
X187634295Y-122650013D01*
X253022279Y-103727785D02*
X234100051Y-122650013D01*
%TO.N,VALVE6.LSW_SEL1*%
X308350000Y-95450000D02*
X301211107Y-102588893D01*
%TO.N,VALVE6.LSW_DIA_EN*%
X310750000Y-95400000D02*
X302800013Y-103349987D01*
%TO.N,VALVE6.~{LSW_ST}*%
X303372226Y-103727785D02*
X253022279Y-103727785D01*
X311650003Y-95450008D02*
X303372226Y-103727785D01*
X328550000Y-95450000D02*
X311650003Y-95450008D01*
X333950000Y-90050000D02*
X328550000Y-95450000D01*
%TO.N,VALVE6.LSW_SEL2*%
X162816696Y-146367576D02*
X162816701Y-151667578D01*
%TO.N,VALVE6_HSS_EN*%
D34*
X158850016Y-157252852D02*
X158850000Y-161700000D01*
X163961196Y-146873076D02*
X163961214Y-152141652D01*
%TO.N,VALVE6.LSW_DIA_EN*%
D33*
X157550022Y-157468577D02*
X157550000Y-161700000D01*
%TO.N,VALVE6_HSS_EN*%
D34*
X187795385Y-123038917D02*
X163961196Y-146873076D01*
X234261083Y-123038917D02*
X187795385Y-123038917D01*
%TO.N,VALVE6.LSW_DIA_EN*%
D33*
X252865782Y-103349987D02*
X233965761Y-122250008D01*
%TO.N,VALVE6_HSS_EN*%
D34*
X163961214Y-152141652D02*
X158850016Y-157252852D01*
X303533325Y-104116681D02*
X253183319Y-104116681D01*
X311811093Y-95838913D02*
X303533325Y-104116681D01*
X328711100Y-95838900D02*
X311811093Y-95838913D01*
%TO.N,VALVE6.LSW_DIA_EN*%
D33*
X233965761Y-122250008D02*
X187500003Y-122250008D01*
%TO.N,VALVE6_HSS_EN*%
D34*
X333475000Y-91075000D02*
X328711100Y-95838900D01*
%TO.N,VALVE6.~{LSW_ST}*%
D33*
X158171942Y-157380899D02*
X158171954Y-162218295D01*
%TO.N,VALVE6_HSS_EN*%
D34*
X336160000Y-91075000D02*
X333475000Y-91075000D01*
%TO.N,VALVE6.LSW_SEL1*%
D33*
X233681455Y-121450013D02*
X187199993Y-121450013D01*
%TO.N,VALVE6.LSW_LATCH*%
X159500002Y-160900001D02*
X159500000Y-162250000D01*
X161599992Y-158799996D02*
X159500002Y-160900001D01*
X161600012Y-155052839D02*
X161599992Y-158799996D01*
%TO.N,VALVE6.LSW_SEL2*%
X309500000Y-95400000D02*
X301933310Y-102966690D01*
%TO.N,VALVE6.LSW_LATCH*%
X164350119Y-152302742D02*
X161600012Y-155052839D01*
X234400013Y-123449981D02*
X187934258Y-123449981D01*
X187934258Y-123449981D02*
X164350122Y-147034175D01*
X253344417Y-104505577D02*
X234400013Y-123449981D01*
%TO.N,VALVE6.LSW_SEL2*%
X252714782Y-102966690D02*
X233853655Y-121827817D01*
%TO.N,VALVE6.LSW_LATCH*%
X311950003Y-96250008D02*
X303694434Y-104505577D01*
%TO.N,VALVE6.LSW_DIA_EN*%
X163194505Y-151824070D02*
X157550022Y-157468577D01*
%TO.N,VALVE6.LSW_LATCH*%
X303694434Y-104505577D02*
X253344417Y-104505577D01*
X332200000Y-96250000D02*
X311950003Y-96250008D01*
%TO.N,VALVE6_HSS_EN*%
D34*
X253183319Y-104116681D02*
X234261083Y-123038917D01*
%TO.N,VALVE6.LSW_LATCH*%
D33*
X334100000Y-94350000D02*
X332200000Y-96250000D01*
X164350122Y-147034175D02*
X164350119Y-152302742D01*
%TD*%
M02*
