%TF.GenerationSoftware,KiCad,Pcbnew,10.0.5*%
%TF.CreationDate,2026-09-12T21:52:26-07:00*%
%TF.ProjectId,valve_control_pcb,76616c76-655f-4636-9f6e-74726f6c5f70,rev?*%
%TF.SameCoordinates,Original*%
%TF.FileFunction,Paste,Top*%
%TF.FilePolarity,Positive*%
%FSLAX46Y46*%
G04 Gerber Fmt 4.6, Leading zero omitted, Abs format (unit mm)*
G04 Created by KiCad (PCBNEW 10.0.5) date 2026-09-12 21:52:26*
%MOMM*%
%LPD*%
G01*
G04 APERTURE LIST*
G04 Aperture macros list*
%AMRoundRect*
0 Rectangle with rounded corners*
0 $1 Rounding radius*
0 $2 $3 $4 $5 $6 $7 $8 $9 X,Y pos of 4 corners*
0 Add a 4 corners polygon primitive as box body*
4,1,4,$2,$3,$4,$5,$6,$7,$8,$9,$2,$3,0*
0 Add four circle primitives for the rounded corners*
1,1,$1+$1,$2,$3*
1,1,$1+$1,$4,$5*
1,1,$1+$1,$6,$7*
1,1,$1+$1,$8,$9*
0 Add four rect primitives between the rounded corners*
20,1,$1+$1,$2,$3,$4,$5,0*
20,1,$1+$1,$4,$5,$6,$7,0*
20,1,$1+$1,$6,$7,$8,$9,0*
20,1,$1+$1,$8,$9,$2,$3,0*%
G04 Aperture macros list end*
%ADD10C,0.000000*%
%ADD11C,0.010000*%
%ADD12RoundRect,0.140000X-0.140000X-0.170000X0.140000X-0.170000X0.140000X0.170000X-0.140000X0.170000X0*%
%ADD13RoundRect,0.200000X-0.275000X0.200000X-0.275000X-0.200000X0.275000X-0.200000X0.275000X0.200000X0*%
%ADD14R,1.500000X1.500000*%
%ADD15R,0.300000X1.150000*%
%ADD16R,0.600000X1.150000*%
%ADD17RoundRect,0.062500X-0.062500X0.237500X-0.062500X-0.237500X0.062500X-0.237500X0.062500X0.237500X0*%
%ADD18RoundRect,0.160000X-0.160000X0.205000X-0.160000X-0.205000X0.160000X-0.205000X0.160000X0.205000X0*%
%ADD19RoundRect,0.125000X0.200000X0.125000X-0.200000X0.125000X-0.200000X-0.125000X0.200000X-0.125000X0*%
%ADD20RoundRect,0.250000X0.435000X0.615000X-0.435000X0.615000X-0.435000X-0.615000X0.435000X-0.615000X0*%
%ADD21RoundRect,0.250000X0.475000X-0.250000X0.475000X0.250000X-0.475000X0.250000X-0.475000X-0.250000X0*%
%ADD22RoundRect,0.250000X-0.475000X0.250000X-0.475000X-0.250000X0.475000X-0.250000X0.475000X0.250000X0*%
%ADD23RoundRect,0.250000X-0.250000X-0.475000X0.250000X-0.475000X0.250000X0.475000X-0.250000X0.475000X0*%
%ADD24RoundRect,0.250000X0.250000X0.475000X-0.250000X0.475000X-0.250000X-0.475000X0.250000X-0.475000X0*%
%ADD25RoundRect,0.225000X-0.225000X-0.250000X0.225000X-0.250000X0.225000X0.250000X-0.225000X0.250000X0*%
%ADD26RoundRect,0.225000X-0.250000X0.225000X-0.250000X-0.225000X0.250000X-0.225000X0.250000X0.225000X0*%
%ADD27RoundRect,0.225000X0.225000X0.250000X-0.225000X0.250000X-0.225000X-0.250000X0.225000X-0.250000X0*%
%ADD28RoundRect,0.225000X0.250000X-0.225000X0.250000X0.225000X-0.250000X0.225000X-0.250000X-0.225000X0*%
%ADD29RoundRect,0.200000X0.275000X-0.200000X0.275000X0.200000X-0.275000X0.200000X-0.275000X-0.200000X0*%
%ADD30RoundRect,0.140000X0.140000X0.170000X-0.140000X0.170000X-0.140000X-0.170000X0.140000X-0.170000X0*%
%ADD31RoundRect,0.140000X0.170000X-0.140000X0.170000X0.140000X-0.170000X0.140000X-0.170000X-0.140000X0*%
%ADD32RoundRect,0.140000X-0.170000X0.140000X-0.170000X-0.140000X0.170000X-0.140000X0.170000X0.140000X0*%
%ADD33RoundRect,0.140000X0.021213X-0.219203X0.219203X-0.021213X-0.021213X0.219203X-0.219203X0.021213X0*%
%ADD34RoundRect,0.140000X0.219203X0.021213X0.021213X0.219203X-0.219203X-0.021213X-0.021213X-0.219203X0*%
%ADD35RoundRect,0.140000X-0.219203X-0.021213X-0.021213X-0.219203X0.219203X0.021213X0.021213X0.219203X0*%
%ADD36R,1.270000X0.610000*%
%ADD37R,3.810000X3.910000*%
%ADD38R,1.020000X0.610000*%
%ADD39R,0.610000X1.270000*%
%ADD40R,3.910000X3.810000*%
%ADD41R,0.610000X1.020000*%
%ADD42R,1.090000X1.830000*%
%ADD43RoundRect,0.054500X-0.490500X0.860500X-0.490500X-0.860500X0.490500X-0.860500X0.490500X0.860500X0*%
%ADD44RoundRect,0.135000X0.135000X0.185000X-0.135000X0.185000X-0.135000X-0.185000X0.135000X-0.185000X0*%
%ADD45RoundRect,0.200000X-0.200000X-0.275000X0.200000X-0.275000X0.200000X0.275000X-0.200000X0.275000X0*%
%ADD46RoundRect,0.200000X0.200000X0.275000X-0.200000X0.275000X-0.200000X-0.275000X0.200000X-0.275000X0*%
%ADD47RoundRect,0.250000X-1.000000X1.400000X-1.000000X-1.400000X1.000000X-1.400000X1.000000X1.400000X0*%
%ADD48RoundRect,0.250000X-0.700000X1.950000X-0.700000X-1.950000X0.700000X-1.950000X0.700000X1.950000X0*%
%ADD49RoundRect,0.250000X0.325000X0.650000X-0.325000X0.650000X-0.325000X-0.650000X0.325000X-0.650000X0*%
%ADD50RoundRect,0.075000X-0.662500X-0.075000X0.662500X-0.075000X0.662500X0.075000X-0.662500X0.075000X0*%
%ADD51RoundRect,0.075000X-0.075000X-0.662500X0.075000X-0.662500X0.075000X0.662500X-0.075000X0.662500X0*%
%ADD52RoundRect,0.218750X0.256250X-0.218750X0.256250X0.218750X-0.256250X0.218750X-0.256250X-0.218750X0*%
%ADD53RoundRect,0.218750X-0.256250X0.218750X-0.256250X-0.218750X0.256250X-0.218750X0.256250X0.218750X0*%
%ADD54R,0.700000X1.200000*%
%ADD55R,1.000000X0.800000*%
%ADD56R,1.000000X1.200000*%
%ADD57R,1.000000X2.800000*%
%ADD58R,1.300000X1.900000*%
%ADD59RoundRect,0.135000X0.185000X-0.135000X0.185000X0.135000X-0.185000X0.135000X-0.185000X-0.135000X0*%
%ADD60RoundRect,0.135000X-0.185000X0.135000X-0.185000X-0.135000X0.185000X-0.135000X0.185000X0.135000X0*%
%ADD61R,1.409700X0.355600*%
%ADD62RoundRect,0.135000X-0.135000X-0.185000X0.135000X-0.185000X0.135000X0.185000X-0.135000X0.185000X0*%
%ADD63RoundRect,0.375000X-0.375000X0.625000X-0.375000X-0.625000X0.375000X-0.625000X0.375000X0.625000X0*%
%ADD64RoundRect,0.500000X-1.400000X0.500000X-1.400000X-0.500000X1.400000X-0.500000X1.400000X0.500000X0*%
%ADD65RoundRect,0.225000X0.375000X-0.225000X0.375000X0.225000X-0.375000X0.225000X-0.375000X-0.225000X0*%
%ADD66RoundRect,0.150000X0.150000X-0.587500X0.150000X0.587500X-0.150000X0.587500X-0.150000X-0.587500X0*%
%ADD67RoundRect,0.250000X-0.312500X-0.625000X0.312500X-0.625000X0.312500X0.625000X-0.312500X0.625000X0*%
%ADD68RoundRect,0.075000X-0.225000X0.955000X-0.225000X-0.955000X0.225000X-0.955000X0.225000X0.955000X0*%
%ADD69RoundRect,0.218750X-0.335876X-0.026517X-0.026517X-0.335876X0.335876X0.026517X0.026517X0.335876X0*%
%ADD70RoundRect,0.032500X-0.687500X-0.097500X0.687500X-0.097500X0.687500X0.097500X-0.687500X0.097500X0*%
%ADD71RoundRect,0.032500X-0.097500X-0.687500X0.097500X-0.687500X0.097500X0.687500X-0.097500X0.687500X0*%
%ADD72RoundRect,0.150000X-0.587500X-0.150000X0.587500X-0.150000X0.587500X0.150000X-0.587500X0.150000X0*%
%ADD73RoundRect,0.250000X-0.650000X0.325000X-0.650000X-0.325000X0.650000X-0.325000X0.650000X0.325000X0*%
%ADD74RoundRect,0.250000X-0.457500X-0.445000X0.457500X-0.445000X0.457500X0.445000X-0.457500X0.445000X0*%
%ADD75RoundRect,0.050400X-0.237100X-0.069600X0.237100X-0.069600X0.237100X0.069600X-0.237100X0.069600X0*%
%ADD76RoundRect,0.050400X-0.069600X-0.237100X0.069600X-0.237100X0.069600X0.237100X-0.069600X0.237100X0*%
%ADD77R,3.400000X1.300000*%
%ADD78RoundRect,0.250000X1.045000X-0.785000X1.045000X0.785000X-1.045000X0.785000X-1.045000X-0.785000X0*%
%ADD79R,0.228600X0.304800*%
%ADD80RoundRect,0.250000X-0.550000X1.500000X-0.550000X-1.500000X0.550000X-1.500000X0.550000X1.500000X0*%
%ADD81RoundRect,0.218750X0.218750X0.256250X-0.218750X0.256250X-0.218750X-0.256250X0.218750X-0.256250X0*%
%ADD82R,1.800000X1.000000*%
%ADD83RoundRect,0.250000X-0.275000X-0.250000X0.275000X-0.250000X0.275000X0.250000X-0.275000X0.250000X0*%
%ADD84RoundRect,0.250000X-0.850000X-0.275000X0.850000X-0.275000X0.850000X0.275000X-0.850000X0.275000X0*%
%ADD85RoundRect,0.250000X0.650000X-0.325000X0.650000X0.325000X-0.650000X0.325000X-0.650000X-0.325000X0*%
%ADD86RoundRect,0.050000X0.100000X-0.285000X0.100000X0.285000X-0.100000X0.285000X-0.100000X-0.285000X0*%
%ADD87RoundRect,0.250000X4.250000X-0.940000X4.250000X0.940000X-4.250000X0.940000X-4.250000X-0.940000X0*%
%ADD88RoundRect,0.250000X-0.445000X0.457500X-0.445000X-0.457500X0.445000X-0.457500X0.445000X0.457500X0*%
%ADD89RoundRect,0.150000X-0.150000X0.587500X-0.150000X-0.587500X0.150000X-0.587500X0.150000X0.587500X0*%
%ADD90RoundRect,0.200000X-0.800000X0.200000X-0.800000X-0.200000X0.800000X-0.200000X0.800000X0.200000X0*%
%ADD91RoundRect,0.150000X-0.512500X-0.150000X0.512500X-0.150000X0.512500X0.150000X-0.512500X0.150000X0*%
%ADD92RoundRect,0.162500X0.162500X-0.617500X0.162500X0.617500X-0.162500X0.617500X-0.162500X-0.617500X0*%
%ADD93RoundRect,0.150000X0.150000X-0.512500X0.150000X0.512500X-0.150000X0.512500X-0.150000X-0.512500X0*%
%ADD94RoundRect,0.250000X2.500000X-0.465000X2.500000X0.465000X-2.500000X0.465000X-2.500000X-0.465000X0*%
%ADD95RoundRect,0.375000X0.625000X0.375000X-0.625000X0.375000X-0.625000X-0.375000X0.625000X-0.375000X0*%
%ADD96RoundRect,0.500000X0.500000X1.400000X-0.500000X1.400000X-0.500000X-1.400000X0.500000X-1.400000X0*%
%ADD97RoundRect,0.150000X0.512500X0.150000X-0.512500X0.150000X-0.512500X-0.150000X0.512500X-0.150000X0*%
%ADD98RoundRect,0.250000X0.070711X0.565685X-0.565685X-0.070711X-0.070711X-0.565685X0.565685X0.070711X0*%
%ADD99RoundRect,0.050000X0.285000X0.100000X-0.285000X0.100000X-0.285000X-0.100000X0.285000X-0.100000X0*%
G04 APERTURE END LIST*
D10*
%TO.C,U5*%
G36*
X289221750Y-91439093D02*
G01*
X287897750Y-91439093D01*
X287897750Y-89949993D01*
X289221750Y-89949993D01*
X289221750Y-91439093D01*
G37*
G36*
X289221750Y-89749993D02*
G01*
X287897750Y-89749993D01*
X287897750Y-88260893D01*
X289221750Y-88260893D01*
X289221750Y-89749993D01*
G37*
G36*
X287697750Y-91439093D02*
G01*
X286373750Y-91439093D01*
X286373750Y-89949993D01*
X287697750Y-89949993D01*
X287697750Y-91439093D01*
G37*
G36*
X287697750Y-89749993D02*
G01*
X286373750Y-89749993D01*
X286373750Y-88260893D01*
X287697750Y-88260893D01*
X287697750Y-89749993D01*
G37*
%TO.C,U4*%
G36*
X239649250Y-91219093D02*
G01*
X238325250Y-91219093D01*
X238325250Y-89729993D01*
X239649250Y-89729993D01*
X239649250Y-91219093D01*
G37*
G36*
X239649250Y-89529993D02*
G01*
X238325250Y-89529993D01*
X238325250Y-88040893D01*
X239649250Y-88040893D01*
X239649250Y-89529993D01*
G37*
G36*
X238125250Y-91219093D02*
G01*
X236801250Y-91219093D01*
X236801250Y-89729993D01*
X238125250Y-89729993D01*
X238125250Y-91219093D01*
G37*
G36*
X238125250Y-89529993D02*
G01*
X236801250Y-89529993D01*
X236801250Y-88040893D01*
X238125250Y-88040893D01*
X238125250Y-89529993D01*
G37*
%TO.C,U3*%
G36*
X205221750Y-91439093D02*
G01*
X203897750Y-91439093D01*
X203897750Y-89949993D01*
X205221750Y-89949993D01*
X205221750Y-91439093D01*
G37*
G36*
X205221750Y-89749993D02*
G01*
X203897750Y-89749993D01*
X203897750Y-88260893D01*
X205221750Y-88260893D01*
X205221750Y-89749993D01*
G37*
G36*
X203697750Y-91439093D02*
G01*
X202373750Y-91439093D01*
X202373750Y-89949993D01*
X203697750Y-89949993D01*
X203697750Y-91439093D01*
G37*
G36*
X203697750Y-89749993D02*
G01*
X202373750Y-89749993D01*
X202373750Y-88260893D01*
X203697750Y-88260893D01*
X203697750Y-89749993D01*
G37*
D11*
%TO.C,U26*%
X264074500Y-139675000D02*
X265162500Y-139675000D01*
X265165500Y-139675000D01*
X265167500Y-139675000D01*
X265170500Y-139676000D01*
X265172500Y-139676000D01*
X265175500Y-139677000D01*
X265177500Y-139677000D01*
X265180500Y-139678000D01*
X265182500Y-139679000D01*
X265185500Y-139680000D01*
X265187500Y-139682000D01*
X265189500Y-139683000D01*
X265191500Y-139685000D01*
X265193500Y-139686000D01*
X265195500Y-139688000D01*
X265197500Y-139690000D01*
X265199500Y-139692000D01*
X265201500Y-139694000D01*
X265202500Y-139696000D01*
X265204500Y-139698000D01*
X265205500Y-139700000D01*
X265207500Y-139702000D01*
X265208500Y-139705000D01*
X265209500Y-139707000D01*
X265210500Y-139710000D01*
X265210500Y-139712000D01*
X265211500Y-139715000D01*
X265211500Y-139717000D01*
X265212500Y-139720000D01*
X265212500Y-139722000D01*
X265212500Y-139725000D01*
X265212500Y-140925000D01*
X265212500Y-140928000D01*
X265212500Y-140930000D01*
X265211500Y-140933000D01*
X265211500Y-140935000D01*
X265210500Y-140938000D01*
X265210500Y-140940000D01*
X265209500Y-140943000D01*
X265208500Y-140945000D01*
X265207500Y-140948000D01*
X265205500Y-140950000D01*
X265204500Y-140952000D01*
X265202500Y-140954000D01*
X265201500Y-140956000D01*
X265199500Y-140958000D01*
X265197500Y-140960000D01*
X265195500Y-140962000D01*
X265193500Y-140964000D01*
X265191500Y-140965000D01*
X265189500Y-140967000D01*
X265187500Y-140968000D01*
X265185500Y-140970000D01*
X265182500Y-140971000D01*
X265180500Y-140972000D01*
X265177500Y-140973000D01*
X265175500Y-140973000D01*
X265172500Y-140974000D01*
X265170500Y-140974000D01*
X265167500Y-140975000D01*
X265165500Y-140975000D01*
X265162500Y-140975000D01*
X264074500Y-140975000D01*
X264071500Y-140975000D01*
X264069500Y-140975000D01*
X264066500Y-140974000D01*
X264064500Y-140974000D01*
X264061500Y-140973000D01*
X264059500Y-140973000D01*
X264056500Y-140972000D01*
X264054500Y-140971000D01*
X264051500Y-140970000D01*
X264049500Y-140968000D01*
X264047500Y-140967000D01*
X264045500Y-140965000D01*
X264043500Y-140964000D01*
X264041500Y-140962000D01*
X264039500Y-140960000D01*
X264037500Y-140958000D01*
X264035500Y-140956000D01*
X264034500Y-140954000D01*
X264032500Y-140952000D01*
X264031500Y-140950000D01*
X264029500Y-140948000D01*
X264028500Y-140945000D01*
X264027500Y-140943000D01*
X264026500Y-140940000D01*
X264026500Y-140938000D01*
X264025500Y-140935000D01*
X264025500Y-140933000D01*
X264024500Y-140930000D01*
X264024500Y-140928000D01*
X264024500Y-140925000D01*
X264024500Y-139725000D01*
X264024500Y-139722000D01*
X264024500Y-139720000D01*
X264025500Y-139717000D01*
X264025500Y-139715000D01*
X264026500Y-139712000D01*
X264026500Y-139710000D01*
X264027500Y-139707000D01*
X264028500Y-139705000D01*
X264029500Y-139702000D01*
X264031500Y-139700000D01*
X264032500Y-139698000D01*
X264034500Y-139696000D01*
X264035500Y-139694000D01*
X264037500Y-139692000D01*
X264039500Y-139690000D01*
X264041500Y-139688000D01*
X264043500Y-139686000D01*
X264045500Y-139685000D01*
X264047500Y-139683000D01*
X264049500Y-139682000D01*
X264051500Y-139680000D01*
X264054500Y-139679000D01*
X264056500Y-139678000D01*
X264059500Y-139677000D01*
X264061500Y-139677000D01*
X264064500Y-139676000D01*
X264066500Y-139676000D01*
X264069500Y-139675000D01*
X264071500Y-139675000D01*
X264074500Y-139675000D01*
G36*
X265170500Y-139676000D02*
G01*
X265172500Y-139676000D01*
X265175500Y-139677000D01*
X265177500Y-139677000D01*
X265180500Y-139678000D01*
X265182500Y-139679000D01*
X265185500Y-139680000D01*
X265187500Y-139682000D01*
X265189500Y-139683000D01*
X265191500Y-139685000D01*
X265193500Y-139686000D01*
X265195500Y-139688000D01*
X265197500Y-139690000D01*
X265199500Y-139692000D01*
X265201500Y-139694000D01*
X265202500Y-139696000D01*
X265204500Y-139698000D01*
X265205500Y-139700000D01*
X265207500Y-139702000D01*
X265208500Y-139705000D01*
X265209500Y-139707000D01*
X265210500Y-139710000D01*
X265210500Y-139712000D01*
X265211500Y-139715000D01*
X265211500Y-139717000D01*
X265212500Y-139720000D01*
X265212500Y-139722000D01*
X265212500Y-139725000D01*
X265212500Y-140925000D01*
X265212500Y-140928000D01*
X265212500Y-140930000D01*
X265211500Y-140933000D01*
X265211500Y-140935000D01*
X265210500Y-140938000D01*
X265210500Y-140940000D01*
X265209500Y-140943000D01*
X265208500Y-140945000D01*
X265207500Y-140948000D01*
X265205500Y-140950000D01*
X265204500Y-140952000D01*
X265202500Y-140954000D01*
X265201500Y-140956000D01*
X265199500Y-140958000D01*
X265197500Y-140960000D01*
X265195500Y-140962000D01*
X265193500Y-140964000D01*
X265191500Y-140965000D01*
X265189500Y-140967000D01*
X265187500Y-140968000D01*
X265185500Y-140970000D01*
X265182500Y-140971000D01*
X265180500Y-140972000D01*
X265177500Y-140973000D01*
X265175500Y-140973000D01*
X265172500Y-140974000D01*
X265170500Y-140974000D01*
X265167500Y-140975000D01*
X265165500Y-140975000D01*
X265162500Y-140975000D01*
X264074500Y-140975000D01*
X264071500Y-140975000D01*
X264069500Y-140975000D01*
X264066500Y-140974000D01*
X264064500Y-140974000D01*
X264061500Y-140973000D01*
X264059500Y-140973000D01*
X264056500Y-140972000D01*
X264054500Y-140971000D01*
X264051500Y-140970000D01*
X264049500Y-140968000D01*
X264047500Y-140967000D01*
X264045500Y-140965000D01*
X264043500Y-140964000D01*
X264041500Y-140962000D01*
X264039500Y-140960000D01*
X264037500Y-140958000D01*
X264035500Y-140956000D01*
X264034500Y-140954000D01*
X264032500Y-140952000D01*
X264031500Y-140950000D01*
X264029500Y-140948000D01*
X264028500Y-140945000D01*
X264027500Y-140943000D01*
X264026500Y-140940000D01*
X264026500Y-140938000D01*
X264025500Y-140935000D01*
X264025500Y-140933000D01*
X264024500Y-140930000D01*
X264024500Y-140928000D01*
X264024500Y-140925000D01*
X264024500Y-139725000D01*
X264024500Y-139722000D01*
X264024500Y-139720000D01*
X264025500Y-139717000D01*
X264025500Y-139715000D01*
X264026500Y-139712000D01*
X264026500Y-139710000D01*
X264027500Y-139707000D01*
X264028500Y-139705000D01*
X264029500Y-139702000D01*
X264031500Y-139700000D01*
X264032500Y-139698000D01*
X264034500Y-139696000D01*
X264035500Y-139694000D01*
X264037500Y-139692000D01*
X264039500Y-139690000D01*
X264041500Y-139688000D01*
X264043500Y-139686000D01*
X264045500Y-139685000D01*
X264047500Y-139683000D01*
X264049500Y-139682000D01*
X264051500Y-139680000D01*
X264054500Y-139679000D01*
X264056500Y-139678000D01*
X264059500Y-139677000D01*
X264061500Y-139677000D01*
X264064500Y-139676000D01*
X264066500Y-139676000D01*
X264069500Y-139675000D01*
X264071500Y-139675000D01*
X264074500Y-139675000D01*
X265162500Y-139675000D01*
X265165500Y-139675000D01*
X265167500Y-139675000D01*
X265170500Y-139676000D01*
G37*
X264074500Y-141495000D02*
X265162500Y-141495000D01*
X265165500Y-141495000D01*
X265167500Y-141495000D01*
X265170500Y-141496000D01*
X265172500Y-141496000D01*
X265175500Y-141497000D01*
X265177500Y-141497000D01*
X265180500Y-141498000D01*
X265182500Y-141499000D01*
X265185500Y-141500000D01*
X265187500Y-141502000D01*
X265189500Y-141503000D01*
X265191500Y-141505000D01*
X265193500Y-141506000D01*
X265195500Y-141508000D01*
X265197500Y-141510000D01*
X265199500Y-141512000D01*
X265201500Y-141514000D01*
X265202500Y-141516000D01*
X265204500Y-141518000D01*
X265205500Y-141520000D01*
X265207500Y-141522000D01*
X265208500Y-141525000D01*
X265209500Y-141527000D01*
X265210500Y-141530000D01*
X265210500Y-141532000D01*
X265211500Y-141535000D01*
X265211500Y-141537000D01*
X265212500Y-141540000D01*
X265212500Y-141542000D01*
X265212500Y-141545000D01*
X265212500Y-142205000D01*
X265212500Y-142208000D01*
X265212500Y-142210000D01*
X265211500Y-142213000D01*
X265211500Y-142215000D01*
X265210500Y-142218000D01*
X265210500Y-142220000D01*
X265209500Y-142223000D01*
X265208500Y-142225000D01*
X265207500Y-142228000D01*
X265205500Y-142230000D01*
X265204500Y-142232000D01*
X265202500Y-142234000D01*
X265201500Y-142236000D01*
X265199500Y-142238000D01*
X265197500Y-142240000D01*
X265195500Y-142242000D01*
X265193500Y-142244000D01*
X265191500Y-142245000D01*
X265189500Y-142247000D01*
X265187500Y-142248000D01*
X265185500Y-142250000D01*
X265182500Y-142251000D01*
X265180500Y-142252000D01*
X265177500Y-142253000D01*
X265175500Y-142253000D01*
X265172500Y-142254000D01*
X265170500Y-142254000D01*
X265167500Y-142255000D01*
X265165500Y-142255000D01*
X265162500Y-142255000D01*
X264074500Y-142255000D01*
X264071500Y-142255000D01*
X264069500Y-142255000D01*
X264066500Y-142254000D01*
X264064500Y-142254000D01*
X264061500Y-142253000D01*
X264059500Y-142253000D01*
X264056500Y-142252000D01*
X264054500Y-142251000D01*
X264051500Y-142250000D01*
X264049500Y-142248000D01*
X264047500Y-142247000D01*
X264045500Y-142245000D01*
X264043500Y-142244000D01*
X264041500Y-142242000D01*
X264039500Y-142240000D01*
X264037500Y-142238000D01*
X264035500Y-142236000D01*
X264034500Y-142234000D01*
X264032500Y-142232000D01*
X264031500Y-142230000D01*
X264029500Y-142228000D01*
X264028500Y-142225000D01*
X264027500Y-142223000D01*
X264026500Y-142220000D01*
X264026500Y-142218000D01*
X264025500Y-142215000D01*
X264025500Y-142213000D01*
X264024500Y-142210000D01*
X264024500Y-142208000D01*
X264024500Y-142205000D01*
X264024500Y-141545000D01*
X264024500Y-141542000D01*
X264024500Y-141540000D01*
X264025500Y-141537000D01*
X264025500Y-141535000D01*
X264026500Y-141532000D01*
X264026500Y-141530000D01*
X264027500Y-141527000D01*
X264028500Y-141525000D01*
X264029500Y-141522000D01*
X264031500Y-141520000D01*
X264032500Y-141518000D01*
X264034500Y-141516000D01*
X264035500Y-141514000D01*
X264037500Y-141512000D01*
X264039500Y-141510000D01*
X264041500Y-141508000D01*
X264043500Y-141506000D01*
X264045500Y-141505000D01*
X264047500Y-141503000D01*
X264049500Y-141502000D01*
X264051500Y-141500000D01*
X264054500Y-141499000D01*
X264056500Y-141498000D01*
X264059500Y-141497000D01*
X264061500Y-141497000D01*
X264064500Y-141496000D01*
X264066500Y-141496000D01*
X264069500Y-141495000D01*
X264071500Y-141495000D01*
X264074500Y-141495000D01*
G36*
X265170500Y-141496000D02*
G01*
X265172500Y-141496000D01*
X265175500Y-141497000D01*
X265177500Y-141497000D01*
X265180500Y-141498000D01*
X265182500Y-141499000D01*
X265185500Y-141500000D01*
X265187500Y-141502000D01*
X265189500Y-141503000D01*
X265191500Y-141505000D01*
X265193500Y-141506000D01*
X265195500Y-141508000D01*
X265197500Y-141510000D01*
X265199500Y-141512000D01*
X265201500Y-141514000D01*
X265202500Y-141516000D01*
X265204500Y-141518000D01*
X265205500Y-141520000D01*
X265207500Y-141522000D01*
X265208500Y-141525000D01*
X265209500Y-141527000D01*
X265210500Y-141530000D01*
X265210500Y-141532000D01*
X265211500Y-141535000D01*
X265211500Y-141537000D01*
X265212500Y-141540000D01*
X265212500Y-141542000D01*
X265212500Y-141545000D01*
X265212500Y-142205000D01*
X265212500Y-142208000D01*
X265212500Y-142210000D01*
X265211500Y-142213000D01*
X265211500Y-142215000D01*
X265210500Y-142218000D01*
X265210500Y-142220000D01*
X265209500Y-142223000D01*
X265208500Y-142225000D01*
X265207500Y-142228000D01*
X265205500Y-142230000D01*
X265204500Y-142232000D01*
X265202500Y-142234000D01*
X265201500Y-142236000D01*
X265199500Y-142238000D01*
X265197500Y-142240000D01*
X265195500Y-142242000D01*
X265193500Y-142244000D01*
X265191500Y-142245000D01*
X265189500Y-142247000D01*
X265187500Y-142248000D01*
X265185500Y-142250000D01*
X265182500Y-142251000D01*
X265180500Y-142252000D01*
X265177500Y-142253000D01*
X265175500Y-142253000D01*
X265172500Y-142254000D01*
X265170500Y-142254000D01*
X265167500Y-142255000D01*
X265165500Y-142255000D01*
X265162500Y-142255000D01*
X264074500Y-142255000D01*
X264071500Y-142255000D01*
X264069500Y-142255000D01*
X264066500Y-142254000D01*
X264064500Y-142254000D01*
X264061500Y-142253000D01*
X264059500Y-142253000D01*
X264056500Y-142252000D01*
X264054500Y-142251000D01*
X264051500Y-142250000D01*
X264049500Y-142248000D01*
X264047500Y-142247000D01*
X264045500Y-142245000D01*
X264043500Y-142244000D01*
X264041500Y-142242000D01*
X264039500Y-142240000D01*
X264037500Y-142238000D01*
X264035500Y-142236000D01*
X264034500Y-142234000D01*
X264032500Y-142232000D01*
X264031500Y-142230000D01*
X264029500Y-142228000D01*
X264028500Y-142225000D01*
X264027500Y-142223000D01*
X264026500Y-142220000D01*
X264026500Y-142218000D01*
X264025500Y-142215000D01*
X264025500Y-142213000D01*
X264024500Y-142210000D01*
X264024500Y-142208000D01*
X264024500Y-142205000D01*
X264024500Y-141545000D01*
X264024500Y-141542000D01*
X264024500Y-141540000D01*
X264025500Y-141537000D01*
X264025500Y-141535000D01*
X264026500Y-141532000D01*
X264026500Y-141530000D01*
X264027500Y-141527000D01*
X264028500Y-141525000D01*
X264029500Y-141522000D01*
X264031500Y-141520000D01*
X264032500Y-141518000D01*
X264034500Y-141516000D01*
X264035500Y-141514000D01*
X264037500Y-141512000D01*
X264039500Y-141510000D01*
X264041500Y-141508000D01*
X264043500Y-141506000D01*
X264045500Y-141505000D01*
X264047500Y-141503000D01*
X264049500Y-141502000D01*
X264051500Y-141500000D01*
X264054500Y-141499000D01*
X264056500Y-141498000D01*
X264059500Y-141497000D01*
X264061500Y-141497000D01*
X264064500Y-141496000D01*
X264066500Y-141496000D01*
X264069500Y-141495000D01*
X264071500Y-141495000D01*
X264074500Y-141495000D01*
X265162500Y-141495000D01*
X265165500Y-141495000D01*
X265167500Y-141495000D01*
X265170500Y-141496000D01*
G37*
X265462500Y-139675000D02*
X266550500Y-139675000D01*
X266553500Y-139675000D01*
X266555500Y-139675000D01*
X266558500Y-139676000D01*
X266560500Y-139676000D01*
X266563500Y-139677000D01*
X266565500Y-139677000D01*
X266568500Y-139678000D01*
X266570500Y-139679000D01*
X266573500Y-139680000D01*
X266575500Y-139682000D01*
X266577500Y-139683000D01*
X266579500Y-139685000D01*
X266581500Y-139686000D01*
X266583500Y-139688000D01*
X266585500Y-139690000D01*
X266587500Y-139692000D01*
X266589500Y-139694000D01*
X266590500Y-139696000D01*
X266592500Y-139698000D01*
X266593500Y-139700000D01*
X266595500Y-139702000D01*
X266596500Y-139705000D01*
X266597500Y-139707000D01*
X266598500Y-139710000D01*
X266598500Y-139712000D01*
X266599500Y-139715000D01*
X266599500Y-139717000D01*
X266600500Y-139720000D01*
X266600500Y-139722000D01*
X266600500Y-139725000D01*
X266600500Y-140925000D01*
X266600500Y-140928000D01*
X266600500Y-140930000D01*
X266599500Y-140933000D01*
X266599500Y-140935000D01*
X266598500Y-140938000D01*
X266598500Y-140940000D01*
X266597500Y-140943000D01*
X266596500Y-140945000D01*
X266595500Y-140948000D01*
X266593500Y-140950000D01*
X266592500Y-140952000D01*
X266590500Y-140954000D01*
X266589500Y-140956000D01*
X266587500Y-140958000D01*
X266585500Y-140960000D01*
X266583500Y-140962000D01*
X266581500Y-140964000D01*
X266579500Y-140965000D01*
X266577500Y-140967000D01*
X266575500Y-140968000D01*
X266573500Y-140970000D01*
X266570500Y-140971000D01*
X266568500Y-140972000D01*
X266565500Y-140973000D01*
X266563500Y-140973000D01*
X266560500Y-140974000D01*
X266558500Y-140974000D01*
X266555500Y-140975000D01*
X266553500Y-140975000D01*
X266550500Y-140975000D01*
X265462500Y-140975000D01*
X265459500Y-140975000D01*
X265457500Y-140975000D01*
X265454500Y-140974000D01*
X265452500Y-140974000D01*
X265449500Y-140973000D01*
X265447500Y-140973000D01*
X265444500Y-140972000D01*
X265442500Y-140971000D01*
X265439500Y-140970000D01*
X265437500Y-140968000D01*
X265435500Y-140967000D01*
X265433500Y-140965000D01*
X265431500Y-140964000D01*
X265429500Y-140962000D01*
X265427500Y-140960000D01*
X265425500Y-140958000D01*
X265423500Y-140956000D01*
X265422500Y-140954000D01*
X265420500Y-140952000D01*
X265419500Y-140950000D01*
X265417500Y-140948000D01*
X265416500Y-140945000D01*
X265415500Y-140943000D01*
X265414500Y-140940000D01*
X265414500Y-140938000D01*
X265413500Y-140935000D01*
X265413500Y-140933000D01*
X265412500Y-140930000D01*
X265412500Y-140928000D01*
X265412500Y-140925000D01*
X265412500Y-139725000D01*
X265412500Y-139722000D01*
X265412500Y-139720000D01*
X265413500Y-139717000D01*
X265413500Y-139715000D01*
X265414500Y-139712000D01*
X265414500Y-139710000D01*
X265415500Y-139707000D01*
X265416500Y-139705000D01*
X265417500Y-139702000D01*
X265419500Y-139700000D01*
X265420500Y-139698000D01*
X265422500Y-139696000D01*
X265423500Y-139694000D01*
X265425500Y-139692000D01*
X265427500Y-139690000D01*
X265429500Y-139688000D01*
X265431500Y-139686000D01*
X265433500Y-139685000D01*
X265435500Y-139683000D01*
X265437500Y-139682000D01*
X265439500Y-139680000D01*
X265442500Y-139679000D01*
X265444500Y-139678000D01*
X265447500Y-139677000D01*
X265449500Y-139677000D01*
X265452500Y-139676000D01*
X265454500Y-139676000D01*
X265457500Y-139675000D01*
X265459500Y-139675000D01*
X265462500Y-139675000D01*
G36*
X266558500Y-139676000D02*
G01*
X266560500Y-139676000D01*
X266563500Y-139677000D01*
X266565500Y-139677000D01*
X266568500Y-139678000D01*
X266570500Y-139679000D01*
X266573500Y-139680000D01*
X266575500Y-139682000D01*
X266577500Y-139683000D01*
X266579500Y-139685000D01*
X266581500Y-139686000D01*
X266583500Y-139688000D01*
X266585500Y-139690000D01*
X266587500Y-139692000D01*
X266589500Y-139694000D01*
X266590500Y-139696000D01*
X266592500Y-139698000D01*
X266593500Y-139700000D01*
X266595500Y-139702000D01*
X266596500Y-139705000D01*
X266597500Y-139707000D01*
X266598500Y-139710000D01*
X266598500Y-139712000D01*
X266599500Y-139715000D01*
X266599500Y-139717000D01*
X266600500Y-139720000D01*
X266600500Y-139722000D01*
X266600500Y-139725000D01*
X266600500Y-140925000D01*
X266600500Y-140928000D01*
X266600500Y-140930000D01*
X266599500Y-140933000D01*
X266599500Y-140935000D01*
X266598500Y-140938000D01*
X266598500Y-140940000D01*
X266597500Y-140943000D01*
X266596500Y-140945000D01*
X266595500Y-140948000D01*
X266593500Y-140950000D01*
X266592500Y-140952000D01*
X266590500Y-140954000D01*
X266589500Y-140956000D01*
X266587500Y-140958000D01*
X266585500Y-140960000D01*
X266583500Y-140962000D01*
X266581500Y-140964000D01*
X266579500Y-140965000D01*
X266577500Y-140967000D01*
X266575500Y-140968000D01*
X266573500Y-140970000D01*
X266570500Y-140971000D01*
X266568500Y-140972000D01*
X266565500Y-140973000D01*
X266563500Y-140973000D01*
X266560500Y-140974000D01*
X266558500Y-140974000D01*
X266555500Y-140975000D01*
X266553500Y-140975000D01*
X266550500Y-140975000D01*
X265462500Y-140975000D01*
X265459500Y-140975000D01*
X265457500Y-140975000D01*
X265454500Y-140974000D01*
X265452500Y-140974000D01*
X265449500Y-140973000D01*
X265447500Y-140973000D01*
X265444500Y-140972000D01*
X265442500Y-140971000D01*
X265439500Y-140970000D01*
X265437500Y-140968000D01*
X265435500Y-140967000D01*
X265433500Y-140965000D01*
X265431500Y-140964000D01*
X265429500Y-140962000D01*
X265427500Y-140960000D01*
X265425500Y-140958000D01*
X265423500Y-140956000D01*
X265422500Y-140954000D01*
X265420500Y-140952000D01*
X265419500Y-140950000D01*
X265417500Y-140948000D01*
X265416500Y-140945000D01*
X265415500Y-140943000D01*
X265414500Y-140940000D01*
X265414500Y-140938000D01*
X265413500Y-140935000D01*
X265413500Y-140933000D01*
X265412500Y-140930000D01*
X265412500Y-140928000D01*
X265412500Y-140925000D01*
X265412500Y-139725000D01*
X265412500Y-139722000D01*
X265412500Y-139720000D01*
X265413500Y-139717000D01*
X265413500Y-139715000D01*
X265414500Y-139712000D01*
X265414500Y-139710000D01*
X265415500Y-139707000D01*
X265416500Y-139705000D01*
X265417500Y-139702000D01*
X265419500Y-139700000D01*
X265420500Y-139698000D01*
X265422500Y-139696000D01*
X265423500Y-139694000D01*
X265425500Y-139692000D01*
X265427500Y-139690000D01*
X265429500Y-139688000D01*
X265431500Y-139686000D01*
X265433500Y-139685000D01*
X265435500Y-139683000D01*
X265437500Y-139682000D01*
X265439500Y-139680000D01*
X265442500Y-139679000D01*
X265444500Y-139678000D01*
X265447500Y-139677000D01*
X265449500Y-139677000D01*
X265452500Y-139676000D01*
X265454500Y-139676000D01*
X265457500Y-139675000D01*
X265459500Y-139675000D01*
X265462500Y-139675000D01*
X266550500Y-139675000D01*
X266553500Y-139675000D01*
X266555500Y-139675000D01*
X266558500Y-139676000D01*
G37*
X265462500Y-141495000D02*
X266550500Y-141495000D01*
X266553500Y-141495000D01*
X266555500Y-141495000D01*
X266558500Y-141496000D01*
X266560500Y-141496000D01*
X266563500Y-141497000D01*
X266565500Y-141497000D01*
X266568500Y-141498000D01*
X266570500Y-141499000D01*
X266573500Y-141500000D01*
X266575500Y-141502000D01*
X266577500Y-141503000D01*
X266579500Y-141505000D01*
X266581500Y-141506000D01*
X266583500Y-141508000D01*
X266585500Y-141510000D01*
X266587500Y-141512000D01*
X266589500Y-141514000D01*
X266590500Y-141516000D01*
X266592500Y-141518000D01*
X266593500Y-141520000D01*
X266595500Y-141522000D01*
X266596500Y-141525000D01*
X266597500Y-141527000D01*
X266598500Y-141530000D01*
X266598500Y-141532000D01*
X266599500Y-141535000D01*
X266599500Y-141537000D01*
X266600500Y-141540000D01*
X266600500Y-141542000D01*
X266600500Y-141545000D01*
X266600500Y-142205000D01*
X266600500Y-142208000D01*
X266600500Y-142210000D01*
X266599500Y-142213000D01*
X266599500Y-142215000D01*
X266598500Y-142218000D01*
X266598500Y-142220000D01*
X266597500Y-142223000D01*
X266596500Y-142225000D01*
X266595500Y-142228000D01*
X266593500Y-142230000D01*
X266592500Y-142232000D01*
X266590500Y-142234000D01*
X266589500Y-142236000D01*
X266587500Y-142238000D01*
X266585500Y-142240000D01*
X266583500Y-142242000D01*
X266581500Y-142244000D01*
X266579500Y-142245000D01*
X266577500Y-142247000D01*
X266575500Y-142248000D01*
X266573500Y-142250000D01*
X266570500Y-142251000D01*
X266568500Y-142252000D01*
X266565500Y-142253000D01*
X266563500Y-142253000D01*
X266560500Y-142254000D01*
X266558500Y-142254000D01*
X266555500Y-142255000D01*
X266553500Y-142255000D01*
X266550500Y-142255000D01*
X265462500Y-142255000D01*
X265459500Y-142255000D01*
X265457500Y-142255000D01*
X265454500Y-142254000D01*
X265452500Y-142254000D01*
X265449500Y-142253000D01*
X265447500Y-142253000D01*
X265444500Y-142252000D01*
X265442500Y-142251000D01*
X265439500Y-142250000D01*
X265437500Y-142248000D01*
X265435500Y-142247000D01*
X265433500Y-142245000D01*
X265431500Y-142244000D01*
X265429500Y-142242000D01*
X265427500Y-142240000D01*
X265425500Y-142238000D01*
X265423500Y-142236000D01*
X265422500Y-142234000D01*
X265420500Y-142232000D01*
X265419500Y-142230000D01*
X265417500Y-142228000D01*
X265416500Y-142225000D01*
X265415500Y-142223000D01*
X265414500Y-142220000D01*
X265414500Y-142218000D01*
X265413500Y-142215000D01*
X265413500Y-142213000D01*
X265412500Y-142210000D01*
X265412500Y-142208000D01*
X265412500Y-142205000D01*
X265412500Y-141545000D01*
X265412500Y-141542000D01*
X265412500Y-141540000D01*
X265413500Y-141537000D01*
X265413500Y-141535000D01*
X265414500Y-141532000D01*
X265414500Y-141530000D01*
X265415500Y-141527000D01*
X265416500Y-141525000D01*
X265417500Y-141522000D01*
X265419500Y-141520000D01*
X265420500Y-141518000D01*
X265422500Y-141516000D01*
X265423500Y-141514000D01*
X265425500Y-141512000D01*
X265427500Y-141510000D01*
X265429500Y-141508000D01*
X265431500Y-141506000D01*
X265433500Y-141505000D01*
X265435500Y-141503000D01*
X265437500Y-141502000D01*
X265439500Y-141500000D01*
X265442500Y-141499000D01*
X265444500Y-141498000D01*
X265447500Y-141497000D01*
X265449500Y-141497000D01*
X265452500Y-141496000D01*
X265454500Y-141496000D01*
X265457500Y-141495000D01*
X265459500Y-141495000D01*
X265462500Y-141495000D01*
G36*
X266558500Y-141496000D02*
G01*
X266560500Y-141496000D01*
X266563500Y-141497000D01*
X266565500Y-141497000D01*
X266568500Y-141498000D01*
X266570500Y-141499000D01*
X266573500Y-141500000D01*
X266575500Y-141502000D01*
X266577500Y-141503000D01*
X266579500Y-141505000D01*
X266581500Y-141506000D01*
X266583500Y-141508000D01*
X266585500Y-141510000D01*
X266587500Y-141512000D01*
X266589500Y-141514000D01*
X266590500Y-141516000D01*
X266592500Y-141518000D01*
X266593500Y-141520000D01*
X266595500Y-141522000D01*
X266596500Y-141525000D01*
X266597500Y-141527000D01*
X266598500Y-141530000D01*
X266598500Y-141532000D01*
X266599500Y-141535000D01*
X266599500Y-141537000D01*
X266600500Y-141540000D01*
X266600500Y-141542000D01*
X266600500Y-141545000D01*
X266600500Y-142205000D01*
X266600500Y-142208000D01*
X266600500Y-142210000D01*
X266599500Y-142213000D01*
X266599500Y-142215000D01*
X266598500Y-142218000D01*
X266598500Y-142220000D01*
X266597500Y-142223000D01*
X266596500Y-142225000D01*
X266595500Y-142228000D01*
X266593500Y-142230000D01*
X266592500Y-142232000D01*
X266590500Y-142234000D01*
X266589500Y-142236000D01*
X266587500Y-142238000D01*
X266585500Y-142240000D01*
X266583500Y-142242000D01*
X266581500Y-142244000D01*
X266579500Y-142245000D01*
X266577500Y-142247000D01*
X266575500Y-142248000D01*
X266573500Y-142250000D01*
X266570500Y-142251000D01*
X266568500Y-142252000D01*
X266565500Y-142253000D01*
X266563500Y-142253000D01*
X266560500Y-142254000D01*
X266558500Y-142254000D01*
X266555500Y-142255000D01*
X266553500Y-142255000D01*
X266550500Y-142255000D01*
X265462500Y-142255000D01*
X265459500Y-142255000D01*
X265457500Y-142255000D01*
X265454500Y-142254000D01*
X265452500Y-142254000D01*
X265449500Y-142253000D01*
X265447500Y-142253000D01*
X265444500Y-142252000D01*
X265442500Y-142251000D01*
X265439500Y-142250000D01*
X265437500Y-142248000D01*
X265435500Y-142247000D01*
X265433500Y-142245000D01*
X265431500Y-142244000D01*
X265429500Y-142242000D01*
X265427500Y-142240000D01*
X265425500Y-142238000D01*
X265423500Y-142236000D01*
X265422500Y-142234000D01*
X265420500Y-142232000D01*
X265419500Y-142230000D01*
X265417500Y-142228000D01*
X265416500Y-142225000D01*
X265415500Y-142223000D01*
X265414500Y-142220000D01*
X265414500Y-142218000D01*
X265413500Y-142215000D01*
X265413500Y-142213000D01*
X265412500Y-142210000D01*
X265412500Y-142208000D01*
X265412500Y-142205000D01*
X265412500Y-141545000D01*
X265412500Y-141542000D01*
X265412500Y-141540000D01*
X265413500Y-141537000D01*
X265413500Y-141535000D01*
X265414500Y-141532000D01*
X265414500Y-141530000D01*
X265415500Y-141527000D01*
X265416500Y-141525000D01*
X265417500Y-141522000D01*
X265419500Y-141520000D01*
X265420500Y-141518000D01*
X265422500Y-141516000D01*
X265423500Y-141514000D01*
X265425500Y-141512000D01*
X265427500Y-141510000D01*
X265429500Y-141508000D01*
X265431500Y-141506000D01*
X265433500Y-141505000D01*
X265435500Y-141503000D01*
X265437500Y-141502000D01*
X265439500Y-141500000D01*
X265442500Y-141499000D01*
X265444500Y-141498000D01*
X265447500Y-141497000D01*
X265449500Y-141497000D01*
X265452500Y-141496000D01*
X265454500Y-141496000D01*
X265457500Y-141495000D01*
X265459500Y-141495000D01*
X265462500Y-141495000D01*
X266550500Y-141495000D01*
X266553500Y-141495000D01*
X266555500Y-141495000D01*
X266558500Y-141496000D01*
G37*
D10*
%TO.C,U2*%
G36*
X156204250Y-91494093D02*
G01*
X154880250Y-91494093D01*
X154880250Y-90004993D01*
X156204250Y-90004993D01*
X156204250Y-91494093D01*
G37*
G36*
X156204250Y-89804993D02*
G01*
X154880250Y-89804993D01*
X154880250Y-88315893D01*
X156204250Y-88315893D01*
X156204250Y-89804993D01*
G37*
G36*
X154680250Y-91494093D02*
G01*
X153356250Y-91494093D01*
X153356250Y-90004993D01*
X154680250Y-90004993D01*
X154680250Y-91494093D01*
G37*
G36*
X154680250Y-89804993D02*
G01*
X153356250Y-89804993D01*
X153356250Y-88315893D01*
X154680250Y-88315893D01*
X154680250Y-89804993D01*
G37*
%TO.C,U6*%
G36*
X323636750Y-91439093D02*
G01*
X322312750Y-91439093D01*
X322312750Y-89949993D01*
X323636750Y-89949993D01*
X323636750Y-91439093D01*
G37*
G36*
X323636750Y-89749993D02*
G01*
X322312750Y-89749993D01*
X322312750Y-88260893D01*
X323636750Y-88260893D01*
X323636750Y-89749993D01*
G37*
G36*
X322112750Y-91439093D02*
G01*
X320788750Y-91439093D01*
X320788750Y-89949993D01*
X322112750Y-89949993D01*
X322112750Y-91439093D01*
G37*
G36*
X322112750Y-89749993D02*
G01*
X320788750Y-89749993D01*
X320788750Y-88260893D01*
X322112750Y-88260893D01*
X322112750Y-89749993D01*
G37*
%TO.C,U1*%
G36*
X121776750Y-91714093D02*
G01*
X120452750Y-91714093D01*
X120452750Y-90224993D01*
X121776750Y-90224993D01*
X121776750Y-91714093D01*
G37*
G36*
X121776750Y-90024993D02*
G01*
X120452750Y-90024993D01*
X120452750Y-88535893D01*
X121776750Y-88535893D01*
X121776750Y-90024993D01*
G37*
G36*
X120252750Y-91714093D02*
G01*
X118928750Y-91714093D01*
X118928750Y-90224993D01*
X120252750Y-90224993D01*
X120252750Y-91714093D01*
G37*
G36*
X120252750Y-90024993D02*
G01*
X118928750Y-90024993D01*
X118928750Y-88535893D01*
X120252750Y-88535893D01*
X120252750Y-90024993D01*
G37*
%TD*%
D12*
%TO.C,C19*%
X290325000Y-93457232D03*
X289365000Y-93457232D03*
%TD*%
D13*
%TO.C,R253*%
X308850000Y-86375000D03*
X308850000Y-88025000D03*
%TD*%
%TO.C,R252*%
X274400000Y-86950000D03*
X274400000Y-88600000D03*
%TD*%
%TO.C,R251*%
X224850000Y-86950000D03*
X224850000Y-88600000D03*
%TD*%
%TO.C,R250*%
X190450000Y-86950000D03*
X190450000Y-88600000D03*
%TD*%
%TO.C,R249*%
X141450000Y-86900000D03*
X141450000Y-88550000D03*
%TD*%
%TO.C,R248*%
X107000000Y-86925000D03*
X107000000Y-88575000D03*
%TD*%
%TO.C,R245*%
X307050000Y-86375000D03*
X307050000Y-88025000D03*
%TD*%
%TO.C,R244*%
X272400000Y-86925000D03*
X272400000Y-88575000D03*
%TD*%
%TO.C,R160*%
X222750000Y-86975000D03*
X222750000Y-88625000D03*
%TD*%
%TO.C,R159*%
X188400000Y-86950000D03*
X188400000Y-88600000D03*
%TD*%
%TO.C,R124*%
X139500000Y-86900000D03*
X139500000Y-88550000D03*
%TD*%
%TO.C,R121*%
X105050000Y-86925000D03*
X105050000Y-88575000D03*
%TD*%
D14*
%TO.C,J15*%
X122350000Y-206930000D03*
X112110000Y-206930000D03*
X122350000Y-203000000D03*
X112110000Y-203000000D03*
D15*
X115480000Y-202425000D03*
X116480000Y-202425000D03*
X117980000Y-202425000D03*
X118980000Y-202425000D03*
D16*
X119630000Y-202425000D03*
X120430000Y-202425000D03*
D15*
X118480000Y-202425000D03*
X117480000Y-202425000D03*
X116980000Y-202425000D03*
X115980000Y-202425000D03*
D16*
X114830000Y-202425000D03*
X114030000Y-202425000D03*
%TD*%
D17*
%TO.C,U11*%
X102525000Y-182100000D03*
X102025000Y-182100000D03*
X101525000Y-182100000D03*
X101025000Y-182100000D03*
X101025000Y-180200000D03*
X101525000Y-180200000D03*
X102025000Y-180200000D03*
X102525000Y-180200000D03*
D18*
X101375000Y-181150000D03*
X102175000Y-181150000D03*
%TD*%
D19*
%TO.C,U30*%
X118400000Y-149230000D03*
X118400000Y-147960000D03*
X118400000Y-146690000D03*
X118400000Y-145420000D03*
X125900000Y-145420000D03*
X125900000Y-146690000D03*
X125900000Y-147960000D03*
X125900000Y-149230000D03*
D20*
X121300000Y-146250000D03*
X121300000Y-148400000D03*
X123000000Y-146250000D03*
X123000000Y-148400000D03*
%TD*%
D21*
%TO.C,C111*%
X233115000Y-164110000D03*
X233115000Y-162210000D03*
%TD*%
%TO.C,C109*%
X233095000Y-170150000D03*
X233095000Y-168250000D03*
%TD*%
%TO.C,C108*%
X212600000Y-166150000D03*
X212600000Y-164250000D03*
%TD*%
D22*
%TO.C,C81*%
X206100000Y-192210001D03*
X206100000Y-194110001D03*
%TD*%
D23*
%TO.C,C80*%
X208750000Y-186010000D03*
X210650000Y-186010000D03*
%TD*%
D24*
%TO.C,C79*%
X200450000Y-190610000D03*
X198550000Y-190610000D03*
%TD*%
%TO.C,C75*%
X199450000Y-173310000D03*
X197550000Y-173310000D03*
%TD*%
D22*
%TO.C,C63*%
X237235000Y-179165000D03*
X237235000Y-181065000D03*
%TD*%
D24*
%TO.C,C61*%
X245960000Y-173115000D03*
X244060000Y-173115000D03*
%TD*%
D21*
%TO.C,C56*%
X235360000Y-164110000D03*
X235360000Y-162210000D03*
%TD*%
%TO.C,C55*%
X235360000Y-170150000D03*
X235360000Y-168250000D03*
%TD*%
%TO.C,C46*%
X135887500Y-162600000D03*
X135887500Y-160700000D03*
%TD*%
D24*
%TO.C,C45*%
X134337501Y-165925000D03*
X132437501Y-165925000D03*
%TD*%
%TO.C,C22*%
X321110000Y-95957232D03*
X319210000Y-95957232D03*
%TD*%
%TO.C,C18*%
X286695000Y-95957232D03*
X284795000Y-95957232D03*
%TD*%
%TO.C,C14*%
X237122500Y-95737232D03*
X235222500Y-95737232D03*
%TD*%
%TO.C,C10*%
X202695000Y-95957232D03*
X200795000Y-95957232D03*
%TD*%
%TO.C,C6*%
X153677500Y-96012232D03*
X151777500Y-96012232D03*
%TD*%
%TO.C,C2*%
X119250000Y-96232232D03*
X117350000Y-96232232D03*
%TD*%
D25*
%TO.C,C128*%
X255100000Y-167350000D03*
X256650000Y-167350000D03*
%TD*%
D26*
%TO.C,C83*%
X262475000Y-147275000D03*
X262475000Y-148825000D03*
%TD*%
D25*
%TO.C,C82*%
X270775000Y-141300000D03*
X272325000Y-141300000D03*
%TD*%
D27*
%TO.C,C64*%
X222460000Y-168560000D03*
X220910000Y-168560000D03*
%TD*%
D28*
%TO.C,C47*%
X137937500Y-162575000D03*
X137937500Y-161025000D03*
%TD*%
%TO.C,C24*%
X123665001Y-156775000D03*
X123665001Y-155225000D03*
%TD*%
%TO.C,C20*%
X123690001Y-159975000D03*
X123690001Y-158425000D03*
%TD*%
%TO.C,C16*%
X123675002Y-163275000D03*
X123675002Y-161725000D03*
%TD*%
%TO.C,C12*%
X123700000Y-166600000D03*
X123700000Y-165050000D03*
%TD*%
%TO.C,C8*%
X123700000Y-169800000D03*
X123700000Y-168250000D03*
%TD*%
%TO.C,C4*%
X134200000Y-170675000D03*
X134200000Y-169125000D03*
%TD*%
D29*
%TO.C,R10*%
X123300000Y-95107232D03*
X123300000Y-96757232D03*
%TD*%
D12*
%TO.C,C23*%
X324880000Y-93457232D03*
X323920000Y-93457232D03*
%TD*%
%TO.C,C125*%
X267620000Y-164575000D03*
X268580000Y-164575000D03*
%TD*%
D30*
%TO.C,C124*%
X265480000Y-174300000D03*
X264520000Y-174300000D03*
%TD*%
D31*
%TO.C,C123*%
X270700000Y-174475000D03*
X270700000Y-173515000D03*
%TD*%
D32*
%TO.C,C119*%
X212555000Y-145520000D03*
X212555000Y-146480000D03*
%TD*%
D31*
%TO.C,C118*%
X212555000Y-144100000D03*
X212555000Y-143140000D03*
%TD*%
D32*
%TO.C,C117*%
X212455000Y-140240000D03*
X212455000Y-141200000D03*
%TD*%
D31*
%TO.C,C116*%
X212455000Y-138780000D03*
X212455000Y-137820000D03*
%TD*%
D12*
%TO.C,C115*%
X208275000Y-135600000D03*
X209235000Y-135600000D03*
%TD*%
D30*
%TO.C,C114*%
X206855000Y-135600000D03*
X205895000Y-135600000D03*
%TD*%
D12*
%TO.C,C113*%
X202775000Y-135600000D03*
X203735000Y-135600000D03*
%TD*%
D30*
%TO.C,C112*%
X201355000Y-135600000D03*
X200395000Y-135600000D03*
%TD*%
%TO.C,C110*%
X135680000Y-190900000D03*
X134720000Y-190900000D03*
%TD*%
D31*
%TO.C,C106*%
X196945000Y-139130000D03*
X196945000Y-138170000D03*
%TD*%
D32*
%TO.C,C105*%
X196945000Y-140390000D03*
X196945000Y-141350000D03*
%TD*%
D31*
%TO.C,C104*%
X196955001Y-144495000D03*
X196955001Y-143535000D03*
%TD*%
D32*
%TO.C,C103*%
X196955001Y-145925000D03*
X196955001Y-146885000D03*
%TD*%
D30*
%TO.C,C102*%
X206560000Y-148585000D03*
X205600000Y-148585000D03*
%TD*%
D12*
%TO.C,C101*%
X118420000Y-151350000D03*
X119380000Y-151350000D03*
%TD*%
D30*
%TO.C,C54*%
X198360000Y-175200000D03*
X197400000Y-175200000D03*
%TD*%
%TO.C,C51*%
X200380000Y-192900000D03*
X199420000Y-192900000D03*
%TD*%
%TO.C,C49*%
X135631249Y-149040001D03*
X134671249Y-149040001D03*
%TD*%
%TO.C,C48*%
X135631249Y-151580001D03*
X134671249Y-151580001D03*
%TD*%
D12*
%TO.C,C43*%
X142420000Y-141850000D03*
X143380000Y-141850000D03*
%TD*%
D33*
%TO.C,C42*%
X150171178Y-141378822D03*
X150850000Y-140700000D03*
%TD*%
D12*
%TO.C,C40*%
X154620000Y-141550000D03*
X155580000Y-141550000D03*
%TD*%
D31*
%TO.C,C39*%
X164300000Y-146780000D03*
X164300000Y-145820000D03*
%TD*%
D32*
%TO.C,C38*%
X164150000Y-151470000D03*
X164150000Y-152430000D03*
%TD*%
D34*
%TO.C,C37*%
X131987500Y-158400000D03*
X131308678Y-157721178D03*
%TD*%
D32*
%TO.C,C36*%
X164300000Y-157220000D03*
X164300000Y-158180000D03*
%TD*%
D35*
%TO.C,C35*%
X135298089Y-153610589D03*
X135976911Y-154289411D03*
%TD*%
D30*
%TO.C,C34*%
X160660000Y-166700000D03*
X159700000Y-166700000D03*
%TD*%
%TO.C,C32*%
X155580000Y-166700000D03*
X154620000Y-166700000D03*
%TD*%
%TO.C,C31*%
X150680000Y-166700000D03*
X149720000Y-166700000D03*
%TD*%
%TO.C,C29*%
X143930000Y-166700000D03*
X142970000Y-166700000D03*
%TD*%
D31*
%TO.C,C28*%
X139400000Y-153600000D03*
X139400000Y-152640000D03*
%TD*%
D34*
%TO.C,C27*%
X138139411Y-147639411D03*
X137460589Y-146960589D03*
%TD*%
D32*
%TO.C,C26*%
X102725000Y-183320000D03*
X102725000Y-184280000D03*
%TD*%
D12*
%TO.C,C15*%
X239792500Y-93237232D03*
X240752500Y-93237232D03*
%TD*%
%TO.C,C11*%
X205365000Y-93457232D03*
X206325000Y-93457232D03*
%TD*%
%TO.C,C7*%
X156347500Y-93512232D03*
X157307500Y-93512232D03*
%TD*%
%TO.C,C3*%
X121920000Y-93732232D03*
X122880000Y-93732232D03*
%TD*%
D36*
%TO.C,Q12*%
X309870000Y-157000000D03*
X309870000Y-155730000D03*
X309870000Y-154460000D03*
X309870000Y-153190000D03*
D37*
X306510000Y-155095000D03*
D38*
X304405000Y-157000000D03*
X304405000Y-155730000D03*
X304405000Y-154460000D03*
X304405000Y-153190000D03*
%TD*%
D39*
%TO.C,Q11*%
X308100000Y-159725001D03*
X306830000Y-159725001D03*
X305560000Y-159725001D03*
X304290000Y-159725001D03*
D40*
X306195000Y-163085001D03*
D41*
X308100000Y-165190001D03*
X306830000Y-165190001D03*
X305560000Y-165190001D03*
X304290000Y-165190001D03*
%TD*%
D36*
%TO.C,Q6*%
X308895000Y-80415000D03*
X308895000Y-81685000D03*
X308895000Y-82955000D03*
X308895000Y-84225000D03*
D37*
X312255000Y-82320000D03*
D38*
X314360000Y-80415000D03*
X314360000Y-81685000D03*
X314360000Y-82955000D03*
X314360000Y-84225000D03*
%TD*%
D36*
%TO.C,Q5*%
X274480000Y-80415000D03*
X274480000Y-81685000D03*
X274480000Y-82955000D03*
X274480000Y-84225000D03*
D37*
X277840000Y-82320000D03*
D38*
X279945000Y-80415000D03*
X279945000Y-81685000D03*
X279945000Y-82955000D03*
X279945000Y-84225000D03*
%TD*%
D36*
%TO.C,Q4*%
X224907500Y-80195000D03*
X224907500Y-81465000D03*
X224907500Y-82735000D03*
X224907500Y-84005000D03*
D37*
X228267500Y-82100000D03*
D38*
X230372500Y-80195000D03*
X230372500Y-81465000D03*
X230372500Y-82735000D03*
X230372500Y-84005000D03*
%TD*%
D36*
%TO.C,Q3*%
X190480000Y-80415000D03*
X190480000Y-81685000D03*
X190480000Y-82955000D03*
X190480000Y-84225000D03*
D37*
X193840000Y-82320000D03*
D38*
X195945000Y-80415000D03*
X195945000Y-81685000D03*
X195945000Y-82955000D03*
X195945000Y-84225000D03*
%TD*%
D36*
%TO.C,Q2*%
X141462500Y-80470000D03*
X141462500Y-81740000D03*
X141462500Y-83010000D03*
X141462500Y-84280000D03*
D37*
X144822500Y-82375000D03*
D38*
X146927500Y-80470000D03*
X146927500Y-81740000D03*
X146927500Y-83010000D03*
X146927500Y-84280000D03*
%TD*%
D36*
%TO.C,Q1*%
X107035000Y-80690000D03*
X107035000Y-81960000D03*
X107035000Y-83230000D03*
X107035000Y-84500000D03*
D37*
X110395000Y-82595000D03*
D38*
X112500000Y-80690000D03*
X112500000Y-81960000D03*
X112500000Y-83230000D03*
X112500000Y-84500000D03*
%TD*%
D42*
%TO.C,TR1*%
X212240000Y-169390000D03*
D43*
X209700000Y-169390000D03*
X207160000Y-169390000D03*
X207160000Y-180630000D03*
X209700000Y-180630000D03*
X212240000Y-180630000D03*
%TD*%
D44*
%TO.C,R68*%
X121410000Y-158550000D03*
X120390000Y-158550000D03*
%TD*%
%TO.C,R54*%
X121360000Y-161750000D03*
X120340000Y-161750000D03*
%TD*%
%TO.C,R82*%
X121460000Y-155250000D03*
X120440000Y-155250000D03*
%TD*%
D45*
%TO.C,R74*%
X329160000Y-89457232D03*
X330810000Y-89457232D03*
%TD*%
%TO.C,R46*%
X245172500Y-89237232D03*
X246822500Y-89237232D03*
%TD*%
%TO.C,R45*%
X245172500Y-90837232D03*
X246822500Y-90837232D03*
%TD*%
%TO.C,R184*%
X328775000Y-143900000D03*
X330425000Y-143900000D03*
%TD*%
D46*
%TO.C,R84*%
X122090001Y-156800000D03*
X120440001Y-156800000D03*
%TD*%
%TO.C,R70*%
X122015001Y-160100000D03*
X120365001Y-160100000D03*
%TD*%
%TO.C,R42*%
X122125000Y-166500000D03*
X120475000Y-166500000D03*
%TD*%
%TO.C,R56*%
X122000000Y-163200000D03*
X120350000Y-163200000D03*
%TD*%
D13*
%TO.C,R241*%
X220985000Y-170700000D03*
X220985000Y-172350000D03*
%TD*%
D45*
%TO.C,R240*%
X256875000Y-165200000D03*
X258525000Y-165200000D03*
%TD*%
%TO.C,R239*%
X256175000Y-159100000D03*
X257825000Y-159100000D03*
%TD*%
D46*
%TO.C,R238*%
X254625000Y-159100000D03*
X252975000Y-159100000D03*
%TD*%
D13*
%TO.C,R237*%
X261400000Y-177950000D03*
X261400000Y-179600000D03*
%TD*%
D29*
%TO.C,R236*%
X265500000Y-179600000D03*
X265500000Y-177950000D03*
%TD*%
%TO.C,R234*%
X207565000Y-152825000D03*
X207565000Y-151175000D03*
%TD*%
%TO.C,R233*%
X205655000Y-152825000D03*
X205655000Y-151175000D03*
%TD*%
%TO.C,R232*%
X201755000Y-152825000D03*
X201755000Y-151175000D03*
%TD*%
%TO.C,R231*%
X211355000Y-152800000D03*
X211355000Y-151150000D03*
%TD*%
%TO.C,R230*%
X197855000Y-152825000D03*
X197855000Y-151175000D03*
%TD*%
%TO.C,R229*%
X199755000Y-152825000D03*
X199755000Y-151175000D03*
%TD*%
%TO.C,R228*%
X203755000Y-152825000D03*
X203755000Y-151175000D03*
%TD*%
D46*
%TO.C,R227*%
X169025000Y-157500000D03*
X167375000Y-157500000D03*
%TD*%
D29*
%TO.C,R226*%
X269000000Y-180785000D03*
X269000000Y-179135000D03*
%TD*%
D13*
%TO.C,R225*%
X270800000Y-179180000D03*
X270800000Y-180830000D03*
%TD*%
%TO.C,R224*%
X272600000Y-179180000D03*
X272600000Y-180830000D03*
%TD*%
%TO.C,R223*%
X274400000Y-179155000D03*
X274400000Y-180805000D03*
%TD*%
D29*
%TO.C,R222*%
X209455000Y-152800000D03*
X209455000Y-151150000D03*
%TD*%
D45*
%TO.C,R185*%
X328500000Y-159100000D03*
X330150000Y-159100000D03*
%TD*%
%TO.C,R183*%
X334075000Y-155700000D03*
X335725000Y-155700000D03*
%TD*%
%TO.C,R182*%
X334050000Y-140500000D03*
X335700000Y-140500000D03*
%TD*%
D29*
%TO.C,R142*%
X264225000Y-148875000D03*
X264225000Y-147225000D03*
%TD*%
%TO.C,R141*%
X170600000Y-157625000D03*
X170600000Y-155975000D03*
%TD*%
%TO.C,R140*%
X265975000Y-148875000D03*
X265975000Y-147225000D03*
%TD*%
%TO.C,R139*%
X269475000Y-148875000D03*
X269475000Y-147225000D03*
%TD*%
%TO.C,R138*%
X267725000Y-148875000D03*
X267725000Y-147225000D03*
%TD*%
D46*
%TO.C,R137*%
X330150000Y-161000000D03*
X328500000Y-161000000D03*
%TD*%
D45*
%TO.C,R136*%
X254275000Y-143300000D03*
X255925000Y-143300000D03*
%TD*%
D46*
%TO.C,R135*%
X255925000Y-141550000D03*
X254275000Y-141550000D03*
%TD*%
D45*
%TO.C,R134*%
X254275000Y-139800000D03*
X255925000Y-139800000D03*
%TD*%
D46*
%TO.C,R129*%
X197625000Y-169710000D03*
X195975000Y-169710000D03*
%TD*%
D45*
%TO.C,R125*%
X221935000Y-175860000D03*
X223585000Y-175860000D03*
%TD*%
D29*
%TO.C,R123*%
X225385000Y-175885000D03*
X225385000Y-174235000D03*
%TD*%
D46*
%TO.C,R122*%
X230225000Y-174200000D03*
X228575000Y-174200000D03*
%TD*%
D29*
%TO.C,R119*%
X233260000Y-175560000D03*
X233260000Y-173910000D03*
%TD*%
D45*
%TO.C,R118*%
X233160000Y-177425000D03*
X234810000Y-177425000D03*
%TD*%
D29*
%TO.C,R112*%
X276200000Y-180805000D03*
X276200000Y-179155000D03*
%TD*%
%TO.C,R92*%
X145900000Y-138100000D03*
X145900000Y-136450000D03*
%TD*%
D46*
%TO.C,R91*%
X138162500Y-157650000D03*
X136512500Y-157650000D03*
%TD*%
D29*
%TO.C,R90*%
X101525000Y-178625000D03*
X101525000Y-176975000D03*
%TD*%
D46*
%TO.C,R87*%
X330425000Y-145800000D03*
X328775000Y-145800000D03*
%TD*%
D45*
%TO.C,R86*%
X153075000Y-136650000D03*
X154725000Y-136650000D03*
%TD*%
D46*
%TO.C,R85*%
X150825000Y-136650000D03*
X149175000Y-136650000D03*
%TD*%
D29*
%TO.C,R80*%
X325300000Y-96600000D03*
X325300000Y-94950000D03*
%TD*%
D46*
%TO.C,R79*%
X330800000Y-87850000D03*
X329150000Y-87850000D03*
%TD*%
%TO.C,R78*%
X316410000Y-89857232D03*
X314760000Y-89857232D03*
%TD*%
%TO.C,R77*%
X316410000Y-91457232D03*
X314760000Y-91457232D03*
%TD*%
%TO.C,R76*%
X316410000Y-93057232D03*
X314760000Y-93057232D03*
%TD*%
D45*
%TO.C,R75*%
X329160000Y-92657232D03*
X330810000Y-92657232D03*
%TD*%
%TO.C,R73*%
X329160000Y-91057232D03*
X330810000Y-91057232D03*
%TD*%
D29*
%TO.C,R66*%
X291000000Y-96700000D03*
X291000000Y-95050000D03*
%TD*%
D46*
%TO.C,R65*%
X296395000Y-87857232D03*
X294745000Y-87857232D03*
%TD*%
%TO.C,R64*%
X281995000Y-89857232D03*
X280345000Y-89857232D03*
%TD*%
%TO.C,R63*%
X281995000Y-91457232D03*
X280345000Y-91457232D03*
%TD*%
%TO.C,R62*%
X281995000Y-93057232D03*
X280345000Y-93057232D03*
%TD*%
D45*
%TO.C,R61*%
X294745000Y-92657232D03*
X296395000Y-92657232D03*
%TD*%
%TO.C,R60*%
X294745000Y-89457232D03*
X296395000Y-89457232D03*
%TD*%
%TO.C,R59*%
X294745000Y-91057232D03*
X296395000Y-91057232D03*
%TD*%
D29*
%TO.C,R52*%
X241300000Y-96425000D03*
X241300000Y-94775000D03*
%TD*%
D46*
%TO.C,R51*%
X246822500Y-87637232D03*
X245172500Y-87637232D03*
%TD*%
%TO.C,R50*%
X232422500Y-89637232D03*
X230772500Y-89637232D03*
%TD*%
%TO.C,R49*%
X232422500Y-91237232D03*
X230772500Y-91237232D03*
%TD*%
%TO.C,R48*%
X232422500Y-92837232D03*
X230772500Y-92837232D03*
%TD*%
D45*
%TO.C,R47*%
X245172500Y-92437232D03*
X246822500Y-92437232D03*
%TD*%
D29*
%TO.C,R38*%
X206745000Y-96482232D03*
X206745000Y-94832232D03*
%TD*%
D46*
%TO.C,R37*%
X212395000Y-87857232D03*
X210745000Y-87857232D03*
%TD*%
%TO.C,R36*%
X197995000Y-89857232D03*
X196345000Y-89857232D03*
%TD*%
%TO.C,R35*%
X197995000Y-91457232D03*
X196345000Y-91457232D03*
%TD*%
%TO.C,R34*%
X197995000Y-93057232D03*
X196345000Y-93057232D03*
%TD*%
D45*
%TO.C,R33*%
X210745000Y-92657232D03*
X212395000Y-92657232D03*
%TD*%
%TO.C,R32*%
X210745000Y-89457232D03*
X212395000Y-89457232D03*
%TD*%
%TO.C,R31*%
X210745000Y-91057232D03*
X212395000Y-91057232D03*
%TD*%
D46*
%TO.C,R28*%
X122025000Y-169725000D03*
X120375000Y-169725000D03*
%TD*%
D29*
%TO.C,R24*%
X157727500Y-96537232D03*
X157727500Y-94887232D03*
%TD*%
D46*
%TO.C,R23*%
X163377500Y-87912232D03*
X161727500Y-87912232D03*
%TD*%
%TO.C,R22*%
X148977500Y-89912232D03*
X147327500Y-89912232D03*
%TD*%
%TO.C,R21*%
X148977500Y-91512232D03*
X147327500Y-91512232D03*
%TD*%
%TO.C,R20*%
X148977500Y-93112232D03*
X147327500Y-93112232D03*
%TD*%
D45*
%TO.C,R19*%
X161727500Y-92712232D03*
X163377500Y-92712232D03*
%TD*%
%TO.C,R18*%
X161727500Y-89512232D03*
X163377500Y-89512232D03*
%TD*%
%TO.C,R17*%
X161727500Y-91112232D03*
X163377500Y-91112232D03*
%TD*%
D46*
%TO.C,R14*%
X132549999Y-170700000D03*
X130899999Y-170700000D03*
%TD*%
%TO.C,R9*%
X128950000Y-88132232D03*
X127300000Y-88132232D03*
%TD*%
%TO.C,R8*%
X114550000Y-90132232D03*
X112900000Y-90132232D03*
%TD*%
%TO.C,R7*%
X114550000Y-91732232D03*
X112900000Y-91732232D03*
%TD*%
%TO.C,R6*%
X114550000Y-93332232D03*
X112900000Y-93332232D03*
%TD*%
D45*
%TO.C,R5*%
X127300000Y-92932232D03*
X128950000Y-92932232D03*
%TD*%
%TO.C,R4*%
X127300000Y-89732232D03*
X128950000Y-89732232D03*
%TD*%
%TO.C,R3*%
X127300000Y-91332232D03*
X128950000Y-91332232D03*
%TD*%
D47*
%TO.C,D20*%
X290945000Y-81725000D03*
X284145000Y-81725000D03*
%TD*%
D48*
%TO.C,C69*%
X203810000Y-102690000D03*
X203810000Y-111390000D03*
%TD*%
D44*
%TO.C,R196*%
X195655000Y-138150000D03*
X194635000Y-138150000D03*
%TD*%
D49*
%TO.C,C21*%
X321935000Y-98757232D03*
X318985000Y-98757232D03*
%TD*%
D50*
%TO.C,U12*%
X141037500Y-145450000D03*
X141037500Y-145950000D03*
X141037500Y-146450000D03*
X141037500Y-146950000D03*
X141037500Y-147450000D03*
X141037500Y-147950000D03*
X141037500Y-148450000D03*
X141037500Y-148950000D03*
X141037500Y-149450000D03*
X141037500Y-149950000D03*
X141037500Y-150450000D03*
X141037500Y-150950000D03*
X141037500Y-151450000D03*
X141037500Y-151950000D03*
X141037500Y-152450000D03*
X141037500Y-152950000D03*
X141037500Y-153450000D03*
X141037500Y-153950000D03*
X141037500Y-154450000D03*
X141037500Y-154950000D03*
X141037500Y-155450000D03*
X141037500Y-155950000D03*
X141037500Y-156450000D03*
X141037500Y-156950000D03*
X141037500Y-157450000D03*
X141037500Y-157950000D03*
X141037500Y-158450000D03*
X141037500Y-158950000D03*
X141037500Y-159450000D03*
X141037500Y-159950000D03*
X141037500Y-160450000D03*
X141037500Y-160950000D03*
X141037500Y-161450000D03*
X141037500Y-161950000D03*
X141037500Y-162450000D03*
X141037500Y-162950000D03*
D51*
X142950000Y-164862500D03*
X143450000Y-164862500D03*
X143950000Y-164862500D03*
X144450000Y-164862500D03*
X144950000Y-164862500D03*
X145450000Y-164862500D03*
X145950000Y-164862500D03*
X146450000Y-164862500D03*
X146950000Y-164862500D03*
X147450000Y-164862500D03*
X147950000Y-164862500D03*
X148450000Y-164862500D03*
X148950000Y-164862500D03*
X149450000Y-164862500D03*
X149950000Y-164862500D03*
X150450000Y-164862500D03*
X150950000Y-164862500D03*
X151450000Y-164862500D03*
X151950000Y-164862500D03*
X152450000Y-164862500D03*
X152950000Y-164862500D03*
X153450000Y-164862500D03*
X153950000Y-164862500D03*
X154450000Y-164862500D03*
X154950000Y-164862500D03*
X155450000Y-164862500D03*
X155950000Y-164862500D03*
X156450000Y-164862500D03*
X156950000Y-164862500D03*
X157450000Y-164862500D03*
X157950000Y-164862500D03*
X158450000Y-164862500D03*
X158950000Y-164862500D03*
X159450000Y-164862500D03*
X159950000Y-164862500D03*
X160450000Y-164862500D03*
D50*
X162362500Y-162950000D03*
X162362500Y-162450000D03*
X162362500Y-161950000D03*
X162362500Y-161450000D03*
X162362500Y-160950000D03*
X162362500Y-160450000D03*
X162362500Y-159950000D03*
X162362500Y-159450000D03*
X162362500Y-158950000D03*
X162362500Y-158450000D03*
X162362500Y-157950000D03*
X162362500Y-157450000D03*
X162362500Y-156950000D03*
X162362500Y-156450000D03*
X162362500Y-155950000D03*
X162362500Y-155450000D03*
X162362500Y-154950000D03*
X162362500Y-154450000D03*
X162362500Y-153950000D03*
X162362500Y-153450000D03*
X162362500Y-152950000D03*
X162362500Y-152450000D03*
X162362500Y-151950000D03*
X162362500Y-151450000D03*
X162362500Y-150950000D03*
X162362500Y-150450000D03*
X162362500Y-149950000D03*
X162362500Y-149450000D03*
X162362500Y-148950000D03*
X162362500Y-148450000D03*
X162362500Y-147950000D03*
X162362500Y-147450000D03*
X162362500Y-146950000D03*
X162362500Y-146450000D03*
X162362500Y-145950000D03*
X162362500Y-145450000D03*
D51*
X160450000Y-143537500D03*
X159950000Y-143537500D03*
X159450000Y-143537500D03*
X158950000Y-143537500D03*
X158450000Y-143537500D03*
X157950000Y-143537500D03*
X157450000Y-143537500D03*
X156950000Y-143537500D03*
X156450000Y-143537500D03*
X155950000Y-143537500D03*
X155450000Y-143537500D03*
X154950000Y-143537500D03*
X154450000Y-143537500D03*
X153950000Y-143537500D03*
X153450000Y-143537500D03*
X152950000Y-143537500D03*
X152450000Y-143537500D03*
X151950000Y-143537500D03*
X151450000Y-143537500D03*
X150950000Y-143537500D03*
X150450000Y-143537500D03*
X149950000Y-143537500D03*
X149450000Y-143537500D03*
X148950000Y-143537500D03*
X148450000Y-143537500D03*
X147950000Y-143537500D03*
X147450000Y-143537500D03*
X146950000Y-143537500D03*
X146450000Y-143537500D03*
X145950000Y-143537500D03*
X145450000Y-143537500D03*
X144950000Y-143537500D03*
X144450000Y-143537500D03*
X143950000Y-143537500D03*
X143450000Y-143537500D03*
X142950000Y-143537500D03*
%TD*%
D52*
%TO.C,D28*%
X179569999Y-146087500D03*
X179569999Y-144512500D03*
%TD*%
D53*
%TO.C,D13*%
X252200000Y-52500000D03*
X252200000Y-54075000D03*
%TD*%
D54*
%TO.C,J16*%
X138980000Y-193330000D03*
X137880000Y-193330000D03*
X136780000Y-193330000D03*
X135680000Y-193330000D03*
X134580000Y-193330000D03*
X133480000Y-193330000D03*
X132380000Y-193330000D03*
X131280000Y-193330000D03*
X130330000Y-193330000D03*
D55*
X129380000Y-203830000D03*
D56*
X129380000Y-197630000D03*
D57*
X129380000Y-207980000D03*
D56*
X140530000Y-193330000D03*
D58*
X142880000Y-208430000D03*
%TD*%
D59*
%TO.C,R203*%
X202675000Y-134410000D03*
X202675000Y-133390000D03*
%TD*%
D60*
%TO.C,R210*%
X216055000Y-137790000D03*
X216055000Y-138810000D03*
%TD*%
D44*
%TO.C,R191*%
X195665001Y-144615000D03*
X194645001Y-144615000D03*
%TD*%
D53*
%TO.C,D1*%
X134500000Y-52924999D03*
X134500000Y-54499999D03*
%TD*%
%TO.C,D6*%
X166500000Y-52712500D03*
X166500000Y-54287500D03*
%TD*%
D61*
%TO.C,U5*%
X290750500Y-92124944D03*
X290750500Y-91474958D03*
X290750500Y-90824972D03*
X290750500Y-90174986D03*
X290750500Y-89525000D03*
X290750500Y-88875014D03*
X290750500Y-88225028D03*
X290750500Y-87575042D03*
X284845000Y-87575042D03*
X284845000Y-88225028D03*
X284845000Y-88875014D03*
X284845000Y-89525000D03*
X284845000Y-90174986D03*
X284845000Y-90824972D03*
X284845000Y-91474958D03*
X284845000Y-92124944D03*
%TD*%
D53*
%TO.C,D22*%
X333000000Y-52712500D03*
X333000000Y-54287500D03*
%TD*%
D62*
%TO.C,R198*%
X200365000Y-132200000D03*
X201385000Y-132200000D03*
%TD*%
D53*
%TO.C,D5*%
X169200000Y-52712500D03*
X169200000Y-54287500D03*
%TD*%
D49*
%TO.C,C17*%
X287520000Y-98757232D03*
X284570000Y-98757232D03*
%TD*%
D61*
%TO.C,U4*%
X241178000Y-91904944D03*
X241178000Y-91254958D03*
X241178000Y-90604972D03*
X241178000Y-89954986D03*
X241178000Y-89305000D03*
X241178000Y-88655014D03*
X241178000Y-88005028D03*
X241178000Y-87355042D03*
X235272500Y-87355042D03*
X235272500Y-88005028D03*
X235272500Y-88655014D03*
X235272500Y-89305000D03*
X235272500Y-89954986D03*
X235272500Y-90604972D03*
X235272500Y-91254958D03*
X235272500Y-91904944D03*
%TD*%
D63*
%TO.C,U31*%
X242500000Y-164400000D03*
X240200000Y-164400000D03*
D64*
X240200000Y-170700000D03*
D63*
X237900000Y-164400000D03*
%TD*%
D65*
%TO.C,D31*%
X212900000Y-186260000D03*
X212900000Y-182960000D03*
%TD*%
D66*
%TO.C,D7*%
X159477500Y-97149732D03*
X161377500Y-97149732D03*
X160427500Y-95274732D03*
%TD*%
D59*
%TO.C,R131*%
X194700000Y-190610001D03*
X194700000Y-189590001D03*
%TD*%
D44*
%TO.C,R26*%
X121360000Y-168225000D03*
X120340000Y-168225000D03*
%TD*%
%TO.C,R40*%
X121510000Y-165000000D03*
X120490000Y-165000000D03*
%TD*%
D53*
%TO.C,D9*%
X217700000Y-52917633D03*
X217700000Y-54492633D03*
%TD*%
D66*
%TO.C,D3*%
X125050000Y-97369732D03*
X126950000Y-97369732D03*
X126000000Y-95494732D03*
%TD*%
D53*
%TO.C,D17*%
X301700000Y-52750000D03*
X301700000Y-54325000D03*
%TD*%
D62*
%TO.C,R212*%
X213745000Y-138900000D03*
X214765000Y-138900000D03*
%TD*%
D67*
%TO.C,R132*%
X200837500Y-186810000D03*
X203762500Y-186810000D03*
%TD*%
D53*
%TO.C,D14*%
X249500000Y-52500000D03*
X249500000Y-54075000D03*
%TD*%
D68*
%TO.C,U24*%
X198545000Y-177170000D03*
X197275000Y-177170000D03*
X196005000Y-177170000D03*
X194735000Y-177170000D03*
X193465000Y-177170000D03*
X192195000Y-177170000D03*
X190925000Y-177170000D03*
X189655000Y-177170000D03*
X189655000Y-186450000D03*
X190925000Y-186450000D03*
X192195000Y-186450000D03*
X193465000Y-186450000D03*
X194735000Y-186450000D03*
X196005000Y-186450000D03*
X197275000Y-186450000D03*
X198545000Y-186450000D03*
%TD*%
D59*
%TO.C,R186*%
X193355001Y-146825000D03*
X193355001Y-145805000D03*
%TD*%
D66*
%TO.C,D11*%
X208495000Y-97094732D03*
X210395000Y-97094732D03*
X209445000Y-95219732D03*
%TD*%
D61*
%TO.C,U3*%
X206750500Y-92124944D03*
X206750500Y-91474958D03*
X206750500Y-90824972D03*
X206750500Y-90174986D03*
X206750500Y-89525000D03*
X206750500Y-88875014D03*
X206750500Y-88225028D03*
X206750500Y-87575042D03*
X200845000Y-87575042D03*
X200845000Y-88225028D03*
X200845000Y-88875014D03*
X200845000Y-89525000D03*
X200845000Y-90174986D03*
X200845000Y-90824972D03*
X200845000Y-91474958D03*
X200845000Y-92124944D03*
%TD*%
D48*
%TO.C,C70*%
X238330000Y-102330000D03*
X238330000Y-111030000D03*
%TD*%
D44*
%TO.C,R189*%
X195665001Y-143515000D03*
X194645001Y-143515000D03*
%TD*%
D69*
%TO.C,D41*%
X238743153Y-135793153D03*
X239856847Y-136906847D03*
%TD*%
D59*
%TO.C,R205*%
X205755000Y-134400000D03*
X205755000Y-133380000D03*
%TD*%
D70*
%TO.C,U10*%
X201555000Y-142000000D03*
X201555000Y-142500000D03*
X201555000Y-143000000D03*
X201555000Y-143500000D03*
X201555000Y-144000000D03*
X201555000Y-144500000D03*
X201555000Y-145000000D03*
X201555000Y-145500000D03*
D71*
X203000000Y-146945000D03*
X203500000Y-146945000D03*
X204000000Y-146945000D03*
X204500000Y-146945000D03*
X205000000Y-146945000D03*
X205500000Y-146945000D03*
X206000000Y-146945000D03*
X206500000Y-146945000D03*
D70*
X207945000Y-145500000D03*
X207945000Y-145000000D03*
X207945000Y-144500000D03*
X207945000Y-144000000D03*
X207945000Y-143500000D03*
X207945000Y-143000000D03*
X207945000Y-142500000D03*
X207945000Y-142000000D03*
D71*
X206500000Y-140555000D03*
X206000000Y-140555000D03*
X205500000Y-140555000D03*
X205000000Y-140555000D03*
X204500000Y-140555000D03*
X204000000Y-140555000D03*
X203500000Y-140555000D03*
X203000000Y-140555000D03*
%TD*%
D72*
%TO.C,Q19*%
X332525000Y-143850000D03*
X332525000Y-145750000D03*
X334400000Y-144800000D03*
%TD*%
D73*
%TO.C,C25*%
X334100000Y-163150000D03*
X334100000Y-166100000D03*
%TD*%
%TO.C,C77*%
X334200000Y-147925000D03*
X334200000Y-150875000D03*
%TD*%
D44*
%TO.C,R190*%
X195665001Y-145805000D03*
X194645001Y-145805000D03*
%TD*%
D74*
%TO.C,C126*%
X267100000Y-159475000D03*
X269805000Y-159475000D03*
%TD*%
D53*
%TO.C,D21*%
X335700000Y-52712500D03*
X335700000Y-54287500D03*
%TD*%
D75*
%TO.C,U26*%
X263400000Y-139700000D03*
X263400000Y-140200000D03*
X263400000Y-140700000D03*
X263400000Y-141200000D03*
X263400000Y-141700000D03*
X263400000Y-142200000D03*
D76*
X264062500Y-142862500D03*
X264562500Y-142862500D03*
X265062500Y-142862500D03*
X265562500Y-142862500D03*
X266062500Y-142862500D03*
X266562500Y-142862500D03*
D75*
X267225000Y-142200000D03*
X267225000Y-141700000D03*
X267225000Y-141200000D03*
X267225000Y-140700000D03*
X267225000Y-140200000D03*
X267225000Y-139700000D03*
D76*
X266562500Y-139037500D03*
X266062500Y-139037500D03*
X265562500Y-139037500D03*
X265062500Y-139037500D03*
X264562500Y-139037500D03*
X264062500Y-139037500D03*
%TD*%
D77*
%TO.C,BZ1*%
X180100000Y-161300000D03*
X180100000Y-170000000D03*
%TD*%
D62*
%TO.C,R218*%
X213745000Y-144200000D03*
X214765000Y-144200000D03*
%TD*%
%TO.C,R211*%
X213745000Y-137700000D03*
X214765000Y-137700000D03*
%TD*%
D44*
%TO.C,R188*%
X195665001Y-146905000D03*
X194645001Y-146905000D03*
%TD*%
D78*
%TO.C,C121*%
X274600000Y-173495000D03*
X274600000Y-167255000D03*
%TD*%
D79*
%TO.C,D37*%
X118005901Y-199805000D03*
X118361501Y-199805000D03*
%TD*%
D59*
%TO.C,R213*%
X216055000Y-141210000D03*
X216055000Y-140190000D03*
%TD*%
D80*
%TO.C,C96*%
X317900002Y-143725000D03*
X317900002Y-149325000D03*
%TD*%
D53*
%TO.C,D18*%
X299000000Y-52750000D03*
X299000000Y-54325000D03*
%TD*%
D61*
%TO.C,U2*%
X157733000Y-92179944D03*
X157733000Y-91529958D03*
X157733000Y-90879972D03*
X157733000Y-90229986D03*
X157733000Y-89580000D03*
X157733000Y-88930014D03*
X157733000Y-88280028D03*
X157733000Y-87630042D03*
X151827500Y-87630042D03*
X151827500Y-88280028D03*
X151827500Y-88930014D03*
X151827500Y-89580000D03*
X151827500Y-90229986D03*
X151827500Y-90879972D03*
X151827500Y-91529958D03*
X151827500Y-92179944D03*
%TD*%
D59*
%TO.C,R199*%
X200275000Y-134410000D03*
X200275000Y-133390000D03*
%TD*%
D48*
%TO.C,C67*%
X120400000Y-103032233D03*
X120400000Y-111732233D03*
%TD*%
D79*
%TO.C,D34*%
X115954100Y-200985000D03*
X115598500Y-200985000D03*
%TD*%
D52*
%TO.C,FB1*%
X136137501Y-165912500D03*
X136137501Y-164337500D03*
%TD*%
D61*
%TO.C,U6*%
X325165500Y-92124944D03*
X325165500Y-91474958D03*
X325165500Y-90824972D03*
X325165500Y-90174986D03*
X325165500Y-89525000D03*
X325165500Y-88875014D03*
X325165500Y-88225028D03*
X325165500Y-87575042D03*
X319260000Y-87575042D03*
X319260000Y-88225028D03*
X319260000Y-88875014D03*
X319260000Y-89525000D03*
X319260000Y-90174986D03*
X319260000Y-90824972D03*
X319260000Y-91474958D03*
X319260000Y-92124944D03*
%TD*%
D48*
%TO.C,C72*%
X322270000Y-102560000D03*
X322270000Y-111260000D03*
%TD*%
D81*
%TO.C,D40*%
X339487500Y-155700000D03*
X337912500Y-155700000D03*
%TD*%
D82*
%TO.C,Y2*%
X137438749Y-149050001D03*
X137438749Y-151550001D03*
%TD*%
D49*
%TO.C,C13*%
X237947500Y-98537232D03*
X234997500Y-98537232D03*
%TD*%
D52*
%TO.C,D44*%
X125087500Y-203880000D03*
X125087500Y-202305000D03*
%TD*%
D49*
%TO.C,C9*%
X203520000Y-98757232D03*
X200570000Y-98757232D03*
%TD*%
D83*
%TO.C,J14*%
X330475000Y-122524999D03*
D84*
X332000000Y-121049999D03*
X332000000Y-123999999D03*
%TD*%
D62*
%TO.C,R214*%
X213745000Y-141300000D03*
X214765000Y-141300000D03*
%TD*%
D44*
%TO.C,R12*%
X131910000Y-169100000D03*
X130890000Y-169100000D03*
%TD*%
D48*
%TO.C,C71*%
X287800000Y-102560000D03*
X287800000Y-111260000D03*
%TD*%
D59*
%TO.C,R209*%
X208155000Y-134400000D03*
X208155000Y-133380000D03*
%TD*%
D47*
%TO.C,D4*%
X123500000Y-82000000D03*
X116700000Y-82000000D03*
%TD*%
D49*
%TO.C,C1*%
X120075000Y-99032232D03*
X117125000Y-99032232D03*
%TD*%
D78*
%TO.C,C85*%
X314500002Y-166045001D03*
X314500002Y-159805001D03*
%TD*%
D52*
%TO.C,D27*%
X176770000Y-146087501D03*
X176770000Y-144512501D03*
%TD*%
D47*
%TO.C,D24*%
X325360000Y-81725000D03*
X318560000Y-81725000D03*
%TD*%
D59*
%TO.C,R206*%
X206955000Y-134400000D03*
X206955000Y-133380000D03*
%TD*%
%TO.C,R219*%
X215955000Y-146510000D03*
X215955000Y-145490000D03*
%TD*%
%TO.C,R130*%
X193500000Y-190610001D03*
X193500000Y-189590001D03*
%TD*%
D85*
%TO.C,C87*%
X310600000Y-166200000D03*
X310600000Y-163250000D03*
%TD*%
D78*
%TO.C,C122*%
X280100000Y-173495000D03*
X280100000Y-167255000D03*
%TD*%
D61*
%TO.C,U1*%
X123305500Y-92399944D03*
X123305500Y-91749958D03*
X123305500Y-91099972D03*
X123305500Y-90449986D03*
X123305500Y-89800000D03*
X123305500Y-89150014D03*
X123305500Y-88500028D03*
X123305500Y-87850042D03*
X117400000Y-87850042D03*
X117400000Y-88500028D03*
X117400000Y-89150014D03*
X117400000Y-89800000D03*
X117400000Y-90449986D03*
X117400000Y-91099972D03*
X117400000Y-91749958D03*
X117400000Y-92399944D03*
%TD*%
D86*
%TO.C,U18*%
X230160000Y-177315000D03*
X230660000Y-177315000D03*
X231160000Y-177315000D03*
X231660000Y-177315000D03*
X231660000Y-175835000D03*
X231160000Y-175835000D03*
X230660000Y-175835000D03*
X230160000Y-175835000D03*
%TD*%
D87*
%TO.C,L2*%
X295375000Y-156050000D03*
X295375000Y-149400000D03*
%TD*%
D83*
%TO.C,J13*%
X330475000Y-132475001D03*
D84*
X332000000Y-131000001D03*
X332000000Y-133950001D03*
%TD*%
D48*
%TO.C,C68*%
X154820000Y-102710000D03*
X154820000Y-111410000D03*
%TD*%
D88*
%TO.C,C65*%
X234835000Y-179462500D03*
X234835000Y-182167500D03*
%TD*%
D66*
%TO.C,D15*%
X242922500Y-96874732D03*
X244822500Y-96874732D03*
X243872500Y-94999732D03*
%TD*%
D59*
%TO.C,R200*%
X201475000Y-134410000D03*
X201475000Y-133390000D03*
%TD*%
D53*
%TO.C,D2*%
X131800000Y-52924999D03*
X131800000Y-54499999D03*
%TD*%
D47*
%TO.C,D12*%
X206945000Y-81725000D03*
X200145000Y-81725000D03*
%TD*%
D49*
%TO.C,C5*%
X154502500Y-98812232D03*
X151552500Y-98812232D03*
%TD*%
D89*
%TO.C,D32*%
X195100000Y-192500000D03*
X193200000Y-192500000D03*
X194150000Y-194375000D03*
%TD*%
D90*
%TO.C,SW2*%
X101000000Y-151300000D03*
X101000000Y-155500000D03*
%TD*%
D65*
%TO.C,D30*%
X206500000Y-186260000D03*
X206500000Y-182960000D03*
%TD*%
D91*
%TO.C,U20*%
X252400000Y-163550000D03*
X252400000Y-164500000D03*
X252400000Y-165450000D03*
X254675000Y-165450000D03*
X254675000Y-164500000D03*
X254675000Y-163550000D03*
%TD*%
D74*
%TO.C,C127*%
X267247500Y-162575000D03*
X269952500Y-162575000D03*
%TD*%
D92*
%TO.C,U22*%
X195000000Y-167610000D03*
X195950000Y-167610000D03*
X196900000Y-167610000D03*
X196900000Y-164910000D03*
X195000000Y-164910000D03*
%TD*%
D44*
%TO.C,R193*%
X195665000Y-141475000D03*
X194645000Y-141475000D03*
%TD*%
D59*
%TO.C,R202*%
X203875000Y-134410000D03*
X203875000Y-133390000D03*
%TD*%
D93*
%TO.C,U23*%
X208800001Y-166210000D03*
X209750001Y-166210000D03*
X210700001Y-166210000D03*
X210700001Y-163935000D03*
X209750001Y-163935000D03*
X208800001Y-163935000D03*
%TD*%
D79*
%TO.C,D36*%
X119722200Y-199100000D03*
X120077800Y-199100000D03*
%TD*%
D73*
%TO.C,C44*%
X168237500Y-150975000D03*
X168237500Y-153925000D03*
%TD*%
D79*
%TO.C,D35*%
X116244100Y-199805000D03*
X115888500Y-199805000D03*
%TD*%
D80*
%TO.C,C97*%
X309750002Y-143725001D03*
X309750002Y-149325001D03*
%TD*%
D94*
%TO.C,L3*%
X265100000Y-171195000D03*
X265100000Y-167155000D03*
%TD*%
D81*
%TO.C,D39*%
X339687500Y-140500000D03*
X338112500Y-140500000D03*
%TD*%
D95*
%TO.C,U25*%
X215050000Y-193510000D03*
X215050000Y-191210000D03*
D96*
X208750000Y-191210000D03*
D95*
X215050000Y-188910000D03*
%TD*%
D62*
%TO.C,R217*%
X213745000Y-143000000D03*
X214765000Y-143000000D03*
%TD*%
D69*
%TO.C,D43*%
X242293153Y-132143153D03*
X243406847Y-133256847D03*
%TD*%
D78*
%TO.C,C86*%
X319700000Y-166045001D03*
X319700000Y-159805001D03*
%TD*%
D79*
%TO.C,D33*%
X119744400Y-201000000D03*
X120100000Y-201000000D03*
%TD*%
D44*
%TO.C,R201*%
X203775000Y-132200000D03*
X202755000Y-132200000D03*
%TD*%
D62*
%TO.C,R220*%
X213745000Y-146600000D03*
X214765000Y-146600000D03*
%TD*%
D97*
%TO.C,U21*%
X225260000Y-172260000D03*
X225260000Y-171310000D03*
X225260000Y-170360000D03*
X222985000Y-170360000D03*
X222985000Y-171310000D03*
X222985000Y-172260000D03*
%TD*%
D66*
%TO.C,D19*%
X292495000Y-97094732D03*
X294395000Y-97094732D03*
X293445000Y-95219732D03*
%TD*%
D44*
%TO.C,R197*%
X195655000Y-139225000D03*
X194635000Y-139225000D03*
%TD*%
D98*
%TO.C,Y1*%
X133814277Y-154671142D03*
X132258642Y-156226777D03*
X133460723Y-157428858D03*
X135016358Y-155873223D03*
%TD*%
D53*
%TO.C,D10*%
X215000000Y-52917633D03*
X215000000Y-54492633D03*
%TD*%
D60*
%TO.C,R187*%
X193355001Y-143505000D03*
X193355001Y-144525000D03*
%TD*%
D69*
%TO.C,D42*%
X234943153Y-139493153D03*
X236056847Y-140606847D03*
%TD*%
D52*
%TO.C,D26*%
X174000000Y-146087500D03*
X174000000Y-144512500D03*
%TD*%
D62*
%TO.C,R204*%
X205845000Y-132200000D03*
X206865000Y-132200000D03*
%TD*%
D47*
%TO.C,D16*%
X241372500Y-81505000D03*
X234572500Y-81505000D03*
%TD*%
D72*
%TO.C,Q20*%
X332400000Y-159100000D03*
X332400000Y-161000000D03*
X334275000Y-160050000D03*
%TD*%
D62*
%TO.C,R215*%
X213745000Y-140200000D03*
X214765000Y-140200000D03*
%TD*%
D60*
%TO.C,R195*%
X193345000Y-138190000D03*
X193345000Y-139210000D03*
%TD*%
D52*
%TO.C,D25*%
X171000000Y-146087500D03*
X171000000Y-144512500D03*
%TD*%
D59*
%TO.C,R192*%
X193370000Y-141435000D03*
X193370000Y-140415000D03*
%TD*%
D44*
%TO.C,R194*%
X195665000Y-140350000D03*
X194645000Y-140350000D03*
%TD*%
D47*
%TO.C,D8*%
X157927500Y-81780000D03*
X151127500Y-81780000D03*
%TD*%
D44*
%TO.C,R207*%
X209265000Y-132200000D03*
X208245000Y-132200000D03*
%TD*%
D62*
%TO.C,R221*%
X213745000Y-145400000D03*
X214765000Y-145400000D03*
%TD*%
D95*
%TO.C,U17*%
X246185000Y-180515000D03*
X246185000Y-178215000D03*
D96*
X239885000Y-178215000D03*
D95*
X246185000Y-175915000D03*
%TD*%
D99*
%TO.C,U19*%
X269080000Y-175375000D03*
X269080000Y-174875000D03*
X269080000Y-174375000D03*
X269080000Y-173875000D03*
X267600000Y-173875000D03*
X267600000Y-174375000D03*
X267600000Y-174875000D03*
X267600000Y-175375000D03*
%TD*%
D59*
%TO.C,R208*%
X209355000Y-134420000D03*
X209355000Y-133400000D03*
%TD*%
D60*
%TO.C,R216*%
X215955000Y-143090000D03*
X215955000Y-144110000D03*
%TD*%
D66*
%TO.C,D23*%
X326910000Y-97094732D03*
X328810000Y-97094732D03*
X327860000Y-95219732D03*
%TD*%
M02*
