%TF.GenerationSoftware,KiCad,Pcbnew,10.0.5*%
%TF.CreationDate,2026-09-12T21:52:26-07:00*%
%TF.ProjectId,valve_control_pcb,76616c76-655f-4636-9f6e-74726f6c5f70,rev?*%
%TF.SameCoordinates,Original*%
%TF.FileFunction,Soldermask,Bot*%
%TF.FilePolarity,Negative*%
%FSLAX46Y46*%
G04 Gerber Fmt 4.6, Leading zero omitted, Abs format (unit mm)*
G04 Created by KiCad (PCBNEW 10.0.5) date 2026-09-12 21:52:26*
%MOMM*%
%LPD*%
G01*
G04 APERTURE LIST*
G04 Aperture macros list*
%AMRoundRect*
0 Rectangle with rounded corners*
0 $1 Rounding radius*
0 $2 $3 $4 $5 $6 $7 $8 $9 X,Y pos of 4 corners*
0 Add a 4 corners polygon primitive as box body*
4,1,4,$2,$3,$4,$5,$6,$7,$8,$9,$2,$3,0*
0 Add four circle primitives for the rounded corners*
1,1,$1+$1,$2,$3*
1,1,$1+$1,$4,$5*
1,1,$1+$1,$6,$7*
1,1,$1+$1,$8,$9*
0 Add four rect primitives between the rounded corners*
20,1,$1+$1,$2,$3,$4,$5,0*
20,1,$1+$1,$4,$5,$6,$7,0*
20,1,$1+$1,$6,$7,$8,$9,0*
20,1,$1+$1,$8,$9,$2,$3,0*%
%AMFreePoly0*
4,1,23,0.500000,-0.750000,0.000000,-0.750000,0.000000,-0.745722,-0.065263,-0.745722,-0.191342,-0.711940,-0.304381,-0.646677,-0.396677,-0.554381,-0.461940,-0.441342,-0.495722,-0.315263,-0.495722,-0.250000,-0.500000,-0.250000,-0.500000,0.250000,-0.495722,0.250000,-0.495722,0.315263,-0.461940,0.441342,-0.396677,0.554381,-0.304381,0.646677,-0.191342,0.711940,-0.065263,0.745722,0.000000,0.745722,
0.000000,0.750000,0.500000,0.750000,0.500000,-0.750000,0.500000,-0.750000,$1*%
%AMFreePoly1*
4,1,23,0.000000,0.745722,0.065263,0.745722,0.191342,0.711940,0.304381,0.646677,0.396677,0.554381,0.461940,0.441342,0.495722,0.315263,0.495722,0.250000,0.500000,0.250000,0.500000,-0.250000,0.495722,-0.250000,0.495722,-0.315263,0.461940,-0.441342,0.396677,-0.554381,0.304381,-0.646677,0.191342,-0.711940,0.065263,-0.745722,0.000000,-0.745722,0.000000,-0.750000,-0.500000,-0.750000,
-0.500000,0.750000,0.000000,0.750000,0.000000,0.745722,0.000000,0.745722,$1*%
G04 Aperture macros list end*
%ADD10C,0.100000*%
%ADD11C,4.050000*%
%ADD12RoundRect,0.250000X0.475000X-0.250000X0.475000X0.250000X-0.475000X0.250000X-0.475000X-0.250000X0*%
%ADD13RoundRect,0.140000X-0.170000X0.140000X-0.170000X-0.140000X0.170000X-0.140000X0.170000X0.140000X0*%
%ADD14RoundRect,0.200000X-0.200000X-0.275000X0.200000X-0.275000X0.200000X0.275000X-0.200000X0.275000X0*%
%ADD15RoundRect,0.150000X0.150000X-0.825000X0.150000X0.825000X-0.150000X0.825000X-0.150000X-0.825000X0*%
%ADD16O,2.700000X3.300000*%
%ADD17RoundRect,0.250001X1.099999X1.399999X-1.099999X1.399999X-1.099999X-1.399999X1.099999X-1.399999X0*%
%ADD18C,3.000000*%
%ADD19C,1.800000*%
%ADD20RoundRect,0.250002X1.599998X1.599998X-1.599998X1.599998X-1.599998X-1.599998X1.599998X-1.599998X0*%
%ADD21C,3.700000*%
%ADD22O,1.500000X2.020000*%
%ADD23RoundRect,0.250001X-0.499999X-0.759999X0.499999X-0.759999X0.499999X0.759999X-0.499999X0.759999X0*%
%ADD24C,1.270000*%
%ADD25C,0.700000*%
%ADD26O,2.500000X1.500000*%
%ADD27R,2.500000X1.500000*%
%ADD28O,3.500000X2.200000*%
%ADD29RoundRect,0.062500X-0.237500X-0.062500X0.237500X-0.062500X0.237500X0.062500X-0.237500X0.062500X0*%
%ADD30R,0.900000X1.600000*%
%ADD31RoundRect,0.062500X-0.062500X0.237500X-0.062500X-0.237500X0.062500X-0.237500X0.062500X0.237500X0*%
%ADD32R,1.600000X0.900000*%
%ADD33RoundRect,0.062500X0.237500X0.062500X-0.237500X0.062500X-0.237500X-0.062500X0.237500X-0.062500X0*%
%ADD34RoundRect,0.250000X0.250000X0.475000X-0.250000X0.475000X-0.250000X-0.475000X0.250000X-0.475000X0*%
%ADD35RoundRect,0.225000X-0.250000X0.225000X-0.250000X-0.225000X0.250000X-0.225000X0.250000X0.225000X0*%
%ADD36RoundRect,0.225000X-0.225000X-0.250000X0.225000X-0.250000X0.225000X0.250000X-0.225000X0.250000X0*%
%ADD37RoundRect,0.225000X0.225000X0.250000X-0.225000X0.250000X-0.225000X-0.250000X0.225000X-0.250000X0*%
%ADD38RoundRect,0.140000X0.140000X0.170000X-0.140000X0.170000X-0.140000X-0.170000X0.140000X-0.170000X0*%
%ADD39RoundRect,0.140000X-0.140000X-0.170000X0.140000X-0.170000X0.140000X0.170000X-0.140000X0.170000X0*%
%ADD40RoundRect,0.140000X0.170000X-0.140000X0.170000X0.140000X-0.170000X0.140000X-0.170000X-0.140000X0*%
%ADD41C,5.500000*%
%ADD42RoundRect,0.250000X-0.600000X-0.750000X0.600000X-0.750000X0.600000X0.750000X-0.600000X0.750000X0*%
%ADD43O,1.700000X2.000000*%
%ADD44C,2.780000*%
%ADD45RoundRect,0.250000X0.750000X-0.600000X0.750000X0.600000X-0.750000X0.600000X-0.750000X-0.600000X0*%
%ADD46O,2.000000X1.700000*%
%ADD47R,1.000000X1.000000*%
%ADD48C,1.000000*%
%ADD49R,1.700000X1.700000*%
%ADD50C,1.700000*%
%ADD51RoundRect,0.250000X-0.600000X0.600000X-0.600000X-0.600000X0.600000X-0.600000X0.600000X0.600000X0*%
%ADD52RoundRect,0.200000X0.275000X-0.200000X0.275000X0.200000X-0.275000X0.200000X-0.275000X-0.200000X0*%
%ADD53RoundRect,0.200000X-0.275000X0.200000X-0.275000X-0.200000X0.275000X-0.200000X0.275000X0.200000X0*%
%ADD54RoundRect,0.200000X0.200000X0.275000X-0.200000X0.275000X-0.200000X-0.275000X0.200000X-0.275000X0*%
%ADD55RoundRect,0.150000X0.150000X-0.587500X0.150000X0.587500X-0.150000X0.587500X-0.150000X-0.587500X0*%
%ADD56FreePoly0,180.000000*%
%ADD57FreePoly1,180.000000*%
%ADD58RoundRect,0.135000X-0.185000X0.135000X-0.185000X-0.135000X0.185000X-0.135000X0.185000X0.135000X0*%
%ADD59RoundRect,0.218750X0.256250X-0.218750X0.256250X0.218750X-0.256250X0.218750X-0.256250X-0.218750X0*%
%ADD60R,0.240000X0.599999*%
%ADD61R,0.599999X0.240000*%
%ADD62R,1.699999X2.700000*%
%ADD63RoundRect,0.050000X0.050000X-0.325000X0.050000X0.325000X-0.050000X0.325000X-0.050000X-0.325000X0*%
%ADD64RoundRect,0.087500X0.087500X-0.537500X0.087500X0.537500X-0.087500X0.537500X-0.087500X-0.537500X0*%
%ADD65RoundRect,0.250000X-0.325000X-0.650000X0.325000X-0.650000X0.325000X0.650000X-0.325000X0.650000X0*%
G04 APERTURE END LIST*
D10*
X93000000Y-43915592D02*
X349000000Y-43915592D01*
X349000000Y-46915592D01*
X93000000Y-46915592D01*
X93000000Y-43915592D01*
G36*
X93000000Y-43915592D02*
G01*
X349000000Y-43915592D01*
X349000000Y-46915592D01*
X93000000Y-46915592D01*
X93000000Y-43915592D01*
G37*
X93000000Y-43950000D02*
X96000000Y-43950000D01*
X96000000Y-209925000D01*
X93000000Y-209925000D01*
X93000000Y-43950000D01*
G36*
X93000000Y-43950000D02*
G01*
X96000000Y-43950000D01*
X96000000Y-209925000D01*
X93000000Y-209925000D01*
X93000000Y-43950000D01*
G37*
X94500000Y-209890592D02*
X94500000Y-209890592D01*
G75*
G02*
X94500000Y-206890592I0J1499992D01*
G01*
X108760000Y-206890592D01*
G75*
G02*
X108760000Y-209890592I0J-1500008D01*
G01*
X94500000Y-209890592D01*
G36*
X94500000Y-209890592D02*
G01*
X94500000Y-209890592D01*
G75*
G02*
X94500000Y-206890592I0J1499992D01*
G01*
X108760000Y-206890592D01*
G75*
G02*
X108760000Y-209890592I0J-1500008D01*
G01*
X94500000Y-209890592D01*
G37*
X96000000Y-70465592D02*
X346000000Y-70465592D01*
X346000000Y-73465592D01*
X96000000Y-73465592D01*
X96000000Y-70465592D01*
G36*
X96000000Y-70465592D02*
G01*
X346000000Y-70465592D01*
X346000000Y-73465592D01*
X96000000Y-73465592D01*
X96000000Y-70465592D01*
G37*
D11*
X99025000Y-48065592D02*
G75*
G02*
X94975000Y-48065592I-2025000J0D01*
G01*
X94975000Y-48065592D02*
G75*
G02*
X99025000Y-48065592I2025000J0D01*
G01*
X99025000Y-127000000D02*
G75*
G02*
X94975000Y-127000000I-2025000J0D01*
G01*
X94975000Y-127000000D02*
G75*
G02*
X99025000Y-127000000I2025000J0D01*
G01*
X99025000Y-205965592D02*
G75*
G02*
X94975000Y-205965592I-2025000J0D01*
G01*
X94975000Y-205965592D02*
G75*
G02*
X99025000Y-205965592I2025000J0D01*
G01*
X99225000Y-72065592D02*
G75*
G02*
X95175000Y-72065592I-2025000J0D01*
G01*
X95175000Y-72065592D02*
G75*
G02*
X99225000Y-72065592I2025000J0D01*
G01*
D10*
X108760000Y-187050000D02*
X108760000Y-187050000D01*
G75*
G02*
X108760000Y-184050000I0J1500000D01*
G01*
X181490000Y-184050000D01*
G75*
G02*
X181490000Y-187050000I0J-1500000D01*
G01*
X108760000Y-187050000D01*
G36*
X108760000Y-187050000D02*
G01*
X108760000Y-187050000D01*
G75*
G02*
X108760000Y-184050000I0J1500000D01*
G01*
X181490000Y-184050000D01*
G75*
G02*
X181490000Y-187050000I0J-1500000D01*
G01*
X108760000Y-187050000D01*
G37*
X107260000Y-185500000D02*
X110260000Y-185500000D01*
X110260000Y-208530000D01*
X107260000Y-208530000D01*
X107260000Y-185500000D01*
G36*
X107260000Y-185500000D02*
G01*
X110260000Y-185500000D01*
X110260000Y-208530000D01*
X107260000Y-208530000D01*
X107260000Y-185500000D01*
G37*
X178200000Y-50265592D02*
X181200000Y-50265592D01*
X181200000Y-70965592D01*
X178200000Y-70965592D01*
X178200000Y-50265592D01*
G36*
X178200000Y-50265592D02*
G01*
X181200000Y-50265592D01*
X181200000Y-70965592D01*
X178200000Y-70965592D01*
X178200000Y-50265592D01*
G37*
D11*
X181725000Y-48065592D02*
G75*
G02*
X177675000Y-48065592I-2025000J0D01*
G01*
X177675000Y-48065592D02*
G75*
G02*
X181725000Y-48065592I2025000J0D01*
G01*
X181725000Y-71865592D02*
G75*
G02*
X177675000Y-71865592I-2025000J0D01*
G01*
X177675000Y-71865592D02*
G75*
G02*
X181725000Y-71865592I2025000J0D01*
G01*
D10*
X181470000Y-209885592D02*
X181470000Y-209885592D01*
G75*
G02*
X181470000Y-206885592I0J1499992D01*
G01*
X346750000Y-206885592D01*
G75*
G02*
X346750000Y-209885592I0J-1500008D01*
G01*
X181470000Y-209885592D01*
G36*
X181470000Y-209885592D02*
G01*
X181470000Y-209885592D01*
G75*
G02*
X181470000Y-206885592I0J1499992D01*
G01*
X346750000Y-206885592D01*
G75*
G02*
X346750000Y-209885592I0J-1500008D01*
G01*
X181470000Y-209885592D01*
G37*
X179990000Y-185590000D02*
X182990000Y-185590000D01*
X182990000Y-208370000D01*
X179990000Y-208370000D01*
X179990000Y-185590000D01*
G36*
X179990000Y-185590000D02*
G01*
X182990000Y-185590000D01*
X182990000Y-208370000D01*
X179990000Y-208370000D01*
X179990000Y-185590000D01*
G37*
D11*
X223025000Y-126965592D02*
G75*
G02*
X218975000Y-126965592I-2025000J0D01*
G01*
X218975000Y-126965592D02*
G75*
G02*
X223025000Y-126965592I2025000J0D01*
G01*
X223025000Y-206165592D02*
G75*
G02*
X218975000Y-206165592I-2025000J0D01*
G01*
X218975000Y-206165592D02*
G75*
G02*
X223025000Y-206165592I2025000J0D01*
G01*
D10*
X260800000Y-50265592D02*
X263800000Y-50265592D01*
X263800000Y-70965592D01*
X260800000Y-70965592D01*
X260800000Y-50265592D01*
G36*
X260800000Y-50265592D02*
G01*
X263800000Y-50265592D01*
X263800000Y-70965592D01*
X260800000Y-70965592D01*
X260800000Y-50265592D01*
G37*
D11*
X264325000Y-47965592D02*
G75*
G02*
X260275000Y-47965592I-2025000J0D01*
G01*
X260275000Y-47965592D02*
G75*
G02*
X264325000Y-47965592I2025000J0D01*
G01*
X264425000Y-71965592D02*
G75*
G02*
X260375000Y-71965592I-2025000J0D01*
G01*
X260375000Y-71965592D02*
G75*
G02*
X264425000Y-71965592I2025000J0D01*
G01*
X346825000Y-71865592D02*
G75*
G02*
X342775000Y-71865592I-2025000J0D01*
G01*
X342775000Y-71865592D02*
G75*
G02*
X346825000Y-71865592I2025000J0D01*
G01*
X347025000Y-47965592D02*
G75*
G02*
X342975000Y-47965592I-2025000J0D01*
G01*
X342975000Y-47965592D02*
G75*
G02*
X347025000Y-47965592I2025000J0D01*
G01*
X347025000Y-127000000D02*
G75*
G02*
X342975000Y-127000000I-2025000J0D01*
G01*
X342975000Y-127000000D02*
G75*
G02*
X347025000Y-127000000I2025000J0D01*
G01*
X347025000Y-206065592D02*
G75*
G02*
X342975000Y-206065592I-2025000J0D01*
G01*
X342975000Y-206065592D02*
G75*
G02*
X347025000Y-206065592I2025000J0D01*
G01*
D10*
X346000000Y-43915592D02*
X349000000Y-43915592D01*
X349000000Y-209890592D01*
X346000000Y-209890592D01*
X346000000Y-43915592D01*
G36*
X346000000Y-43915592D02*
G01*
X349000000Y-43915592D01*
X349000000Y-209890592D01*
X346000000Y-209890592D01*
X346000000Y-43915592D01*
G37*
%TO.C,JP1*%
G36*
X194930000Y-189503642D02*
G01*
X195230000Y-189503642D01*
X195230000Y-191003642D01*
X194930000Y-191003642D01*
X194930000Y-189503642D01*
G37*
%TD*%
D12*
%TO.C,C130*%
X132100000Y-102749999D03*
X132100000Y-100850001D03*
%TD*%
D13*
%TO.C,C129*%
X132600000Y-105090000D03*
X132600000Y-106050000D03*
%TD*%
D14*
%TO.C,R255*%
X142025000Y-103200000D03*
X140375000Y-103200000D03*
%TD*%
%TO.C,R254*%
X142000000Y-108100000D03*
X140350000Y-108100000D03*
%TD*%
D15*
%TO.C,U14*%
X138005000Y-103175000D03*
X136735000Y-103175000D03*
X135465000Y-103175000D03*
X134195000Y-103175000D03*
X134195000Y-108125000D03*
X135465000Y-108125000D03*
X136735000Y-108125000D03*
X138005000Y-108125000D03*
%TD*%
%TO.C,U16*%
X304950000Y-107950000D03*
X303680000Y-107950000D03*
X302410000Y-107950000D03*
X301140000Y-107950000D03*
X301140000Y-103000000D03*
X302410000Y-103000000D03*
X303680000Y-103000000D03*
X304950000Y-103000000D03*
%TD*%
%TO.C,U15*%
X221600000Y-108050000D03*
X220330000Y-108050000D03*
X219060000Y-108050000D03*
X217790000Y-108050000D03*
X217790000Y-103100000D03*
X219060000Y-103100000D03*
X220330000Y-103100000D03*
X221600000Y-103100000D03*
%TD*%
D14*
%TO.C,R259*%
X307375000Y-103000000D03*
X309025000Y-103000000D03*
%TD*%
%TO.C,R258*%
X307375000Y-107950000D03*
X309025000Y-107950000D03*
%TD*%
%TO.C,R257*%
X223675000Y-103100000D03*
X225325000Y-103100000D03*
%TD*%
%TO.C,R256*%
X223625000Y-108050000D03*
X225275000Y-108050000D03*
%TD*%
D13*
%TO.C,C134*%
X299600000Y-105070000D03*
X299600000Y-106030000D03*
%TD*%
D12*
%TO.C,C133*%
X299100000Y-102549999D03*
X299100000Y-100650001D03*
%TD*%
D13*
%TO.C,C132*%
X216250000Y-105170000D03*
X216250000Y-106130000D03*
%TD*%
D12*
%TO.C,C131*%
X215750000Y-102549999D03*
X215750000Y-100650001D03*
%TD*%
D16*
%TO.C,J1*%
X117750000Y-56150000D03*
X121950000Y-56150000D03*
X117750000Y-61650000D03*
D17*
X121950000Y-61650000D03*
D18*
X113050000Y-56610000D03*
X126650000Y-56610000D03*
%TD*%
D16*
%TO.C,J2*%
X152177500Y-55930000D03*
X156377500Y-55930000D03*
X152177500Y-61430000D03*
D17*
X156377500Y-61430000D03*
D18*
X147477500Y-56390000D03*
X161077500Y-56390000D03*
%TD*%
D16*
%TO.C,J3*%
X201195000Y-55875000D03*
X205395000Y-55875000D03*
X201195000Y-61375000D03*
D17*
X205395000Y-61375000D03*
D18*
X196495000Y-56335000D03*
X210095000Y-56335000D03*
%TD*%
D16*
%TO.C,J4*%
X235622500Y-55655000D03*
X239822500Y-55655000D03*
X235622500Y-61155000D03*
D17*
X239822500Y-61155000D03*
D18*
X230922500Y-56115000D03*
X244522500Y-56115000D03*
%TD*%
D16*
%TO.C,J5*%
X285195000Y-55875000D03*
X289395000Y-55875000D03*
X285195000Y-61375000D03*
D17*
X289395000Y-61375000D03*
D18*
X280495000Y-56335000D03*
X294095000Y-56335000D03*
%TD*%
D16*
%TO.C,J6*%
X319610000Y-55875000D03*
X323810000Y-55875000D03*
X319610000Y-61375000D03*
D17*
X323810000Y-61375000D03*
D18*
X314910000Y-56335000D03*
X328510000Y-56335000D03*
%TD*%
D19*
%TO.C,J7*%
X266620000Y-192530000D03*
D20*
X291900000Y-201000000D03*
D21*
X286200000Y-201000000D03*
X280500000Y-201000000D03*
X274800000Y-201000000D03*
X269099999Y-201000000D03*
X291900000Y-195300000D03*
X286200000Y-195300000D03*
X280500000Y-195300000D03*
X274800000Y-195300000D03*
X269100000Y-195300000D03*
%TD*%
D22*
%TO.C,J12*%
X201600000Y-201250000D03*
X198600000Y-201250000D03*
X195600000Y-201250000D03*
D23*
X192600000Y-201250000D03*
D24*
X204600000Y-199290000D03*
X189600000Y-199290000D03*
%TD*%
D25*
%TO.C,J15*%
X120120000Y-203500000D03*
X114340000Y-203500000D03*
%TD*%
D26*
%TO.C,SW1*%
X101000000Y-143000000D03*
X101000000Y-141000000D03*
D27*
X101000000Y-139000000D03*
D28*
X101000000Y-145100000D03*
X101000000Y-136900000D03*
%TD*%
D29*
%TO.C,U13*%
X131100000Y-84050000D03*
X131100000Y-83550000D03*
X131100000Y-83050000D03*
X131100000Y-82550000D03*
X133000000Y-82550000D03*
X133000000Y-83050000D03*
X133000000Y-83550000D03*
X133000000Y-84050000D03*
D30*
X132050000Y-83300000D03*
%TD*%
D29*
%TO.C,U33*%
X214375000Y-83975000D03*
X214375000Y-83475000D03*
X214375000Y-82975000D03*
X214375000Y-82475000D03*
X216275000Y-82475000D03*
X216275000Y-82975000D03*
X216275000Y-83475000D03*
X216275000Y-83975000D03*
D30*
X215325000Y-83225000D03*
%TD*%
D29*
%TO.C,U34*%
X298500000Y-84200000D03*
X298500000Y-83700000D03*
X298500000Y-83200000D03*
X298500000Y-82700000D03*
X300400000Y-82700000D03*
X300400000Y-83200000D03*
X300400000Y-83700000D03*
X300400000Y-84200000D03*
D30*
X299450000Y-83450000D03*
%TD*%
D31*
%TO.C,U35*%
X281200000Y-139700000D03*
X281700000Y-139700000D03*
X282200000Y-139700000D03*
X282700000Y-139700000D03*
X282700000Y-141600000D03*
X282200000Y-141600000D03*
X281700000Y-141600000D03*
X281200000Y-141600000D03*
D32*
X281950000Y-140650000D03*
%TD*%
D33*
%TO.C,U36*%
X152095385Y-154125000D03*
X152095385Y-154625000D03*
X152095385Y-155125000D03*
X152095385Y-155625000D03*
X150195385Y-155625000D03*
X150195385Y-155125000D03*
X150195385Y-154625000D03*
X150195385Y-154125000D03*
D30*
X151145385Y-154875000D03*
%TD*%
D34*
%TO.C,C107*%
X135650000Y-196000000D03*
X133750000Y-196000000D03*
%TD*%
%TO.C,C78*%
X206000000Y-143150000D03*
X204100000Y-143150000D03*
%TD*%
D12*
%TO.C,C33*%
X145300000Y-162250000D03*
X145300000Y-160350000D03*
%TD*%
D35*
%TO.C,C98*%
X296075002Y-145324997D03*
X296075002Y-146874997D03*
%TD*%
D36*
%TO.C,C94*%
X294450002Y-155474997D03*
X296000002Y-155474997D03*
%TD*%
D37*
%TO.C,C93*%
X296000002Y-153774996D03*
X294450002Y-153774996D03*
%TD*%
D36*
%TO.C,C89*%
X306100002Y-152849997D03*
X307650002Y-152849997D03*
%TD*%
D35*
%TO.C,C88*%
X297725002Y-157974997D03*
X297725002Y-159524997D03*
%TD*%
D38*
%TO.C,C100*%
X148975385Y-153925000D03*
X148015385Y-153925000D03*
%TD*%
D13*
%TO.C,C99*%
X281000000Y-142820000D03*
X281000000Y-143780000D03*
%TD*%
%TO.C,C95*%
X297425002Y-155694997D03*
X297425002Y-156654997D03*
%TD*%
D38*
%TO.C,C92*%
X306530000Y-156450000D03*
X305570000Y-156450000D03*
%TD*%
D39*
%TO.C,C91*%
X303450000Y-147849997D03*
X304410000Y-147849997D03*
%TD*%
D38*
%TO.C,C90*%
X303605002Y-157699997D03*
X302645002Y-157699997D03*
%TD*%
D13*
%TO.C,C84*%
X164800000Y-153920000D03*
X164800000Y-154880000D03*
%TD*%
D39*
%TO.C,C76*%
X174200000Y-188900000D03*
X175160000Y-188900000D03*
%TD*%
%TO.C,C74*%
X301620000Y-84400000D03*
X302580000Y-84400000D03*
%TD*%
%TO.C,C73*%
X217495000Y-84175000D03*
X218455000Y-84175000D03*
%TD*%
%TO.C,C66*%
X134220000Y-84250000D03*
X135180000Y-84250000D03*
%TD*%
D38*
%TO.C,C41*%
X143960000Y-157400000D03*
X143000000Y-157400000D03*
%TD*%
D40*
%TO.C,C30*%
X143300000Y-161030000D03*
X143300000Y-160070000D03*
%TD*%
D41*
%TO.C,H3*%
X97000000Y-127000000D03*
%TD*%
%TO.C,H4*%
X221000000Y-127000000D03*
%TD*%
%TO.C,H7*%
X345000000Y-48000000D03*
%TD*%
D42*
%TO.C,J27*%
X320350000Y-202700000D03*
D43*
X322850000Y-202700000D03*
%TD*%
D44*
%TO.C,F1*%
X324900000Y-188660001D03*
X328300000Y-188660001D03*
X324900000Y-178740001D03*
X328300000Y-178740001D03*
%TD*%
D41*
%TO.C,H6*%
X262333333Y-48000000D03*
%TD*%
%TO.C,H5*%
X97000000Y-206200000D03*
%TD*%
%TO.C,H8*%
X345000000Y-127000000D03*
%TD*%
%TO.C,H2*%
X179666667Y-48000000D03*
%TD*%
%TO.C,H1*%
X97000000Y-48000000D03*
%TD*%
%TO.C,H9*%
X221000000Y-206200000D03*
%TD*%
D45*
%TO.C,J26*%
X338800000Y-162600000D03*
D46*
X338800000Y-160100000D03*
%TD*%
D41*
%TO.C,H10*%
X345000000Y-206000000D03*
%TD*%
D47*
%TO.C,J9*%
X100730000Y-162530000D03*
D48*
X102000000Y-162530000D03*
X100730000Y-163800000D03*
X102000000Y-163800000D03*
X100730000Y-165070000D03*
X102000000Y-165070000D03*
X100730000Y-166340000D03*
X102000000Y-166340000D03*
X100730000Y-167610000D03*
X102000000Y-167610000D03*
X100730000Y-168880000D03*
X102000000Y-168880000D03*
X100730000Y-170150000D03*
X102000000Y-170150000D03*
%TD*%
D49*
%TO.C,J11*%
X221860000Y-178770000D03*
D50*
X221860000Y-181310000D03*
%TD*%
D49*
%TO.C,J17*%
X252400000Y-170625000D03*
D50*
X252400000Y-173165000D03*
%TD*%
D51*
%TO.C,J8*%
X174000000Y-196210000D03*
D50*
X174000000Y-198750000D03*
X171460000Y-196210000D03*
X171460000Y-198750000D03*
X168920000Y-196210000D03*
X168920000Y-198750000D03*
X166380000Y-196210000D03*
X166380000Y-198750000D03*
X163840000Y-196210000D03*
X163840000Y-198750000D03*
X161300000Y-196210000D03*
X161300000Y-198750000D03*
X158760000Y-196210000D03*
X158760000Y-198750000D03*
X156220000Y-196210000D03*
X156220000Y-198750000D03*
X153680000Y-196210000D03*
X153680000Y-198750000D03*
X151140000Y-196210000D03*
X151140000Y-198750000D03*
%TD*%
D45*
%TO.C,J25*%
X338800000Y-147300000D03*
D46*
X338800000Y-144800000D03*
%TD*%
D52*
%TO.C,R243*%
X125000000Y-200575000D03*
X125000000Y-198925000D03*
%TD*%
%TO.C,R242*%
X233780000Y-144712500D03*
X233780000Y-143062500D03*
%TD*%
D53*
%TO.C,R235*%
X239480000Y-142900000D03*
X239480000Y-144550000D03*
%TD*%
%TO.C,R181*%
X151700000Y-179475000D03*
X151700000Y-181125000D03*
%TD*%
%TO.C,R180*%
X155500000Y-179475000D03*
X155500000Y-181125000D03*
%TD*%
%TO.C,R179*%
X163800000Y-179450000D03*
X163800000Y-181100000D03*
%TD*%
%TO.C,R178*%
X167200000Y-179475000D03*
X167200000Y-181125000D03*
%TD*%
D52*
%TO.C,R177*%
X153600000Y-181125000D03*
X153600000Y-179475000D03*
%TD*%
%TO.C,R176*%
X157400000Y-181125000D03*
X157400000Y-179475000D03*
%TD*%
%TO.C,R175*%
X165500000Y-181125000D03*
X165500000Y-179475000D03*
%TD*%
%TO.C,R174*%
X168900000Y-181125000D03*
X168900000Y-179475000D03*
%TD*%
D53*
%TO.C,R173*%
X136300000Y-179550000D03*
X136300000Y-181200000D03*
%TD*%
D14*
%TO.C,R172*%
X176375000Y-190500000D03*
X178025000Y-190500000D03*
%TD*%
D52*
%TO.C,R171*%
X134600000Y-181150000D03*
X134600000Y-179500000D03*
%TD*%
%TO.C,R170*%
X132900000Y-181180000D03*
X132900000Y-179530000D03*
%TD*%
D53*
%TO.C,R169*%
X127200000Y-202175000D03*
X127200000Y-203825000D03*
%TD*%
D52*
%TO.C,R168*%
X131200000Y-181200000D03*
X131200000Y-179550000D03*
%TD*%
%TO.C,R167*%
X138000000Y-181200000D03*
X138000000Y-179550000D03*
%TD*%
%TO.C,R166*%
X139800000Y-181225000D03*
X139800000Y-179575000D03*
%TD*%
%TO.C,R165*%
X141600000Y-181225000D03*
X141600000Y-179575000D03*
%TD*%
D53*
%TO.C,R164*%
X122800000Y-193450000D03*
X122800000Y-195100000D03*
%TD*%
%TO.C,R163*%
X122800000Y-196650000D03*
X122800000Y-198300000D03*
%TD*%
D54*
%TO.C,R162*%
X113725000Y-195300000D03*
X112075000Y-195300000D03*
%TD*%
%TO.C,R161*%
X120725000Y-195300000D03*
X119075000Y-195300000D03*
%TD*%
D14*
%TO.C,R158*%
X153670385Y-155125000D03*
X155320385Y-155125000D03*
%TD*%
%TO.C,R157*%
X166850000Y-148400000D03*
X168500000Y-148400000D03*
%TD*%
%TO.C,R156*%
X297650002Y-145349997D03*
X299300002Y-145349997D03*
%TD*%
D53*
%TO.C,R155*%
X300875002Y-145249997D03*
X300875002Y-146899997D03*
%TD*%
D54*
%TO.C,R154*%
X296050002Y-148674997D03*
X294400002Y-148674997D03*
%TD*%
D14*
%TO.C,R153*%
X294400002Y-150374997D03*
X296050002Y-150374997D03*
%TD*%
D52*
%TO.C,R152*%
X297725002Y-148674997D03*
X297725002Y-147024997D03*
%TD*%
D14*
%TO.C,R151*%
X294425002Y-157174997D03*
X296075002Y-157174997D03*
%TD*%
D54*
%TO.C,R150*%
X296050002Y-152074997D03*
X294400002Y-152074997D03*
%TD*%
%TO.C,R149*%
X305055000Y-149249997D03*
X303405000Y-149249997D03*
%TD*%
D53*
%TO.C,R148*%
X299225002Y-150874997D03*
X299225002Y-152524997D03*
%TD*%
D14*
%TO.C,R147*%
X306100002Y-157699997D03*
X307750002Y-157699997D03*
%TD*%
D52*
%TO.C,R146*%
X301325002Y-159524997D03*
X301325002Y-157874997D03*
%TD*%
D14*
%TO.C,R145*%
X306100002Y-159599997D03*
X307750002Y-159599997D03*
%TD*%
D52*
%TO.C,R144*%
X299525002Y-159574997D03*
X299525002Y-157924997D03*
%TD*%
D53*
%TO.C,R143*%
X166300000Y-153975000D03*
X166300000Y-155625000D03*
%TD*%
D54*
%TO.C,R128*%
X296925000Y-83200000D03*
X295275000Y-83200000D03*
%TD*%
%TO.C,R127*%
X212800000Y-82975000D03*
X211150000Y-82975000D03*
%TD*%
%TO.C,R126*%
X129525000Y-83050000D03*
X127875000Y-83050000D03*
%TD*%
D52*
%TO.C,R120*%
X245380000Y-144550000D03*
X245380000Y-142900000D03*
%TD*%
D14*
%TO.C,R106*%
X105175000Y-165500000D03*
X106825000Y-165500000D03*
%TD*%
D52*
%TO.C,R105*%
X179600000Y-142250000D03*
X179600000Y-140600000D03*
%TD*%
D54*
%TO.C,R104*%
X183683927Y-154349999D03*
X182033927Y-154349999D03*
%TD*%
%TO.C,R103*%
X106825000Y-167300000D03*
X105175000Y-167300000D03*
%TD*%
%TO.C,R102*%
X106825000Y-169150000D03*
X105175000Y-169150000D03*
%TD*%
D14*
%TO.C,R101*%
X105175000Y-163650000D03*
X106825000Y-163650000D03*
%TD*%
D52*
%TO.C,R100*%
X176800000Y-142250000D03*
X176800000Y-140600000D03*
%TD*%
D54*
%TO.C,R99*%
X180083927Y-154349999D03*
X178433927Y-154349999D03*
%TD*%
D52*
%TO.C,R98*%
X174029999Y-142250000D03*
X174029999Y-140600000D03*
%TD*%
D54*
%TO.C,R97*%
X176483927Y-154349999D03*
X174833927Y-154349999D03*
%TD*%
D52*
%TO.C,R96*%
X171000000Y-142250000D03*
X171000000Y-140600000D03*
%TD*%
D54*
%TO.C,R95*%
X172783927Y-154349999D03*
X171133927Y-154349999D03*
%TD*%
%TO.C,R94*%
X176325000Y-163000000D03*
X174675000Y-163000000D03*
%TD*%
%TO.C,R93*%
X176324999Y-161300000D03*
X174674999Y-161300000D03*
%TD*%
D52*
%TO.C,R89*%
X169600000Y-189725000D03*
X169600000Y-188075000D03*
%TD*%
D14*
%TO.C,R88*%
X171175000Y-188200000D03*
X172825000Y-188200000D03*
%TD*%
D53*
%TO.C,R72*%
X333022500Y-57360000D03*
X333022500Y-59010000D03*
%TD*%
%TO.C,R71*%
X335722500Y-57360000D03*
X335722500Y-59010000D03*
%TD*%
%TO.C,R58*%
X299022500Y-57397500D03*
X299022500Y-59047500D03*
%TD*%
%TO.C,R57*%
X301722500Y-57397500D03*
X301722500Y-59047500D03*
%TD*%
%TO.C,R44*%
X249522500Y-57147500D03*
X249522500Y-58797500D03*
%TD*%
%TO.C,R43*%
X252222500Y-57147500D03*
X252222500Y-58797500D03*
%TD*%
%TO.C,R30*%
X215022500Y-57565133D03*
X215022500Y-59215133D03*
%TD*%
%TO.C,R29*%
X217722500Y-57565133D03*
X217722500Y-59215133D03*
%TD*%
%TO.C,R16*%
X166522500Y-57360000D03*
X166522500Y-59010000D03*
%TD*%
%TO.C,R15*%
X169222500Y-57360000D03*
X169222500Y-59010000D03*
%TD*%
%TO.C,R2*%
X131822500Y-57572499D03*
X131822500Y-59222499D03*
%TD*%
%TO.C,R1*%
X134522500Y-57572499D03*
X134522500Y-59222499D03*
%TD*%
D48*
%TO.C,TP182*%
X129500000Y-80850000D03*
%TD*%
%TO.C,TP184*%
X296900000Y-81000000D03*
%TD*%
%TO.C,TP221*%
X150195385Y-157425000D03*
%TD*%
%TO.C,TP188*%
X134200000Y-85850000D03*
%TD*%
%TO.C,TP205*%
X137200000Y-80750000D03*
%TD*%
D55*
%TO.C,Q9*%
X180158927Y-151849999D03*
X178258927Y-151849999D03*
X179208927Y-149974998D03*
%TD*%
D56*
%TO.C,JP1*%
X195730000Y-190253642D03*
D57*
X194430000Y-190253642D03*
%TD*%
D48*
%TO.C,TP192*%
X148995385Y-152325000D03*
%TD*%
D58*
%TO.C,R133*%
X192300000Y-191300000D03*
X192300000Y-192320000D03*
%TD*%
D48*
%TO.C,TP208*%
X284500000Y-145800000D03*
%TD*%
%TO.C,TP176*%
X129500000Y-85050000D03*
%TD*%
%TO.C,TP99*%
X213000000Y-182810000D03*
%TD*%
%TO.C,TP96*%
X207000000Y-169310000D03*
%TD*%
D55*
%TO.C,Q7*%
X172958927Y-151849999D03*
X171058927Y-151849999D03*
X172008927Y-149974998D03*
%TD*%
D48*
%TO.C,TP206*%
X220475000Y-80675000D03*
%TD*%
%TO.C,TP180*%
X153750000Y-153350000D03*
%TD*%
%TO.C,TP118*%
X306550002Y-154649997D03*
%TD*%
D59*
%TO.C,FB3*%
X117400000Y-206875002D03*
X117400000Y-205300000D03*
%TD*%
D48*
%TO.C,TP209*%
X145995385Y-157425000D03*
%TD*%
%TO.C,TP191*%
X279400000Y-142800000D03*
%TD*%
%TO.C,TP220*%
X284500000Y-141600000D03*
%TD*%
%TO.C,TP177*%
X212775000Y-84975000D03*
%TD*%
D60*
%TO.C,U27*%
X301900000Y-155949999D03*
D61*
X301000002Y-155549997D03*
X301000002Y-155049998D03*
X301000002Y-154549996D03*
X301000002Y-154049998D03*
X301000002Y-153549995D03*
X301000002Y-153049997D03*
X301000002Y-152549998D03*
X301000002Y-152049999D03*
D60*
X301900000Y-151649997D03*
X303400002Y-151649997D03*
D61*
X304300000Y-152049999D03*
X304300000Y-152549998D03*
X304300000Y-153050000D03*
X304300000Y-153549998D03*
X304300000Y-154050001D03*
X304300000Y-154549999D03*
X304300000Y-155049998D03*
X304300000Y-155550000D03*
D60*
X303400002Y-155949999D03*
D62*
X302650001Y-153799998D03*
%TD*%
D48*
%TO.C,TP215*%
X148095385Y-157425000D03*
%TD*%
%TO.C,TP178*%
X296900000Y-85200000D03*
%TD*%
%TO.C,TP183*%
X212775000Y-80775000D03*
%TD*%
%TO.C,TP207*%
X304600000Y-80900000D03*
%TD*%
%TO.C,TP212*%
X218375000Y-80675000D03*
%TD*%
D63*
%TO.C,U32*%
X136900001Y-190300000D03*
X136400001Y-190300000D03*
X135900000Y-190300000D03*
X135400001Y-190300000D03*
X134900002Y-190300000D03*
X134400001Y-190300000D03*
X133900001Y-190300000D03*
X133900001Y-188950000D03*
X134400001Y-188950000D03*
X134900002Y-188950000D03*
X135400001Y-188950000D03*
X135900000Y-188950000D03*
X136400001Y-188950000D03*
X136900001Y-188950000D03*
%TD*%
D55*
%TO.C,Q10*%
X183808927Y-151887499D03*
X181908927Y-151887499D03*
X182858927Y-150012498D03*
%TD*%
D48*
%TO.C,TP122*%
X305925002Y-151049997D03*
%TD*%
D64*
%TO.C,U9*%
X174200001Y-193400000D03*
X173700000Y-193400000D03*
X173200000Y-193400000D03*
X172699999Y-193400000D03*
X172699999Y-190600000D03*
X173200000Y-190600000D03*
X173700000Y-190600000D03*
X174200001Y-190600000D03*
%TD*%
D48*
%TO.C,TP185*%
X284400000Y-138100000D03*
%TD*%
%TO.C,TP190*%
X301600000Y-86000000D03*
%TD*%
%TO.C,TP211*%
X135100000Y-80750000D03*
%TD*%
%TO.C,TP217*%
X133000000Y-80750000D03*
%TD*%
%TO.C,TP189*%
X217475000Y-85775000D03*
%TD*%
%TO.C,TP213*%
X302500000Y-80900000D03*
%TD*%
%TO.C,TP214*%
X284500000Y-143700000D03*
%TD*%
%TO.C,TP98*%
X206500000Y-182810000D03*
%TD*%
D65*
%TO.C,C120*%
X210924999Y-142845000D03*
X213875001Y-142845000D03*
%TD*%
D48*
%TO.C,TP126*%
X304425002Y-159149997D03*
%TD*%
%TO.C,TP218*%
X216275000Y-80675000D03*
%TD*%
%TO.C,TP219*%
X300400000Y-80900000D03*
%TD*%
%TO.C,TP149*%
X160300000Y-151800000D03*
%TD*%
D63*
%TO.C,U7*%
X167700000Y-191850000D03*
X167200000Y-191850000D03*
X166699999Y-191850000D03*
X166200000Y-191850000D03*
X165700001Y-191850000D03*
X165200000Y-191850000D03*
X164700000Y-191850000D03*
X164700000Y-190500000D03*
X165200000Y-190500000D03*
X165700001Y-190500000D03*
X166200000Y-190500000D03*
X166699999Y-190500000D03*
X167200000Y-190500000D03*
X167700000Y-190500000D03*
%TD*%
D55*
%TO.C,Q8*%
X176558927Y-151812499D03*
X174658927Y-151812499D03*
X175608927Y-149937498D03*
%TD*%
D63*
%TO.C,U8*%
X156300000Y-191900000D03*
X155800000Y-191900000D03*
X155299999Y-191900000D03*
X154800000Y-191900000D03*
X154300001Y-191900000D03*
X153800000Y-191900000D03*
X153300000Y-191900000D03*
X153300000Y-190550000D03*
X153800000Y-190550000D03*
X154300001Y-190550000D03*
X154800000Y-190550000D03*
X155299999Y-190550000D03*
X155800000Y-190550000D03*
X156300000Y-190550000D03*
%TD*%
D48*
%TO.C,TP186*%
X153695385Y-157325000D03*
%TD*%
%TO.C,TP97*%
X212000000Y-169310000D03*
%TD*%
M02*
