ISO-10303-21;
HEADER;
FILE_DESCRIPTION(('FreeCAD Model'),'2;1');
FILE_NAME('Open CASCADE Shape Model','2025-10-29T21:43:21',(''),(''),
  'Open CASCADE STEP processor 7.8','FreeCAD','Unknown');
FILE_SCHEMA(('AUTOMOTIVE_DESIGN { 1 0 10303 214 1 1 1 1 }'));
ENDSEC;
DATA;
#1 = APPLICATION_PROTOCOL_DEFINITION('international standard',
  'automotive_design',2000,#2);
#2 = APPLICATION_CONTEXT(
  'core data for automotive mechanical design processes');
#3 = SHAPE_DEFINITION_REPRESENTATION(#4,#10);
#4 = PRODUCT_DEFINITION_SHAPE('','',#5);
#5 = PRODUCT_DEFINITION('design','',#6,#9);
#6 = PRODUCT_DEFINITION_FORMATION('','',#7);
#7 = PRODUCT('DFN_1498914_XAL7070_332MEC_Coilcraft_9875748',
  'DFN_1498914_XAL7070_332MEC_Coilcraft_9875748','',(#8));
#8 = PRODUCT_CONTEXT('',#2,'mechanical');
#9 = PRODUCT_DEFINITION_CONTEXT('part definition',#2,'design');
#10 = SHAPE_REPRESENTATION('',(#11,#15,#19,#23,#27),#31);
#11 = AXIS2_PLACEMENT_3D('',#12,#13,#14);
#12 = CARTESIAN_POINT('',(0.,0.,0.));
#13 = DIRECTION('',(0.,0.,1.));
#14 = DIRECTION('',(1.,0.,-0.));
#15 = AXIS2_PLACEMENT_3D('',#16,#17,#18);
#16 = CARTESIAN_POINT('',(0.,0.,0.));
#17 = DIRECTION('',(0.,0.,1.));
#18 = DIRECTION('',(1.,0.,0.));
#19 = AXIS2_PLACEMENT_3D('',#20,#21,#22);
#20 = CARTESIAN_POINT('',(0.,0.,0.));
#21 = DIRECTION('',(0.,0.,1.));
#22 = DIRECTION('',(1.,0.,0.));
#23 = AXIS2_PLACEMENT_3D('',#24,#25,#26);
#24 = CARTESIAN_POINT('',(0.,0.,0.));
#25 = DIRECTION('',(0.,0.,1.));
#26 = DIRECTION('',(1.,0.,0.));
#27 = AXIS2_PLACEMENT_3D('',#28,#29,#30);
#28 = CARTESIAN_POINT('',(0.,0.,0.));
#29 = DIRECTION('',(0.,0.,1.));
#30 = DIRECTION('',(1.,0.,0.));
#31 = ( GEOMETRIC_REPRESENTATION_CONTEXT(3) 
GLOBAL_UNCERTAINTY_ASSIGNED_CONTEXT((#35)) GLOBAL_UNIT_ASSIGNED_CONTEXT(
(#32,#33,#34)) REPRESENTATION_CONTEXT('Context #1',
  '3D Context with UNIT and UNCERTAINTY') );
#32 = ( LENGTH_UNIT() NAMED_UNIT(*) SI_UNIT(.MILLI.,.METRE.) );
#33 = ( NAMED_UNIT(*) PLANE_ANGLE_UNIT() SI_UNIT($,.RADIAN.) );
#34 = ( NAMED_UNIT(*) SI_UNIT($,.STERADIAN.) SOLID_ANGLE_UNIT() );
#35 = UNCERTAINTY_MEASURE_WITH_UNIT(LENGTH_MEASURE(1.E-07),#32,
  'distance_accuracy_value','confusion accuracy');
#36 = PRODUCT_RELATED_PRODUCT_CATEGORY('part',$,(#7));
#37 = SHAPE_DEFINITION_REPRESENTATION(#38,#44);
#38 = PRODUCT_DEFINITION_SHAPE('','',#39);
#39 = PRODUCT_DEFINITION('design','',#40,#43);
#40 = PRODUCT_DEFINITION_FORMATION('','',#41);
#41 = PRODUCT('BaseWithTopCut','BaseWithTopCut','',(#42));
#42 = PRODUCT_CONTEXT('',#2,'mechanical');
#43 = PRODUCT_DEFINITION_CONTEXT('part definition',#2,'design');
#44 = ADVANCED_BREP_SHAPE_REPRESENTATION('',(#11,#45),#240);
#45 = MANIFOLD_SOLID_BREP('',#46);
#46 = CLOSED_SHELL('',(#47,#87,#118,#142,#177,#194,#206,#231));
#47 = ADVANCED_FACE('',(#48),#82,.T.);
#48 = FACE_BOUND('',#49,.T.);
#49 = EDGE_LOOP('',(#50,#60,#68,#76));
#50 = ORIENTED_EDGE('',*,*,#51,.F.);
#51 = EDGE_CURVE('',#52,#54,#56,.T.);
#52 = VERTEX_POINT('',#53);
#53 = CARTESIAN_POINT('',(-3.75,5.E-02,-3.6));
#54 = VERTEX_POINT('',#55);
#55 = CARTESIAN_POINT('',(3.75,5.E-02,-3.6));
#56 = LINE('',#57,#58);
#57 = CARTESIAN_POINT('',(-3.75,5.E-02,-3.6));
#58 = VECTOR('',#59,1.);
#59 = DIRECTION('',(1.,0.,0.));
#60 = ORIENTED_EDGE('',*,*,#61,.T.);
#61 = EDGE_CURVE('',#52,#62,#64,.T.);
#62 = VERTEX_POINT('',#63);
#63 = CARTESIAN_POINT('',(-3.75,7.,-3.6));
#64 = LINE('',#65,#66);
#65 = CARTESIAN_POINT('',(-3.75,0.,-3.6));
#66 = VECTOR('',#67,1.);
#67 = DIRECTION('',(0.,1.,0.));
#68 = ORIENTED_EDGE('',*,*,#69,.T.);
#69 = EDGE_CURVE('',#62,#70,#72,.T.);
#70 = VERTEX_POINT('',#71);
#71 = CARTESIAN_POINT('',(3.75,7.,-3.6));
#72 = LINE('',#73,#74);
#73 = CARTESIAN_POINT('',(-3.75,7.,-3.6));
#74 = VECTOR('',#75,1.);
#75 = DIRECTION('',(1.,0.,0.));
#76 = ORIENTED_EDGE('',*,*,#77,.F.);
#77 = EDGE_CURVE('',#54,#70,#78,.T.);
#78 = LINE('',#79,#80);
#79 = CARTESIAN_POINT('',(3.75,0.,-3.6));
#80 = VECTOR('',#81,1.);
#81 = DIRECTION('',(0.,1.,0.));
#82 = PLANE('',#83);
#83 = AXIS2_PLACEMENT_3D('',#84,#85,#86);
#84 = CARTESIAN_POINT('',(-3.75,0.,-3.6));
#85 = DIRECTION('',(0.,0.,-1.));
#86 = DIRECTION('',(1.,0.,0.));
#87 = ADVANCED_FACE('',(#88),#113,.T.);
#88 = FACE_BOUND('',#89,.T.);
#89 = EDGE_LOOP('',(#90,#91,#99,#107));
#90 = ORIENTED_EDGE('',*,*,#51,.T.);
#91 = ORIENTED_EDGE('',*,*,#92,.T.);
#92 = EDGE_CURVE('',#54,#93,#95,.T.);
#93 = VERTEX_POINT('',#94);
#94 = CARTESIAN_POINT('',(3.75,5.E-02,3.6));
#95 = LINE('',#96,#97);
#96 = CARTESIAN_POINT('',(3.75,5.E-02,-3.6));
#97 = VECTOR('',#98,1.);
#98 = DIRECTION('',(0.,0.,1.));
#99 = ORIENTED_EDGE('',*,*,#100,.T.);
#100 = EDGE_CURVE('',#93,#101,#103,.T.);
#101 = VERTEX_POINT('',#102);
#102 = CARTESIAN_POINT('',(-3.75,5.E-02,3.6));
#103 = LINE('',#104,#105);
#104 = CARTESIAN_POINT('',(3.75,5.E-02,3.6));
#105 = VECTOR('',#106,1.);
#106 = DIRECTION('',(-1.,0.,0.));
#107 = ORIENTED_EDGE('',*,*,#108,.T.);
#108 = EDGE_CURVE('',#101,#52,#109,.T.);
#109 = LINE('',#110,#111);
#110 = CARTESIAN_POINT('',(-3.75,5.E-02,3.6));
#111 = VECTOR('',#112,1.);
#112 = DIRECTION('',(0.,0.,-1.));
#113 = PLANE('',#114);
#114 = AXIS2_PLACEMENT_3D('',#115,#116,#117);
#115 = CARTESIAN_POINT('',(0.,5.E-02,0.));
#116 = DIRECTION('',(-0.,-1.,-0.));
#117 = DIRECTION('',(0.,0.,-1.));
#118 = ADVANCED_FACE('',(#119),#137,.T.);
#119 = FACE_BOUND('',#120,.T.);
#120 = EDGE_LOOP('',(#121,#122,#123,#131));
#121 = ORIENTED_EDGE('',*,*,#92,.F.);
#122 = ORIENTED_EDGE('',*,*,#77,.T.);
#123 = ORIENTED_EDGE('',*,*,#124,.T.);
#124 = EDGE_CURVE('',#70,#125,#127,.T.);
#125 = VERTEX_POINT('',#126);
#126 = CARTESIAN_POINT('',(3.75,7.,3.6));
#127 = LINE('',#128,#129);
#128 = CARTESIAN_POINT('',(3.75,7.,-3.6));
#129 = VECTOR('',#130,1.);
#130 = DIRECTION('',(0.,0.,1.));
#131 = ORIENTED_EDGE('',*,*,#132,.F.);
#132 = EDGE_CURVE('',#93,#125,#133,.T.);
#133 = LINE('',#134,#135);
#134 = CARTESIAN_POINT('',(3.75,0.,3.6));
#135 = VECTOR('',#136,1.);
#136 = DIRECTION('',(0.,1.,0.));
#137 = PLANE('',#138);
#138 = AXIS2_PLACEMENT_3D('',#139,#140,#141);
#139 = CARTESIAN_POINT('',(3.75,0.,-3.6));
#140 = DIRECTION('',(1.,0.,0.));
#141 = DIRECTION('',(0.,0.,1.));
#142 = ADVANCED_FACE('',(#143,#161),#172,.F.);
#143 = FACE_BOUND('',#144,.F.);
#144 = EDGE_LOOP('',(#145,#146,#147,#155));
#145 = ORIENTED_EDGE('',*,*,#69,.T.);
#146 = ORIENTED_EDGE('',*,*,#124,.T.);
#147 = ORIENTED_EDGE('',*,*,#148,.T.);
#148 = EDGE_CURVE('',#125,#149,#151,.T.);
#149 = VERTEX_POINT('',#150);
#150 = CARTESIAN_POINT('',(-3.75,7.,3.6));
#151 = LINE('',#152,#153);
#152 = CARTESIAN_POINT('',(3.75,7.,3.6));
#153 = VECTOR('',#154,1.);
#154 = DIRECTION('',(-1.,0.,0.));
#155 = ORIENTED_EDGE('',*,*,#156,.T.);
#156 = EDGE_CURVE('',#149,#62,#157,.T.);
#157 = LINE('',#158,#159);
#158 = CARTESIAN_POINT('',(-3.75,7.,3.6));
#159 = VECTOR('',#160,1.);
#160 = DIRECTION('',(0.,0.,-1.));
#161 = FACE_BOUND('',#162,.F.);
#162 = EDGE_LOOP('',(#163));
#163 = ORIENTED_EDGE('',*,*,#164,.T.);
#164 = EDGE_CURVE('',#165,#165,#167,.T.);
#165 = VERTEX_POINT('',#166);
#166 = CARTESIAN_POINT('',(-2.7975,7.,-2.2725));
#167 = CIRCLE('',#168,0.375);
#168 = AXIS2_PLACEMENT_3D('',#169,#170,#171);
#169 = CARTESIAN_POINT('',(-2.7975,7.,-2.6475));
#170 = DIRECTION('',(0.,1.,0.));
#171 = DIRECTION('',(0.,0.,1.));
#172 = PLANE('',#173);
#173 = AXIS2_PLACEMENT_3D('',#174,#175,#176);
#174 = CARTESIAN_POINT('',(0.,7.,0.));
#175 = DIRECTION('',(-0.,-1.,-0.));
#176 = DIRECTION('',(0.,0.,-1.));
#177 = ADVANCED_FACE('',(#178),#189,.T.);
#178 = FACE_BOUND('',#179,.T.);
#179 = EDGE_LOOP('',(#180,#181,#187,#188));
#180 = ORIENTED_EDGE('',*,*,#108,.F.);
#181 = ORIENTED_EDGE('',*,*,#182,.T.);
#182 = EDGE_CURVE('',#101,#149,#183,.T.);
#183 = LINE('',#184,#185);
#184 = CARTESIAN_POINT('',(-3.75,0.,3.6));
#185 = VECTOR('',#186,1.);
#186 = DIRECTION('',(0.,1.,0.));
#187 = ORIENTED_EDGE('',*,*,#156,.T.);
#188 = ORIENTED_EDGE('',*,*,#61,.F.);
#189 = PLANE('',#190);
#190 = AXIS2_PLACEMENT_3D('',#191,#192,#193);
#191 = CARTESIAN_POINT('',(-3.75,0.,3.6));
#192 = DIRECTION('',(-1.,0.,0.));
#193 = DIRECTION('',(0.,0.,-1.));
#194 = ADVANCED_FACE('',(#195),#201,.T.);
#195 = FACE_BOUND('',#196,.T.);
#196 = EDGE_LOOP('',(#197,#198,#199,#200));
#197 = ORIENTED_EDGE('',*,*,#100,.F.);
#198 = ORIENTED_EDGE('',*,*,#132,.T.);
#199 = ORIENTED_EDGE('',*,*,#148,.T.);
#200 = ORIENTED_EDGE('',*,*,#182,.F.);
#201 = PLANE('',#202);
#202 = AXIS2_PLACEMENT_3D('',#203,#204,#205);
#203 = CARTESIAN_POINT('',(3.75,0.,3.6));
#204 = DIRECTION('',(0.,0.,1.));
#205 = DIRECTION('',(-1.,0.,0.));
#206 = ADVANCED_FACE('',(#207),#226,.F.);
#207 = FACE_BOUND('',#208,.F.);
#208 = EDGE_LOOP('',(#209,#217,#224,#225));
#209 = ORIENTED_EDGE('',*,*,#210,.T.);
#210 = EDGE_CURVE('',#165,#211,#213,.T.);
#211 = VERTEX_POINT('',#212);
#212 = CARTESIAN_POINT('',(-2.7975,6.3,-2.2725));
#213 = LINE('',#214,#215);
#214 = CARTESIAN_POINT('',(-2.7975,7.,-2.2725));
#215 = VECTOR('',#216,1.);
#216 = DIRECTION('',(0.,-1.,0.));
#217 = ORIENTED_EDGE('',*,*,#218,.T.);
#218 = EDGE_CURVE('',#211,#211,#219,.T.);
#219 = CIRCLE('',#220,0.375);
#220 = AXIS2_PLACEMENT_3D('',#221,#222,#223);
#221 = CARTESIAN_POINT('',(-2.7975,6.3,-2.6475));
#222 = DIRECTION('',(0.,1.,0.));
#223 = DIRECTION('',(0.,0.,1.));
#224 = ORIENTED_EDGE('',*,*,#210,.F.);
#225 = ORIENTED_EDGE('',*,*,#164,.F.);
#226 = CYLINDRICAL_SURFACE('',#227,0.375);
#227 = AXIS2_PLACEMENT_3D('',#228,#229,#230);
#228 = CARTESIAN_POINT('',(-2.7975,7.,-2.6475));
#229 = DIRECTION('',(0.,1.,0.));
#230 = DIRECTION('',(0.,0.,1.));
#231 = ADVANCED_FACE('',(#232),#235,.T.);
#232 = FACE_BOUND('',#233,.T.);
#233 = EDGE_LOOP('',(#234));
#234 = ORIENTED_EDGE('',*,*,#218,.T.);
#235 = PLANE('',#236);
#236 = AXIS2_PLACEMENT_3D('',#237,#238,#239);
#237 = CARTESIAN_POINT('',(-2.7975,6.3,-2.6475));
#238 = DIRECTION('',(0.,1.,0.));
#239 = DIRECTION('',(0.,0.,1.));
#240 = ( GEOMETRIC_REPRESENTATION_CONTEXT(3) 
GLOBAL_UNCERTAINTY_ASSIGNED_CONTEXT((#244)) GLOBAL_UNIT_ASSIGNED_CONTEXT
((#241,#242,#243)) REPRESENTATION_CONTEXT('Context #1',
  '3D Context with UNIT and UNCERTAINTY') );
#241 = ( LENGTH_UNIT() NAMED_UNIT(*) SI_UNIT(.MILLI.,.METRE.) );
#242 = ( NAMED_UNIT(*) PLANE_ANGLE_UNIT() SI_UNIT($,.RADIAN.) );
#243 = ( NAMED_UNIT(*) SI_UNIT($,.STERADIAN.) SOLID_ANGLE_UNIT() );
#244 = UNCERTAINTY_MEASURE_WITH_UNIT(LENGTH_MEASURE(1.E-07),#241,
  'distance_accuracy_value','confusion accuracy');
#245 = CONTEXT_DEPENDENT_SHAPE_REPRESENTATION(#246,#248);
#246 = ( REPRESENTATION_RELATIONSHIP('','',#44,#10) 
REPRESENTATION_RELATIONSHIP_WITH_TRANSFORMATION(#247) 
SHAPE_REPRESENTATION_RELATIONSHIP() );
#247 = ITEM_DEFINED_TRANSFORMATION('','',#11,#15);
#248 = PRODUCT_DEFINITION_SHAPE('Placement','Placement of an item',#249
  );
#249 = NEXT_ASSEMBLY_USAGE_OCCURRENCE('186','BaseWithTopCut','',#5,#39,$
  );
#250 = PRODUCT_RELATED_PRODUCT_CATEGORY('part',$,(#41));
#251 = SHAPE_DEFINITION_REPRESENTATION(#252,#258);
#252 = PRODUCT_DEFINITION_SHAPE('','',#253);
#253 = PRODUCT_DEFINITION('design','',#254,#257);
#254 = PRODUCT_DEFINITION_FORMATION('','',#255);
#255 = PRODUCT('TopCircle_NewBody','TopCircle_NewBody','',(#256));
#256 = PRODUCT_CONTEXT('',#2,'mechanical');
#257 = PRODUCT_DEFINITION_CONTEXT('part definition',#2,'design');
#258 = ADVANCED_BREP_SHAPE_REPRESENTATION('',(#11,#259),#312);
#259 = MANIFOLD_SOLID_BREP('',#260);
#260 = CLOSED_SHELL('',(#261,#294,#303));
#261 = ADVANCED_FACE('',(#262),#289,.T.);
#262 = FACE_BOUND('',#263,.T.);
#263 = EDGE_LOOP('',(#264,#274,#281,#282));
#264 = ORIENTED_EDGE('',*,*,#265,.T.);
#265 = EDGE_CURVE('',#266,#268,#270,.T.);
#266 = VERTEX_POINT('',#267);
#267 = CARTESIAN_POINT('',(-2.7975,7.,-2.2725));
#268 = VERTEX_POINT('',#269);
#269 = CARTESIAN_POINT('',(-2.7975,6.3,-2.2725));
#270 = LINE('',#271,#272);
#271 = CARTESIAN_POINT('',(-2.7975,7.,-2.2725));
#272 = VECTOR('',#273,1.);
#273 = DIRECTION('',(0.,-1.,0.));
#274 = ORIENTED_EDGE('',*,*,#275,.T.);
#275 = EDGE_CURVE('',#268,#268,#276,.T.);
#276 = CIRCLE('',#277,0.375);
#277 = AXIS2_PLACEMENT_3D('',#278,#279,#280);
#278 = CARTESIAN_POINT('',(-2.7975,6.3,-2.6475));
#279 = DIRECTION('',(0.,1.,0.));
#280 = DIRECTION('',(0.,-0.,1.));
#281 = ORIENTED_EDGE('',*,*,#265,.F.);
#282 = ORIENTED_EDGE('',*,*,#283,.F.);
#283 = EDGE_CURVE('',#266,#266,#284,.T.);
#284 = CIRCLE('',#285,0.375);
#285 = AXIS2_PLACEMENT_3D('',#286,#287,#288);
#286 = CARTESIAN_POINT('',(-2.7975,7.,-2.6475));
#287 = DIRECTION('',(0.,1.,0.));
#288 = DIRECTION('',(0.,-0.,1.));
#289 = CYLINDRICAL_SURFACE('',#290,0.375);
#290 = AXIS2_PLACEMENT_3D('',#291,#292,#293);
#291 = CARTESIAN_POINT('',(-2.7975,7.,-2.6475));
#292 = DIRECTION('',(0.,1.,0.));
#293 = DIRECTION('',(0.,-0.,1.));
#294 = ADVANCED_FACE('',(#295),#298,.T.);
#295 = FACE_BOUND('',#296,.T.);
#296 = EDGE_LOOP('',(#297));
#297 = ORIENTED_EDGE('',*,*,#283,.T.);
#298 = PLANE('',#299);
#299 = AXIS2_PLACEMENT_3D('',#300,#301,#302);
#300 = CARTESIAN_POINT('',(-2.7975,7.,-2.6475));
#301 = DIRECTION('',(0.,1.,0.));
#302 = DIRECTION('',(0.,-0.,1.));
#303 = ADVANCED_FACE('',(#304),#307,.F.);
#304 = FACE_BOUND('',#305,.F.);
#305 = EDGE_LOOP('',(#306));
#306 = ORIENTED_EDGE('',*,*,#275,.T.);
#307 = PLANE('',#308);
#308 = AXIS2_PLACEMENT_3D('',#309,#310,#311);
#309 = CARTESIAN_POINT('',(-2.7975,6.3,-2.6475));
#310 = DIRECTION('',(0.,1.,0.));
#311 = DIRECTION('',(0.,-0.,1.));
#312 = ( GEOMETRIC_REPRESENTATION_CONTEXT(3) 
GLOBAL_UNCERTAINTY_ASSIGNED_CONTEXT((#316)) GLOBAL_UNIT_ASSIGNED_CONTEXT
((#313,#314,#315)) REPRESENTATION_CONTEXT('Context #1',
  '3D Context with UNIT and UNCERTAINTY') );
#313 = ( LENGTH_UNIT() NAMED_UNIT(*) SI_UNIT(.MILLI.,.METRE.) );
#314 = ( NAMED_UNIT(*) PLANE_ANGLE_UNIT() SI_UNIT($,.RADIAN.) );
#315 = ( NAMED_UNIT(*) SI_UNIT($,.STERADIAN.) SOLID_ANGLE_UNIT() );
#316 = UNCERTAINTY_MEASURE_WITH_UNIT(LENGTH_MEASURE(1.E-07),#313,
  'distance_accuracy_value','confusion accuracy');
#317 = CONTEXT_DEPENDENT_SHAPE_REPRESENTATION(#318,#320);
#318 = ( REPRESENTATION_RELATIONSHIP('','',#258,#10) 
REPRESENTATION_RELATIONSHIP_WITH_TRANSFORMATION(#319) 
SHAPE_REPRESENTATION_RELATIONSHIP() );
#319 = ITEM_DEFINED_TRANSFORMATION('','',#11,#19);
#320 = PRODUCT_DEFINITION_SHAPE('Placement','Placement of an item',#321
  );
#321 = NEXT_ASSEMBLY_USAGE_OCCURRENCE('187','TopCircle_NewBody','',#5,
  #253,$);
#322 = PRODUCT_RELATED_PRODUCT_CATEGORY('part',$,(#255));
#323 = SHAPE_DEFINITION_REPRESENTATION(#324,#330);
#324 = PRODUCT_DEFINITION_SHAPE('','',#325);
#325 = PRODUCT_DEFINITION('design','',#326,#329);
#326 = PRODUCT_DEFINITION_FORMATION('','',#327);
#327 = PRODUCT('Pad_1_1','Pad_1_1','',(#328));
#328 = PRODUCT_CONTEXT('',#2,'mechanical');
#329 = PRODUCT_DEFINITION_CONTEXT('part definition',#2,'design');
#330 = ADVANCED_BREP_SHAPE_REPRESENTATION('',(#11,#331),#481);
#331 = MANIFOLD_SOLID_BREP('',#332);
#332 = CLOSED_SHELL('',(#333,#373,#404,#435,#457,#469));
#333 = ADVANCED_FACE('',(#334),#368,.T.);
#334 = FACE_BOUND('',#335,.T.);
#335 = EDGE_LOOP('',(#336,#346,#354,#362));
#336 = ORIENTED_EDGE('',*,*,#337,.T.);
#337 = EDGE_CURVE('',#338,#340,#342,.T.);
#338 = VERTEX_POINT('',#339);
#339 = CARTESIAN_POINT('',(-3.115,5.E-02,3.1));
#340 = VERTEX_POINT('',#341);
#341 = CARTESIAN_POINT('',(-3.115,0.,3.1));
#342 = LINE('',#343,#344);
#343 = CARTESIAN_POINT('',(-3.115,5.E-02,3.1));
#344 = VECTOR('',#345,1.);
#345 = DIRECTION('',(0.,-1.,0.));
#346 = ORIENTED_EDGE('',*,*,#347,.T.);
#347 = EDGE_CURVE('',#340,#348,#350,.T.);
#348 = VERTEX_POINT('',#349);
#349 = CARTESIAN_POINT('',(3.115,0.,3.1));
#350 = LINE('',#351,#352);
#351 = CARTESIAN_POINT('',(-3.115,0.,3.1));
#352 = VECTOR('',#353,1.);
#353 = DIRECTION('',(1.,0.,0.));
#354 = ORIENTED_EDGE('',*,*,#355,.F.);
#355 = EDGE_CURVE('',#356,#348,#358,.T.);
#356 = VERTEX_POINT('',#357);
#357 = CARTESIAN_POINT('',(3.115,5.E-02,3.1));
#358 = LINE('',#359,#360);
#359 = CARTESIAN_POINT('',(3.115,5.E-02,3.1));
#360 = VECTOR('',#361,1.);
#361 = DIRECTION('',(0.,-1.,0.));
#362 = ORIENTED_EDGE('',*,*,#363,.F.);
#363 = EDGE_CURVE('',#338,#356,#364,.T.);
#364 = LINE('',#365,#366);
#365 = CARTESIAN_POINT('',(-3.115,5.E-02,3.1));
#366 = VECTOR('',#367,1.);
#367 = DIRECTION('',(1.,0.,0.));
#368 = PLANE('',#369);
#369 = AXIS2_PLACEMENT_3D('',#370,#371,#372);
#370 = CARTESIAN_POINT('',(-3.115,5.E-02,3.1));
#371 = DIRECTION('',(-0.,0.,1.));
#372 = DIRECTION('',(1.,0.,0.));
#373 = ADVANCED_FACE('',(#374),#399,.T.);
#374 = FACE_BOUND('',#375,.T.);
#375 = EDGE_LOOP('',(#376,#377,#385,#393));
#376 = ORIENTED_EDGE('',*,*,#355,.T.);
#377 = ORIENTED_EDGE('',*,*,#378,.T.);
#378 = EDGE_CURVE('',#348,#379,#381,.T.);
#379 = VERTEX_POINT('',#380);
#380 = CARTESIAN_POINT('',(3.115,0.,1.47));
#381 = LINE('',#382,#383);
#382 = CARTESIAN_POINT('',(3.115,0.,3.1));
#383 = VECTOR('',#384,1.);
#384 = DIRECTION('',(0.,0.,-1.));
#385 = ORIENTED_EDGE('',*,*,#386,.F.);
#386 = EDGE_CURVE('',#387,#379,#389,.T.);
#387 = VERTEX_POINT('',#388);
#388 = CARTESIAN_POINT('',(3.115,5.E-02,1.47));
#389 = LINE('',#390,#391);
#390 = CARTESIAN_POINT('',(3.115,5.E-02,1.47));
#391 = VECTOR('',#392,1.);
#392 = DIRECTION('',(0.,-1.,0.));
#393 = ORIENTED_EDGE('',*,*,#394,.F.);
#394 = EDGE_CURVE('',#356,#387,#395,.T.);
#395 = LINE('',#396,#397);
#396 = CARTESIAN_POINT('',(3.115,5.E-02,3.1));
#397 = VECTOR('',#398,1.);
#398 = DIRECTION('',(0.,0.,-1.));
#399 = PLANE('',#400);
#400 = AXIS2_PLACEMENT_3D('',#401,#402,#403);
#401 = CARTESIAN_POINT('',(3.115,5.E-02,3.1));
#402 = DIRECTION('',(1.,0.,0.));
#403 = DIRECTION('',(0.,0.,-1.));
#404 = ADVANCED_FACE('',(#405),#430,.T.);
#405 = FACE_BOUND('',#406,.T.);
#406 = EDGE_LOOP('',(#407,#408,#416,#424));
#407 = ORIENTED_EDGE('',*,*,#386,.T.);
#408 = ORIENTED_EDGE('',*,*,#409,.T.);
#409 = EDGE_CURVE('',#379,#410,#412,.T.);
#410 = VERTEX_POINT('',#411);
#411 = CARTESIAN_POINT('',(-3.115,0.,1.47));
#412 = LINE('',#413,#414);
#413 = CARTESIAN_POINT('',(3.115,0.,1.47));
#414 = VECTOR('',#415,1.);
#415 = DIRECTION('',(-1.,0.,0.));
#416 = ORIENTED_EDGE('',*,*,#417,.F.);
#417 = EDGE_CURVE('',#418,#410,#420,.T.);
#418 = VERTEX_POINT('',#419);
#419 = CARTESIAN_POINT('',(-3.115,5.E-02,1.47));
#420 = LINE('',#421,#422);
#421 = CARTESIAN_POINT('',(-3.115,5.E-02,1.47));
#422 = VECTOR('',#423,1.);
#423 = DIRECTION('',(0.,-1.,0.));
#424 = ORIENTED_EDGE('',*,*,#425,.F.);
#425 = EDGE_CURVE('',#387,#418,#426,.T.);
#426 = LINE('',#427,#428);
#427 = CARTESIAN_POINT('',(3.115,5.E-02,1.47));
#428 = VECTOR('',#429,1.);
#429 = DIRECTION('',(-1.,0.,0.));
#430 = PLANE('',#431);
#431 = AXIS2_PLACEMENT_3D('',#432,#433,#434);
#432 = CARTESIAN_POINT('',(3.115,5.E-02,1.47));
#433 = DIRECTION('',(-0.,-0.,-1.));
#434 = DIRECTION('',(-1.,0.,0.));
#435 = ADVANCED_FACE('',(#436),#452,.T.);
#436 = FACE_BOUND('',#437,.T.);
#437 = EDGE_LOOP('',(#438,#439,#445,#446));
#438 = ORIENTED_EDGE('',*,*,#417,.T.);
#439 = ORIENTED_EDGE('',*,*,#440,.T.);
#440 = EDGE_CURVE('',#410,#340,#441,.T.);
#441 = LINE('',#442,#443);
#442 = CARTESIAN_POINT('',(-3.115,0.,1.47));
#443 = VECTOR('',#444,1.);
#444 = DIRECTION('',(0.,0.,1.));
#445 = ORIENTED_EDGE('',*,*,#337,.F.);
#446 = ORIENTED_EDGE('',*,*,#447,.F.);
#447 = EDGE_CURVE('',#418,#338,#448,.T.);
#448 = LINE('',#449,#450);
#449 = CARTESIAN_POINT('',(-3.115,5.E-02,1.47));
#450 = VECTOR('',#451,1.);
#451 = DIRECTION('',(0.,0.,1.));
#452 = PLANE('',#453);
#453 = AXIS2_PLACEMENT_3D('',#454,#455,#456);
#454 = CARTESIAN_POINT('',(-3.115,5.E-02,1.47));
#455 = DIRECTION('',(-1.,0.,0.));
#456 = DIRECTION('',(0.,0.,1.));
#457 = ADVANCED_FACE('',(#458),#464,.T.);
#458 = FACE_BOUND('',#459,.T.);
#459 = EDGE_LOOP('',(#460,#461,#462,#463));
#460 = ORIENTED_EDGE('',*,*,#363,.T.);
#461 = ORIENTED_EDGE('',*,*,#394,.T.);
#462 = ORIENTED_EDGE('',*,*,#425,.T.);
#463 = ORIENTED_EDGE('',*,*,#447,.T.);
#464 = PLANE('',#465);
#465 = AXIS2_PLACEMENT_3D('',#466,#467,#468);
#466 = CARTESIAN_POINT('',(5.649989947202E-17,5.E-02,2.285));
#467 = DIRECTION('',(0.,1.,0.));
#468 = DIRECTION('',(0.,-0.,1.));
#469 = ADVANCED_FACE('',(#470),#476,.F.);
#470 = FACE_BOUND('',#471,.F.);
#471 = EDGE_LOOP('',(#472,#473,#474,#475));
#472 = ORIENTED_EDGE('',*,*,#347,.T.);
#473 = ORIENTED_EDGE('',*,*,#378,.T.);
#474 = ORIENTED_EDGE('',*,*,#409,.T.);
#475 = ORIENTED_EDGE('',*,*,#440,.T.);
#476 = PLANE('',#477);
#477 = AXIS2_PLACEMENT_3D('',#478,#479,#480);
#478 = CARTESIAN_POINT('',(5.649989947202E-17,0.,2.285));
#479 = DIRECTION('',(0.,1.,0.));
#480 = DIRECTION('',(0.,-0.,1.));
#481 = ( GEOMETRIC_REPRESENTATION_CONTEXT(3) 
GLOBAL_UNCERTAINTY_ASSIGNED_CONTEXT((#485)) GLOBAL_UNIT_ASSIGNED_CONTEXT
((#482,#483,#484)) REPRESENTATION_CONTEXT('Context #1',
  '3D Context with UNIT and UNCERTAINTY') );
#482 = ( LENGTH_UNIT() NAMED_UNIT(*) SI_UNIT(.MILLI.,.METRE.) );
#483 = ( NAMED_UNIT(*) PLANE_ANGLE_UNIT() SI_UNIT($,.RADIAN.) );
#484 = ( NAMED_UNIT(*) SI_UNIT($,.STERADIAN.) SOLID_ANGLE_UNIT() );
#485 = UNCERTAINTY_MEASURE_WITH_UNIT(LENGTH_MEASURE(1.E-07),#482,
  'distance_accuracy_value','confusion accuracy');
#486 = CONTEXT_DEPENDENT_SHAPE_REPRESENTATION(#487,#489);
#487 = ( REPRESENTATION_RELATIONSHIP('','',#330,#10) 
REPRESENTATION_RELATIONSHIP_WITH_TRANSFORMATION(#488) 
SHAPE_REPRESENTATION_RELATIONSHIP() );
#488 = ITEM_DEFINED_TRANSFORMATION('','',#11,#23);
#489 = PRODUCT_DEFINITION_SHAPE('Placement','Placement of an item',#490
  );
#490 = NEXT_ASSEMBLY_USAGE_OCCURRENCE('188','Pad_1_1','',#5,#325,$);
#491 = PRODUCT_RELATED_PRODUCT_CATEGORY('part',$,(#327));
#492 = SHAPE_DEFINITION_REPRESENTATION(#493,#499);
#493 = PRODUCT_DEFINITION_SHAPE('','',#494);
#494 = PRODUCT_DEFINITION('design','',#495,#498);
#495 = PRODUCT_DEFINITION_FORMATION('','',#496);
#496 = PRODUCT('Pad_2_1','Pad_2_1','',(#497));
#497 = PRODUCT_CONTEXT('',#2,'mechanical');
#498 = PRODUCT_DEFINITION_CONTEXT('part definition',#2,'design');
#499 = ADVANCED_BREP_SHAPE_REPRESENTATION('',(#11,#500),#650);
#500 = MANIFOLD_SOLID_BREP('',#501);
#501 = CLOSED_SHELL('',(#502,#542,#573,#604,#626,#638));
#502 = ADVANCED_FACE('',(#503),#537,.T.);
#503 = FACE_BOUND('',#504,.T.);
#504 = EDGE_LOOP('',(#505,#515,#523,#531));
#505 = ORIENTED_EDGE('',*,*,#506,.T.);
#506 = EDGE_CURVE('',#507,#509,#511,.T.);
#507 = VERTEX_POINT('',#508);
#508 = CARTESIAN_POINT('',(-3.115,5.E-02,-1.47));
#509 = VERTEX_POINT('',#510);
#510 = CARTESIAN_POINT('',(-3.115,0.,-1.47));
#511 = LINE('',#512,#513);
#512 = CARTESIAN_POINT('',(-3.115,5.E-02,-1.47));
#513 = VECTOR('',#514,1.);
#514 = DIRECTION('',(0.,-1.,0.));
#515 = ORIENTED_EDGE('',*,*,#516,.T.);
#516 = EDGE_CURVE('',#509,#517,#519,.T.);
#517 = VERTEX_POINT('',#518);
#518 = CARTESIAN_POINT('',(3.115,0.,-1.47));
#519 = LINE('',#520,#521);
#520 = CARTESIAN_POINT('',(-3.115,0.,-1.47));
#521 = VECTOR('',#522,1.);
#522 = DIRECTION('',(1.,0.,0.));
#523 = ORIENTED_EDGE('',*,*,#524,.F.);
#524 = EDGE_CURVE('',#525,#517,#527,.T.);
#525 = VERTEX_POINT('',#526);
#526 = CARTESIAN_POINT('',(3.115,5.E-02,-1.47));
#527 = LINE('',#528,#529);
#528 = CARTESIAN_POINT('',(3.115,5.E-02,-1.47));
#529 = VECTOR('',#530,1.);
#530 = DIRECTION('',(0.,-1.,0.));
#531 = ORIENTED_EDGE('',*,*,#532,.F.);
#532 = EDGE_CURVE('',#507,#525,#533,.T.);
#533 = LINE('',#534,#535);
#534 = CARTESIAN_POINT('',(-3.115,5.E-02,-1.47));
#535 = VECTOR('',#536,1.);
#536 = DIRECTION('',(1.,0.,0.));
#537 = PLANE('',#538);
#538 = AXIS2_PLACEMENT_3D('',#539,#540,#541);
#539 = CARTESIAN_POINT('',(-3.115,5.E-02,-1.47));
#540 = DIRECTION('',(-0.,0.,1.));
#541 = DIRECTION('',(1.,0.,0.));
#542 = ADVANCED_FACE('',(#543),#568,.T.);
#543 = FACE_BOUND('',#544,.T.);
#544 = EDGE_LOOP('',(#545,#546,#554,#562));
#545 = ORIENTED_EDGE('',*,*,#524,.T.);
#546 = ORIENTED_EDGE('',*,*,#547,.T.);
#547 = EDGE_CURVE('',#517,#548,#550,.T.);
#548 = VERTEX_POINT('',#549);
#549 = CARTESIAN_POINT('',(3.115,0.,-3.1));
#550 = LINE('',#551,#552);
#551 = CARTESIAN_POINT('',(3.115,0.,-1.47));
#552 = VECTOR('',#553,1.);
#553 = DIRECTION('',(0.,0.,-1.));
#554 = ORIENTED_EDGE('',*,*,#555,.F.);
#555 = EDGE_CURVE('',#556,#548,#558,.T.);
#556 = VERTEX_POINT('',#557);
#557 = CARTESIAN_POINT('',(3.115,5.E-02,-3.1));
#558 = LINE('',#559,#560);
#559 = CARTESIAN_POINT('',(3.115,5.E-02,-3.1));
#560 = VECTOR('',#561,1.);
#561 = DIRECTION('',(0.,-1.,0.));
#562 = ORIENTED_EDGE('',*,*,#563,.F.);
#563 = EDGE_CURVE('',#525,#556,#564,.T.);
#564 = LINE('',#565,#566);
#565 = CARTESIAN_POINT('',(3.115,5.E-02,-1.47));
#566 = VECTOR('',#567,1.);
#567 = DIRECTION('',(0.,0.,-1.));
#568 = PLANE('',#569);
#569 = AXIS2_PLACEMENT_3D('',#570,#571,#572);
#570 = CARTESIAN_POINT('',(3.115,5.E-02,-1.47));
#571 = DIRECTION('',(1.,0.,0.));
#572 = DIRECTION('',(0.,0.,-1.));
#573 = ADVANCED_FACE('',(#574),#599,.T.);
#574 = FACE_BOUND('',#575,.T.);
#575 = EDGE_LOOP('',(#576,#577,#585,#593));
#576 = ORIENTED_EDGE('',*,*,#555,.T.);
#577 = ORIENTED_EDGE('',*,*,#578,.T.);
#578 = EDGE_CURVE('',#548,#579,#581,.T.);
#579 = VERTEX_POINT('',#580);
#580 = CARTESIAN_POINT('',(-3.115,0.,-3.1));
#581 = LINE('',#582,#583);
#582 = CARTESIAN_POINT('',(3.115,0.,-3.1));
#583 = VECTOR('',#584,1.);
#584 = DIRECTION('',(-1.,0.,0.));
#585 = ORIENTED_EDGE('',*,*,#586,.F.);
#586 = EDGE_CURVE('',#587,#579,#589,.T.);
#587 = VERTEX_POINT('',#588);
#588 = CARTESIAN_POINT('',(-3.115,5.E-02,-3.1));
#589 = LINE('',#590,#591);
#590 = CARTESIAN_POINT('',(-3.115,5.E-02,-3.1));
#591 = VECTOR('',#592,1.);
#592 = DIRECTION('',(0.,-1.,0.));
#593 = ORIENTED_EDGE('',*,*,#594,.F.);
#594 = EDGE_CURVE('',#556,#587,#595,.T.);
#595 = LINE('',#596,#597);
#596 = CARTESIAN_POINT('',(3.115,5.E-02,-3.1));
#597 = VECTOR('',#598,1.);
#598 = DIRECTION('',(-1.,0.,0.));
#599 = PLANE('',#600);
#600 = AXIS2_PLACEMENT_3D('',#601,#602,#603);
#601 = CARTESIAN_POINT('',(3.115,5.E-02,-3.1));
#602 = DIRECTION('',(-0.,-0.,-1.));
#603 = DIRECTION('',(-1.,0.,0.));
#604 = ADVANCED_FACE('',(#605),#621,.T.);
#605 = FACE_BOUND('',#606,.T.);
#606 = EDGE_LOOP('',(#607,#608,#614,#615));
#607 = ORIENTED_EDGE('',*,*,#586,.T.);
#608 = ORIENTED_EDGE('',*,*,#609,.T.);
#609 = EDGE_CURVE('',#579,#509,#610,.T.);
#610 = LINE('',#611,#612);
#611 = CARTESIAN_POINT('',(-3.115,0.,-3.1));
#612 = VECTOR('',#613,1.);
#613 = DIRECTION('',(0.,0.,1.));
#614 = ORIENTED_EDGE('',*,*,#506,.F.);
#615 = ORIENTED_EDGE('',*,*,#616,.F.);
#616 = EDGE_CURVE('',#587,#507,#617,.T.);
#617 = LINE('',#618,#619);
#618 = CARTESIAN_POINT('',(-3.115,5.E-02,-3.1));
#619 = VECTOR('',#620,1.);
#620 = DIRECTION('',(0.,0.,1.));
#621 = PLANE('',#622);
#622 = AXIS2_PLACEMENT_3D('',#623,#624,#625);
#623 = CARTESIAN_POINT('',(-3.115,5.E-02,-3.1));
#624 = DIRECTION('',(-1.,0.,0.));
#625 = DIRECTION('',(0.,0.,1.));
#626 = ADVANCED_FACE('',(#627),#633,.T.);
#627 = FACE_BOUND('',#628,.T.);
#628 = EDGE_LOOP('',(#629,#630,#631,#632));
#629 = ORIENTED_EDGE('',*,*,#532,.T.);
#630 = ORIENTED_EDGE('',*,*,#563,.T.);
#631 = ORIENTED_EDGE('',*,*,#594,.T.);
#632 = ORIENTED_EDGE('',*,*,#616,.T.);
#633 = PLANE('',#634);
#634 = AXIS2_PLACEMENT_3D('',#635,#636,#637);
#635 = CARTESIAN_POINT('',(5.649989947202E-17,5.E-02,-2.285));
#636 = DIRECTION('',(0.,1.,0.));
#637 = DIRECTION('',(0.,-0.,1.));
#638 = ADVANCED_FACE('',(#639),#645,.F.);
#639 = FACE_BOUND('',#640,.F.);
#640 = EDGE_LOOP('',(#641,#642,#643,#644));
#641 = ORIENTED_EDGE('',*,*,#516,.T.);
#642 = ORIENTED_EDGE('',*,*,#547,.T.);
#643 = ORIENTED_EDGE('',*,*,#578,.T.);
#644 = ORIENTED_EDGE('',*,*,#609,.T.);
#645 = PLANE('',#646);
#646 = AXIS2_PLACEMENT_3D('',#647,#648,#649);
#647 = CARTESIAN_POINT('',(5.649989947202E-17,0.,-2.285));
#648 = DIRECTION('',(0.,1.,0.));
#649 = DIRECTION('',(0.,-0.,1.));
#650 = ( GEOMETRIC_REPRESENTATION_CONTEXT(3) 
GLOBAL_UNCERTAINTY_ASSIGNED_CONTEXT((#654)) GLOBAL_UNIT_ASSIGNED_CONTEXT
((#651,#652,#653)) REPRESENTATION_CONTEXT('Context #1',
  '3D Context with UNIT and UNCERTAINTY') );
#651 = ( LENGTH_UNIT() NAMED_UNIT(*) SI_UNIT(.MILLI.,.METRE.) );
#652 = ( NAMED_UNIT(*) PLANE_ANGLE_UNIT() SI_UNIT($,.RADIAN.) );
#653 = ( NAMED_UNIT(*) SI_UNIT($,.STERADIAN.) SOLID_ANGLE_UNIT() );
#654 = UNCERTAINTY_MEASURE_WITH_UNIT(LENGTH_MEASURE(1.E-07),#651,
  'distance_accuracy_value','confusion accuracy');
#655 = CONTEXT_DEPENDENT_SHAPE_REPRESENTATION(#656,#658);
#656 = ( REPRESENTATION_RELATIONSHIP('','',#499,#10) 
REPRESENTATION_RELATIONSHIP_WITH_TRANSFORMATION(#657) 
SHAPE_REPRESENTATION_RELATIONSHIP() );
#657 = ITEM_DEFINED_TRANSFORMATION('','',#11,#27);
#658 = PRODUCT_DEFINITION_SHAPE('Placement','Placement of an item',#659
  );
#659 = NEXT_ASSEMBLY_USAGE_OCCURRENCE('189','Pad_2_1','',#5,#494,$);
#660 = PRODUCT_RELATED_PRODUCT_CATEGORY('part',$,(#496));
#661 = MECHANICAL_DESIGN_GEOMETRIC_PRESENTATION_REPRESENTATION('',(#662)
  ,#312);
#662 = STYLED_ITEM('color',(#663),#259);
#663 = PRESENTATION_STYLE_ASSIGNMENT((#664,#670));
#664 = SURFACE_STYLE_USAGE(.BOTH.,#665);
#665 = SURFACE_SIDE_STYLE('',(#666));
#666 = SURFACE_STYLE_FILL_AREA(#667);
#667 = FILL_AREA_STYLE('',(#668));
#668 = FILL_AREA_STYLE_COLOUR('',#669);
#669 = DRAUGHTING_PRE_DEFINED_COLOUR('white');
#670 = CURVE_STYLE('',#671,POSITIVE_LENGTH_MEASURE(0.1),#672);
#671 = DRAUGHTING_PRE_DEFINED_CURVE_FONT('continuous');
#672 = COLOUR_RGB('',9.803921802644E-02,9.803921802644E-02,
  9.803921802644E-02);
#673 = MECHANICAL_DESIGN_GEOMETRIC_PRESENTATION_REPRESENTATION('',(#674)
  ,#650);
#674 = STYLED_ITEM('color',(#675),#500);
#675 = PRESENTATION_STYLE_ASSIGNMENT((#676,#682));
#676 = SURFACE_STYLE_USAGE(.BOTH.,#677);
#677 = SURFACE_SIDE_STYLE('',(#678));
#678 = SURFACE_STYLE_FILL_AREA(#679);
#679 = FILL_AREA_STYLE('',(#680));
#680 = FILL_AREA_STYLE_COLOUR('',#681);
#681 = COLOUR_RGB('',0.796078452645,0.823529417451,0.937254901616);
#682 = CURVE_STYLE('',#683,POSITIVE_LENGTH_MEASURE(0.1),#672);
#683 = DRAUGHTING_PRE_DEFINED_CURVE_FONT('continuous');
#684 = MECHANICAL_DESIGN_GEOMETRIC_PRESENTATION_REPRESENTATION('',(#685)
  ,#481);
#685 = STYLED_ITEM('color',(#686),#331);
#686 = PRESENTATION_STYLE_ASSIGNMENT((#687,#692));
#687 = SURFACE_STYLE_USAGE(.BOTH.,#688);
#688 = SURFACE_SIDE_STYLE('',(#689));
#689 = SURFACE_STYLE_FILL_AREA(#690);
#690 = FILL_AREA_STYLE('',(#691));
#691 = FILL_AREA_STYLE_COLOUR('',#681);
#692 = CURVE_STYLE('',#693,POSITIVE_LENGTH_MEASURE(0.1),#672);
#693 = DRAUGHTING_PRE_DEFINED_CURVE_FONT('continuous');
#694 = MECHANICAL_DESIGN_GEOMETRIC_PRESENTATION_REPRESENTATION('',(#695)
  ,#240);
#695 = STYLED_ITEM('color',(#696),#45);
#696 = PRESENTATION_STYLE_ASSIGNMENT((#697,#703));
#697 = SURFACE_STYLE_USAGE(.BOTH.,#698);
#698 = SURFACE_SIDE_STYLE('',(#699));
#699 = SURFACE_STYLE_FILL_AREA(#700);
#700 = FILL_AREA_STYLE('',(#701));
#701 = FILL_AREA_STYLE_COLOUR('',#702);
#702 = COLOUR_RGB('',0.250980406631,0.250980406631,0.250980406631);
#703 = CURVE_STYLE('',#704,POSITIVE_LENGTH_MEASURE(0.1),#672);
#704 = DRAUGHTING_PRE_DEFINED_CURVE_FONT('continuous');
ENDSEC;
END-ISO-10303-21;
