ISO-10303-21;
HEADER;
FILE_DESCRIPTION (( 'STEP AP214' ),
    '1' );
FILE_NAME ('XAL7030-161MEC.STEP',
    '2024-03-01T03:16:14',
    ( '' ),
    ( '' ),
    'SwSTEP 2.0',
    'SolidWorks 2021',
    '' );
FILE_SCHEMA (( 'AUTOMOTIVE_DESIGN' ));
ENDSEC;

DATA;
#1 = CARTESIAN_POINT ( 'NONE',  ( 3.160000000000002363, 0.3499999999999996447, 2.999999999999999556 ) ) ;
#2 = VERTEX_POINT ( 'NONE', #39 ) ;
#3 = FILL_AREA_STYLE ('',( #143 ) ) ;
#4 = VERTEX_POINT ( 'NONE', #785 ) ;
#5 = UNCERTAINTY_MEASURE_WITH_UNIT (LENGTH_MEASURE( 1.000000000000000082E-05 ), #467, 'distance_accuracy_value', 'NONE');
#6 = SURFACE_STYLE_USAGE ( .BOTH. , #1149 ) ;
#7 = VECTOR ( 'NONE', #527, 1000.000000000000000 ) ;
#8 = DIRECTION ( 'NONE',  ( 0.000000000000000000, -1.000000000000000000, 0.000000000000000000 ) ) ;
#9 = CARTESIAN_POINT ( 'NONE',  ( 3.450000000000000622, -10.60660171779821326, -3.449999999999999734 ) ) ;
#10 = STYLED_ITEM ( 'NONE', ( #905 ), #1186 ) ;
#11 = DIRECTION ( 'NONE',  ( -0.000000000000000000, 1.000000000000000000, -0.000000000000000000 ) ) ;
#12 = EDGE_LOOP ( 'NONE', ( #597, #862, #552, #480 ) ) ;
#13 = ORIENTED_EDGE ( 'NONE', *, *, #331, .T. ) ;
#14 = DIRECTION ( 'NONE',  ( -0.000000000000000000, -1.000000000000000000, -0.000000000000000000 ) ) ;
#15 = PRESENTATION_LAYER_ASSIGNMENT (  '', '', ( #1087 ) ) ;
#16 = LINE ( 'NONE', #22, #233 ) ;
#17 = DIRECTION ( 'NONE',  ( 0.000000000000000000, -0.000000000000000000, -1.000000000000000000 ) ) ;
#18 = EDGE_CURVE ( 'NONE', #4, #481, #677, .T. ) ;
#19 = ORIENTED_EDGE ( 'NONE', *, *, #982, .F. ) ;
#20 = ORIENTED_EDGE ( 'NONE', *, *, #106, .F. ) ;
#21 = LINE ( 'NONE', #287, #1205 ) ;
#22 = CARTESIAN_POINT ( 'NONE',  ( -3.449999999999999289, 3.100000000000000089, -3.749999999999999556 ) ) ;
#23 = FILL_AREA_STYLE ('',( #578 ) ) ;
#24 = VERTEX_POINT ( 'NONE', #413 ) ;
#25 = EDGE_CURVE ( 'NONE', #372, #692, #788, .T. ) ;
#26 = ORIENTED_EDGE ( 'NONE', *, *, #549, .F. ) ;
#27 = PRESENTATION_STYLE_ASSIGNMENT (( #6 ) ) ;
#28 = PRESENTATION_STYLE_ASSIGNMENT (( #492 ) ) ;
#29 = CARTESIAN_POINT ( 'NONE',  ( -2.600000000000000089, 3.049999999999999822, 2.250000000000000444 ) ) ;
#30 = AXIS2_PLACEMENT_3D ( 'NONE', #847, #857, #279 ) ;
#31 = ORIENTED_EDGE ( 'NONE', *, *, #848, .F. ) ;
#32 = DIRECTION ( 'NONE',  ( -0.000000000000000000, -0.000000000000000000, 1.000000000000000000 ) ) ;
#33 = STYLED_ITEM ( 'NONE', ( #272 ), #800 ) ;
#34 = FACE_OUTER_BOUND ( 'NONE', #938, .T. ) ;
#35 = EDGE_CURVE ( 'NONE', #470, #459, #320, .T. ) ;
#36 =( NAMED_UNIT ( * ) PLANE_ANGLE_UNIT ( ) SI_UNIT ( $, .RADIAN. ) );
#37 = FACE_OUTER_BOUND ( 'NONE', #79, .T. ) ;
#38 = ORIENTED_EDGE ( 'NONE', *, *, #1169, .T. ) ;
#39 = CARTESIAN_POINT ( 'NONE',  ( 1.560000000000002052, 0.3499999999999996447, 3.000000000000000444 ) ) ;
#40 =( LENGTH_UNIT ( ) NAMED_UNIT ( * ) SI_UNIT ( .MILLI., .METRE. ) );
#41 =( LENGTH_UNIT ( ) NAMED_UNIT ( * ) SI_UNIT ( .MILLI., .METRE. ) );
#42 = DIRECTION ( 'NONE',  ( 0.000000000000000000, 0.000000000000000000, -1.000000000000000000 ) ) ;
#43 = ORIENTED_EDGE ( 'NONE', *, *, #161, .F. ) ;
#44 =( LENGTH_UNIT ( ) NAMED_UNIT ( * ) SI_UNIT ( .MILLI., .METRE. ) );
#45 = LINE ( 'NONE', #416, #221 ) ;
#46 = CARTESIAN_POINT ( 'NONE',  ( -3.449999999999999289, -10.60660171779821326, 3.449999999999999734 ) ) ;
#47 = STYLED_ITEM ( 'NONE', ( #177 ), #681 ) ;
#48 = COLOUR_RGB ( '',0.2509803921568627416, 0.2509803921568627416, 0.2509803921568627416 ) ;
#49 = DIRECTION ( 'NONE',  ( 0.000000000000000000, 1.000000000000000000, 0.000000000000000000 ) ) ;
#50 = VECTOR ( 'NONE', #401, 1000.000000000000000 ) ;
#51 = CARTESIAN_POINT ( 'NONE',  ( -3.449999999999999289, -10.60660171779821326, 3.749999999999999556 ) ) ;
#52 =( NAMED_UNIT ( * ) SI_UNIT ( $, .STERADIAN. ) SOLID_ANGLE_UNIT ( ) );
#53 = FACE_OUTER_BOUND ( 'NONE', #12, .T. ) ;
#54 = CARTESIAN_POINT ( 'NONE',  ( -2.899999999999999911, 3.100000000000000089, 2.250000000000000444 ) ) ;
#55 =( NAMED_UNIT ( * ) SI_UNIT ( $, .STERADIAN. ) SOLID_ANGLE_UNIT ( ) );
#56 = PRODUCT_DEFINITION_CONTEXT ( 'detailed design', #538, 'design' ) ;
#57 = DIRECTION ( 'NONE',  ( 0.000000000000000000, 0.000000000000000000, -1.000000000000000000 ) ) ;
#58 = EDGE_CURVE ( 'NONE', #103, #980, #1022, .T. ) ;
#59 = CARTESIAN_POINT ( 'NONE',  ( -1.560000000000000275, 0.3499999999999996447, -2.999999999999999556 ) ) ;
#60 = EDGE_CURVE ( 'NONE', #477, #240, #1069, .T. ) ;
#61 = PRESENTATION_STYLE_ASSIGNMENT (( #901 ) ) ;
#62 = CARTESIAN_POINT ( 'NONE',  ( 1.560000000000000275, 0.3499999999999996447, -3.000000000000000000 ) ) ;
#63 = SURFACE_STYLE_FILL_AREA ( #906 ) ;
#64 = CIRCLE ( 'NONE', #648, 0.2999999999999999334 ) ;
#65 =( LENGTH_UNIT ( ) NAMED_UNIT ( * ) SI_UNIT ( .MILLI., .METRE. ) );
#66 = SURFACE_STYLE_FILL_AREA ( #949 ) ;
#67 = VECTOR ( 'NONE', #1103, 1000.000000000000000 ) ;
#68 =( NAMED_UNIT ( * ) SI_UNIT ( $, .STERADIAN. ) SOLID_ANGLE_UNIT ( ) );
#69 = EDGE_CURVE ( 'NONE', #863, #240, #605, .T. ) ;
#70 = CARTESIAN_POINT ( 'NONE',  ( -3.160000000000000586, 0.3499999999999996447, 3.000000000000000444 ) ) ;
#71 = LINE ( 'NONE', #158, #230 ) ;
#72 = EDGE_LOOP ( 'NONE', ( #113, #294, #262, #1130 ) ) ;
#73 = FILL_AREA_STYLE_COLOUR ( '', #777 ) ;
#74 = COLOUR_RGB ( '',0.2509803921568627416, 0.2509803921568627416, 0.2509803921568627416 ) ;
#75 = DIRECTION ( 'NONE',  ( -0.000000000000000000, -1.000000000000000000, -0.000000000000000000 ) ) ;
#76 = SURFACE_SIDE_STYLE ('',( #1115 ) ) ;
#77 = EDGE_CURVE ( 'NONE', #1143, #950, #874, .T. ) ;
#78 = DIRECTION ( 'NONE',  ( 0.000000000000000000, 1.000000000000000000, 0.000000000000000000 ) ) ;
#79 = EDGE_LOOP ( 'NONE', ( #236, #1166, #759, #364 ) ) ;
#80 = CARTESIAN_POINT ( 'NONE',  ( -3.449999999999999289, 0.3499999999999996447, -3.449999999999999734 ) ) ;
#81 = LINE ( 'NONE', #448, #1016 ) ;
#82 = SURFACE_STYLE_USAGE ( .BOTH. , #1026 ) ;
#83 = ORIENTED_EDGE ( 'NONE', *, *, #583, .T. ) ;
#84 = EDGE_LOOP ( 'NONE', ( #358, #31, #633, #1147 ) ) ;
#85 = VECTOR ( 'NONE', #687, 1000.000000000000000 ) ;
#86 = CARTESIAN_POINT ( 'NONE',  ( 1.560000000000000275, 0.000000000000000000, -3.000000000000000000 ) ) ;
#87 = CARTESIAN_POINT ( 'NONE',  ( -2.600000000000000089, 3.049999999999999822, -2.249999999999999556 ) ) ;
#88 = AXIS2_PLACEMENT_3D ( 'NONE', #609, #894, #424 ) ;
#89 = DIRECTION ( 'NONE',  ( 0.000000000000000000, 1.000000000000000000, 0.000000000000000000 ) ) ;
#90 = ORIENTED_EDGE ( 'NONE', *, *, #532, .T. ) ;
#91 = EDGE_LOOP ( 'NONE', ( #550, #1032, #639, #1210 ) ) ;
#92 =( GEOMETRIC_REPRESENTATION_CONTEXT ( 3 ) GLOBAL_UNCERTAINTY_ASSIGNED_CONTEXT ( ( #1023 ) ) GLOBAL_UNIT_ASSIGNED_CONTEXT ( ( #406, #1071, #484 ) ) REPRESENTATION_CONTEXT ( 'NONE', 'WORKASPACE' ) );
#93 = CARTESIAN_POINT ( 'NONE',  ( -3.160000000000000586, 0.3499999999999996447, 3.000000000000000444 ) ) ;
#94 = PRODUCT ( 'XAL7030-161MEC', 'XAL7030-161MEC', '', ( #547 ) ) ;
#95 = ORIENTED_EDGE ( 'NONE', *, *, #1127, .F. ) ;
#96 = ORIENTED_EDGE ( 'NONE', *, *, #1118, .T. ) ;
#97 = UNCERTAINTY_MEASURE_WITH_UNIT (LENGTH_MEASURE( 1.000000000000000082E-05 ), #351, 'distance_accuracy_value', 'NONE');
#98 = LINE ( 'NONE', #946, #1098 ) ;
#99 = DIRECTION ( 'NONE',  ( 0.000000000000000000, 0.000000000000000000, -1.000000000000000000 ) ) ;
#100 = PLANE ( 'NONE',  #333 ) ;
#101 = DIRECTION ( 'NONE',  ( 1.000000000000000000, -0.000000000000000000, 0.000000000000000000 ) ) ;
#102 = EDGE_LOOP ( 'NONE', ( #943, #764, #951, #926 ) ) ;
#103 = VERTEX_POINT ( 'NONE', #992 ) ;
#104 = LINE ( 'NONE', #962, #736 ) ;
#105 = VECTOR ( 'NONE', #195, 1000.000000000000000 ) ;
#106 = EDGE_CURVE ( 'NONE', #2, #1075, #997, .T. ) ;
#107 = VECTOR ( 'NONE', #388, 1000.000000000000000 ) ;
#108 =( NAMED_UNIT ( * ) SI_UNIT ( $, .STERADIAN. ) SOLID_ANGLE_UNIT ( ) );
#109 = PRESENTATION_STYLE_ASSIGNMENT (( #1057 ) ) ;
#110 =( GEOMETRIC_REPRESENTATION_CONTEXT ( 3 ) GLOBAL_UNCERTAINTY_ASSIGNED_CONTEXT ( ( #900 ) ) GLOBAL_UNIT_ASSIGNED_CONTEXT ( ( #623, #1174, #145 ) ) REPRESENTATION_CONTEXT ( 'NONE', 'WORKASPACE' ) );
#111 = CARTESIAN_POINT ( 'NONE',  ( -2.899999999999999911, 3.049999999999999822, -2.249999999999999556 ) ) ;
#112 = VERTEX_POINT ( 'NONE', #500 ) ;
#113 = ORIENTED_EDGE ( 'NONE', *, *, #271, .F. ) ;
#114 = DIRECTION ( 'NONE',  ( 0.000000000000000000, -0.000000000000000000, 1.000000000000000000 ) ) ;
#115 = VECTOR ( 'NONE', #78, 1000.000000000000000 ) ;
#116 = EDGE_CURVE ( 'NONE', #817, #742, #134, .T. ) ;
#117 = DIRECTION ( 'NONE',  ( 3.252606517456513302E-16, -0.000000000000000000, 1.000000000000000000 ) ) ;
#118 = ORIENTED_EDGE ( 'NONE', *, *, #617, .F. ) ;
#119 = ORIENTED_EDGE ( 'NONE', *, *, #412, .T. ) ;
#120 = DIRECTION ( 'NONE',  ( -1.000000000000000000, -0.000000000000000000, -0.000000000000000000 ) ) ;
#121 = FILL_AREA_STYLE_COLOUR ( '', #921 ) ;
#122 = CARTESIAN_POINT ( 'NONE',  ( 0.000000000000000000, 0.3499999999999996447, 0.000000000000000000 ) ) ;
#123 = STYLED_ITEM ( 'NONE', ( #438 ), #502 ) ;
#124 = ORIENTED_EDGE ( 'NONE', *, *, #445, .F. ) ;
#125 = EDGE_CURVE ( 'NONE', #742, #1137, #797, .T. ) ;
#126 = EDGE_LOOP ( 'NONE', ( #531, #1062, #977, #307 ) ) ;
#127 = DIRECTION ( 'NONE',  ( 1.000000000000000000, -0.000000000000000000, -5.421010862427522170E-16 ) ) ;
#128 = PRESENTATION_LAYER_ASSIGNMENT (  '', '', ( #47 ) ) ;
#129 = DIRECTION ( 'NONE',  ( 1.000000000000000000, -0.000000000000000000, 0.000000000000000000 ) ) ;
#130 = VECTOR ( 'NONE', #120, 1000.000000000000000 ) ;
#131 = CARTESIAN_POINT ( 'NONE',  ( 0.000000000000000000, 0.000000000000000000, 0.000000000000000000 ) ) ;
#132 = VERTEX_POINT ( 'NONE', #703 ) ;
#133 =( GEOMETRIC_REPRESENTATION_CONTEXT ( 3 ) GLOBAL_UNCERTAINTY_ASSIGNED_CONTEXT ( ( #5 ) ) GLOBAL_UNIT_ASSIGNED_CONTEXT ( ( #467, #734, #924 ) ) REPRESENTATION_CONTEXT ( 'NONE', 'WORKASPACE' ) );
#134 = LINE ( 'NONE', #586, #1175 ) ;
#135 = CARTESIAN_POINT ( 'NONE',  ( -3.449999999999999289, 0.3499999999999996447, -3.749999999999999556 ) ) ;
#136 = AXIS2_PLACEMENT_3D ( 'NONE', #253, #357, #1134 ) ;
#137 = CARTESIAN_POINT ( 'NONE',  ( 1.560000000000002052, 0.3499999999999996447, 3.000000000000000444 ) ) ;
#138 = DIRECTION ( 'NONE',  ( 0.000000000000000000, 0.000000000000000000, 1.000000000000000000 ) ) ;
#139 = DIRECTION ( 'NONE',  ( 0.000000000000000000, 1.000000000000000000, 0.000000000000000000 ) ) ;
#140 = VECTOR ( 'NONE', #887, 1000.000000000000000 ) ;
#141 = DIRECTION ( 'NONE',  ( -0.000000000000000000, 1.000000000000000000, -0.000000000000000000 ) ) ;
#142 = CARTESIAN_POINT ( 'NONE',  ( -3.750000000000000000, -10.60660171779821326, 3.449999999999999734 ) ) ;
#143 = FILL_AREA_STYLE_COLOUR ( '', #490 ) ;
#144 = EDGE_CURVE ( 'NONE', #371, #112, #425, .T. ) ;
#145 =( NAMED_UNIT ( * ) SI_UNIT ( $, .STERADIAN. ) SOLID_ANGLE_UNIT ( ) );
#146 = PRESENTATION_LAYER_ASSIGNMENT (  '', '', ( #810 ) ) ;
#147 = MECHANICAL_DESIGN_GEOMETRIC_PRESENTATION_REPRESENTATION (  '', ( #911 ), #957 ) ;
#148 = DIRECTION ( 'NONE',  ( -4.336808689942024836E-15, 0.000000000000000000, 1.000000000000000000 ) ) ;
#149 = MECHANICAL_DESIGN_GEOMETRIC_PRESENTATION_REPRESENTATION (  '', ( #419 ), #511 ) ;
#150 = DIRECTION ( 'NONE',  ( -1.000000000000000000, 0.000000000000000000, -0.000000000000000000 ) ) ;
#151 = CARTESIAN_POINT ( 'NONE',  ( -3.160000000000000586, 0.3499999999999996447, -2.999999999999999556 ) ) ;
#152 = AXIS2_PLACEMENT_3D ( 'NONE', #884, #882, #42 ) ;
#153 = EDGE_CURVE ( 'NONE', #1111, #199, #300, .T. ) ;
#154 = MECHANICAL_DESIGN_GEOMETRIC_PRESENTATION_REPRESENTATION (  '', ( #616 ), #92 ) ;
#155 = SURFACE_STYLE_USAGE ( .BOTH. , #1003 ) ;
#156 = FILL_AREA_STYLE_COLOUR ( '', #260 ) ;
#157 = CARTESIAN_POINT ( 'NONE',  ( -3.449999999999999289, -10.60660171779821326, -3.749999999999999556 ) ) ;
#158 = CARTESIAN_POINT ( 'NONE',  ( -3.160000000000000586, 0.000000000000000000, 3.000000000000000444 ) ) ;
#159 = CARTESIAN_POINT ( 'NONE',  ( -3.449999999999999289, -10.60660171779821326, -3.749999999999999556 ) ) ;
#160 = CARTESIAN_POINT ( 'NONE',  ( 1.560000000000002052, 0.3499999999999996447, 3.000000000000000444 ) ) ;
#161 = EDGE_CURVE ( 'NONE', #838, #774, #1192, .T. ) ;
#162 = CARTESIAN_POINT ( 'NONE',  ( 1.560000000000002052, 0.3499999999999996447, 3.000000000000000444 ) ) ;
#163 =( GEOMETRIC_REPRESENTATION_CONTEXT ( 3 ) GLOBAL_UNCERTAINTY_ASSIGNED_CONTEXT ( ( #682 ) ) GLOBAL_UNIT_ASSIGNED_CONTEXT ( ( #273, #654, #108 ) ) REPRESENTATION_CONTEXT ( 'NONE', 'WORKASPACE' ) );
#164 = DIRECTION ( 'NONE',  ( -1.000000000000000000, -0.000000000000000000, -0.000000000000000000 ) ) ;
#165 = ORIENTED_EDGE ( 'NONE', *, *, #116, .T. ) ;
#166 = SURFACE_STYLE_USAGE ( .BOTH. , #555 ) ;
#167 = EDGE_CURVE ( 'NONE', #477, #556, #308, .T. ) ;
#168 =( LENGTH_UNIT ( ) NAMED_UNIT ( * ) SI_UNIT ( .MILLI., .METRE. ) );
#169 = APPLICATION_CONTEXT ( 'automotive_design' ) ;
#170 = CLOSED_SHELL ( 'NONE', ( #238, #479, #576, #189, #1072, #1054 ) ) ;
#171 =( NAMED_UNIT ( * ) SI_UNIT ( $, .STERADIAN. ) SOLID_ANGLE_UNIT ( ) );
#172 = ORIENTED_EDGE ( 'NONE', *, *, #845, .F. ) ;
#173 = VECTOR ( 'NONE', #698, 1000.000000000000000 ) ;
#174 = SHAPE_DEFINITION_REPRESENTATION ( #1123, #800 ) ;
#175 = SURFACE_STYLE_USAGE ( .BOTH. , #261 ) ;
#176 = EDGE_LOOP ( 'NONE', ( #649, #38, #96, #1055 ) ) ;
#177 = PRESENTATION_STYLE_ASSIGNMENT (( #175 ) ) ;
#178 = CARTESIAN_POINT ( 'NONE',  ( -2.899999999999999911, 3.100000000000000089, 2.250000000000000444 ) ) ;
#179 = DIRECTION ( 'NONE',  ( 0.000000000000000000, 0.000000000000000000, 1.000000000000000000 ) ) ;
#180 = SURFACE_STYLE_USAGE ( .BOTH. , #1048 ) ;
#181 = VERTEX_POINT ( 'NONE', #329 ) ;
#182 = ORIENTED_EDGE ( 'NONE', *, *, #1195, .T. ) ;
#183 = VECTOR ( 'NONE', #293, 1000.000000000000000 ) ;
#184 = COLOUR_RGB ( '',1.000000000000000000, 1.000000000000000000, 1.000000000000000000 ) ;
#185 = CARTESIAN_POINT ( 'NONE',  ( 0.000000000000000000, 3.049999999999999822, 0.000000000000000000 ) ) ;
#186 = VECTOR ( 'NONE', #117, 1000.000000000000000 ) ;
#187 =( NAMED_UNIT ( * ) SI_UNIT ( $, .STERADIAN. ) SOLID_ANGLE_UNIT ( ) );
#188 =( NAMED_UNIT ( * ) SI_UNIT ( $, .STERADIAN. ) SOLID_ANGLE_UNIT ( ) );
#189 = ADVANCED_FACE ( 'NONE', ( #430 ), #1201, .F. ) ;
#190 = ORIENTED_EDGE ( 'NONE', *, *, #902, .T. ) ;
#191 = UNCERTAINTY_MEASURE_WITH_UNIT (LENGTH_MEASURE( 1.000000000000000082E-05 ), #41, 'distance_accuracy_value', 'NONE');
#192 = ORIENTED_EDGE ( 'NONE', *, *, #1169, .F. ) ;
#193 = AXIS2_PLACEMENT_3D ( 'NONE', #632, #436, #808 ) ;
#194 = CARTESIAN_POINT ( 'NONE',  ( -2.600000000000000089, 3.100000000000000089, -2.249999999999999556 ) ) ;
#195 = DIRECTION ( 'NONE',  ( -0.000000000000000000, 1.000000000000000000, -0.000000000000000000 ) ) ;
#196 =( NAMED_UNIT ( * ) PLANE_ANGLE_UNIT ( ) SI_UNIT ( $, .RADIAN. ) );
#197 = CARTESIAN_POINT ( 'NONE',  ( -2.899999999999999911, 3.100000000000000089, -2.249999999999999556 ) ) ;
#198 = SURFACE_SIDE_STYLE ('',( #925 ) ) ;
#199 = VERTEX_POINT ( 'NONE', #655 ) ;
#200 = EDGE_LOOP ( 'NONE', ( #190, #1060, #90, #402 ) ) ;
#201 = ADVANCED_FACE ( 'NONE', ( #614 ), #624, .F. ) ;
#202 = SURFACE_STYLE_FILL_AREA ( #772 ) ;
#203 = FILL_AREA_STYLE ('',( #1051 ) ) ;
#204 = SURFACE_SIDE_STYLE ('',( #662 ) ) ;
#205 = ORIENTED_EDGE ( 'NONE', *, *, #1148, .T. ) ;
#206 = ADVANCED_FACE ( 'NONE', ( #823 ), #815, .T. ) ;
#207 = AXIS2_PLACEMENT_3D ( 'NONE', #794, #1173, #322 ) ;
#208 = STYLED_ITEM ( 'NONE', ( #835 ), #720 ) ;
#209 = FACE_BOUND ( 'NONE', #1049, .T. ) ;
#210 = FILL_AREA_STYLE ('',( #305 ) ) ;
#211 = ORIENTED_EDGE ( 'NONE', *, *, #711, .F. ) ;
#212 = VERTEX_POINT ( 'NONE', #336 ) ;
#213 =( LENGTH_UNIT ( ) NAMED_UNIT ( * ) SI_UNIT ( .MILLI., .METRE. ) );
#214 = VECTOR ( 'NONE', #719, 1000.000000000000000 ) ;
#215 = SURFACE_STYLE_FILL_AREA ( #1141 ) ;
#216 = SURFACE_STYLE_USAGE ( .BOTH. , #298 ) ;
#217 = VERTEX_POINT ( 'NONE', #59 ) ;
#218 = DIRECTION ( 'NONE',  ( -0.000000000000000000, -1.000000000000000000, -0.000000000000000000 ) ) ;
#219 = UNCERTAINTY_MEASURE_WITH_UNIT (LENGTH_MEASURE( 1.000000000000000082E-05 ), #264, 'distance_accuracy_value', 'NONE');
#220 = LINE ( 'NONE', #1083, #790 ) ;
#221 = VECTOR ( 'NONE', #793, 1000.000000000000000 ) ;
#222 =( LENGTH_UNIT ( ) NAMED_UNIT ( * ) SI_UNIT ( .MILLI., .METRE. ) );
#223 = CARTESIAN_POINT ( 'NONE',  ( -2.899999999999999911, 3.049999999999999822, 2.250000000000000444 ) ) ;
#224 = ORIENTED_EDGE ( 'NONE', *, *, #751, .T. ) ;
#225 = CARTESIAN_POINT ( 'NONE',  ( 1.560000000000000275, 0.3499999999999996447, -3.000000000000000000 ) ) ;
#226 = CARTESIAN_POINT ( 'NONE',  ( -2.600000000000000089, 3.049999999999999822, 2.250000000000000444 ) ) ;
#227 = MECHANICAL_DESIGN_GEOMETRIC_PRESENTATION_REPRESENTATION (  '', ( #810 ), #163 ) ;
#228 = DIRECTION ( 'NONE',  ( 0.000000000000000000, 1.000000000000000000, 0.000000000000000000 ) ) ;
#229 = COLOUR_RGB ( '',0.2509803921568627416, 0.2509803921568627416, 0.2509803921568627416 ) ;
#230 = VECTOR ( 'NONE', #714, 1000.000000000000000 ) ;
#231 = DIRECTION ( 'NONE',  ( 1.000000000000000000, 0.000000000000000000, 0.000000000000000000 ) ) ;
#232 = CLOSED_SHELL ( 'NONE', ( #804, #206, #317, #284, #936, #895, #1186, #375, #355, #1113, #888, #1200, #365, #359, #994 ) ) ;
#233 = VECTOR ( 'NONE', #393, 1000.000000000000000 ) ;
#234 = LINE ( 'NONE', #602, #140 ) ;
#235 = PLANE ( 'NONE',  #981 ) ;
#236 = ORIENTED_EDGE ( 'NONE', *, *, #635, .T. ) ;
#237 = PLANE ( 'NONE',  #551 ) ;
#238 = ADVANCED_FACE ( 'NONE', ( #1190 ), #282, .F. ) ;
#239 = PLANE ( 'NONE',  #88 ) ;
#240 = VERTEX_POINT ( 'NONE', #539 ) ;
#241 = FACE_OUTER_BOUND ( 'NONE', #769, .T. ) ;
#242 = EDGE_CURVE ( 'NONE', #1129, #267, #560, .T. ) ;
#243 = CARTESIAN_POINT ( 'NONE',  ( 3.160000000000000586, 0.3499999999999996447, -3.000000000000000444 ) ) ;
#244 =( GEOMETRIC_REPRESENTATION_CONTEXT ( 3 ) GLOBAL_UNCERTAINTY_ASSIGNED_CONTEXT ( ( #1019 ) ) GLOBAL_UNIT_ASSIGNED_CONTEXT ( ( #1112, #275, #188 ) ) REPRESENTATION_CONTEXT ( 'NONE', 'WORKASPACE' ) );
#245 = SURFACE_STYLE_FILL_AREA ( #1110 ) ;
#246 = VECTOR ( 'NONE', #11, 1000.000000000000000 ) ;
#247 = FILL_AREA_STYLE_COLOUR ( '', #1059 ) ;
#248 = DIRECTION ( 'NONE',  ( -0.000000000000000000, 0.000000000000000000, 1.000000000000000000 ) ) ;
#249 = EDGE_CURVE ( 'NONE', #980, #1129, #827, .T. ) ;
#250 = CARTESIAN_POINT ( 'NONE',  ( -2.600000000000000089, 3.049999999999999822, 2.250000000000000444 ) ) ;
#251 = SURFACE_STYLE_FILL_AREA ( #732 ) ;
#252 = SURFACE_STYLE_USAGE ( .BOTH. , #1104 ) ;
#253 = CARTESIAN_POINT ( 'NONE',  ( -1.560000000000000497, 0.3499999999999996447, 3.000000000000000888 ) ) ;
#254 = CARTESIAN_POINT ( 'NONE',  ( -2.899999999999999911, 3.049999999999999822, -2.249999999999999556 ) ) ;
#255 = FILL_AREA_STYLE ('',( #1206 ) ) ;
#256 = SURFACE_SIDE_STYLE ('',( #1100 ) ) ;
#257 = FILL_AREA_STYLE_COLOUR ( '', #955 ) ;
#258 =( GEOMETRIC_REPRESENTATION_CONTEXT ( 3 ) GLOBAL_UNCERTAINTY_ASSIGNED_CONTEXT ( ( #219 ) ) GLOBAL_UNIT_ASSIGNED_CONTEXT ( ( #264, #645, #523 ) ) REPRESENTATION_CONTEXT ( 'NONE', 'WORKASPACE' ) );
#259 = EDGE_LOOP ( 'NONE', ( #1015, #1161, #286, #856 ) ) ;
#260 = COLOUR_RGB ( '',0.2509803921568627416, 0.2509803921568627416, 0.2509803921568627416 ) ;
#261 = SURFACE_SIDE_STYLE ('',( #1116 ) ) ;
#262 = ORIENTED_EDGE ( 'NONE', *, *, #331, .F. ) ;
#263 = DIRECTION ( 'NONE',  ( -0.000000000000000000, -1.000000000000000000, -0.000000000000000000 ) ) ;
#264 =( LENGTH_UNIT ( ) NAMED_UNIT ( * ) SI_UNIT ( .MILLI., .METRE. ) );
#265 = DIRECTION ( 'NONE',  ( 0.000000000000000000, 1.000000000000000000, 0.000000000000000000 ) ) ;
#266 = FILL_AREA_STYLE ('',( #1219 ) ) ;
#267 = VERTEX_POINT ( 'NONE', #342 ) ;
#268 = ORIENTED_EDGE ( 'NONE', *, *, #811, .F. ) ;
#269 = SURFACE_STYLE_USAGE ( .BOTH. , #362 ) ;
#270 = DIRECTION ( 'NONE',  ( 0.000000000000000000, 0.000000000000000000, -1.000000000000000000 ) ) ;
#271 = EDGE_CURVE ( 'NONE', #378, #838, #530, .T. ) ;
#272 = PRESENTATION_STYLE_ASSIGNMENT (( #82 ) ) ;
#273 =( LENGTH_UNIT ( ) NAMED_UNIT ( * ) SI_UNIT ( .MILLI., .METRE. ) );
#274 = EDGE_CURVE ( 'NONE', #24, #572, #803, .T. ) ;
#275 =( NAMED_UNIT ( * ) PLANE_ANGLE_UNIT ( ) SI_UNIT ( $, .RADIAN. ) );
#276 = ORIENTED_EDGE ( 'NONE', *, *, #845, .T. ) ;
#277 = ORIENTED_EDGE ( 'NONE', *, *, #383, .F. ) ;
#278 =( GEOMETRIC_REPRESENTATION_CONTEXT ( 3 ) GLOBAL_UNCERTAINTY_ASSIGNED_CONTEXT ( ( #369 ) ) GLOBAL_UNIT_ASSIGNED_CONTEXT ( ( #805, #599, #55 ) ) REPRESENTATION_CONTEXT ( 'NONE', 'WORKASPACE' ) );
#279 = DIRECTION ( 'NONE',  ( 0.000000000000000000, 0.000000000000000000, 1.000000000000000000 ) ) ;
#280 = CIRCLE ( 'NONE', #813, 0.2999999999999999334 ) ;
#281 = CARTESIAN_POINT ( 'NONE',  ( 0.000000000000000000, 0.000000000000000000, 0.000000000000000000 ) ) ;
#282 = PLANE ( 'NONE',  #136 ) ;
#283 = DIRECTION ( 'NONE',  ( 0.000000000000000000, 1.000000000000000000, 0.000000000000000000 ) ) ;
#284 = ADVANCED_FACE ( 'NONE', ( #716 ), #721, .T. ) ;
#285 = ORIENTED_EDGE ( 'NONE', *, *, #860, .T. ) ;
#286 = ORIENTED_EDGE ( 'NONE', *, *, #405, .F. ) ;
#287 = CARTESIAN_POINT ( 'NONE',  ( 3.160000000000002363, 0.3499999999999996447, 2.999999999999999556 ) ) ;
#288 = SURFACE_SIDE_STYLE ('',( #215 ) ) ;
#289 = PLANE ( 'NONE',  #913 ) ;
#290 = ORIENTED_EDGE ( 'NONE', *, *, #860, .F. ) ;
#291 = EDGE_CURVE ( 'NONE', #980, #181, #310, .T. ) ;
#292 = ORIENTED_EDGE ( 'NONE', *, *, #35, .F. ) ;
#293 = DIRECTION ( 'NONE',  ( 0.000000000000000000, 1.000000000000000000, 0.000000000000000000 ) ) ;
#294 = ORIENTED_EDGE ( 'NONE', *, *, #383, .T. ) ;
#295 = ORIENTED_EDGE ( 'NONE', *, *, #153, .T. ) ;
#296 = CARTESIAN_POINT ( 'NONE',  ( 3.750000000000000444, 3.100000000000000089, 3.449999999999999734 ) ) ;
#297 = MECHANICAL_DESIGN_GEOMETRIC_PRESENTATION_REPRESENTATION (  '', ( #1203 ), #379 ) ;
#298 = SURFACE_SIDE_STYLE ('',( #1152 ) ) ;
#299 = ORIENTED_EDGE ( 'NONE', *, *, #820, .F. ) ;
#300 = LINE ( 'NONE', #488, #657 ) ;
#301 = LINE ( 'NONE', #1043, #183 ) ;
#302 = VECTOR ( 'NONE', #49, 1000.000000000000000 ) ;
#303 = STYLED_ITEM ( 'NONE', ( #709 ), #206 ) ;
#304 = LINE ( 'NONE', #577, #1045 ) ;
#305 = FILL_AREA_STYLE_COLOUR ( '', #596 ) ;
#306 = UNCERTAINTY_MEASURE_WITH_UNIT (LENGTH_MEASURE( 1.000000000000000082E-05 ), #1125, 'distance_accuracy_value', 'NONE');
#307 = ORIENTED_EDGE ( 'NONE', *, *, #1024, .F. ) ;
#308 = LINE ( 'NONE', #689, #941 ) ;
#309 = FILL_AREA_STYLE ('',( #247 ) ) ;
#310 = LINE ( 'NONE', #675, #799 ) ;
#311 = DIRECTION ( 'NONE',  ( 0.000000000000000000, -1.000000000000000000, 0.000000000000000000 ) ) ;
#312 = CARTESIAN_POINT ( 'NONE',  ( -3.449999999999999289, 0.3499999999999996447, 3.449999999999999734 ) ) ;
#313 = CARTESIAN_POINT ( 'NONE',  ( -2.899999999999999911, 3.049999999999999822, 2.250000000000000444 ) ) ;
#314 = PRESENTATION_LAYER_ASSIGNMENT (  '', '', ( #208 ) ) ;
#315 = DIRECTION ( 'NONE',  ( 0.000000000000000000, -1.000000000000000000, 0.000000000000000000 ) ) ;
#316 = PRESENTATION_LAYER_ASSIGNMENT (  '', '', ( #419 ) ) ;
#317 = ADVANCED_FACE ( 'NONE', ( #983 ), #865, .T. ) ;
#318 = CARTESIAN_POINT ( 'NONE',  ( -2.600000000000000089, 3.049999999999999822, 2.250000000000000444 ) ) ;
#319 = SURFACE_STYLE_FILL_AREA ( #309 ) ;
#320 = CIRCLE ( 'NONE', #1004, 0.2999999999999994893 ) ;
#321 = LINE ( 'NONE', #702, #903 ) ;
#322 = DIRECTION ( 'NONE',  ( 0.000000000000000000, 0.000000000000000000, 1.000000000000000000 ) ) ;
#323 = SURFACE_STYLE_USAGE ( .BOTH. , #256 ) ;
#324 = ORIENTED_EDGE ( 'NONE', *, *, #571, .T. ) ;
#325 = EDGE_CURVE ( 'NONE', #846, #4, #304, .T. ) ;
#326 = DIRECTION ( 'NONE',  ( 0.000000000000000000, 0.000000000000000000, 1.000000000000000000 ) ) ;
#327 = FACE_OUTER_BOUND ( 'NONE', #84, .T. ) ;
#328 = FILL_AREA_STYLE ('',( #332 ) ) ;
#329 = CARTESIAN_POINT ( 'NONE',  ( -3.750000000000000000, 3.100000000000000089, 3.449999999999999734 ) ) ;
#330 = DIRECTION ( 'NONE',  ( 2.891205793294678326E-16, 0.000000000000000000, 1.000000000000000000 ) ) ;
#331 = EDGE_CURVE ( 'NONE', #481, #495, #16, .T. ) ;
#332 = FILL_AREA_STYLE_COLOUR ( '', #1172 ) ;
#333 = AXIS2_PLACEMENT_3D ( 'NONE', #849, #8, #735 ) ;
#334 = VECTOR ( 'NONE', #998, 1000.000000000000000 ) ;
#335 = STYLED_ITEM ( 'NONE', ( #1165 ), #1109 ) ;
#336 = CARTESIAN_POINT ( 'NONE',  ( -2.899999999999999911, 3.100000000000000089, -2.249999999999999556 ) ) ;
#337 = VECTOR ( 'NONE', #1085, 1000.000000000000000 ) ;
#338 = CYLINDRICAL_SURFACE ( 'NONE', #737, 0.2999999999999994893 ) ;
#339 = DIRECTION ( 'NONE',  ( 0.000000000000000000, 0.000000000000000000, -1.000000000000000000 ) ) ;
#340 = DIRECTION ( 'NONE',  ( 0.000000000000000000, 1.000000000000000000, 0.000000000000000000 ) ) ;
#341 =( GEOMETRIC_REPRESENTATION_CONTEXT ( 3 ) GLOBAL_UNCERTAINTY_ASSIGNED_CONTEXT ( ( #718 ) ) GLOBAL_UNIT_ASSIGNED_CONTEXT ( ( #65, #348, #171 ) ) REPRESENTATION_CONTEXT ( 'NONE', 'WORKASPACE' ) );
#342 = CARTESIAN_POINT ( 'NONE',  ( -3.750000000000000000, 3.100000000000000089, -3.449999999999999734 ) ) ;
#343 = DIRECTION ( 'NONE',  ( 3.252606517456513302E-16, -0.000000000000000000, 1.000000000000000000 ) ) ;
#344 = UNCERTAINTY_MEASURE_WITH_UNIT (LENGTH_MEASURE( 1.000000000000000082E-05 ), #1018, 'distance_accuracy_value', 'NONE');
#345 = FILL_AREA_STYLE ('',( #1120 ) ) ;
#346 = DIRECTION ( 'NONE',  ( 1.000000000000000000, 0.000000000000000000, -3.252606517456513795E-16 ) ) ;
#347 = CYLINDRICAL_SURFACE ( 'NONE', #1061, 0.2999999999999999334 ) ;
#348 =( NAMED_UNIT ( * ) PLANE_ANGLE_UNIT ( ) SI_UNIT ( $, .RADIAN. ) );
#349 = EDGE_LOOP ( 'NONE', ( #285, #937, #1088, #966 ) ) ;
#350 = DIRECTION ( 'NONE',  ( 1.000000000000000000, -0.000000000000000000, 0.000000000000000000 ) ) ;
#351 =( LENGTH_UNIT ( ) NAMED_UNIT ( * ) SI_UNIT ( .MILLI., .METRE. ) );
#352 = DIRECTION ( 'NONE',  ( -0.000000000000000000, -1.000000000000000000, -0.000000000000000000 ) ) ;
#353 = FILL_AREA_STYLE_COLOUR ( '', #634 ) ;
#354 = DIRECTION ( 'NONE',  ( 1.000000000000000000, 0.000000000000000000, 2.710505431213761085E-16 ) ) ;
#355 = ADVANCED_FACE ( 'NONE', ( #209, #684 ), #1065, .F. ) ;
#356 = MECHANICAL_DESIGN_GEOMETRIC_PRESENTATION_REPRESENTATION (  '', ( #415 ), #694 ) ;
#357 = DIRECTION ( 'NONE',  ( -1.000000000000000000, 0.000000000000000000, -3.614007241618347908E-17 ) ) ;
#358 = ORIENTED_EDGE ( 'NONE', *, *, #274, .T. ) ;
#359 = ADVANCED_FACE ( 'NONE', ( #327 ), #801, .F. ) ;
#360 = EDGE_CURVE ( 'NONE', #470, #846, #713, .T. ) ;
#361 = AXIS2_PLACEMENT_3D ( 'NONE', #51, #789, #519 ) ;
#362 = SURFACE_SIDE_STYLE ('',( #251 ) ) ;
#363 = FACE_OUTER_BOUND ( 'NONE', #391, .T. ) ;
#364 = ORIENTED_EDGE ( 'NONE', *, *, #763, .T. ) ;
#365 = ADVANCED_FACE ( 'NONE', ( #883 ), #1187, .F. ) ;
#366 = DIRECTION ( 'NONE',  ( 0.000000000000000000, 0.000000000000000000, 1.000000000000000000 ) ) ;
#367 = DIRECTION ( 'NONE',  ( 0.000000000000000000, -0.000000000000000000, -1.000000000000000000 ) ) ;
#368 = DIRECTION ( 'NONE',  ( -0.000000000000000000, -0.000000000000000000, 1.000000000000000000 ) ) ;
#369 = UNCERTAINTY_MEASURE_WITH_UNIT (LENGTH_MEASURE( 1.000000000000000082E-05 ), #805, 'distance_accuracy_value', 'NONE');
#370 = VECTOR ( 'NONE', #352, 1000.000000000000000 ) ;
#371 = VERTEX_POINT ( 'NONE', #898 ) ;
#372 = VERTEX_POINT ( 'NONE', #62 ) ;
#373 = UNCERTAINTY_MEASURE_WITH_UNIT (LENGTH_MEASURE( 1.000000000000000082E-05 ), #968, 'distance_accuracy_value', 'NONE');
#374 = DIRECTION ( 'NONE',  ( -3.252606517456513795E-16, 0.000000000000000000, -1.000000000000000000 ) ) ;
#375 = ADVANCED_FACE ( 'NONE', ( #516 ), #1102, .T. ) ;
#376 = SURFACE_SIDE_STYLE ('',( #745 ) ) ;
#377 = DIRECTION ( 'NONE',  ( 0.000000000000000000, 0.000000000000000000, -1.000000000000000000 ) ) ;
#378 = VERTEX_POINT ( 'NONE', #135 ) ;
#379 =( GEOMETRIC_REPRESENTATION_CONTEXT ( 3 ) GLOBAL_UNCERTAINTY_ASSIGNED_CONTEXT ( ( #97 ) ) GLOBAL_UNIT_ASSIGNED_CONTEXT ( ( #351, #1106, #1204 ) ) REPRESENTATION_CONTEXT ( 'NONE', 'WORKASPACE' ) );
#380 = ORIENTED_EDGE ( 'NONE', *, *, #451, .T. ) ;
#381 = VECTOR ( 'NONE', #767, 1000.000000000000000 ) ;
#382 = DIRECTION ( 'NONE',  ( 0.000000000000000000, 0.000000000000000000, 1.000000000000000000 ) ) ;
#383 = EDGE_CURVE ( 'NONE', #378, #495, #423, .T. ) ;
#384 = FILL_AREA_STYLE_COLOUR ( '', #229 ) ;
#385 = VERTEX_POINT ( 'NONE', #806 ) ;
#386 = ORIENTED_EDGE ( 'NONE', *, *, #749, .F. ) ;
#387 = AXIS2_PLACEMENT_3D ( 'NONE', #142, #427, #138 ) ;
#388 = DIRECTION ( 'NONE',  ( -1.000000000000000000, 0.000000000000000000, 2.710505431213760592E-16 ) ) ;
#389 = DIRECTION ( 'NONE',  ( 0.000000000000000000, 1.000000000000000000, 0.000000000000000000 ) ) ;
#390 = LINE ( 'NONE', #1073, #337 ) ;
#391 = EDGE_LOOP ( 'NONE', ( #465, #771, #854, #420 ) ) ;
#392 = LINE ( 'NONE', #587, #629 ) ;
#393 = DIRECTION ( 'NONE',  ( -1.000000000000000000, -0.000000000000000000, -0.000000000000000000 ) ) ;
#394 =( LENGTH_UNIT ( ) NAMED_UNIT ( * ) SI_UNIT ( .MILLI., .METRE. ) );
#395 = ORIENTED_EDGE ( 'NONE', *, *, #144, .F. ) ;
#396 = EDGE_LOOP ( 'NONE', ( #944, #738, #1198, #678 ) ) ;
#397 = FILL_AREA_STYLE_COLOUR ( '', #48 ) ;
#398 = PRESENTATION_LAYER_ASSIGNMENT (  '', '', ( #415 ) ) ;
#399 = VECTOR ( 'NONE', #672, 1000.000000000000000 ) ;
#400 =( GEOMETRIC_REPRESENTATION_CONTEXT ( 3 ) GLOBAL_UNCERTAINTY_ASSIGNED_CONTEXT ( ( #344 ) ) GLOBAL_UNIT_ASSIGNED_CONTEXT ( ( #1018, #196, #187 ) ) REPRESENTATION_CONTEXT ( 'NONE', 'WORKASPACE' ) );
#401 = DIRECTION ( 'NONE',  ( 0.000000000000000000, 1.000000000000000000, 0.000000000000000000 ) ) ;
#402 = ORIENTED_EDGE ( 'NONE', *, *, #69, .T. ) ;
#403 = CARTESIAN_POINT ( 'NONE',  ( 3.450000000000000622, 0.3499999999999996447, -3.449999999999999734 ) ) ;
#404 =( NAMED_UNIT ( * ) PLANE_ANGLE_UNIT ( ) SI_UNIT ( $, .RADIAN. ) );
#405 = EDGE_CURVE ( 'NONE', #494, #385, #503, .T. ) ;
#406 =( LENGTH_UNIT ( ) NAMED_UNIT ( * ) SI_UNIT ( .MILLI., .METRE. ) );
#407 = DIRECTION ( 'NONE',  ( 0.000000000000000000, -0.000000000000000000, -1.000000000000000000 ) ) ;
#408 = ORIENTED_EDGE ( 'NONE', *, *, #1079, .T. ) ;
#409 = ORIENTED_EDGE ( 'NONE', *, *, #242, .F. ) ;
#410 = SURFACE_STYLE_FILL_AREA ( #496 ) ;
#411 =( NAMED_UNIT ( * ) SI_UNIT ( $, .STERADIAN. ) SOLID_ANGLE_UNIT ( ) );
#412 = EDGE_CURVE ( 'NONE', #838, #481, #432, .T. ) ;
#413 = CARTESIAN_POINT ( 'NONE',  ( -2.600000000000000089, 3.100000000000000089, -2.249999999999999556 ) ) ;
#414 = CARTESIAN_POINT ( 'NONE',  ( -2.899999999999999911, 3.100000000000000089, 2.250000000000000444 ) ) ;
#415 = STYLED_ITEM ( 'NONE', ( #630 ), #685 ) ;
#416 = CARTESIAN_POINT ( 'NONE',  ( -2.899999999999999911, 3.049999999999999822, 2.250000000000000444 ) ) ;
#417 =( NAMED_UNIT ( * ) SI_UNIT ( $, .STERADIAN. ) SOLID_ANGLE_UNIT ( ) );
#418 = EDGE_CURVE ( 'NONE', #459, #780, #234, .T. ) ;
#419 = STYLED_ITEM ( 'NONE', ( #584 ), #1113 ) ;
#420 = ORIENTED_EDGE ( 'NONE', *, *, #77, .T. ) ;
#421 = LINE ( 'NONE', #1163, #334 ) ;
#422 = VECTOR ( 'NONE', #1156, 1000.000000000000000 ) ;
#423 = LINE ( 'NONE', #157, #173 ) ;
#424 = DIRECTION ( 'NONE',  ( 1.000000000000000000, 0.000000000000000000, 0.000000000000000000 ) ) ;
#425 = LINE ( 'NONE', #896, #422 ) ;
#426 = DIRECTION ( 'NONE',  ( -1.000000000000000000, 0.000000000000000000, 2.891205793294678326E-16 ) ) ;
#427 = DIRECTION ( 'NONE',  ( -1.000000000000000000, 0.000000000000000000, 0.000000000000000000 ) ) ;
#428 = VECTOR ( 'NONE', #265, 1000.000000000000000 ) ;
#429 = LINE ( 'NONE', #433, #758 ) ;
#430 = FACE_OUTER_BOUND ( 'NONE', #259, .T. ) ;
#431 = SURFACE_STYLE_USAGE ( .BOTH. , #204 ) ;
#432 = LINE ( 'NONE', #812, #482 ) ;
#433 = CARTESIAN_POINT ( 'NONE',  ( 3.750000000000000444, 0.3499999999999996447, 3.449999999999999734 ) ) ;
#434 = AXIS2_PLACEMENT_3D ( 'NONE', #545, #934, #1034 ) ;
#435 = COLOUR_RGB ( '',0.2509803921568627416, 0.2509803921568627416, 0.2509803921568627416 ) ;
#436 = DIRECTION ( 'NONE',  ( -5.421010862427522170E-16, 0.000000000000000000, -1.000000000000000000 ) ) ;
#437 =( LENGTH_UNIT ( ) NAMED_UNIT ( * ) SI_UNIT ( .MILLI., .METRE. ) );
#438 = PRESENTATION_STYLE_ASSIGNMENT (( #533 ) ) ;
#439 = AXIS2_PLACEMENT_3D ( 'NONE', #403, #1076, #1162 ) ;
#440 = PRESENTATION_LAYER_ASSIGNMENT (  '', '', ( #457 ) ) ;
#441 = CARTESIAN_POINT ( 'NONE',  ( -3.160000000000000586, 0.3499999999999996447, 3.000000000000000444 ) ) ;
#442 = ORIENTED_EDGE ( 'NONE', *, *, #167, .T. ) ;
#443 = DIRECTION ( 'NONE',  ( 1.000000000000000000, 0.000000000000000000, 0.000000000000000000 ) ) ;
#444 =( NAMED_UNIT ( * ) PLANE_ANGLE_UNIT ( ) SI_UNIT ( $, .RADIAN. ) );
#445 = EDGE_CURVE ( 'NONE', #817, #1042, #45, .T. ) ;
#446 = CARTESIAN_POINT ( 'NONE',  ( -3.750000000000000000, 0.3499999999999996447, 3.449999999999999734 ) ) ;
#447 = ORIENTED_EDGE ( 'NONE', *, *, #153, .F. ) ;
#448 = CARTESIAN_POINT ( 'NONE',  ( 3.160000000000002363, 0.000000000000000000, 2.999999999999999556 ) ) ;
#449 = FILL_AREA_STYLE ('',( #353 ) ) ;
#450 = CARTESIAN_POINT ( 'NONE',  ( 0.000000000000000000, 0.3499999999999996447, 0.000000000000000000 ) ) ;
#451 = EDGE_CURVE ( 'NONE', #1137, #24, #321, .T. ) ;
#452 = ORIENTED_EDGE ( 'NONE', *, *, #60, .F. ) ;
#453 = CIRCLE ( 'NONE', #756, 0.2999999999999994893 ) ;
#454 = ORIENTED_EDGE ( 'NONE', *, *, #460, .F. ) ;
#455 = CARTESIAN_POINT ( 'NONE',  ( -3.449999999999999289, 3.100000000000000089, 3.449999999999999734 ) ) ;
#456 = LINE ( 'NONE', #1128, #891 ) ;
#457 = STYLED_ITEM ( 'NONE', ( #109 ), #317 ) ;
#458 = EDGE_LOOP ( 'NONE', ( #700, #20, #651, #699 ) ) ;
#459 = VERTEX_POINT ( 'NONE', #725 ) ;
#460 = EDGE_CURVE ( 'NONE', #774, #4, #935, .T. ) ;
#461 = LINE ( 'NONE', #1217, #1181 ) ;
#462 = CARTESIAN_POINT ( 'NONE',  ( 3.450000000000000622, 3.100000000000000089, -3.749999999999999556 ) ) ;
#463 = DIRECTION ( 'NONE',  ( 1.000000000000000000, 0.000000000000000000, 0.000000000000000000 ) ) ;
#464 = CARTESIAN_POINT ( 'NONE',  ( -3.160000000000000586, 0.000000000000000000, 3.000000000000000444 ) ) ;
#465 = ORIENTED_EDGE ( 'NONE', *, *, #1024, .T. ) ;
#466 = ORIENTED_EDGE ( 'NONE', *, *, #249, .T. ) ;
#467 =( LENGTH_UNIT ( ) NAMED_UNIT ( * ) SI_UNIT ( .MILLI., .METRE. ) );
#468 = ORIENTED_EDGE ( 'NONE', *, *, #325, .T. ) ;
#469 = VECTOR ( 'NONE', #368, 1000.000000000000000 ) ;
#470 = VERTEX_POINT ( 'NONE', #750 ) ;
#471 = MECHANICAL_DESIGN_GEOMETRIC_PRESENTATION_REPRESENTATION (  '', ( #1133 ), #853 ) ;
#472 = CARTESIAN_POINT ( 'NONE',  ( 3.450000000000000622, 3.100000000000000089, 3.449999999999999734 ) ) ;
#473 = DIRECTION ( 'NONE',  ( 0.000000000000000000, -0.000000000000000000, 1.000000000000000000 ) ) ;
#474 =( NAMED_UNIT ( * ) PLANE_ANGLE_UNIT ( ) SI_UNIT ( $, .RADIAN. ) );
#475 = VERTEX_POINT ( 'NONE', #733 ) ;
#476 = AXIS2_PLACEMENT_3D ( 'NONE', #612, #1001, #1099 ) ;
#477 = VERTEX_POINT ( 'NONE', #1194 ) ;
#478 = CARTESIAN_POINT ( 'NONE',  ( -2.899999999999999911, 3.049999999999999822, -2.249999999999999556 ) ) ;
#479 = ADVANCED_FACE ( 'NONE', ( #929 ), #1035, .F. ) ;
#480 = ORIENTED_EDGE ( 'NONE', *, *, #291, .F. ) ;
#481 = VERTEX_POINT ( 'NONE', #462 ) ;
#482 = VECTOR ( 'NONE', #1084, 1000.000000000000000 ) ;
#483 = CARTESIAN_POINT ( 'NONE',  ( -2.899999999999999911, 3.049999999999999822, 2.250000000000000444 ) ) ;
#484 =( NAMED_UNIT ( * ) SI_UNIT ( $, .STERADIAN. ) SOLID_ANGLE_UNIT ( ) );
#485 = LINE ( 'NONE', #493, #529 ) ;
#486 = ORIENTED_EDGE ( 'NONE', *, *, #418, .T. ) ;
#487 = ADVANCED_FACE ( 'NONE', ( #923 ), #1025, .F. ) ;
#488 = CARTESIAN_POINT ( 'NONE',  ( -2.899999999999999911, 3.049999999999999822, 2.250000000000000444 ) ) ;
#489 = CARTESIAN_POINT ( 'NONE',  ( 3.450000000000000622, 3.100000000000000089, 3.749999999999999556 ) ) ;
#490 = COLOUR_RGB ( '',0.7921568627450980005, 0.8196078431372548767, 0.9333333333333333481 ) ;
#491 = MECHANICAL_DESIGN_GEOMETRIC_PRESENTATION_REPRESENTATION (  '', ( #335 ), #1082 ) ;
#492 = SURFACE_STYLE_USAGE ( .BOTH. , #288 ) ;
#493 = CARTESIAN_POINT ( 'NONE',  ( 3.160000000000002363, 0.000000000000000000, 2.999999999999999556 ) ) ;
#494 = VERTEX_POINT ( 'NONE', #70 ) ;
#495 = VERTEX_POINT ( 'NONE', #1199 ) ;
#496 = FILL_AREA_STYLE ('',( #156 ) ) ;
#497 = EDGE_CURVE ( 'NONE', #217, #112, #1131, .T. ) ;
#498 = MECHANICAL_DESIGN_GEOMETRIC_PRESENTATION_REPRESENTATION (  '', ( #781 ), #1067 ) ;
#499 = LINE ( 'NONE', #773, #186 ) ;
#500 = CARTESIAN_POINT ( 'NONE',  ( -1.560000000000000275, 0.000000000000000000, -2.999999999999999556 ) ) ;
#501 = SURFACE_SIDE_STYLE ('',( #410 ) ) ;
#502 = ADVANCED_FACE ( 'NONE', ( #1107 ), #636, .T. ) ;
#503 = LINE ( 'NONE', #1179, #1140 ) ;
#504 = PLANE ( 'NONE',  #207 ) ;
#505 = LINE ( 'NONE', #889, #631 ) ;
#506 = ORIENTED_EDGE ( 'NONE', *, *, #978, .F. ) ;
#507 = FACE_OUTER_BOUND ( 'NONE', #1117, .T. ) ;
#508 = AXIS2_PLACEMENT_3D ( 'NONE', #455, #836, #270 ) ;
#509 = CARTESIAN_POINT ( 'NONE',  ( 3.750000000000000444, -10.60660171779821326, 3.449999999999999734 ) ) ;
#510 = AXIS2_PLACEMENT_3D ( 'NONE', #1094, #426, #330 ) ;
#511 =( GEOMETRIC_REPRESENTATION_CONTEXT ( 3 ) GLOBAL_UNCERTAINTY_ASSIGNED_CONTEXT ( ( #191 ) ) GLOBAL_UNIT_ASSIGNED_CONTEXT ( ( #41, #474, #417 ) ) REPRESENTATION_CONTEXT ( 'NONE', 'WORKASPACE' ) );
#512 = AXIS2_PLACEMENT_3D ( 'NONE', #281, #179, #463 ) ;
#513 = CARTESIAN_POINT ( 'NONE',  ( -2.899999999999999911, 3.100000000000000089, 2.250000000000000444 ) ) ;
#514 = PRESENTATION_STYLE_ASSIGNMENT (( #693 ) ) ;
#515 = VECTOR ( 'NONE', #164, 1000.000000000000000 ) ;
#516 = FACE_OUTER_BOUND ( 'NONE', #1124, .T. ) ;
#517 = DIRECTION ( 'NONE',  ( 0.000000000000000000, 1.000000000000000000, -0.000000000000000000 ) ) ;
#518 = PRESENTATION_STYLE_ASSIGNMENT (( #155 ) ) ;
#519 = DIRECTION ( 'NONE',  ( 1.000000000000000000, 0.000000000000000000, -0.000000000000000000 ) ) ;
#520 = SURFACE_STYLE_USAGE ( .BOTH. , #1095 ) ;
#521 = COLOUR_RGB ( '',1.000000000000000000, 1.000000000000000000, 1.000000000000000000 ) ;
#522 = CARTESIAN_POINT ( 'NONE',  ( -3.160000000000000586, 0.3499999999999996447, 3.000000000000000444 ) ) ;
#523 =( NAMED_UNIT ( * ) SI_UNIT ( $, .STERADIAN. ) SOLID_ANGLE_UNIT ( ) );
#524 = CARTESIAN_POINT ( 'NONE',  ( -3.750000000000000000, -10.60660171779821326, -3.449999999999999734 ) ) ;
#525 = EDGE_LOOP ( 'NONE', ( #292, #757, #268, #704 ) ) ;
#526 = ORIENTED_EDGE ( 'NONE', *, *, #18, .T. ) ;
#527 = DIRECTION ( 'NONE',  ( -0.000000000000000000, -0.000000000000000000, 1.000000000000000000 ) ) ;
#528 = STYLED_ITEM ( 'NONE', ( #825 ), #936 ) ;
#529 = VECTOR ( 'NONE', #667, 1000.000000000000000 ) ;
#530 = LINE ( 'NONE', #948, #600 ) ;
#531 = ORIENTED_EDGE ( 'NONE', *, *, #1089, .F. ) ;
#532 = EDGE_CURVE ( 'NONE', #212, #863, #542, .T. ) ;
#533 = SURFACE_STYLE_USAGE ( .BOTH. , #76 ) ;
#534 = CLOSED_SHELL ( 'NONE', ( #930, #665, #487, #201, #598, #796 ) ) ;
#535 = SURFACE_STYLE_FILL_AREA ( #449 ) ;
#536 = UNCERTAINTY_MEASURE_WITH_UNIT (LENGTH_MEASURE( 1.000000000000000082E-05 ), #394, 'distance_accuracy_value', 'NONE');
#537 = MECHANICAL_DESIGN_GEOMETRIC_PRESENTATION_REPRESENTATION (  '', ( #1087 ), #922 ) ;
#538 = APPLICATION_CONTEXT ( 'automotive_design' ) ;
#539 = CARTESIAN_POINT ( 'NONE',  ( -2.600000000000000089, 3.100000000000000089, 2.250000000000000444 ) ) ;
#540 = ORIENTED_EDGE ( 'NONE', *, *, #60, .T. ) ;
#541 =( NAMED_UNIT ( * ) PLANE_ANGLE_UNIT ( ) SI_UNIT ( $, .RADIAN. ) );
#542 = LINE ( 'NONE', #178, #7 ) ;
#543 = EDGE_CURVE ( 'NONE', #1075, #816, #81, .T. ) ;
#544 = ORIENTED_EDGE ( 'NONE', *, *, #1157, .T. ) ;
#545 = CARTESIAN_POINT ( 'NONE',  ( -2.899999999999999911, 3.049999999999999822, -2.249999999999999556 ) ) ;
#546 = DIRECTION ( 'NONE',  ( 1.000000000000000000, -0.000000000000000000, -5.421010862427522170E-16 ) ) ;
#547 = PRODUCT_CONTEXT ( 'NONE', #169, 'mechanical' ) ;
#548 = PRESENTATION_STYLE_ASSIGNMENT (( #180 ) ) ;
#549 = EDGE_CURVE ( 'NONE', #556, #1111, #1126, .T. ) ;
#550 = ORIENTED_EDGE ( 'NONE', *, *, #1164, .T. ) ;
#551 = AXIS2_PLACEMENT_3D ( 'NONE', #226, #1005, #606 ) ;
#552 = ORIENTED_EDGE ( 'NONE', *, *, #571, .F. ) ;
#553 = LINE ( 'NONE', #939, #1184 ) ;
#554 = PLANE ( 'NONE',  #851 ) ;
#555 = SURFACE_SIDE_STYLE ('',( #66 ) ) ;
#556 = VERTEX_POINT ( 'NONE', #87 ) ;
#557 = ORIENTED_EDGE ( 'NONE', *, *, #77, .F. ) ;
#558 = DIRECTION ( 'NONE',  ( 0.000000000000000000, 0.000000000000000000, 1.000000000000000000 ) ) ;
#559 = LINE ( 'NONE', #892, #85 ) ;
#560 = LINE ( 'NONE', #524, #115 ) ;
#561 = LINE ( 'NONE', #160, #650 ) ;
#562 = ORIENTED_EDGE ( 'NONE', *, *, #532, .F. ) ;
#563 = ORIENTED_EDGE ( 'NONE', *, *, #1040, .F. ) ;
#564 = UNCERTAINTY_MEASURE_WITH_UNIT (LENGTH_MEASURE( 1.000000000000000082E-05 ), #40, 'distance_accuracy_value', 'NONE');
#565 = CARTESIAN_POINT ( 'NONE',  ( 3.160000000000002363, 0.000000000000000000, 2.999999999999999556 ) ) ;
#566 = LINE ( 'NONE', #858, #469 ) ;
#567 = FILL_AREA_STYLE_COLOUR ( '', #861 ) ;
#568 = DIRECTION ( 'NONE',  ( -1.000000000000000000, -0.000000000000000000, -0.000000000000000000 ) ) ;
#569 = ORIENTED_EDGE ( 'NONE', *, *, #626, .F. ) ;
#570 = VECTOR ( 'NONE', #354, 1000.000000000000000 ) ;
#571 = EDGE_CURVE ( 'NONE', #181, #475, #669, .T. ) ;
#572 = VERTEX_POINT ( 'NONE', #940 ) ;
#573 = MECHANICAL_DESIGN_GEOMETRIC_PRESENTATION_REPRESENTATION (  '', ( #1114 ), #278 ) ;
#574 = DIRECTION ( 'NONE',  ( 0.000000000000000000, 1.000000000000000000, 0.000000000000000000 ) ) ;
#575 = VECTOR ( 'NONE', #1108, 1000.000000000000000 ) ;
#576 = ADVANCED_FACE ( 'NONE', ( #646 ), #554, .F. ) ;
#577 = CARTESIAN_POINT ( 'NONE',  ( 3.750000000000000444, 3.100000000000000089, 3.449999999999999734 ) ) ;
#578 = FILL_AREA_STYLE_COLOUR ( '', #435 ) ;
#579 = EDGE_LOOP ( 'NONE', ( #43, #119, #621, #454 ) ) ;
#580 = VECTOR ( 'NONE', #753, 1000.000000000000000 ) ;
#581 = ORIENTED_EDGE ( 'NONE', *, *, #1195, .F. ) ;
#582 = SURFACE_SIDE_STYLE ('',( #954 ) ) ;
#583 = EDGE_CURVE ( 'NONE', #1042, #1137, #947, .T. ) ;
#584 = PRESENTATION_STYLE_ASSIGNMENT (( #216 ) ) ;
#585 = ORIENTED_EDGE ( 'NONE', *, *, #770, .F. ) ;
#586 = CARTESIAN_POINT ( 'NONE',  ( -2.899999999999999911, 3.049999999999999822, 2.250000000000000444 ) ) ;
#587 = CARTESIAN_POINT ( 'NONE',  ( -2.600000000000000089, 3.049999999999999822, 2.250000000000000444 ) ) ;
#588 =( NAMED_UNIT ( * ) PLANE_ANGLE_UNIT ( ) SI_UNIT ( $, .RADIAN. ) );
#589 = FACE_OUTER_BOUND ( 'NONE', #176, .T. ) ;
#590 = ORIENTED_EDGE ( 'NONE', *, *, #543, .T. ) ;
#591 = EDGE_CURVE ( 'NONE', #385, #371, #559, .T. ) ;
#592 = DIRECTION ( 'NONE',  ( 0.000000000000000000, 0.000000000000000000, -1.000000000000000000 ) ) ;
#593 =( NAMED_UNIT ( * ) SI_UNIT ( $, .STERADIAN. ) SOLID_ANGLE_UNIT ( ) );
#594 = MECHANICAL_DESIGN_GEOMETRIC_PRESENTATION_REPRESENTATION (  '', ( #1078 ), #871 ) ;
#595 = PRESENTATION_LAYER_ASSIGNMENT (  '', '', ( #1133 ) ) ;
#596 = COLOUR_RGB ( '',0.7921568627450980005, 0.8196078431372548767, 0.9333333333333333481 ) ;
#597 = ORIENTED_EDGE ( 'NONE', *, *, #58, .F. ) ;
#598 = ADVANCED_FACE ( 'NONE', ( #37 ), #866, .T. ) ;
#599 =( NAMED_UNIT ( * ) PLANE_ANGLE_UNIT ( ) SI_UNIT ( $, .RADIAN. ) );
#600 = VECTOR ( 'NONE', #101, 1000.000000000000000 ) ;
#601 = AXIS2_PLACEMENT_3D ( 'NONE', #707, #150, #248 ) ;
#602 = CARTESIAN_POINT ( 'NONE',  ( 3.450000000000000622, -10.60660171779821326, 3.749999999999999556 ) ) ;
#603 = CARTESIAN_POINT ( 'NONE',  ( 1.560000000000002052, 0.000000000000000000, 3.000000000000000444 ) ) ;
#604 = UNCERTAINTY_MEASURE_WITH_UNIT (LENGTH_MEASURE( 1.000000000000000082E-05 ), #44, 'distance_accuracy_value', 'NONE');
#605 = LINE ( 'NONE', #513, #1158 ) ;
#606 = DIRECTION ( 'NONE',  ( 0.000000000000000000, 0.000000000000000000, -1.000000000000000000 ) ) ;
#607 = AXIS2_PLACEMENT_3D ( 'NONE', #1029, #1214, #1121 ) ;
#608 = SURFACE_STYLE_FILL_AREA ( #893 ) ;
#609 = CARTESIAN_POINT ( 'NONE',  ( -2.899999999999999911, 3.049999999999999822, 2.250000000000000444 ) ) ;
#610 = DIRECTION ( 'NONE',  ( -0.000000000000000000, -1.000000000000000000, -0.000000000000000000 ) ) ;
#611 = PRESENTATION_LAYER_ASSIGNMENT (  '', '', ( #1078 ) ) ;
#612 = CARTESIAN_POINT ( 'NONE',  ( -3.449999999999999289, 3.100000000000000089, -3.449999999999999734 ) ) ;
#613 = CARTESIAN_POINT ( 'NONE',  ( -3.750000000000000000, 3.100000000000000089, 3.449999999999999734 ) ) ;
#614 = FACE_OUTER_BOUND ( 'NONE', #664, .T. ) ;
#615 = CARTESIAN_POINT ( 'NONE',  ( -3.160000000000000586, 0.3499999999999996447, -2.999999999999999556 ) ) ;
#616 = STYLED_ITEM ( 'NONE', ( #518 ), #284 ) ;
#617 = EDGE_CURVE ( 'NONE', #765, #212, #1037, .T. ) ;
#618 = EDGE_CURVE ( 'NONE', #917, #817, #566, .T. ) ;
#619 = FILL_AREA_STYLE_COLOUR ( '', #637 ) ;
#620 = DIRECTION ( 'NONE',  ( 0.000000000000000000, 0.000000000000000000, 1.000000000000000000 ) ) ;
#621 = ORIENTED_EDGE ( 'NONE', *, *, #18, .F. ) ;
#622 = LINE ( 'NONE', #1193, #832 ) ;
#623 =( LENGTH_UNIT ( ) NAMED_UNIT ( * ) SI_UNIT ( .MILLI., .METRE. ) );
#624 = PLANE ( 'NONE',  #193 ) ;
#625 = CARTESIAN_POINT ( 'NONE',  ( 0.000000000000000000, 3.049999999999999822, 0.000000000000000000 ) ) ;
#626 = EDGE_CURVE ( 'NONE', #1154, #371, #1027, .T. ) ;
#627 = SURFACE_STYLE_USAGE ( .BOTH. , #724 ) ;
#628 = AXIS2_PLACEMENT_3D ( 'NONE', #185, #640, #367 ) ;
#629 = VECTOR ( 'NONE', #972, 1000.000000000000000 ) ;
#630 = PRESENTATION_STYLE_ASSIGNMENT (( #252 ) ) ;
#631 = VECTOR ( 'NONE', #1091, 1000.000000000000000 ) ;
#632 = CARTESIAN_POINT ( 'NONE',  ( 3.160000000000002363, 0.3499999999999996447, 2.999999999999999556 ) ) ;
#633 = ORIENTED_EDGE ( 'NONE', *, *, #990, .F. ) ;
#634 = COLOUR_RGB ( '',0.7921568627450980005, 0.8196078431372548767, 0.9333333333333333481 ) ;
#635 = EDGE_CURVE ( 'NONE', #958, #1143, #456, .T. ) ;
#636 = PLANE ( 'NONE',  #628 ) ;
#637 = COLOUR_RGB ( '',0.2509803921568627416, 0.2509803921568627416, 0.2509803921568627416 ) ;
#638 = DIRECTION ( 'NONE',  ( -1.000000000000000000, -0.000000000000000000, -0.000000000000000000 ) ) ;
#639 = ORIENTED_EDGE ( 'NONE', *, *, #1118, .F. ) ;
#640 = DIRECTION ( 'NONE',  ( 0.000000000000000000, -1.000000000000000000, 0.000000000000000000 ) ) ;
#641 = CARTESIAN_POINT ( 'NONE',  ( 3.160000000000000586, 0.3499999999999996447, -3.000000000000000444 ) ) ;
#642 = ORIENTED_EDGE ( 'NONE', *, *, #635, .F. ) ;
#643 = ORIENTED_EDGE ( 'NONE', *, *, #1164, .F. ) ;
#644 =( NAMED_UNIT ( * ) SI_UNIT ( $, .STERADIAN. ) SOLID_ANGLE_UNIT ( ) );
#645 =( NAMED_UNIT ( * ) PLANE_ANGLE_UNIT ( ) SI_UNIT ( $, .RADIAN. ) );
#646 = FACE_OUTER_BOUND ( 'NONE', #91, .T. ) ;
#647 = VECTOR ( 'NONE', #638, 1000.000000000000000 ) ;
#648 = AXIS2_PLACEMENT_3D ( 'NONE', #80, #263, #366 ) ;
#649 = ORIENTED_EDGE ( 'NONE', *, *, #792, .T. ) ;
#650 = VECTOR ( 'NONE', #343, 1000.000000000000000 ) ;
#651 = ORIENTED_EDGE ( 'NONE', *, *, #953, .F. ) ;
#652 = DIRECTION ( 'NONE',  ( 1.000000000000000000, -0.000000000000000000, 0.000000000000000000 ) ) ;
#653 = APPLICATION_PROTOCOL_DEFINITION ( 'draft international standard', 'automotive_design', 1998, #169 ) ;
#654 =( NAMED_UNIT ( * ) PLANE_ANGLE_UNIT ( ) SI_UNIT ( $, .RADIAN. ) );
#655 = CARTESIAN_POINT ( 'NONE',  ( -2.899999999999999911, 3.049999999999999822, 2.250000000000000444 ) ) ;
#656 = FILL_AREA_STYLE ('',( #384 ) ) ;
#657 = VECTOR ( 'NONE', #32, 1000.000000000000000 ) ;
#658 = ORIENTED_EDGE ( 'NONE', *, *, #242, .T. ) ;
#659 = SURFACE_STYLE_FILL_AREA ( #3 ) ;
#660 = ORIENTED_EDGE ( 'NONE', *, *, #583, .F. ) ;
#661 = LINE ( 'NONE', #864, #130 ) ;
#662 = SURFACE_STYLE_FILL_AREA ( #656 ) ;
#663 = ORIENTED_EDGE ( 'NONE', *, *, #618, .T. ) ;
#664 = EDGE_LOOP ( 'NONE', ( #590, #172, #1136, #680 ) ) ;
#665 = ADVANCED_FACE ( 'NONE', ( #363 ), #1122, .F. ) ;
#666 = CARTESIAN_POINT ( 'NONE',  ( 3.750000000000000444, 0.3499999999999996447, -3.449999999999999734 ) ) ;
#667 = DIRECTION ( 'NONE',  ( -2.891205793294678326E-16, 0.000000000000000000, -1.000000000000000000 ) ) ;
#668 = EDGE_LOOP ( 'NONE', ( #1068, #1013, #1202, #540 ) ) ;
#669 = CIRCLE ( 'NONE', #508, 0.2999999999999999334 ) ;
#670 = ORIENTED_EDGE ( 'NONE', *, *, #291, .T. ) ;
#671 = PRESENTATION_LAYER_ASSIGNMENT (  '', '', ( #528 ) ) ;
#672 = DIRECTION ( 'NONE',  ( -0.000000000000000000, 1.000000000000000000, -0.000000000000000000 ) ) ;
#673 = ADVANCED_FACE ( 'NONE', ( #741 ), #100, .F. ) ;
#674 = AXIS2_PLACEMENT_3D ( 'NONE', #122, #315, #879 ) ;
#675 = CARTESIAN_POINT ( 'NONE',  ( -3.750000000000000000, -10.60660171779821326, 3.449999999999999734 ) ) ;
#676 =( NAMED_UNIT ( * ) PLANE_ANGLE_UNIT ( ) SI_UNIT ( $, .RADIAN. ) );
#677 = CIRCLE ( 'NONE', #152, 0.2999999999999994893 ) ;
#678 = ORIENTED_EDGE ( 'NONE', *, *, #360, .F. ) ;
#679 = MECHANICAL_DESIGN_GEOMETRIC_PRESENTATION_REPRESENTATION (  '', ( #303 ), #341 ) ;
#680 = ORIENTED_EDGE ( 'NONE', *, *, #106, .T. ) ;
#681 = MANIFOLD_SOLID_BREP ( 'Boss-Extrude3[1]', #170 ) ;
#682 = UNCERTAINTY_MEASURE_WITH_UNIT (LENGTH_MEASURE( 1.000000000000000082E-05 ), #273, 'distance_accuracy_value', 'NONE');
#683 = CARTESIAN_POINT ( 'NONE',  ( 3.450000000000000622, 0.3499999999999996447, -3.749999999999999556 ) ) ;
#684 = FACE_OUTER_BOUND ( 'NONE', #688, .T. ) ;
#685 = ADVANCED_FACE ( 'NONE', ( #915 ), #504, .T. ) ;
#686 = FACE_OUTER_BOUND ( 'NONE', #872, .T. ) ;
#687 = DIRECTION ( 'NONE',  ( -0.000000000000000000, -1.000000000000000000, -0.000000000000000000 ) ) ;
#688 = EDGE_LOOP ( 'NONE', ( #834, #205, #324, #839, #960, #468, #526, #13 ) ) ;
#689 = CARTESIAN_POINT ( 'NONE',  ( -2.600000000000000089, 3.049999999999999822, 2.250000000000000444 ) ) ;
#690 = MANIFOLD_SOLID_BREP ( 'Boss-Extrude2', #919 ) ;
#691 = FACE_OUTER_BOUND ( 'NONE', #1216, .T. ) ;
#692 = VERTEX_POINT ( 'NONE', #86 ) ;
#693 = SURFACE_STYLE_USAGE ( .BOTH. , #710 ) ;
#694 =( GEOMETRIC_REPRESENTATION_CONTEXT ( 3 ) GLOBAL_UNCERTAINTY_ASSIGNED_CONTEXT ( ( #1144 ) ) GLOBAL_UNIT_ASSIGNED_CONTEXT ( ( #1012, #822, #728 ) ) REPRESENTATION_CONTEXT ( 'NONE', 'WORKASPACE' ) );
#695 = MECHANICAL_DESIGN_GEOMETRIC_PRESENTATION_REPRESENTATION (  '', ( #208 ), #979 ) ;
#696 = MANIFOLD_SOLID_BREP ( 'Boss-Extrude3[2]', #534 ) ;
#697 = MECHANICAL_DESIGN_GEOMETRIC_PRESENTATION_REPRESENTATION (  '', ( #10 ), #110 ) ;
#698 = DIRECTION ( 'NONE',  ( 0.000000000000000000, 1.000000000000000000, 0.000000000000000000 ) ) ;
#699 = ORIENTED_EDGE ( 'NONE', *, *, #25, .T. ) ;
#700 = ORIENTED_EDGE ( 'NONE', *, *, #1030, .T. ) ;
#701 = FACE_OUTER_BOUND ( 'NONE', #668, .T. ) ;
#702 = CARTESIAN_POINT ( 'NONE',  ( -2.600000000000000089, 3.100000000000000089, 2.250000000000000444 ) ) ;
#703 = CARTESIAN_POINT ( 'NONE',  ( -2.600000000000000089, 3.049999999999999822, -2.249999999999999556 ) ) ;
#704 = ORIENTED_EDGE ( 'NONE', *, *, #418, .F. ) ;
#705 = PLANE ( 'NONE',  #510 ) ;
#706 = EDGE_CURVE ( 'NONE', #494, #1154, #461, .T. ) ;
#707 = CARTESIAN_POINT ( 'NONE',  ( -2.899999999999999911, 3.049999999999999822, 2.250000000000000444 ) ) ;
#708 = CARTESIAN_POINT ( 'NONE',  ( -2.600000000000000089, 3.100000000000000089, 2.250000000000000444 ) ) ;
#709 = PRESENTATION_STYLE_ASSIGNMENT (( #1197 ) ) ;
#710 = SURFACE_SIDE_STYLE ('',( #319 ) ) ;
#711 = EDGE_CURVE ( 'NONE', #1129, #378, #64, .T. ) ;
#712 = COLOUR_RGB ( '',1.000000000000000000, 1.000000000000000000, 1.000000000000000000 ) ;
#713 = LINE ( 'NONE', #509, #214 ) ;
#714 = DIRECTION ( 'NONE',  ( -0.000000000000000000, -0.000000000000000000, 1.000000000000000000 ) ) ;
#715 =( GEOMETRIC_REPRESENTATION_CONTEXT ( 3 ) GLOBAL_UNCERTAINTY_ASSIGNED_CONTEXT ( ( #727 ) ) GLOBAL_UNIT_ASSIGNED_CONTEXT ( ( #437, #918, #1014 ) ) REPRESENTATION_CONTEXT ( 'NONE', 'WORKASPACE' ) );
#716 = FACE_OUTER_BOUND ( 'NONE', #396, .T. ) ;
#717 = FACE_OUTER_BOUND ( 'NONE', #1215, .T. ) ;
#718 = UNCERTAINTY_MEASURE_WITH_UNIT (LENGTH_MEASURE( 1.000000000000000082E-05 ), #65, 'distance_accuracy_value', 'NONE');
#719 = DIRECTION ( 'NONE',  ( 0.000000000000000000, 1.000000000000000000, 0.000000000000000000 ) ) ;
#720 = ADVANCED_FACE ( 'NONE', ( #1011 ), #928, .T. ) ;
#721 = PLANE ( 'NONE',  #987 ) ;
#722 = CARTESIAN_POINT ( 'NONE',  ( -2.600000000000000089, 3.049999999999999822, -2.249999999999999556 ) ) ;
#723 = ORIENTED_EDGE ( 'NONE', *, *, #549, .T. ) ;
#724 = SURFACE_SIDE_STYLE ('',( #1213 ) ) ;
#725 = CARTESIAN_POINT ( 'NONE',  ( 3.450000000000001066, 0.3499999999999996447, 3.749999999999999556 ) ) ;
#726 = CARTESIAN_POINT ( 'NONE',  ( -2.600000000000000089, 3.049999999999999822, -2.249999999999999556 ) ) ;
#727 = UNCERTAINTY_MEASURE_WITH_UNIT (LENGTH_MEASURE( 1.000000000000000082E-05 ), #437, 'distance_accuracy_value', 'NONE');
#728 =( NAMED_UNIT ( * ) SI_UNIT ( $, .STERADIAN. ) SOLID_ANGLE_UNIT ( ) );
#729 = EDGE_CURVE ( 'NONE', #475, #780, #553, .T. ) ;
#730 = DIRECTION ( 'NONE',  ( -1.000000000000000000, 0.000000000000000000, -0.000000000000000000 ) ) ;
#731 = ORIENTED_EDGE ( 'NONE', *, *, #770, .T. ) ;
#732 = FILL_AREA_STYLE ('',( #743 ) ) ;
#733 = CARTESIAN_POINT ( 'NONE',  ( -3.449999999999999289, 3.100000000000000089, 3.750000000000000000 ) ) ;
#734 =( NAMED_UNIT ( * ) PLANE_ANGLE_UNIT ( ) SI_UNIT ( $, .RADIAN. ) );
#735 = DIRECTION ( 'NONE',  ( 0.000000000000000000, -0.000000000000000000, -1.000000000000000000 ) ) ;
#736 = VECTOR ( 'NONE', #14, 1000.000000000000000 ) ;
#737 = AXIS2_PLACEMENT_3D ( 'NONE', #1191, #283, #620 ) ;
#738 = ORIENTED_EDGE ( 'NONE', *, *, #460, .T. ) ;
#739 = DIRECTION ( 'NONE',  ( -1.000000000000000000, -0.000000000000000000, -0.000000000000000000 ) ) ;
#740 = AXIS2_PLACEMENT_3D ( 'NONE', #787, #339, #1177 ) ;
#741 = FACE_OUTER_BOUND ( 'NONE', #200, .T. ) ;
#742 = VERTEX_POINT ( 'NONE', #748 ) ;
#743 = FILL_AREA_STYLE_COLOUR ( '', #184 ) ;
#744 = CARTESIAN_POINT ( 'NONE',  ( 3.750000000000000444, -10.60660171779821326, -3.449999999999999734 ) ) ;
#745 = SURFACE_STYLE_FILL_AREA ( #266 ) ;
#746 = ORIENTED_EDGE ( 'NONE', *, *, #451, .F. ) ;
#747 = ORIENTED_EDGE ( 'NONE', *, *, #445, .T. ) ;
#748 = CARTESIAN_POINT ( 'NONE',  ( -2.899999999999999911, 3.100000000000000089, 2.250000000000000444 ) ) ;
#749 = EDGE_CURVE ( 'NONE', #459, #103, #622, .T. ) ;
#750 = CARTESIAN_POINT ( 'NONE',  ( 3.750000000000000444, 0.3499999999999996447, 3.449999999999999734 ) ) ;
#751 = EDGE_CURVE ( 'NONE', #1042, #132, #392, .T. ) ;
#752 = PRESENTATION_STYLE_ASSIGNMENT (( #1031 ) ) ;
#753 = DIRECTION ( 'NONE',  ( 0.000000000000000000, 0.000000000000000000, -1.000000000000000000 ) ) ;
#754 =( GEOMETRIC_REPRESENTATION_CONTEXT ( 3 ) GLOBAL_UNCERTAINTY_ASSIGNED_CONTEXT ( ( #961 ) ) GLOBAL_UNIT_ASSIGNED_CONTEXT ( ( #912, #826, #819 ) ) REPRESENTATION_CONTEXT ( 'NONE', 'WORKASPACE' ) );
#755 = CARTESIAN_POINT ( 'NONE',  ( -3.750000000000000000, 0.3499999999999996447, 3.449999999999999734 ) ) ;
#756 = AXIS2_PLACEMENT_3D ( 'NONE', #472, #574, #558 ) ;
#757 = ORIENTED_EDGE ( 'NONE', *, *, #360, .T. ) ;
#758 = VECTOR ( 'NONE', #1180, 1000.000000000000000 ) ;
#759 = ORIENTED_EDGE ( 'NONE', *, *, #953, .T. ) ;
#760 = DIRECTION ( 'NONE',  ( 0.000000000000000000, 0.000000000000000000, -1.000000000000000000 ) ) ;
#761 = LINE ( 'NONE', #254, #1155 ) ;
#762 =( GEOMETRIC_REPRESENTATION_CONTEXT ( 3 ) GLOBAL_UNCERTAINTY_ASSIGNED_CONTEXT ( ( #933 ) ) GLOBAL_UNIT_ASSIGNED_CONTEXT ( ( #222, #588, #850 ) ) REPRESENTATION_CONTEXT ( 'NONE', 'WORKASPACE' ) );
#763 = EDGE_CURVE ( 'NONE', #2, #958, #21, .T. ) ;
#764 = ORIENTED_EDGE ( 'NONE', *, *, #497, .F. ) ;
#765 = VERTEX_POINT ( 'NONE', #194 ) ;
#766 = CARTESIAN_POINT ( 'NONE',  ( 0.000000000000000000, 0.000000000000000000, 0.000000000000000000 ) ) ;
#767 = DIRECTION ( 'NONE',  ( -0.000000000000000000, -1.000000000000000000, -0.000000000000000000 ) ) ;
#768 = AXIS2_PLACEMENT_3D ( 'NONE', #162, #346, #374 ) ;
#769 = EDGE_LOOP ( 'NONE', ( #965, #557, #642, #276 ) ) ;
#770 = EDGE_CURVE ( 'NONE', #112, #1041, #661, .T. ) ;
#771 = ORIENTED_EDGE ( 'NONE', *, *, #25, .F. ) ;
#772 = FILL_AREA_STYLE ('',( #397 ) ) ;
#773 = CARTESIAN_POINT ( 'NONE',  ( 1.560000000000002052, 0.000000000000000000, 3.000000000000000444 ) ) ;
#774 = VERTEX_POINT ( 'NONE', #666 ) ;
#775 = ORIENTED_EDGE ( 'NONE', *, *, #1196, .F. ) ;
#776 =( NAMED_UNIT ( * ) SI_UNIT ( $, .STERADIAN. ) SOLID_ANGLE_UNIT ( ) );
#777 = COLOUR_RGB ( '',1.000000000000000000, 1.000000000000000000, 1.000000000000000000 ) ;
#778 = DIRECTION ( 'NONE',  ( 0.000000000000000000, -1.000000000000000000, 0.000000000000000000 ) ) ;
#779 = UNCERTAINTY_MEASURE_WITH_UNIT (LENGTH_MEASURE( 1.000000000000000082E-05 ), #168, 'distance_accuracy_value', 'NONE');
#780 = VERTEX_POINT ( 'NONE', #489 ) ;
#781 = STYLED_ITEM ( 'NONE', ( #28 ), #355 ) ;
#782 = DIRECTION ( 'NONE',  ( -0.000000000000000000, -1.000000000000000000, -0.000000000000000000 ) ) ;
#783 = PLANE ( 'NONE',  #1017 ) ;
#784 = ORIENTED_EDGE ( 'NONE', *, *, #271, .T. ) ;
#785 = CARTESIAN_POINT ( 'NONE',  ( 3.750000000000000444, 3.100000000000000089, -3.449999999999999734 ) ) ;
#786 = PLANE ( 'NONE',  #999 ) ;
#787 = CARTESIAN_POINT ( 'NONE',  ( -2.899999999999999911, 3.049999999999999822, -2.249999999999999556 ) ) ;
#788 = LINE ( 'NONE', #225, #859 ) ;
#789 = DIRECTION ( 'NONE',  ( 0.000000000000000000, 0.000000000000000000, 1.000000000000000000 ) ) ;
#790 = VECTOR ( 'NONE', #1168, 1000.000000000000000 ) ;
#791 = STYLED_ITEM ( 'NONE', ( #942 ), #945 ) ;
#792 = EDGE_CURVE ( 'NONE', #385, #217, #98, .T. ) ;
#793 = DIRECTION ( 'NONE',  ( 1.000000000000000000, 0.000000000000000000, 0.000000000000000000 ) ) ;
#794 = CARTESIAN_POINT ( 'NONE',  ( -2.899999999999999911, 3.049999999999999822, 2.250000000000000444 ) ) ;
#795 = DIRECTION ( 'NONE',  ( 0.000000000000000000, 1.000000000000000000, 0.000000000000000000 ) ) ;
#796 = ADVANCED_FACE ( 'NONE', ( #869 ), #876, .F. ) ;
#797 = LINE ( 'NONE', #54, #1006 ) ;
#798 =( NAMED_UNIT ( * ) PLANE_ANGLE_UNIT ( ) SI_UNIT ( $, .RADIAN. ) );
#799 = VECTOR ( 'NONE', #228, 1000.000000000000000 ) ;
#800 = ADVANCED_BREP_SHAPE_REPRESENTATION ( 'XAL7030-161MEC', ( #1109, #690, #681, #696, #512 ), #400 ) ;
#801 = PLANE ( 'NONE',  #740 ) ;
#802 = LINE ( 'NONE', #613, #1135 ) ;
#803 = LINE ( 'NONE', #1178, #515 ) ;
#804 = ADVANCED_FACE ( 'NONE', ( #34 ), #1064, .T. ) ;
#805 =( LENGTH_UNIT ( ) NAMED_UNIT ( * ) SI_UNIT ( .MILLI., .METRE. ) );
#806 = CARTESIAN_POINT ( 'NONE',  ( -1.560000000000000497, 0.3499999999999996447, 3.000000000000000888 ) ) ;
#807 = LINE ( 'NONE', #522, #67 ) ;
#808 = DIRECTION ( 'NONE',  ( -1.000000000000000000, 0.000000000000000000, 5.421010862427522170E-16 ) ) ;
#809 = CARTESIAN_POINT ( 'NONE',  ( 3.160000000000000586, 0.000000000000000000, -3.000000000000000444 ) ) ;
#810 = STYLED_ITEM ( 'NONE', ( #752 ), #673 ) ;
#811 = EDGE_CURVE ( 'NONE', #780, #846, #453, .T. ) ;
#812 = CARTESIAN_POINT ( 'NONE',  ( 3.450000000000000622, -10.60660171779821326, -3.749999999999999556 ) ) ;
#813 = AXIS2_PLACEMENT_3D ( 'NONE', #899, #517, #57 ) ;
#814 = CARTESIAN_POINT ( 'NONE',  ( -3.750000000000000000, 0.3499999999999996447, -3.449999999999999734 ) ) ;
#815 = PLANE ( 'NONE',  #1086 ) ;
#816 = VERTEX_POINT ( 'NONE', #565 ) ;
#817 = VERTEX_POINT ( 'NONE', #483 ) ;
#818 = PRESENTATION_LAYER_ASSIGNMENT (  '', '', ( #616 ) ) ;
#819 =( NAMED_UNIT ( * ) SI_UNIT ( $, .STERADIAN. ) SOLID_ANGLE_UNIT ( ) );
#820 = EDGE_CURVE ( 'NONE', #1111, #212, #301, .T. ) ;
#821 = CARTESIAN_POINT ( 'NONE',  ( 0.000000000000000000, 0.3499999999999999778, 0.000000000000000000 ) ) ;
#822 =( NAMED_UNIT ( * ) PLANE_ANGLE_UNIT ( ) SI_UNIT ( $, .RADIAN. ) );
#823 = FACE_OUTER_BOUND ( 'NONE', #72, .T. ) ;
#824 = ORIENTED_EDGE ( 'NONE', *, *, #125, .F. ) ;
#825 = PRESENTATION_STYLE_ASSIGNMENT (( #431 ) ) ;
#826 =( NAMED_UNIT ( * ) PLANE_ANGLE_UNIT ( ) SI_UNIT ( $, .RADIAN. ) );
#827 = LINE ( 'NONE', #446, #580 ) ;
#828 = ORIENTED_EDGE ( 'NONE', *, *, #711, .T. ) ;
#829 = CARTESIAN_POINT ( 'NONE',  ( -2.899999999999999911, 3.049999999999999822, -2.249999999999999556 ) ) ;
#830 = PRESENTATION_LAYER_ASSIGNMENT (  '', '', ( #1203 ) ) ;
#831 = DIRECTION ( 'NONE',  ( 2.710505431213761085E-16, -0.000000000000000000, 1.000000000000000000 ) ) ;
#832 = VECTOR ( 'NONE', #967, 1000.000000000000000 ) ;
#833 = ORIENTED_EDGE ( 'NONE', *, *, #990, .T. ) ;
#834 = ORIENTED_EDGE ( 'NONE', *, *, #1127, .T. ) ;
#835 = PRESENTATION_STYLE_ASSIGNMENT (( #269 ) ) ;
#836 = DIRECTION ( 'NONE',  ( 0.000000000000000000, 1.000000000000000000, -0.000000000000000000 ) ) ;
#837 = AXIS2_PLACEMENT_3D ( 'NONE', #312, #782, #1081 ) ;
#838 = VERTEX_POINT ( 'NONE', #683 ) ;
#839 = ORIENTED_EDGE ( 'NONE', *, *, #729, .T. ) ;
#840 = EDGE_CURVE ( 'NONE', #1143, #372, #1138, .T. ) ;
#841 = DIRECTION ( 'NONE',  ( 1.000000000000000000, 0.000000000000000000, 0.000000000000000000 ) ) ;
#842 = CARTESIAN_POINT ( 'NONE',  ( -1.560000000000000275, 0.3499999999999996447, -2.999999999999999556 ) ) ;
#843 = DIRECTION ( 'NONE',  ( 1.000000000000000000, 0.000000000000000000, -2.710505431213761085E-16 ) ) ;
#844 = ORIENTED_EDGE ( 'NONE', *, *, #729, .F. ) ;
#845 = EDGE_CURVE ( 'NONE', #958, #816, #104, .T. ) ;
#846 = VERTEX_POINT ( 'NONE', #296 ) ;
#847 = CARTESIAN_POINT ( 'NONE',  ( -3.449999999999999289, -10.60660171779821326, -3.449999999999999734 ) ) ;
#848 = EDGE_CURVE ( 'NONE', #917, #572, #1070, .T. ) ;
#849 = CARTESIAN_POINT ( 'NONE',  ( 0.000000000000000000, 3.100000000000000089, 0.000000000000000000 ) ) ;
#850 =( NAMED_UNIT ( * ) SI_UNIT ( $, .STERADIAN. ) SOLID_ANGLE_UNIT ( ) );
#851 = AXIS2_PLACEMENT_3D ( 'NONE', #93, #652, #99 ) ;
#852 = LINE ( 'NONE', #722, #246 ) ;
#853 =( GEOMETRIC_REPRESENTATION_CONTEXT ( 3 ) GLOBAL_UNCERTAINTY_ASSIGNED_CONTEXT ( ( #985 ) ) GLOBAL_UNIT_ASSIGNED_CONTEXT ( ( #213, #404, #776 ) ) REPRESENTATION_CONTEXT ( 'NONE', 'WORKASPACE' ) );
#854 = ORIENTED_EDGE ( 'NONE', *, *, #840, .F. ) ;
#855 = PRESENTATION_LAYER_ASSIGNMENT (  '', '', ( #791 ) ) ;
#856 = ORIENTED_EDGE ( 'NONE', *, *, #706, .T. ) ;
#857 = DIRECTION ( 'NONE',  ( 0.000000000000000000, 1.000000000000000000, 0.000000000000000000 ) ) ;
#858 = CARTESIAN_POINT ( 'NONE',  ( -2.899999999999999911, 3.049999999999999822, 2.250000000000000444 ) ) ;
#859 = VECTOR ( 'NONE', #890, 1000.000000000000000 ) ;
#860 = EDGE_CURVE ( 'NONE', #572, #742, #220, .T. ) ;
#861 = COLOUR_RGB ( '',0.2509803921568627416, 0.2509803921568627416, 0.2509803921568627416 ) ;
#862 = ORIENTED_EDGE ( 'NONE', *, *, #1196, .T. ) ;
#863 = VERTEX_POINT ( 'NONE', #414 ) ;
#864 = CARTESIAN_POINT ( 'NONE',  ( -3.160000000000000586, 0.000000000000000000, -2.999999999999999556 ) ) ;
#865 = CYLINDRICAL_SURFACE ( 'NONE', #1160, 0.2999999999999994893 ) ;
#866 = PLANE ( 'NONE',  #1097 ) ;
#867 = ORIENTED_EDGE ( 'NONE', *, *, #274, .F. ) ;
#868 = EDGE_LOOP ( 'NONE', ( #118, #581, #723, #971 ) ) ;
#869 = FACE_OUTER_BOUND ( 'NONE', #126, .T. ) ;
#870 = SURFACE_STYLE_USAGE ( .BOTH. , #1066 ) ;
#871 =( GEOMETRIC_REPRESENTATION_CONTEXT ( 3 ) GLOBAL_UNCERTAINTY_ASSIGNED_CONTEXT ( ( #779 ) ) GLOBAL_UNIT_ASSIGNED_CONTEXT ( ( #168, #541, #68 ) ) REPRESENTATION_CONTEXT ( 'NONE', 'WORKASPACE' ) );
#872 = EDGE_LOOP ( 'NONE', ( #828, #784, #970, #544, #1211, #1092, #1093, #466 ) ) ;
#873 = AXIS2_PLACEMENT_3D ( 'NONE', #766, #1050, #114 ) ;
#874 = LINE ( 'NONE', #988, #1139 ) ;
#875 = PRESENTATION_LAYER_ASSIGNMENT (  '', '', ( #911 ) ) ;
#876 = PLANE ( 'NONE',  #873 ) ;
#877 = MECHANICAL_DESIGN_GEOMETRIC_PRESENTATION_REPRESENTATION (  '', ( #791 ), #715 ) ;
#878 = PRODUCT_DEFINITION_FORMATION_WITH_SPECIFIED_SOURCE ( 'ANY', '', #94, .NOT_KNOWN. ) ;
#879 = DIRECTION ( 'NONE',  ( 0.000000000000000000, -0.000000000000000000, -1.000000000000000000 ) ) ;
#880 = ORIENTED_EDGE ( 'NONE', *, *, #902, .F. ) ;
#881 = VECTOR ( 'NONE', #610, 1000.000000000000000 ) ;
#882 = DIRECTION ( 'NONE',  ( 0.000000000000000000, 1.000000000000000000, -0.000000000000000000 ) ) ;
#883 = FACE_OUTER_BOUND ( 'NONE', #349, .T. ) ;
#884 = CARTESIAN_POINT ( 'NONE',  ( 3.450000000000000622, 3.100000000000000089, -3.449999999999999734 ) ) ;
#885 = ORIENTED_EDGE ( 'NONE', *, *, #1148, .F. ) ;
#886 = CARTESIAN_POINT ( 'NONE',  ( -2.899999999999999911, 3.049999999999999822, -2.249999999999999556 ) ) ;
#887 = DIRECTION ( 'NONE',  ( 0.000000000000000000, 1.000000000000000000, 0.000000000000000000 ) ) ;
#888 = ADVANCED_FACE ( 'NONE', ( #993 ), #237, .F. ) ;
#889 = CARTESIAN_POINT ( 'NONE',  ( -3.449999999999999289, -10.60660171779821326, 3.750000000000000000 ) ) ;
#890 = DIRECTION ( 'NONE',  ( -0.000000000000000000, -1.000000000000000000, -0.000000000000000000 ) ) ;
#891 = VECTOR ( 'NONE', #1209, 1000.000000000000000 ) ;
#892 = CARTESIAN_POINT ( 'NONE',  ( -1.560000000000000497, 0.3499999999999996447, 3.000000000000000888 ) ) ;
#893 = FILL_AREA_STYLE ('',( #1007 ) ) ;
#894 = DIRECTION ( 'NONE',  ( -0.000000000000000000, 0.000000000000000000, 1.000000000000000000 ) ) ;
#895 = ADVANCED_FACE ( 'NONE', ( #507 ), #989, .T. ) ;
#896 = CARTESIAN_POINT ( 'NONE',  ( -1.560000000000000497, 0.000000000000000000, 3.000000000000000888 ) ) ;
#897 = DIRECTION ( 'NONE',  ( 1.000000000000000000, 0.000000000000000000, -0.000000000000000000 ) ) ;
#898 = CARTESIAN_POINT ( 'NONE',  ( -1.560000000000000497, 0.000000000000000000, 3.000000000000000888 ) ) ;
#899 = CARTESIAN_POINT ( 'NONE',  ( -3.449999999999999289, 3.100000000000000089, -3.449999999999999734 ) ) ;
#900 = UNCERTAINTY_MEASURE_WITH_UNIT (LENGTH_MEASURE( 1.000000000000000082E-05 ), #623, 'distance_accuracy_value', 'NONE');
#901 = SURFACE_STYLE_USAGE ( .BOTH. , #501 ) ;
#902 = EDGE_CURVE ( 'NONE', #240, #765, #421, .T. ) ;
#903 = VECTOR ( 'NONE', #1218, 1000.000000000000000 ) ;
#904 = DIRECTION ( 'NONE',  ( 1.000000000000000000, 0.000000000000000000, 2.710505431213761085E-16 ) ) ;
#905 = PRESENTATION_STYLE_ASSIGNMENT (( #323 ) ) ;
#906 = FILL_AREA_STYLE ('',( #257 ) ) ;
#907 = FILL_AREA_STYLE ('',( #619 ) ) ;
#908 = EDGE_LOOP ( 'NONE', ( #731, #563, #192, #1142 ) ) ;
#909 = COLOUR_RGB ( '',0.7921568627450980005, 0.8196078431372548767, 0.9333333333333333481 ) ;
#910 = PRESENTATION_STYLE_ASSIGNMENT (( #627 ) ) ;
#911 = STYLED_ITEM ( 'NONE', ( #61 ), #895 ) ;
#912 =( LENGTH_UNIT ( ) NAMED_UNIT ( * ) SI_UNIT ( .MILLI., .METRE. ) );
#913 = AXIS2_PLACEMENT_3D ( 'NONE', #250, #350, #377 ) ;
#914 = LINE ( 'NONE', #726, #1207 ) ;
#915 = FACE_OUTER_BOUND ( 'NONE', #927, .T. ) ;
#916 = FILL_AREA_STYLE_COLOUR ( '', #1212 ) ;
#917 = VERTEX_POINT ( 'NONE', #886 ) ;
#918 =( NAMED_UNIT ( * ) PLANE_ANGLE_UNIT ( ) SI_UNIT ( $, .RADIAN. ) );
#919 = CLOSED_SHELL ( 'NONE', ( #945, #920, #685, #720, #502, #673 ) ) ;
#920 = ADVANCED_FACE ( 'NONE', ( #701 ), #786, .T. ) ;
#921 = COLOUR_RGB ( '',0.2509803921568627416, 0.2509803921568627416, 0.2509803921568627416 ) ;
#922 =( GEOMETRIC_REPRESENTATION_CONTEXT ( 3 ) GLOBAL_UNCERTAINTY_ASSIGNED_CONTEXT ( ( #564 ) ) GLOBAL_UNIT_ASSIGNED_CONTEXT ( ( #40, #1090, #52 ) ) REPRESENTATION_CONTEXT ( 'NONE', 'WORKASPACE' ) );
#923 = FACE_OUTER_BOUND ( 'NONE', #458, .T. ) ;
#924 =( NAMED_UNIT ( * ) SI_UNIT ( $, .STERADIAN. ) SOLID_ANGLE_UNIT ( ) );
#925 = SURFACE_STYLE_FILL_AREA ( #907 ) ;
#926 = ORIENTED_EDGE ( 'NONE', *, *, #591, .T. ) ;
#927 = EDGE_LOOP ( 'NONE', ( #562, #299, #295, #408 ) ) ;
#928 = PLANE ( 'NONE',  #434 ) ;
#929 = FACE_OUTER_BOUND ( 'NONE', #908, .T. ) ;
#930 = ADVANCED_FACE ( 'NONE', ( #241 ), #705, .F. ) ;
#931 = EDGE_LOOP ( 'NONE', ( #1146, #660, #124, #165 ) ) ;
#932 = VERTEX_POINT ( 'NONE', #615 ) ;
#933 = UNCERTAINTY_MEASURE_WITH_UNIT (LENGTH_MEASURE( 1.000000000000000082E-05 ), #222, 'distance_accuracy_value', 'NONE');
#934 = DIRECTION ( 'NONE',  ( 0.000000000000000000, 0.000000000000000000, -1.000000000000000000 ) ) ;
#935 = LINE ( 'NONE', #744, #428 ) ;
#936 = ADVANCED_FACE ( 'NONE', ( #1046 ), #338, .T. ) ;
#937 = ORIENTED_EDGE ( 'NONE', *, *, #116, .F. ) ;
#938 = EDGE_LOOP ( 'NONE', ( #211, #658, #95, #277 ) ) ;
#939 = CARTESIAN_POINT ( 'NONE',  ( -3.449999999999999289, 3.100000000000000089, 3.749999999999999556 ) ) ;
#940 = CARTESIAN_POINT ( 'NONE',  ( -2.899999999999999911, 3.100000000000000089, -2.249999999999999556 ) ) ;
#941 = VECTOR ( 'NONE', #592, 1000.000000000000000 ) ;
#942 = PRESENTATION_STYLE_ASSIGNMENT (( #166 ) ) ;
#943 = ORIENTED_EDGE ( 'NONE', *, *, #144, .T. ) ;
#944 = ORIENTED_EDGE ( 'NONE', *, *, #1157, .F. ) ;
#945 = ADVANCED_FACE ( 'NONE', ( #717 ), #289, .T. ) ;
#946 = CARTESIAN_POINT ( 'NONE',  ( -1.560000000000000497, 0.3499999999999996447, 3.000000000000000888 ) ) ;
#947 = LINE ( 'NONE', #1044, #105 ) ;
#948 = CARTESIAN_POINT ( 'NONE',  ( -3.449999999999999289, 0.3499999999999996447, -3.749999999999999556 ) ) ;
#949 = FILL_AREA_STYLE ('',( #73 ) ) ;
#950 = VERTEX_POINT ( 'NONE', #809 ) ;
#951 = ORIENTED_EDGE ( 'NONE', *, *, #792, .F. ) ;
#952 = CARTESIAN_POINT ( 'NONE',  ( 3.160000000000000586, 0.3499999999999996447, -3.000000000000000444 ) ) ;
#953 = EDGE_CURVE ( 'NONE', #372, #2, #561, .T. ) ;
#954 = SURFACE_STYLE_FILL_AREA ( #1077 ) ;
#955 = COLOUR_RGB ( '',1.000000000000000000, 1.000000000000000000, 1.000000000000000000 ) ;
#956 = PLANE ( 'NONE',  #1039 ) ;
#957 =( GEOMETRIC_REPRESENTATION_CONTEXT ( 3 ) GLOBAL_UNCERTAINTY_ASSIGNED_CONTEXT ( ( #604 ) ) GLOBAL_UNIT_ASSIGNED_CONTEXT ( ( #44, #798, #593 ) ) REPRESENTATION_CONTEXT ( 'NONE', 'WORKASPACE' ) );
#958 = VERTEX_POINT ( 'NONE', #1 ) ;
#959 = PRESENTATION_LAYER_ASSIGNMENT (  '', '', ( #10 ) ) ;
#960 = ORIENTED_EDGE ( 'NONE', *, *, #811, .T. ) ;
#961 = UNCERTAINTY_MEASURE_WITH_UNIT (LENGTH_MEASURE( 1.000000000000000082E-05 ), #912, 'distance_accuracy_value', 'NONE');
#962 = CARTESIAN_POINT ( 'NONE',  ( 3.160000000000002363, 0.3499999999999996447, 2.999999999999999556 ) ) ;
#963 = LINE ( 'NONE', #223, #50 ) ;
#964 = PRESENTATION_LAYER_ASSIGNMENT (  '', '', ( #781 ) ) ;
#965 = ORIENTED_EDGE ( 'NONE', *, *, #1089, .T. ) ;
#966 = ORIENTED_EDGE ( 'NONE', *, *, #848, .T. ) ;
#967 = DIRECTION ( 'NONE',  ( -1.000000000000000000, 0.000000000000000000, 0.000000000000000000 ) ) ;
#968 =( LENGTH_UNIT ( ) NAMED_UNIT ( * ) SI_UNIT ( .MILLI., .METRE. ) );
#969 =( NAMED_UNIT ( * ) SI_UNIT ( $, .STERADIAN. ) SOLID_ANGLE_UNIT ( ) );
#970 = ORIENTED_EDGE ( 'NONE', *, *, #161, .T. ) ;
#971 = ORIENTED_EDGE ( 'NONE', *, *, #820, .T. ) ;
#972 = DIRECTION ( 'NONE',  ( 0.000000000000000000, 0.000000000000000000, -1.000000000000000000 ) ) ;
#973 = DIRECTION ( 'NONE',  ( 0.000000000000000000, 0.000000000000000000, -1.000000000000000000 ) ) ;
#974 = PLANE ( 'NONE',  #674 ) ;
#975 = PRODUCT_RELATED_PRODUCT_CATEGORY ( 'part', '', ( #94 ) ) ;
#976 = MECHANICAL_DESIGN_GEOMETRIC_PRESENTATION_REPRESENTATION (  '', ( #123 ), #754 ) ;
#977 = ORIENTED_EDGE ( 'NONE', *, *, #1030, .F. ) ;
#978 = EDGE_CURVE ( 'NONE', #199, #477, #1052, .T. ) ;
#979 =( GEOMETRIC_REPRESENTATION_CONTEXT ( 3 ) GLOBAL_UNCERTAINTY_ASSIGNED_CONTEXT ( ( #306 ) ) GLOBAL_UNIT_ASSIGNED_CONTEXT ( ( #1125, #444, #644 ) ) REPRESENTATION_CONTEXT ( 'NONE', 'WORKASPACE' ) );
#980 = VERTEX_POINT ( 'NONE', #755 ) ;
#981 = AXIS2_PLACEMENT_3D ( 'NONE', #131, #778, #17 ) ;
#982 = EDGE_CURVE ( 'NONE', #132, #24, #852, .T. ) ;
#983 = FACE_OUTER_BOUND ( 'NONE', #579, .T. ) ;
#984 = CARTESIAN_POINT ( 'NONE',  ( -3.160000000000000586, 0.3499999999999996447, -2.999999999999999556 ) ) ;
#985 = UNCERTAINTY_MEASURE_WITH_UNIT (LENGTH_MEASURE( 1.000000000000000082E-05 ), #213, 'distance_accuracy_value', 'NONE');
#986 = MECHANICAL_DESIGN_GEOMETRIC_PRESENTATION_REPRESENTATION (  '', ( #457 ), #762 ) ;
#987 = AXIS2_PLACEMENT_3D ( 'NONE', #1150, #129, #973 ) ;
#988 = CARTESIAN_POINT ( 'NONE',  ( 3.160000000000000586, 0.3499999999999996447, -3.000000000000000444 ) ) ;
#989 = PLANE ( 'NONE',  #361 ) ;
#990 = EDGE_CURVE ( 'NONE', #132, #917, #761, .T. ) ;
#991 = DIRECTION ( 'NONE',  ( 0.000000000000000000, 0.000000000000000000, 1.000000000000000000 ) ) ;
#992 = CARTESIAN_POINT ( 'NONE',  ( -3.449999999999999289, 0.3499999999999996447, 3.750000000000000000 ) ) ;
#993 = FACE_OUTER_BOUND ( 'NONE', #1021, .T. ) ;
#994 = ADVANCED_FACE ( 'NONE', ( #1105 ), #956, .F. ) ;
#995 = PRESENTATION_STYLE_ASSIGNMENT (( #520 ) ) ;
#996 = FACE_OUTER_BOUND ( 'NONE', #931, .T. ) ;
#997 = LINE ( 'NONE', #137, #881 ) ;
#998 = DIRECTION ( 'NONE',  ( 0.000000000000000000, 0.000000000000000000, -1.000000000000000000 ) ) ;
#999 = AXIS2_PLACEMENT_3D ( 'NONE', #313, #326, #897 ) ;
#1000 = VECTOR ( 'NONE', #443, 1000.000000000000000 ) ;
#1001 = DIRECTION ( 'NONE',  ( 0.000000000000000000, -1.000000000000000000, 0.000000000000000000 ) ) ;
#1002 = CARTESIAN_POINT ( 'NONE',  ( -3.160000000000000586, 0.000000000000000000, 3.000000000000000444 ) ) ;
#1003 = SURFACE_SIDE_STYLE ('',( #245 ) ) ;
#1004 = AXIS2_PLACEMENT_3D ( 'NONE', #1171, #1167, #148 ) ;
#1005 = DIRECTION ( 'NONE',  ( 1.000000000000000000, 0.000000000000000000, 0.000000000000000000 ) ) ;
#1006 = VECTOR ( 'NONE', #1176, 1000.000000000000000 ) ;
#1007 = FILL_AREA_STYLE_COLOUR ( '', #74 ) ;
#1008 = DIRECTION ( 'NONE',  ( -0.000000000000000000, -0.000000000000000000, 1.000000000000000000 ) ) ;
#1009 = DIRECTION ( 'NONE',  ( -1.000000000000000000, 0.000000000000000000, -2.710505431213761085E-16 ) ) ;
#1010 = EDGE_LOOP ( 'NONE', ( #224, #833, #663, #747 ) ) ;
#1011 = FACE_OUTER_BOUND ( 'NONE', #868, .T. ) ;
#1012 =( LENGTH_UNIT ( ) NAMED_UNIT ( * ) SI_UNIT ( .MILLI., .METRE. ) );
#1013 = ORIENTED_EDGE ( 'NONE', *, *, #1079, .F. ) ;
#1014 =( NAMED_UNIT ( * ) SI_UNIT ( $, .STERADIAN. ) SOLID_ANGLE_UNIT ( ) );
#1015 = ORIENTED_EDGE ( 'NONE', *, *, #626, .T. ) ;
#1016 = VECTOR ( 'NONE', #546, 1000.000000000000000 ) ;
#1017 = AXIS2_PLACEMENT_3D ( 'NONE', #821, #795, #1096 ) ;
#1018 =( LENGTH_UNIT ( ) NAMED_UNIT ( * ) SI_UNIT ( .MILLI., .METRE. ) );
#1019 = UNCERTAINTY_MEASURE_WITH_UNIT (LENGTH_MEASURE( 1.000000000000000082E-05 ), #1112, 'distance_accuracy_value', 'NONE');
#1020 = DIRECTION ( 'NONE',  ( 2.710505431213761085E-16, 0.000000000000000000, -1.000000000000000000 ) ) ;
#1021 = EDGE_LOOP ( 'NONE', ( #380, #19, #1047, #83 ) ) ;
#1022 = CIRCLE ( 'NONE', #837, 0.2999999999999999334 ) ;
#1023 = UNCERTAINTY_MEASURE_WITH_UNIT (LENGTH_MEASURE( 1.000000000000000082E-05 ), #406, 'distance_accuracy_value', 'NONE');
#1024 = EDGE_CURVE ( 'NONE', #950, #692, #390, .T. ) ;
#1025 = PLANE ( 'NONE',  #768 ) ;
#1026 = SURFACE_SIDE_STYLE ('',( #535 ) ) ;
#1027 = LINE ( 'NONE', #464, #570 ) ;
#1028 = EDGE_LOOP ( 'NONE', ( #1053, #506, #447, #26 ) ) ;
#1029 = CARTESIAN_POINT ( 'NONE',  ( -3.160000000000000586, 0.3499999999999996447, -2.999999999999999556 ) ) ;
#1030 = EDGE_CURVE ( 'NONE', #692, #1075, #499, .T. ) ;
#1031 = SURFACE_STYLE_USAGE ( .BOTH. , #376 ) ;
#1032 = ORIENTED_EDGE ( 'NONE', *, *, #706, .F. ) ;
#1033 = ORIENTED_EDGE ( 'NONE', *, *, #249, .F. ) ;
#1034 = DIRECTION ( 'NONE',  ( -1.000000000000000000, 0.000000000000000000, -0.000000000000000000 ) ) ;
#1035 = PLANE ( 'NONE',  #607 ) ;
#1036 = AXIS2_PLACEMENT_3D ( 'NONE', #641, #831, #843 ) ;
#1037 = LINE ( 'NONE', #197, #647 ) ;
#1038 = PRESENTATION_LAYER_ASSIGNMENT (  '', '', ( #335 ) ) ;
#1039 = AXIS2_PLACEMENT_3D ( 'NONE', #625, #311, #407 ) ;
#1040 = EDGE_CURVE ( 'NONE', #932, #1041, #1145, .T. ) ;
#1041 = VERTEX_POINT ( 'NONE', #1058 ) ;
#1042 = VERTEX_POINT ( 'NONE', #29 ) ;
#1043 = CARTESIAN_POINT ( 'NONE',  ( -2.899999999999999911, 3.049999999999999822, -2.249999999999999556 ) ) ;
#1044 = CARTESIAN_POINT ( 'NONE',  ( -2.600000000000000089, 3.049999999999999822, 2.250000000000000444 ) ) ;
#1045 = VECTOR ( 'NONE', #760, 1000.000000000000000 ) ;
#1046 = FACE_OUTER_BOUND ( 'NONE', #525, .T. ) ;
#1047 = ORIENTED_EDGE ( 'NONE', *, *, #751, .F. ) ;
#1048 = SURFACE_SIDE_STYLE ('',( #659 ) ) ;
#1049 = EDGE_LOOP ( 'NONE', ( #867, #746, #824, #290 ) ) ;
#1050 = DIRECTION ( 'NONE',  ( 0.000000000000000000, 1.000000000000000000, 0.000000000000000000 ) ) ;
#1051 = FILL_AREA_STYLE_COLOUR ( '', #909 ) ;
#1052 = LINE ( 'NONE', #1183, #1000 ) ;
#1053 = ORIENTED_EDGE ( 'NONE', *, *, #167, .F. ) ;
#1054 = ADVANCED_FACE ( 'NONE', ( #691 ), #235, .T. ) ;
#1055 = ORIENTED_EDGE ( 'NONE', *, *, #405, .T. ) ;
#1056 = DIRECTION ( 'NONE',  ( 3.614007241618347908E-17, 0.000000000000000000, -1.000000000000000000 ) ) ;
#1057 = SURFACE_STYLE_USAGE ( .BOTH. , #582 ) ;
#1058 = CARTESIAN_POINT ( 'NONE',  ( -3.160000000000000586, 0.000000000000000000, -2.999999999999999556 ) ) ;
#1059 = COLOUR_RGB ( '',1.000000000000000000, 1.000000000000000000, 1.000000000000000000 ) ;
#1060 = ORIENTED_EDGE ( 'NONE', *, *, #617, .T. ) ;
#1061 = AXIS2_PLACEMENT_3D ( 'NONE', #46, #340, #991 ) ;
#1062 = ORIENTED_EDGE ( 'NONE', *, *, #543, .F. ) ;
#1063 = PRESENTATION_LAYER_ASSIGNMENT (  '', '', ( #33 ) ) ;
#1064 = CYLINDRICAL_SURFACE ( 'NONE', #30, 0.2999999999999999334 ) ;
#1065 = PLANE ( 'NONE',  #476 ) ;
#1066 = SURFACE_SIDE_STYLE ('',( #1159 ) ) ;
#1067 =( GEOMETRIC_REPRESENTATION_CONTEXT ( 3 ) GLOBAL_UNCERTAINTY_ASSIGNED_CONTEXT ( ( #373 ) ) GLOBAL_UNIT_ASSIGNED_CONTEXT ( ( #968, #36, #411 ) ) REPRESENTATION_CONTEXT ( 'NONE', 'WORKASPACE' ) );
#1068 = ORIENTED_EDGE ( 'NONE', *, *, #69, .F. ) ;
#1069 = LINE ( 'NONE', #318, #302 ) ;
#1070 = LINE ( 'NONE', #478, #399 ) ;
#1071 =( NAMED_UNIT ( * ) PLANE_ANGLE_UNIT ( ) SI_UNIT ( $, .RADIAN. ) );
#1072 = ADVANCED_FACE ( 'NONE', ( #589 ), #974, .F. ) ;
#1073 = CARTESIAN_POINT ( 'NONE',  ( 3.160000000000000586, 0.000000000000000000, -3.000000000000000444 ) ) ;
#1074 = PRESENTATION_LAYER_ASSIGNMENT (  '', '', ( #123 ) ) ;
#1075 = VERTEX_POINT ( 'NONE', #603 ) ;
#1076 = DIRECTION ( 'NONE',  ( -0.000000000000000000, -1.000000000000000000, -0.000000000000000000 ) ) ;
#1077 = FILL_AREA_STYLE ('',( #567 ) ) ;
#1078 = STYLED_ITEM ( 'NONE', ( #910 ), #696 ) ;
#1079 = EDGE_CURVE ( 'NONE', #199, #863, #963, .T. ) ;
#1080 = PRESENTATION_LAYER_ASSIGNMENT (  '', '', ( #1114 ) ) ;
#1081 = DIRECTION ( 'NONE',  ( 0.000000000000000000, 0.000000000000000000, 1.000000000000000000 ) ) ;
#1082 =( GEOMETRIC_REPRESENTATION_CONTEXT ( 3 ) GLOBAL_UNCERTAINTY_ASSIGNED_CONTEXT ( ( #536 ) ) GLOBAL_UNIT_ASSIGNED_CONTEXT ( ( #394, #676, #969 ) ) REPRESENTATION_CONTEXT ( 'NONE', 'WORKASPACE' ) );
#1083 = CARTESIAN_POINT ( 'NONE',  ( -2.899999999999999911, 3.100000000000000089, 2.250000000000000444 ) ) ;
#1084 = DIRECTION ( 'NONE',  ( 0.000000000000000000, 1.000000000000000000, 0.000000000000000000 ) ) ;
#1085 = DIRECTION ( 'NONE',  ( -1.000000000000000000, 0.000000000000000000, 2.710505431213760592E-16 ) ) ;
#1086 = AXIS2_PLACEMENT_3D ( 'NONE', #159, #1182, #730 ) ;
#1087 = STYLED_ITEM ( 'NONE', ( #995 ), #375 ) ;
#1088 = ORIENTED_EDGE ( 'NONE', *, *, #618, .F. ) ;
#1089 = EDGE_CURVE ( 'NONE', #816, #950, #485, .T. ) ;
#1090 =( NAMED_UNIT ( * ) PLANE_ANGLE_UNIT ( ) SI_UNIT ( $, .RADIAN. ) );
#1091 = DIRECTION ( 'NONE',  ( 0.000000000000000000, 1.000000000000000000, 0.000000000000000000 ) ) ;
#1092 = ORIENTED_EDGE ( 'NONE', *, *, #749, .T. ) ;
#1093 = ORIENTED_EDGE ( 'NONE', *, *, #58, .T. ) ;
#1094 = CARTESIAN_POINT ( 'NONE',  ( 3.160000000000002363, 0.3499999999999996447, 2.999999999999999556 ) ) ;
#1095 = SURFACE_SIDE_STYLE ('',( #608 ) ) ;
#1096 = DIRECTION ( 'NONE',  ( 0.000000000000000000, -0.000000000000000000, 1.000000000000000000 ) ) ;
#1097 = AXIS2_PLACEMENT_3D ( 'NONE', #450, #89, #473 ) ;
#1098 = VECTOR ( 'NONE', #1056, 1000.000000000000000 ) ;
#1099 = DIRECTION ( 'NONE',  ( 0.000000000000000000, -0.000000000000000000, -1.000000000000000000 ) ) ;
#1100 = SURFACE_STYLE_FILL_AREA ( #328 ) ;
#1101 = PRESENTATION_LAYER_ASSIGNMENT (  '', '', ( #303 ) ) ;
#1102 = PLANE ( 'NONE',  #387 ) ;
#1103 = DIRECTION ( 'NONE',  ( -0.000000000000000000, -0.000000000000000000, 1.000000000000000000 ) ) ;
#1104 = SURFACE_SIDE_STYLE ('',( #63 ) ) ;
#1105 = FACE_OUTER_BOUND ( 'NONE', #1010, .T. ) ;
#1106 =( NAMED_UNIT ( * ) PLANE_ANGLE_UNIT ( ) SI_UNIT ( $, .RADIAN. ) );
#1107 = FACE_OUTER_BOUND ( 'NONE', #1028, .T. ) ;
#1108 = DIRECTION ( 'NONE',  ( -1.000000000000000000, -0.000000000000000000, -0.000000000000000000 ) ) ;
#1109 = MANIFOLD_SOLID_BREP ( 'Cut-Extrude1', #232 ) ;
#1110 = FILL_AREA_STYLE ('',( #916 ) ) ;
#1111 = VERTEX_POINT ( 'NONE', #111 ) ;
#1112 =( LENGTH_UNIT ( ) NAMED_UNIT ( * ) SI_UNIT ( .MILLI., .METRE. ) );
#1113 = ADVANCED_FACE ( 'NONE', ( #686 ), #783, .F. ) ;
#1114 = STYLED_ITEM ( 'NONE', ( #514 ), #920 ) ;
#1115 = SURFACE_STYLE_FILL_AREA ( #255 ) ;
#1116 = SURFACE_STYLE_FILL_AREA ( #203 ) ;
#1117 = EDGE_LOOP ( 'NONE', ( #386, #486, #844, #775 ) ) ;
#1118 = EDGE_CURVE ( 'NONE', #932, #494, #807, .T. ) ;
#1119 = AXIS2_PLACEMENT_3D ( 'NONE', #441, #1020, #1009 ) ;
#1120 = FILL_AREA_STYLE_COLOUR ( '', #1151 ) ;
#1121 = DIRECTION ( 'NONE',  ( 1.000000000000000000, 0.000000000000000000, -0.000000000000000000 ) ) ;
#1122 = PLANE ( 'NONE',  #1036 ) ;
#1123 = PRODUCT_DEFINITION_SHAPE ( 'NONE', 'NONE',  #1185 ) ;
#1124 = EDGE_LOOP ( 'NONE', ( #1033, #670, #885, #409 ) ) ;
#1125 =( LENGTH_UNIT ( ) NAMED_UNIT ( * ) SI_UNIT ( .MILLI., .METRE. ) );
#1126 = LINE ( 'NONE', #829, #1170 ) ;
#1127 = EDGE_CURVE ( 'NONE', #495, #267, #280, .T. ) ;
#1128 = CARTESIAN_POINT ( 'NONE',  ( 3.160000000000002363, 0.3499999999999996447, 2.999999999999999556 ) ) ;
#1129 = VERTEX_POINT ( 'NONE', #814 ) ;
#1130 = ORIENTED_EDGE ( 'NONE', *, *, #412, .F. ) ;
#1131 = LINE ( 'NONE', #842, #370 ) ;
#1132 = MECHANICAL_DESIGN_GEOMETRIC_PRESENTATION_REPRESENTATION (  '', ( #47 ), #258 ) ;
#1133 = STYLED_ITEM ( 'NONE', ( #27 ), #804 ) ;
#1134 = DIRECTION ( 'NONE',  ( -3.614007241618347908E-17, 0.000000000000000000, 1.000000000000000000 ) ) ;
#1135 = VECTOR ( 'NONE', #1008, 1000.000000000000000 ) ;
#1136 = ORIENTED_EDGE ( 'NONE', *, *, #763, .F. ) ;
#1137 = VERTEX_POINT ( 'NONE', #708 ) ;
#1138 = LINE ( 'NONE', #952, #107 ) ;
#1139 = VECTOR ( 'NONE', #218, 1000.000000000000000 ) ;
#1140 = VECTOR ( 'NONE', #904, 1000.000000000000000 ) ;
#1141 = FILL_AREA_STYLE ('',( #121 ) ) ;
#1142 = ORIENTED_EDGE ( 'NONE', *, *, #497, .T. ) ;
#1143 = VERTEX_POINT ( 'NONE', #243 ) ;
#1144 = UNCERTAINTY_MEASURE_WITH_UNIT (LENGTH_MEASURE( 1.000000000000000082E-05 ), #1012, 'distance_accuracy_value', 'NONE');
#1145 = LINE ( 'NONE', #984, #381 ) ;
#1146 = ORIENTED_EDGE ( 'NONE', *, *, #125, .T. ) ;
#1147 = ORIENTED_EDGE ( 'NONE', *, *, #982, .T. ) ;
#1148 = EDGE_CURVE ( 'NONE', #267, #181, #802, .T. ) ;
#1149 = SURFACE_SIDE_STYLE ('',( #202 ) ) ;
#1150 = CARTESIAN_POINT ( 'NONE',  ( 3.750000000000000444, -10.60660171779821326, 3.449999999999999734 ) ) ;
#1151 = COLOUR_RGB ( '',0.7921568627450980005, 0.8196078431372548767, 0.9333333333333333481 ) ;
#1152 = SURFACE_STYLE_FILL_AREA ( #23 ) ;
#1153 = MECHANICAL_DESIGN_GEOMETRIC_PRESENTATION_REPRESENTATION (  '', ( #528 ), #244 ) ;
#1154 = VERTEX_POINT ( 'NONE', #1002 ) ;
#1155 = VECTOR ( 'NONE', #568, 1000.000000000000000 ) ;
#1156 = DIRECTION ( 'NONE',  ( 3.614007241618347908E-17, 0.000000000000000000, -1.000000000000000000 ) ) ;
#1157 = EDGE_CURVE ( 'NONE', #774, #470, #429, .T. ) ;
#1158 = VECTOR ( 'NONE', #231, 1000.000000000000000 ) ;
#1159 = SURFACE_STYLE_FILL_AREA ( #210 ) ;
#1160 = AXIS2_PLACEMENT_3D ( 'NONE', #9, #389, #382 ) ;
#1161 = ORIENTED_EDGE ( 'NONE', *, *, #591, .F. ) ;
#1162 = DIRECTION ( 'NONE',  ( 0.000000000000000000, 0.000000000000000000, 1.000000000000000000 ) ) ;
#1163 = CARTESIAN_POINT ( 'NONE',  ( -2.600000000000000089, 3.100000000000000089, 2.250000000000000444 ) ) ;
#1164 = EDGE_CURVE ( 'NONE', #1041, #1154, #71, .T. ) ;
#1165 = PRESENTATION_STYLE_ASSIGNMENT (( #870 ) ) ;
#1166 = ORIENTED_EDGE ( 'NONE', *, *, #840, .T. ) ;
#1167 = DIRECTION ( 'NONE',  ( -0.000000000000000000, -1.000000000000000000, -0.000000000000000000 ) ) ;
#1168 = DIRECTION ( 'NONE',  ( -0.000000000000000000, -0.000000000000000000, 1.000000000000000000 ) ) ;
#1169 = EDGE_CURVE ( 'NONE', #217, #932, #1189, .T. ) ;
#1170 = VECTOR ( 'NONE', #739, 1000.000000000000000 ) ;
#1171 = CARTESIAN_POINT ( 'NONE',  ( 3.450000000000000622, 0.3499999999999996447, 3.449999999999999734 ) ) ;
#1172 = COLOUR_RGB ( '',0.2509803921568627416, 0.2509803921568627416, 0.2509803921568627416 ) ;
#1173 = DIRECTION ( 'NONE',  ( -1.000000000000000000, 0.000000000000000000, 0.000000000000000000 ) ) ;
#1174 =( NAMED_UNIT ( * ) PLANE_ANGLE_UNIT ( ) SI_UNIT ( $, .RADIAN. ) );
#1175 = VECTOR ( 'NONE', #141, 1000.000000000000000 ) ;
#1176 = DIRECTION ( 'NONE',  ( 1.000000000000000000, 0.000000000000000000, 0.000000000000000000 ) ) ;
#1177 = DIRECTION ( 'NONE',  ( -1.000000000000000000, 0.000000000000000000, -0.000000000000000000 ) ) ;
#1178 = CARTESIAN_POINT ( 'NONE',  ( -2.899999999999999911, 3.100000000000000089, -2.249999999999999556 ) ) ;
#1179 = CARTESIAN_POINT ( 'NONE',  ( -3.160000000000000586, 0.3499999999999996447, 3.000000000000000444 ) ) ;
#1180 = DIRECTION ( 'NONE',  ( -0.000000000000000000, 0.000000000000000000, 1.000000000000000000 ) ) ;
#1181 = VECTOR ( 'NONE', #75, 1000.000000000000000 ) ;
#1182 = DIRECTION ( 'NONE',  ( 0.000000000000000000, 0.000000000000000000, -1.000000000000000000 ) ) ;
#1183 = CARTESIAN_POINT ( 'NONE',  ( -2.899999999999999911, 3.049999999999999822, 2.250000000000000444 ) ) ;
#1184 = VECTOR ( 'NONE', #841, 1000.000000000000000 ) ;
#1185 = PRODUCT_DEFINITION ( 'UNKNOWN', '', #878, #56 ) ;
#1186 = ADVANCED_FACE ( 'NONE', ( #53 ), #347, .T. ) ;
#1187 = PLANE ( 'NONE',  #601 ) ;
#1188 = MECHANICAL_DESIGN_GEOMETRIC_PRESENTATION_REPRESENTATION (  '', ( #33 ), #133 ) ;
#1189 = LINE ( 'NONE', #151, #575 ) ;
#1190 = FACE_OUTER_BOUND ( 'NONE', #102, .T. ) ;
#1191 = CARTESIAN_POINT ( 'NONE',  ( 3.450000000000000622, -10.60660171779821326, 3.449999999999999734 ) ) ;
#1192 = CIRCLE ( 'NONE', #439, 0.2999999999999994893 ) ;
#1193 = CARTESIAN_POINT ( 'NONE',  ( -3.449999999999999289, 0.3499999999999996447, 3.749999999999999556 ) ) ;
#1194 = CARTESIAN_POINT ( 'NONE',  ( -2.600000000000000089, 3.049999999999999822, 2.250000000000000444 ) ) ;
#1195 = EDGE_CURVE ( 'NONE', #556, #765, #914, .T. ) ;
#1196 = EDGE_CURVE ( 'NONE', #103, #475, #505, .T. ) ;
#1197 = SURFACE_STYLE_USAGE ( .BOTH. , #198 ) ;
#1198 = ORIENTED_EDGE ( 'NONE', *, *, #325, .F. ) ;
#1199 = CARTESIAN_POINT ( 'NONE',  ( -3.449999999999999289, 3.100000000000000089, -3.749999999999999556 ) ) ;
#1200 = ADVANCED_FACE ( 'NONE', ( #996 ), #239, .F. ) ;
#1201 = PLANE ( 'NONE',  #1119 ) ;
#1202 = ORIENTED_EDGE ( 'NONE', *, *, #978, .T. ) ;
#1203 = STYLED_ITEM ( 'NONE', ( #548 ), #690 ) ;
#1204 =( NAMED_UNIT ( * ) SI_UNIT ( $, .STERADIAN. ) SOLID_ANGLE_UNIT ( ) );
#1205 = VECTOR ( 'NONE', #127, 1000.000000000000000 ) ;
#1206 = FILL_AREA_STYLE_COLOUR ( '', #521 ) ;
#1207 = VECTOR ( 'NONE', #139, 1000.000000000000000 ) ;
#1208 = APPLICATION_PROTOCOL_DEFINITION ( 'draft international standard', 'automotive_design', 1998, #538 ) ;
#1209 = DIRECTION ( 'NONE',  ( -2.891205793294678326E-16, 0.000000000000000000, -1.000000000000000000 ) ) ;
#1210 = ORIENTED_EDGE ( 'NONE', *, *, #1040, .T. ) ;
#1211 = ORIENTED_EDGE ( 'NONE', *, *, #35, .T. ) ;
#1212 = COLOUR_RGB ( '',0.2509803921568627416, 0.2509803921568627416, 0.2509803921568627416 ) ;
#1213 = SURFACE_STYLE_FILL_AREA ( #345 ) ;
#1214 = DIRECTION ( 'NONE',  ( 0.000000000000000000, 0.000000000000000000, 1.000000000000000000 ) ) ;
#1215 = EDGE_LOOP ( 'NONE', ( #880, #452, #442, #182 ) ) ;
#1216 = EDGE_LOOP ( 'NONE', ( #395, #569, #643, #585 ) ) ;
#1217 = CARTESIAN_POINT ( 'NONE',  ( -3.160000000000000586, 0.3499999999999996447, 3.000000000000000444 ) ) ;
#1218 = DIRECTION ( 'NONE',  ( 0.000000000000000000, 0.000000000000000000, -1.000000000000000000 ) ) ;
#1219 = FILL_AREA_STYLE_COLOUR ( '', #712 ) ;
ENDSEC;
END-ISO-10303-21;
